<svg xmlns="http://www.w3.org/2000/svg" width="2575.9234" height="1551.9997" viewBox="0 0 2575.9234 1551.9997"><defs><style>.a{fill:#deebe9;}.b{fill:#bed5dc;}.c{fill:#b2c9c6;}.d{fill:#cfd3a3;}.e{fill:#c4c695;}.f{opacity:0.6;}.g{opacity:0.5;}.h{fill:#74a1bd;}.i{fill:#6f4975;}.j{fill:#2f1a31;}.k{fill:#436e8e;}.l{fill:#f7b686;}.m{fill:#fff;}.n{fill:#db6b49;}.o{fill:#060633;}.p{opacity:0.3;}.q{fill:#e08b65;}.r{fill:#dd8964;}.s{fill:#020202;}.t{fill:#e28569;}.u{fill:#96b4e0;}.v{fill:#c4d7d4;}.w{fill:#9bbcb6;}.x{fill:#96a7e2;}.y{fill:#56335b;}.z{fill:#cc6e58;}.aa{fill:#efac7f;}</style></defs><title>Asset 1</title><path class="a" d="M2240.1,1537.9552c-214.4355,24.6221-435.3584,14.3633-886.7646-11.4024-253.4737-14.4677-763.1221,9.503-1017.5117,11.4024C150.3609,1539.34,0,1412.337,0,1257.379V291.01C0,136.0524,150.6743,1.3194,335.8238,10.4342c171.94,8.4648,424.8447,41.9751,688.4794,21.4565C1337.856,7.4864,1933.0025-13.25,2240.1,10.4342c184.6856,14.2441,335.8233,125.6182,335.8233,280.5757V1257.379C2575.9234,1412.337,2423.8433,1516.8575,2240.1,1537.9552Z"/><ellipse class="b" cx="1292.4763" cy="1300.8846" rx="1170.0022" ry="108.2327"/><path class="c" d="M776.356,373.712c-12.8018,12.6-20.6113,12.28-25.55,7.2627s-5.1338-12.831,7.666-25.4306c23.3174-22.9512,43.5283-24.961,43.5283-24.961S800.0122,350.4269,776.356,373.712Z"/><path class="c" d="M871.0347,782.2384l-3.3584.541c-.082-.5156-8.7773-52.5488-44.7178-122.9268-33.166-64.9345-96.9746-159.2168-212.6338-239.6113l1.9385-2.791c116.2988,80.8369,180.4512,175.6719,213.79,240.9932C862.2017,729.2648,870.95,781.7169,871.0347,782.2384Z"/><path class="c" d="M733.356,525.2335l-3.2237-1.0781c39.18-117.0684-30.5458-229.6787-31.2548-230.8028l2.875-1.8134C702.47,292.6759,773.0572,406.61,733.356,525.2335Z"/><path class="c" d="M670.2476,484.2472c-33.4844,8.4306-63.01-1.9629-63.3477-2.085l1.1533-3.1963c.376.1348,38.2012,13.4033,76.1573-3.0293l1.3506,3.1192A100.0859,100.0859,0,0,1,670.2476,484.2472Z"/><path class="c" d="M603.4947,402.4161c21.4023,11.3408,25.0966,19.7569,21.8,25.9766s-12.334,7.8906-33.7364-3.4512c-38.9873-20.6592-51.8613-41.9062-51.8613-41.9062S563.94,381.4562,603.4947,402.4161Z"/><path class="c" d="M613.0572,469.2794c23.8261,4.3594,29.8857,11.27,28.6181,18.1943-1.2666,6.9258-9.3818,11.2413-33.207,6.8829-43.4014-7.9434-62.084-24.3213-62.084-24.3213S569.023,461.22,613.0572,469.2794Z"/><path class="c" d="M690.7417,423.2462c8.2422,15.958,5.6231,23.3242-.6308,26.5547s-13.7774,1.1035-22.02-14.8545c-15.0136-29.07-10.9463-48.97-10.9463-48.97S675.5083,393.754,690.7417,423.2462Z"/><path class="c" d="M705.34,276.4357c11.2255,21.4628,9.5068,30.4921,3.2685,33.7539s-14.6338-.4766-25.8584-21.94c-20.4482-39.0986-19.0351-63.9028-19.0351-63.9028S684.5943,236.7672,705.34,276.4357Z"/><path class="c" d="M839.2681,897.7853S393.357,424.797,240.3516,559.4464C87.3448,694.0929,625.3579,805.3526,749.81,947.4552Z"/><path class="c" d="M789.4712,926.0118c-84.164-99.7021-209.1777-178.249-299.2295-226.5849-97.6289-52.4014-176.29-81.5489-177.0742-81.8379l1.8018-4.8907c.7861.2891,79.7929,29.5635,177.7392,82.1358,90.45,48.5508,216.0518,127.4853,300.7442,227.8135Z"/><path class="d" d="M363.2964,1067.1183c89.6406,17.4238,77.669,152.81,178.8242,125.6035,101.16-27.2676,92.5909-33.5986,142.4346,9.539,0,0,19.9463,42.2891,60.5381,48.5293,160.16,24.625,373.3428-215.9628,204.1221-342.4853-12.2188-9.1357-29.795-12.3809-49.2315-15.0068C794.55,879.1232,762.8257,928.0538,677.4253,805.963c-85.4287-122.123-194.0361,57.8477-264.6426,53.0889-70.6045-4.76-133.1582-24.5811-186.4917,51.2568C172.9517,986.2071,273.65,1049.755,363.2964,1067.1183Z"/><path class="e" d="M902.0083,1081.0616l3.2451-5.0527c-2.2255-1.4307-228.1845-143.2334-691.163-144.2275l-.0132,6.0087C675.3169,938.7814,899.7915,1079.64,902.0083,1081.0616Z"/><path class="e" d="M610.3013,908.4747c59.8711-56.2285,69.6865-100.0664,70.0742-101.9023l-5.876-1.2471c-.0918.4326-9.9707,43.98-68.3134,98.7725Z"/><path class="e" d="M601.106,973.4825c16.5049-30.5869,13.956-74.1054-7.3672-125.85a401.4277,401.4277,0,0,0-37.2852-69.2558l-4.9121,3.4531c.8262,1.1758,82.2285,118.4717,44.2764,188.8037Z"/><path class="e" d="M479.0972,965.6261c7.1328-6.2334,10.9766-10.2686,11.15-10.4541l-4.3819-4.1055c-.8017.8574-81.8144,85.7363-204.062,84.6494l-.0517,6.003C380.2564,1042.5958,452.5142,988.8507,479.0972,965.6261Z"/><path class="e" d="M422.0357,1105.756c27.2187-31.6983,34.5136-62.95,35.84-83.586,1.4453-22.4609-3.5576-37.2656-3.7695-37.8867l-5.6807,1.957c.1944.5684,18.8887,57.5684-30.9492,115.6045Z"/><g class="f"><path class="c" d="M1767.0445,908.9513s148.1972-523.2627,288.6728-477.7158-176.9951,328.6289-215.31,482.3212Z"/></g><path class="d" d="M1626.4019,1105.7491s329.5429-570.124,511.7373-472.9853-322.3526,332.0625-411.9766,501.1338Z"/><path class="e" d="M1682.0689,1121.9864c59.7724-117.8886,164.7441-224.43,242.2773-293.0449,84.0586-74.3887,154.8281-121.4365,155.5342-121.9033l-2.9141-4.4024c-.708.4668-71.789,47.72-156.12,122.3506-77.8779,68.9209-183.3379,175.98-243.4873,294.61Z"/><path class="c" d="M2255.9439,1069.3575c-75.4014,21.583-55.0772,136.5313-143.6543,120.7842-74.917-13.3613-81.5684-19.7529-105.6914,3.1641a120.7334,120.7334,0,0,0-20.9912,26.8027c-6.8877,11.8076-20.53,29.4307-42.6612,34.8311-135.2041,32.9961-335.5224-156.9825-200.1533-277.8389,9.7744-8.7275,24.5713-12.8115,41.0049-16.5059,89.1562-19.9795,119.9443,19.5244,183.9238-91.2978,64.002-110.8526,170.33,35.0478,230.3877,25.7187s112.1026-30.9472,163.3838,29.97C2412.7818,985.9552,2331.354,1047.8263,2255.9439,1069.3575Z"/><g class="g"><path class="h" d="M1796.0474,1121.4005l-3.1524-4.0811c1.7969-1.3906,184.5743-139.5459,580.6358-174.8691l.459,5.1387C1979.4156,982.7823,1797.8374,1120.0177,1796.0474,1121.4005Z"/><path class="h" d="M2032.7876,952.01c-55.4131-43.6524-67.0771-80.43-67.5449-81.9727l4.9346-1.5039c.11.3643,11.8056,36.8877,65.8056,79.4248Z"/><path class="h" d="M2045.4956,1006.9474c-16.3984-24.9414-17.458-62.3672-3.0664-108.2276a344.616,344.616,0,0,1,26.7451-62.0332l4.459,2.5879c-.6191,1.0684-61.5342,107.49-23.8252,164.8418Z"/><path class="h" d="M2149.3052,991.14c-6.5684-4.8008-10.1562-7.9678-10.32-8.1133l3.4443-3.8389c.75.6738,76.3858,67.2656,180.9033,57.2334l.4922,5.1318C2239.606,1049.6378,2173.7779,1009.0323,2149.3052,991.14Z"/><path class="h" d="M2208.562,1106.7892c-25.6494-25.0938-34.2187-51.291-36.89-68.8477-2.9082-19.1113.2695-32.1514.4043-32.6992l5.0058,1.2519c-.124.501-11.875,50.6641,35.09,96.6094Z"/></g><path class="c" d="M2348.9839,821.4825c24.9834-4.2871,33.7764,2.375,35.4561,12.168,1.68,9.791-4.39,19.0039-29.3711,23.291-45.5078,7.8086-70.5449-6.1474-70.5449-6.1474S2302.813,829.4054,2348.9839,821.4825Z"/><path class="c" d="M1926.145,378.0177c5.4356-24.7578,14.92-30.3936,24.6231-28.2637,9.7031,2.1318,15.9531,11.2236,10.5156,35.9815-9.9023,45.0976-32.26,63.0361-32.26,63.0361S1916.0972,423.7735,1926.145,378.0177Z"/><path class="i" d="M1890.27,1290.1241l-1148.6982-12.17c-24.5908-.2607-44.3779-18.7383-44.3779-41.4424V589.2286c0-22.6426,19.6826-41.0947,44.2051-41.44L1875.28,531.7569c24.7041-.35,45.07,17.7979,45.57,40.6026l14.8184,675.4814C1936.1822,1271.2413,1915.62,1290.3917,1890.27,1290.1241Z"/><path class="c" d="M764.27,590.8536h1088.6a22.5644,22.5644,0,0,1,22.5644,22.5644v589.6749a22.5635,22.5635,0,0,1-22.5635,22.5635H764.2691a22.5635,22.5635,0,0,1-22.5635-22.5635V613.4181A22.5645,22.5645,0,0,1,764.27,590.8536Z"/><path class="j" d="M1610.2642,774.6017s-4.6436,30.292-17.001,45.7324c-8.1445,10.1777-30.6133,30.3359-14.6348,37.0537,12.7618,5.3633,37.336-18.5195,45.3125-24.46s20.0069-17.1875,17.3389-26.7695c-5.5273-19.8525-3.7051-44.8086-3.7051-44.8086Z"/><path class="j" d="M1671.9673,751.1085s6.1777,30.0166-.0391,48.7891c-4.0986,12.3759-18.1562,39.0888-.84,39.831,13.83.5928,28.5684-30.3447,33.9814-38.6885s12.7823-23.07,6.9493-31.1279c-12.084-16.6924-19.0528-40.7246-19.0528-40.7246Z"/><path class="k" d="M1663.3081,772.32c-165.65-110.4961-157.47-207.2969-134.5127-245.1523,26.66-43.9639,68.8731-78.7276,133.5684-94.2344a358.41,358.41,0,0,1,47.3848-7.9023,33.1355,33.1355,0,0,1,36.4511,33.833l-1.4843,56.374.125.0029c-27.6377-.5791-111.4893,7.8487-133.46,52.5313-4.5664,9.2881,106.9394,140.2549,102.7773,163.7539C1709.4507,758.1124,1679.5054,783.1241,1663.3081,772.32Z"/><path class="k" d="M1599.0786,788.8692a32.9984,32.9984,0,0,1-33.1191-34.9238c2.498-42.2783,10.3525-114.2334,34.9727-168.6,13.9628-30.832,36.1621-58.8662,65.9814-83.3232,22.4854-18.4414,49.3945-34.9229,79.9814-48.9873,50.875-23.3936,87.5176-20.1309,87.5176-20.1309l27.8037,41c-.3681.0742,7.7979,41.3564-50.9814,78.167-32.43,20.31-97.626,32.7217-124.4473,85.2119-19.1465,37.4717-26.4638,87.1563-28.8965,121.877a31.8246,31.8246,0,0,1-31.6074,29.5732Z"/><path class="l" d="M1636.9107,287.586s-34.166,52.5655-46.4063,130.4893c-8.1,51.5645,85.7393-8.4648,85.7393-8.4648l4.1738-107.7188Z"/><path class="d" d="M1807.7075,257.8756s-26.0244-44.4834-86.0156-30.8325-84.4316,74.9238-88.73,222.0674c0,0,36.0274,63.7519,199.916,51.3232,18.1582-1.377,44.18-3.7773,35.3057-33.2217C1851.688,412.48,1835.7085,303.3107,1807.7075,257.8756Z"/><path class="d" d="M1873.7007,270.8658l-61.707,11.5982s-107.9024,31.9121-138.1094,32.164-42.708-21.8408-42.708-21.8408,24.3623-41.3535,75.4238-60.8647a148.276,148.276,0,0,1,15.09-4.876c8.8447-2.34,17.834-4.3906,26.832-4.4932C1850.38,221.3849,1873.7007,270.8658,1873.7007,270.8658Z"/><path class="j" d="M1873.7007,270.8658c1.335,4.8648-11.6,12.982-28.8906,18.13s-32.39,5.3789-33.7236.5146c-1.336-4.8652,11.6-12.9824,28.89-18.1308C1857.2681,266.2311,1872.3667,266.0011,1873.7007,270.8658Z"/><path class="l" d="M1748.4156,222.5616a18.2882,18.2882,0,0,1-16.6778-7.93l-11.6064-17.1675-3.3682-4.9834L1696.96,163.1827l8.668,32.6162,5.205,19.5772,1.4844,5.58a9.191,9.191,0,0,1-5.64,10.937l-.0772.0293c-1.6885,4.44-3.5293,13.1645,7.17,14.456,12.5723,1.52,29.9727-11.4575,34.752-23.8252C1748.4859,222.5558,1748.4507,222.5592,1748.4156,222.5616Z"/><path class="h" d="M1733.3013,150.6344s-.2481,5.6714,4.9863,16.2007c7.6582,15.4067-9.6494,25.7343-15.291,21.9946-.6973-.4624-5.1787-28.2905-5.1787-28.2905l5.2725-4.6621Z"/><path class="j" d="M1720.062,196.91q.0426.2762.0694.5542c1.2383,10.81-9.2178,17.9575-9.2178,17.9575l-.0811-.0454-5.205-19.5767c3.2431-1.94,7.959-4.1963,11.1357-3.3183C1718.4243,192.94,1719.6636,194.2535,1720.062,196.91Z"/><path class="l" d="M1665.3941,174.6632c-4.0244-21.17,6.624-40.9761,23.7832-44.2383s34.332,11.2554,38.3564,32.4258-6.624,40.9766-23.7832,44.2383S1669.4175,195.8331,1665.3941,174.6632Z"/><path class="h" d="M1678.564,141.673c1.0869,1.0136-.0547,21.6626,37.373,19.4267s7.0557-42.3867-20.09-38.2646c-39.1963,5.9521-39.8867,33.1987-34.3574,41.9057S1678.564,141.673,1678.564,141.673Z"/><path class="h" d="M1730.2622,106.7286s-14.3232,14.0972.2637,22.03,50.16,5.8545,44.0068,25.09-9.4462,46.6269,8.208,46.6157c17.6563-.0108,28.14-3.3413,37.66,8.9s38.8516-2.0327,33.2578-17.6973,18.2139-34.9106,4.0293-47.6035-44.41-20.33-55.0351-38.3828S1741.92,95.8136,1730.2622,106.7286Z"/><path class="h" d="M1710.7163,155.587s17.92,12.9014,15.8018,29.9751c0,0,6.86-11.1074,6.3809-14.6753s-5.2061-15.8843-5.2061-15.8843Z"/><path class="l" d="M1724.4771,169.422c-2.88,4.0293-7.7364,5.3091-10.8448,2.8589s-3.2939-7.7036-.414-11.7334,7.7363-5.31,10.8447-2.8589S1727.3579,165.3922,1724.4771,169.422Z"/><path class="m" d="M1819.773,209.5309c-4.5967-17.295-14.79-18.0743-25.5821-18.899a56.07,56.07,0,0,1-12.93-2.0185,6.6393,6.6393,0,0,1-4.1807-3.3174c-1.916-3.896.3057-10.0376,2.8769-17.1479,3.7471-10.3584,7.9922-22.0982,1.6563-31.2115a42.7667,42.7667,0,0,0-31.03-18.4243c-10.8056.6821-16.4062-.5288-17.0508-3.709-.6494-3.2094,4.4082-6.78,6.2745-7.4336,15.1269-5.2915,32.6191-7.4267,57.9589,12.6,19.9834,15.7945,18.6114,24.6822,16.8741,35.9346-.3838,2.4839-.7793,5.0518-.962,7.8423a6.3084,6.3084,0,0,0,1.4151,5.0024c2.4414,2.5772,7.8877,2.51,13.1592,2.4507,6.8125-.081,13.8584-.1636,15.7568,5.2525,1.4844,4.2358-.2041,9.2714-1.8369,14.1411-1.6738,4.99-3.2539,9.7036-1.3086,13.0014,1.27,2.1534,3.98,3.5835,8.2832,4.3711l-.2324,1.2783c-4.6973-.8593-7.6973-2.4912-9.17-4.9892-2.2481-3.8086-.5762-8.7949,1.1953-14.0747,1.5625-4.6621,3.18-9.4824,1.8418-13.2988-1.5889-4.5347-7.877-4.4624-14.5137-4.3819-5.5488.0659-11.2852.1323-14.1182-2.8564a7.6183,7.6183,0,0,1-1.7695-5.981c.1865-2.8476.5879-5.4443.9756-7.956,1.6728-10.834,2.9941-19.3916-16.3965-34.7163-24.8457-19.6373-41.9453-17.563-56.7227-12.3931-1.7968.6284-5.8652,3.8037-5.43,5.9482.2187,1.0874,2.1875,3.5259,15.7568,2.669a44.0737,44.0737,0,0,1,32.1172,18.98c6.72,9.6656,2.1611,22.2686-1.501,32.3956-2.4707,6.832-4.6045,12.7324-2.9336,16.1323a5.3258,5.3258,0,0,0,3.4121,2.6528,55.0168,55.0168,0,0,0,12.6309,1.96c11.2656.8613,21.9062,1.6748,26.7392,19.8608Z"/><path class="m" d="M1709.6978,149.628c-11.6084,0-19.07-7.9951-19.1533-8.0854l.873-.8c.0889.0967,8.999,9.6011,22.3594,7.3574l.1963,1.168A25.7136,25.7136,0,0,1,1709.6978,149.628Z"/><path class="i" d="M1675.7456,197.7565a12.0419,12.0419,0,0,1-7.1259-.8921,16.5063,16.5063,0,0,1-8.49-9.2969c-3.0263-7.9136-.0742-16.4741,6.5811-19.082a11.7439,11.7439,0,0,1,9.0781.3295,16.5071,16.5071,0,0,1,8.4912,9.2964c3.0264,7.9146.0742,16.4742-6.581,19.0826A11.0525,11.0525,0,0,1,1675.7456,197.7565Zm-6.94-29.086a10.2427,10.2427,0,0,0-1.8164.5225c-6.2686,2.457-9.0283,10.5776-6.1494,18.103a15.7433,15.7433,0,0,0,8.0879,8.8731,10.99,10.99,0,0,0,8.4931.3173c6.27-2.4565,9.0284-10.5771,6.1494-18.103a15.7422,15.7422,0,0,0-8.0888-8.8735A11.28,11.28,0,0,0,1668.8052,168.6705Z"/><path class="i" d="M1705.0064,187.8092a12.021,12.021,0,0,1-7.1231-.8916,16.5022,16.5022,0,0,1-8.4912-9.2964c-3.0273-7.9136-.0752-16.4741,6.582-19.082a11.7386,11.7386,0,0,1,9.0762.3291,16.5045,16.5045,0,0,1,8.4912,9.2968h0c3.0274,7.9141.0752,16.4737-6.582,19.0816A10.922,10.922,0,0,1,1705.0064,187.8092Zm-6.9395-29.0855a10.1307,10.1307,0,0,0-1.8154.5235c-6.27,2.456-9.0274,10.5771-6.1494,18.1025a15.744,15.744,0,0,0,8.0869,8.8736,10.99,10.99,0,0,0,8.4941.3159c6.2686-2.4561,9.0274-10.5767,6.1494-18.1021h0a15.748,15.748,0,0,0-8.0878-8.874A11.29,11.29,0,0,0,1698.0669,158.7237Z"/><path class="i" d="M1680.87,180.2325a.38.38,0,0,1-.3477-.6357c.1455-.1509,3.62-3.7,10.8086-3.981a.38.38,0,1,1,.0293.7593c-6.8652.2676-10.2539,3.7129-10.2881,3.7476A.3773.3773,0,0,1,1680.87,180.2325Z"/><path class="n" d="M1684.022,196.8229a68.651,68.651,0,0,0,20.5645-7.5186s2.87,10.293-8.4913,13.1792C1689.4878,204.1617,1684.022,196.8229,1684.022,196.8229Z"/><path class="m" d="M1684.022,196.8229s2.9736,1.6425,8.96.4775,11.6045-7.9961,11.6045-7.9961S1692.4654,195.2491,1684.022,196.8229Z"/><path class="o" d="M1693.5288,169.6983a.72.72,0,0,1-.334-1.3232,7.7887,7.7887,0,0,1,9.5372.3008.7241.7241,0,0,1,.164,1.0044.7877.7877,0,0,1-1.0029.1645,12.3243,12.3243,0,0,0-7.9219-.2568A.7227.7227,0,0,1,1693.5288,169.6983Z"/><path class="o" d="M1700.5972,176.4015c.374,1.6753-.3086,3.2539-1.5244,3.5254s-2.5039-.8672-2.8789-2.542.3086-3.2544,1.5244-3.5259S1700.2232,174.7262,1700.5972,176.4015Z"/><path class="o" d="M1669.0034,178.1769a.72.72,0,0,1-.8134-1.0948,7.7893,7.7893,0,0,1,8.9326-3.3554.7254.7254,0,0,1,.5361.8662.792.792,0,0,1-.8662.5351,12.32,12.32,0,0,0-7.4228,2.7793A.7136.7136,0,0,1,1669.0034,178.1769Z"/><path class="o" d="M1678.0923,181.6832c.9844,1.4068.9541,3.1255-.0664,3.84s-2.6465.1523-3.63-1.254-.9541-3.1259.0664-3.84S1677.1079,180.2765,1678.0923,181.6832Z"/><path class="l" d="M1863.0435,407.8937c-26.3555,41.2978-78.5645,67.6582-133.4238,65.93l5.8457-44.0146c42.538-7.7539,75.1494-35.4375,81.2236-58.7734,7.6318-29.3223,5.0137-57.8868,1.3672-79.3545a5.5449,5.5449,0,0,1,2.0957-5.3408c5.4394-4.1661,19.5312-12.6358,44.7129-13.1338a4.8735,4.8735,0,0,1,4.8,3.624C1880.2,316.5108,1886.562,371.0431,1863.0435,407.8937Z"/><g class="p"><path class="q" d="M1835.2827,421.4317a7.03,7.03,0,0,1-2.7841-.5664c-4.6153-1.9707-6.2383-8.623-3.6163-14.8281a14,14,0,0,1,7.1827-7.6015,7.6166,7.6166,0,0,1,5.9511-.0831c4.6153,1.9717,6.2373,8.6231,3.6172,14.83h0a14.0081,14.0081,0,0,1-7.1836,7.6016A8.4618,8.4618,0,0,1,1835.2827,421.4317Zm3.9483-21.6142a6.423,6.423,0,0,0-2.4082.4971,11.9428,11.9428,0,0,0-6.0733,6.5117c-2.1884,5.18-1.0468,10.6416,2.545,12.1758a5.6506,5.6506,0,0,0,4.3974-.0967,11.9583,11.9583,0,0,0,6.0742-6.5117c2.1875-5.1807,1.045-10.6436-2.5468-12.1768A5.03,5.03,0,0,0,1839.231,399.8175Z"/></g><path class="l" d="M1735.4654,429.8087s-39.4-12.53-51.9248-6.6035S1659.5,446.17,1668.0435,444.1446s18.7441-7.6279,18.7441-7.6279-21.2324,12.9971-16.042,16.6465,23.5469-7.833,23.5469-7.833-24.0332,17.4785-18.0146,19.3379,24.1826-11.5469,24.1826-11.5469-21.711,17.1553-14.669,19.1514,17.85-14.292,23.04-10.6426,18.4287,20.4072,30.333,7.22Z"/><path class="r" d="M1687.1167,436.9083l-.6572-.7832c.2324-.1953,5.7412-4.7656,10.124-3.5166l-.2783.9834C1692.4341,432.4952,1687.17,436.8644,1687.1167,436.9083Z"/><path class="r" d="M1694.6284,445.7169l-.6718-.7715c.2216-.1924,5.4785-4.7031,11.9062-4.2031l-.081,1.0195C1699.8032,441.3,1694.68,445.672,1694.6284,445.7169Z"/><path class="r" d="M1700.79,453.5128l-.6582-.7832c.2744-.2305,6.78-5.6406,11.3388-3.917l-.3613.9561C1707.1138,448.2608,1700.8521,453.46,1700.79,453.5128Z"/><path class="j" d="M1687.0679,491.1114H1560.5835a6.1464,6.1464,0,0,1-5.8349-4.18l-26.2842-78.498a6.1119,6.1119,0,0,1,5.8349-8.0322h121.6348a12.8639,12.8639,0,0,1,12.2129,8.749l24.7549,73.9287A6.1124,6.1124,0,0,1,1687.0679,491.1114Z"/><path class="j" d="M1679.1294,491.1114H1552.645a6.1442,6.1442,0,0,1-5.8339-4.18l-26.2862-78.498a6.1133,6.1133,0,0,1,5.836-8.0322h121.6357a12.8635,12.8635,0,0,1,12.2119,8.749l24.7549,73.9287A6.1124,6.1124,0,0,1,1679.1294,491.1114Z"/><path class="a" d="M1590.5044,443.1866c0-2.9795,3.4385-4.1943,6.4395-4.1943s7.9,3.2705,7.87,7.4463c-.0342,4.5068-3.5557,5.0928-6.5567,5.0928S1590.5044,446.9816,1590.5044,443.1866Z"/><path class="j" d="M1552.5816,480.0187h173.083a7.3193,7.3193,0,0,1,7.3193,7.3193v.0527a3.7207,3.7207,0,0,1-3.7207,3.7207H1552.5816a0,0,0,0,1,0,0V480.0187A0,0,0,0,1,1552.5816,480.0187Z"/><path class="k" d="M1670.1353,440.087c-.0615-.2353-6.2676-23.5058-10.2862-30.7373-3.96-7.1269-8.84-8.539-8.8876-8.5517l.2167-.792c.2129.0576,5.2627,1.5185,9.39,8.9443,4.0674,7.3213,10.1064,29.9648,10.3623,30.9248Z"/><path class="k" d="M1688.8286,480.43c-4.6884,0-5.8564-2.0752-5.9043-2.1631l-9.8847-29.5049.7793-.26,9.8584,29.4394-.001-.001c.0107,0,1.0693,1.667,5.1523,1.667Z"/><path class="s" d="M1572.25,695.6329l-1.02-.0683a464.982,464.982,0,0,1,14.3614-81.003c10.8066-39.5351,31.7773-91.5019,70.3154-114.5674l.5254.879c-38.2471,22.8886-59.0977,74.6044-69.8545,113.958A463.89,463.89,0,0,0,1572.25,695.6329Z"/><path class="s" d="M1656.68,767.4952l-1.0234-.0068c.417-58.8731,19.6757-104.3193,19.8691-104.7715l.94.4043C1676.272,663.5714,1657.0962,708.839,1656.68,767.4952Z"/><path class="l" d="M2068.0435,770.214s-30.1826-1.3926-34.9883-47.7012c-4.94-47.6,49.6543,0,49.6543,0Z"/><path class="l" d="M2098.8365,618.381c-1.837.7246-32.3887,9.0019-45.9161,55.0781s31.8858,9.749,31.8858,9.749Z"/><path class="j" d="M2139.0728,1253.1857s-.4141,16.56-11.62,21.23-43.6709,8.8867-31.5391,19.5332c6.9609,6.1094,39.7666,2.1621,49.0283,2.1621s17.96,4.0352,24.8418-2.164c7.5723-6.82-.001-40.7627-.001-40.7627s-7.9921,4.1631-15.1806,3.9775C2144.2437,1256.8937,2139.0728,1253.1857,2139.0728,1253.1857Z"/><path class="j" d="M2267.7544,1253.1817s-.414,16.5606-11.6191,21.2315-43.6719,8.8867-31.54,19.5332c6.962,6.1084,39.7676,2.1611,49.03,2.1611s17.959,4.0362,24.8418-2.1631c7.5713-6.82-.0019-40.7636-.0019-40.7636s-7.9922,4.164-15.18,3.9775C2272.9263,1256.89,2267.7544,1253.1817,2267.7544,1253.1817Z"/><path class="t" d="M2055.7906,799.2257s-2.0723,69.3154,20.0527,202.2881c15.9717,95.998,34.8271,192.73,44.0791,239.1064a36.1761,36.1761,0,0,0,33.7949,29.3809l8.8858.3574c17.8789.7168,32.3886-14.6416,31.083-32.8994l-22.4454-313.75-5.5332-103.2666Z"/><path class="j" d="M2258.17,860.2247c-1.0205,8.4375-48.7247,7.4121-107.1319.0195s-103.8711-20.0459-102.8506-28.4824,48.1377-9.4619,106.545-2.0693S2259.189,851.7892,2258.17,860.2247Z"/><path class="t" d="M2122.8472,848.7345l124.6973,400.5674a40.1937,40.1937,0,0,0,37.5107,28.55l7.4941.1279c17.6973.3027,31.2247-16.06,27.9981-33.8662L2252.3345,867.73a12.3876,12.3876,0,0,0-8.6074-9.2754C2220.3384,851.7091,2120.5523,832.1681,2122.8472,848.7345Z"/><path class="k" d="M2238.6685,629.6036s-16.5918-46.68-75.6953-44.5566-103.7295,79.789-114.7862,246.7148c0,0,96.7813-21.2226,210.1553,28.2871C2258.3423,860.0489,2264.6275,697.64,2238.6685,629.6036Z"/><path class="k" d="M2280.1743,626.7931l-41.8711,26.8008s-107.6279,10.7675-136.1992,5.5839-33.0175-26.1914-33.0175-26.1914,27.18-37.2812,78.9023-46.54a141.45,141.45,0,0,1,14.9824-1.3965,147.0443,147.0443,0,0,1,26.1445.5733C2240.2163,591.1378,2280.1743,626.7931,2280.1743,626.7931Z"/><path class="s" d="M2178.5786,1027.7726l-26.8164-81.5235a77.2939,77.2939,0,0,0-34.9238-43.08l1.042-1.8194a79.3835,79.3835,0,0,1,35.874,44.2442l26.8164,81.5234Z"/><path class="t" d="M2122.4419,574.6515c-.3242-.0772-7.9472-1.9365-10.2129-7.3965-1.1963-2.8809-.6533-6.209,1.6133-9.8916,1.01-1.6406,1.94-3.125,2.793-4.4844,5.92-9.4375,7.9131-12.6182,6.3642-20.0019l.6719-.1416c1.6074,7.6562-.5879,11.1562-6.4541,20.51-.8516,1.3565-1.7812,2.8389-2.7891,4.4776-2.1435,3.4843-2.6709,6.6015-1.5664,9.2666,2.1309,5.1347,9.6622,6.9736,9.7383,6.9912Z"/><path class="t" d="M2123.3345,532.8058a34.8707,34.8707,0,0,1-5.2344,24.2607c-7.8535,12.4072.6944,21.4736,11.333,16.7012s14.6944,8.793,28.2959,1.2949C2171.3286,567.5646,2123.3345,532.8058,2123.3345,532.8058Z"/><path class="l" d="M2186.1929,585.2189a16.3431,16.3431,0,0,1-13.3193-9.7452l-7.3252-17.0107-2.125-4.9375-12.4981-29.0283,2.166,30.083,1.3037,18.0566.3711,5.1485a8.216,8.216,0,0,1-6.7773,8.6611l-.0723.0117c-2.2236,3.6172-5.2959,10.9707,3.8828,13.89,10.7842,3.4326,28.2276-5.0577,34.4883-15.1182C2186.2554,585.2257,2186.2241,585.2228,2186.1929,585.2189Z"/><path class="j" d="M2165.5786,557.9659c-.0039.1651-.0146.3311-.03.4971-.7168,9.6982-11.0909,14.2275-11.0909,14.2275l-.0625-.0537-1.3037-18.0566c3.1729-1.1621,7.6895-2.3555,10.3321-1.0547C2164.8052,554.2052,2165.6734,555.5655,2165.5786,557.9659Z"/><path class="l" d="M2121.2945,529.3077c0-19.2588,12.6543-34.8711,28.2656-34.8711,15.6094,0,28.2646,15.6123,28.2646,34.8711s-12.6552,34.8711-28.2646,34.8711C2133.9488,564.1788,2121.2945,548.5665,2121.2945,529.3077Z"/><path class="l" d="M2174.0435,534.5675c-3.2,3.0576-7.6778,3.37-9.9981.7s-1.6074-7.3135,1.5948-10.3721c3.2021-3.0566,7.6777-3.37,9.999-.6992S2177.2466,531.51,2174.0435,534.5675Z"/><path class="n" d="M2134.3374,551.8732a61.3549,61.3549,0,0,0,19.3106-3.169s.8017,9.5166-9.6553,10.1543C2137.9116,559.2286,2134.3374,551.8732,2134.3374,551.8732Z"/><path class="m" d="M2134.3374,551.8732s2.336,1.9384,7.7881,1.915,11.5225-5.084,11.5225-5.084S2142.0142,551.9015,2134.3374,551.8732Z"/><path class="o" d="M2146.8247,529.6437a.6432.6432,0,0,1-.0713-1.2168,6.9624,6.9624,0,0,1,8.3233,1.8564.6476.6476,0,0,1-.0235.9092.708.708,0,0,1-.91-.0225,11.0052,11.0052,0,0,0-6.9111-1.5488A.6435.6435,0,0,1,2146.8247,529.6437Z"/><path class="o" d="M2151.9116,536.71c.05,1.5332-.8125,2.8047-1.9257,2.84s-2.0537-1.1787-2.1026-2.7119.8135-2.8047,1.9258-2.8408S2151.8638,535.1759,2151.9116,536.71Z"/><path class="o" d="M2123.8775,532.9962a.6433.6433,0,0,1-.5313-1.0977,6.9631,6.9631,0,0,1,8.4033-1.456.6506.6506,0,0,1,.3252.8506.7078.7078,0,0,1-.85.3252,11.0094,11.0094,0,0,0-6.9814,1.2021A.6478.6478,0,0,1,2123.8775,532.9962Z"/><path class="o" d="M2131.271,537.5909c.63,1.3994.3164,2.9033-.6982,3.36s-2.35-.3076-2.9785-1.7071-.3155-2.9042.6992-3.36S2130.6421,536.1905,2131.271,537.5909Z"/><path class="t" d="M2137.5572,500.7569s.6084,12.1,15.7187,14.1622,25.5313,8.456,23.501,19.34c-2.0283,10.8857-26.3838,33.4668-8.4844,42.2139s14.0908-7.5625,33.4971-3.7823c19.4062,3.7823,22.9062-22.1318,9.5439-37.1709s-7.95-54.8339-58.0576-53.0693-31.749,41.7412-31.749,41.7412S2137.5874,514.1183,2137.5572,500.7569Z"/><path class="m" d="M2173.4468,578.712c-3.7705-1.5215-6.0879-3.789-6.8887-6.7383-2.2021-8.1142,7.253-20.3711,15.5967-31.1855,2.1953-2.8467,4.27-5.5352,6.1074-8.1016,5.1016-7.122,5.54-15.28,1.1739-21.8222-4.7891-7.1748-13.9082-10.2051-23.8038-7.9131-9.8564,2.2871-16.6416.2217-20.5947-1.9121a18.48,18.48,0,0,1-6.3027-5.2578l.3379-.2286c.0781.1133,7.873,11.3116,26.4678,7.002,10.06-2.335,19.35.7637,24.2353,8.083,4.3975,6.5889,3.9453,15.13-1.1816,22.2861-1.8418,2.5713-3.919,5.2637-6.1162,8.1133-8.2862,10.74-17.6749,22.9111-15.5264,30.8311.7764,2.8584,2.9512,4.9736,6.6474,6.4658Z"/><path class="i" d="M2122.8257,555.3048c-4.2451-1.5635-7.9795-6.2539-9.9795-12.544-3.2637-10.2519-.9726-21.6494,5.1074-25.4121a8.0781,8.0781,0,0,1,7.3438-.7275c4.2451,1.5635,7.9805,6.2529,9.9805,12.5244h0c3.2627,10.2344.9726,21.65-5.1084,25.4307a8.0484,8.0484,0,0,1-4.3272,1.2724A8.8949,8.8949,0,0,1,2122.8257,555.3048Zm11.252-25.7588c-1.8809-5.9258-5.3262-10.3066-9.2159-11.7422a6.9919,6.9919,0,0,0-6.2441.5987c-5.626,3.4912-7.6719,14.2519-4.5723,23.9765,1.8809,5.9082,5.3272,10.3076,9.2168,11.7432a7.0306,7.0306,0,0,0,6.2344-.6c5.626-3.5078,7.68-14.27,4.5811-23.9766Z"/><g class="p"><path class="m" d="M2167.9761,522.4913c2.2676,9.957-1.3564,20.6485-8.0947,23.8779s-14.041-2.2216-16.3086-12.1777,1.3564-20.6484,8.0957-23.8789S2165.7085,512.5353,2167.9761,522.4913Z"/></g><g class="p"><path class="m" d="M2135.5474,529.9825c2.2734,10.002-.7539,20.8487-6.7617,24.2256s-12.7227-1.9931-14.9961-11.9961.7539-20.8486,6.7617-24.2256S2133.273,519.98,2135.5474,529.9825Z"/></g><path class="i" d="M2150.4741,546.506c-4.3447-2.1084-7.6621-6.8711-9.0986-13.0694-2.4707-10.6338,1.5547-22.123,8.9805-25.6133a10.38,10.38,0,0,1,9.18.0723c4.3359,2.1094,7.6445,6.8711,9.0713,13.0527h0c2.4814,10.6514-1.5459,22.14-8.9805,25.6124a10.3221,10.3221,0,0,1-4.5078,1.0537A10.7882,10.7882,0,0,1,2150.4741,546.506Zm.4092-37.5557c-6.9082,3.2539-10.625,14.1055-8.289,24.1953,1.3359,5.7442,4.4892,10.3242,8.4345,12.2324a9.3712,9.3712,0,0,0,8.07.0557c6.917-3.2539,10.6338-14.1064,8.2891-24.1943h0c-1.3262-5.7266-4.4717-10.2891-8.4062-12.2159a9.145,9.145,0,0,0-8.0987-.0732Z"/><path class="i" d="M2134.2144,533.7091a1.1621,1.1621,0,0,0,.7451-.2725h0c.127-.11,3.1719-2.4912,8.4258-1.4912a1.2159,1.2159,0,0,0,1.3808-.9277,1.1511,1.1511,0,0,0-.9277-1.3633,12.667,12.667,0,0,0-10.3789,1.9639,1.1789,1.1789,0,0,0-.1455,1.6543A1.1387,1.1387,0,0,0,2134.2144,533.7091Z"/><path class="j" d="M2280.771,627.7189c1.4522,4.2148-9.498,12.1064-24.459,17.625s-28.2656,6.5752-29.7177,2.3593,9.498-12.1064,24.4589-17.6259C2266.0132,624.56,2279.3189,623.503,2280.771,627.7189Z"/><path class="l" d="M2178.0718,773.5616l-.501-30.5966a7.8812,7.8812,0,0,1,7.32-7.9854c21.21-1.5176,36.0577-8.0957,44.1924-19.5986,11.294-15.9737,10.1026-40.7842,6.9551-57.9893-1.61-8.8047,1.2959-14.6924,11.9307-20.3369a72.779,72.779,0,0,1,20.4336-6.9541c4.5195-.77,9.0058,1.0459,10.1718,5.48a186.6237,186.6237,0,0,1,5.3145,30.4385c2.6758,30.1718-3.1426,56.4179-16.83,75.8984-16.7988,23.9111-43.8779,37.1406-80.5664,39.3887A7.911,7.911,0,0,1,2178.0718,773.5616Z"/><g class="g"><path class="q" d="M2256.0523,733.923a6.0989,6.0989,0,0,1-3.8955-1.294c-3.336-2.6865-2.9737-8.6894.8066-13.3828,3.7783-4.6934,9.5664-6.3262,12.9023-3.64,3.334,2.6865,2.9737,8.6884-.8066,13.3818C2262.5142,732.15,2259.0572,733.923,2256.0523,733.923Zm5.9111-17.5645c-2.375,0-5.2773,1.5361-7.4033,4.1758-3.0176,3.7461-3.5283,8.5537-1.1162,10.4971,2.4111,1.94,6.999.4169,10.0176-3.3291,3.0175-3.7481,3.5292-8.5557,1.1171-10.4981A4.0913,4.0913,0,0,0,2261.9634,716.3585Z"/></g><path class="t" d="M2211.2075,851.0821s-116.5693-22.2685-154.3652-11.7646l18.124,26.8594,67.377,3.8125Z"/><path class="j" d="M2164.1372,737.91l-100.48.038a4.8807,4.8807,0,0,1-4.6368-3.3183l-20.9052-62.3525a4.8563,4.8563,0,0,1,4.6338-6.3829l96.6289-.0371a10.2187,10.2187,0,0,1,9.7041,6.9463l19.6884,58.7227A4.8573,4.8573,0,0,1,2164.1372,737.91Z"/><path class="j" d="M2157.8306,737.9122l-100.48.0391a4.8854,4.8854,0,0,1-4.6377-3.3184l-20.9033-62.3515a4.8565,4.8565,0,0,1,4.6318-6.3848l96.63-.0361a10.2159,10.2159,0,0,1,9.7041,6.9462l19.6885,58.7227A4.8563,4.8563,0,0,1,2157.8306,737.9122Z"/><path class="a" d="M2087.4116,699.8673c-.0009-2.3672,2.7295-3.334,5.1133-3.334,2.3848-.0019,6.2783,2.5967,6.2549,5.9131-.0254,3.58-2.8223,4.0469-5.207,4.0478S2087.4126,702.8819,2087.4116,699.8673Z"/><path class="k" d="M2150.6714,697.38c-.05-.1856-4.9863-18.6719-8.1807-24.4141-3.1367-5.6406-7.0263-6.7822-7.0654-6.7929l.1738-.6289c.169.0468,4.1807,1.206,7.462,7.1035,3.2343,5.8144,8.038,23.8017,8.2412,24.5654Z"/><polygon class="k" points="2160.822 727.657 2152.981 704.273 2153.599 704.064 2161.44 727.448 2160.822 727.657"/><path class="l" d="M2032.45,715.6417s-1.665,13.0889,9.41,14.3311c14.11,1.5839,33.4512-11.05,24.5273-12.1856-7.9131-1.0068-19.54.4707-19.54.4707s29.5254-4.1982,26.7773-10.4785-28.0986-2.3008-28.0986-2.3008,28.457-6.9961,24.0547-11.9746-27.4385-1.5185-27.4385-1.5185,28.1143-5.2334,22.8721-10.8838-19.3477.2148-25.8154,1.2441c-6.1123.9736-7.61,5.5137-6.4678,11.77,0,0-2.2461,7.0342-.5371,10.8916.6562,1.4805-.5459,3.2442-.543,4.41A43.7949,43.7949,0,0,0,2032.45,715.6417Z"/><path class="l" d="M2192.6792,733.0382s-7.4482-22.544-20.2041-28.0645c-12.7539-5.5195-33.2207-2.9277-26.04,2.1739,7.18,5.1,18.1533,9.083,18.1533,9.083s-23.8457-7.4063-23.1631-1.08S2162.91,727.72,2162.91,727.72s-29.0781-6.5527-26.4971-.7851,24.7051,10.59,24.7051,10.59-27.2988-5.0156-24.1445,1.6143,22.5859,3.998,23.2695,10.3252,5.5352,31.2275,23.3545,31.4775Z"/><path class="r" d="M2173.09,721.4708c-1.7315-3.6435-8.5118-4.7226-8.58-4.7334l.1562-1.0146c.3008.0459,7.3887,1.1777,9.3506,5.3076Z"/><path class="r" d="M2173.2036,734.02c-3.6074-4.8242-10.2959-5.7822-10.3623-5.791l.1368-1.0176c.291.04,7.1767,1.02,11.0459,6.1944Z"/><path class="r" d="M2170.69,743.3341c-1.5088-4.0205-9.5684-5.29-9.65-5.3018l.1552-1.0156c.3555.0537,8.7374,1.3779,10.4571,5.957Z"/><path class="r" d="M2043.479,730.6974c-2.2754,0-4.4033-.334-5.6269-1.35l.6552-.7911c2.5889,2.1495,11.0167.6553,14.0479-.1015l.2471.9951A44.6312,44.6312,0,0,1,2043.479,730.6974Z"/><path class="u" d="M1383.6333,826.923,939.49,846.5167c-36.05,1.5908-66.6817-22.4932-68.1885-53.6123L850.0845,354.8507c-1.502-31.0215,26.5186-57.1816,62.4766-58.3272l480.31-15.3066c37.5352-1.1963,68.4131,25.2568,67.2969,57.6523l-14.9512,433.7666C1444.2115,801.8116,1417.4146,825.4317,1383.6333,826.923Z"/><path class="a" d="M1139.42,578.38l-205.9053,7.1777a22.2671,22.2671,0,0,1-23.043-22.2539V349.43a22.2668,22.2668,0,0,1,23.0108-22.2549l205.9052,6.8779a22.267,22.267,0,0,1,21.5235,22.2549V556.1251A22.2676,22.2676,0,0,1,1139.42,578.38Z"/><path class="t" d="M972.8013,391.4747c0-12.66,10.3184-21.7305,22.9209-22.9228,19.3232-1.8291,24.1318,13.1113,24.1318,25.7705s-11.04,21.0127-27.4238,21.0127C979.772,415.3351,972.8013,404.1329,972.8013,391.4747Z"/><path class="t" d="M953.68,477.9005l-19.543,42.92c-5.831,12.8047,2.7364,27.8145,15.876,27.8145h171.3652c12.1123,0,20.6534-12.9258,16.7891-25.41L1099.479,398.2032c-5.0058-16.1757-25.4521-17.8066-32.5752-2.5976l-40.8222,87.165c-5.2393,11.19-18.7657,14.0235-27.4532,5.7529l-17.4043-16.5693C972.4741,463.6241,958.8413,466.5675,953.68,477.9005Z"/><path class="a" d="M1393.021,399.3478H1210.2349c-4.0234,0-10.2139-3.7139-10.7481-7.2461-1.0957-7.2471,6.7129-9.3184,10.7364-9.3184l182.7978,3.6035c4.0225,0,7.3135,2.917,7.3135,6.4805h0C1400.3345,396.4317,1397.0435,399.3478,1393.021,399.3478Z"/><path class="a" d="M1345.5415,368.921H1207.5728c-3.0362,0-7.708-2.9844-8.1113-5.8232-.8282-5.8213,5.0664-7.4854,8.1025-7.4854l137.9775,2.8955a5.3864,5.3864,0,0,1,5.5215,5.2061h0A5.3872,5.3872,0,0,1,1345.5415,368.921Z"/><path class="a" d="M1345.5415,434.4034H1207.5728c-3.0362,0-7.708-2.9843-8.1113-5.8232-.8282-5.8223,5.0664-7.4854,8.1025-7.4854l137.9775,2.8946a5.3878,5.3878,0,0,1,5.5215,5.207h0A5.3871,5.3871,0,0,1,1345.5415,434.4034Z"/><path class="a" d="M1393.021,579.06H1210.2349c-4.0234,0-10.2139-3.7139-10.7481-7.2461-1.0957-7.2471,6.7129-9.3184,10.7364-9.3184l182.7978,3.6035c4.0225,0,7.3135,2.917,7.3135,6.4805h0C1400.3345,576.1446,1397.0435,579.06,1393.021,579.06Z"/><path class="a" d="M1345.5415,548.6329H1207.5728c-3.0362,0-7.708-2.9844-8.1113-5.8222-.8282-5.8223,5.0664-7.4854,8.1025-7.4854l137.9775,2.8945a5.3872,5.3872,0,0,1,5.5215,5.2071h0A5.3876,5.3876,0,0,1,1345.5415,548.6329Z"/><path class="a" d="M1135.8247,687.1944H926.9517c-4.5977,0-11.6709-3.6337-12.2813-7.0888-1.2519-7.09,7.67-9.1153,12.2676-9.1153l208.8867,3.5254c4.5977,0,8.3584,2.8526,8.3584,6.34h0C1144.1831,684.3419,1140.4224,687.1944,1135.8247,687.1944Z"/><path class="a" d="M1392.7534,687.1944H1183.88c-4.5967,0-11.6709-3.6337-12.28-7.0888-1.2529-7.09,7.6709-9.1153,12.2666-9.1153l208.8867,3.5254c4.5977,0,8.3584,2.8526,8.3584,6.34h0C1401.1118,684.3419,1397.3511,687.1944,1392.7534,687.1944Z"/><path class="a" d="M1135.8247,756.1485H926.9517c-4.5977,0-11.6709-3.6337-12.2813-7.0888-1.2519-7.0889,7.67-9.1143,12.2676-9.1143l208.8867,3.5244c4.5977,0,8.3584,2.8526,8.3584,6.3389h0C1144.1831,753.295,1140.4224,756.1485,1135.8247,756.1485Z"/><path class="a" d="M1392.7534,756.1485H1183.88c-4.5967,0-11.6709-3.6337-12.28-7.0888-1.2529-7.0889,7.6709-9.1143,12.2666-9.1143l208.8867,3.5244c4.5977,0,8.3584,2.8526,8.3584,6.3389h0C1401.1118,753.295,1397.3511,756.1485,1392.7534,756.1485Z"/><path class="a" d="M1081.5689,649.3292H923.9116c-3.4707,0-8.8105-2.92-9.27-5.6963-.9453-5.6943,5.79-7.3222,9.26-7.3222l157.668,2.832c3.4707,0,6.3105,2.291,6.3105,5.0928h0C1087.8794,647.0362,1085.04,649.3292,1081.5689,649.3292Z"/><path class="a" d="M1401.689,649.3292h-89.1455c-1.961,0-4.98-2.92-5.2412-5.6963-.5332-5.6943,3.2744-7.3222,5.2363-7.3222l89.15,2.832c1.9619,0,3.5674,2.291,3.5674,5.0928h0C1405.2564,647.0362,1403.6509,649.3292,1401.689,649.3292Z"/><path class="a" d="M1279.9868,649.3292H1122.3286c-3.4707,0-8.81-2.92-9.2705-5.6963-.9443-5.6943,5.791-7.3222,9.2608-7.3222l157.6679,2.832c3.4707,0,6.31,2.291,6.31,5.0928h0C1286.2964,647.0362,1283.4575,649.3292,1279.9868,649.3292Z"/><path class="a" d="M1081.5689,717.4415H923.9116c-3.4707,0-8.8105-2.9189-9.27-5.6953-.9453-5.6953,5.79-7.3232,9.26-7.3232l157.668,2.832c3.4707,0,6.3105,2.293,6.3105,5.0947h0C1087.8794,715.15,1085.04,717.4415,1081.5689,717.4415Z"/><path class="a" d="M1401.689,717.4415h-89.1455c-1.961,0-4.98-2.9189-5.2412-5.6953-.5332-5.6953,3.2744-7.3232,5.2363-7.3232l89.15,2.832c1.9619,0,3.5674,2.293,3.5674,5.0947h0C1405.2564,715.15,1403.6509,717.4415,1401.689,717.4415Z"/><path class="a" d="M1279.9868,717.4415H1122.3286c-3.4707,0-8.81-2.9189-9.2705-5.6953-.9443-5.6953,5.791-7.3232,9.2608-7.3232l157.6679,2.832c3.4707,0,6.31,2.293,6.31,5.0947h0C1286.2964,715.15,1283.4575,717.4415,1279.9868,717.4415Z"/><path class="v" d="M1801.4331,1162.8067l-228.2236,15.129c-16.63,1.1025-30.6787-11.16-30.2754-26.4268l6.5664-248.5059c.3779-14.33,13.4082-25.6455,29.0537-25.2314l221.6573,5.875c15.2744.4043,27.4277,11.8623,27.4277,25.8564v227.502C1827.6392,1150.5665,1816.2027,1161.8273,1801.4331,1162.8067Z"/><path class="c" d="M1741.0445,1142.0724H1592.3023c-3.2744,0-8.3106-3.4121-8.7451-6.6573-.8916-6.6562,5.4619-8.5576,8.7363-8.5576l148.751,3.31a5.9686,5.9686,0,0,1,5.9521,5.9521h0A5.97,5.97,0,0,1,1741.0445,1142.0724Z"/><path class="c" d="M1702.4087,1114.1241H1590.1372c-2.4707,0-6.2734-2.7412-6.6015-5.3476-.6729-5.3477,4.123-6.875,6.5937-6.875l112.2793,2.6582a4.6581,4.6581,0,0,1,4.4932,4.7822h0A4.6574,4.6574,0,0,1,1702.4087,1114.1241Z"/><path class="w" d="M1459.26,1147.1964l-228.2237,14.3018c-16.6308,1.0419-30.68-10.55-30.2763-24.98l6.5664-234.8965c.38-13.5459,13.4082-24.2422,29.0537-23.85l221.6572,5.5527c15.2744.3828,27.4278,11.2119,27.4278,24.4414v215.043C1485.4654,1135.6271,1474.0288,1146.2706,1459.26,1147.1964Z"/><path class="v" d="M1398.8716,1095.0177H1250.1284c-3.2734,0-8.3105-3.4111-8.7451-6.6553-.8916-6.6562,5.4629-8.5586,8.7364-8.5586l148.7519,3.31a5.97,5.97,0,0,1,5.9522,5.9531h0A5.9692,5.9692,0,0,1,1398.8716,1095.0177Z"/><path class="v" d="M1398.8716,1124.4347H1250.1284c-3.2734,0-8.3105-3.4112-8.7451-6.6563-.8916-6.6562,5.4629-8.5576,8.7364-8.5576l148.7519,3.3086a5.9709,5.9709,0,0,1,5.9522,5.9531h0A5.97,5.97,0,0,1,1398.8716,1124.4347Z"/><path class="v" d="M1360.2359,1067.0714H1247.9634c-2.4707,0-6.2725-2.7412-6.6006-5.3486-.6728-5.3477,4.1231-6.875,6.5938-6.875l112.2793,2.6591a4.6573,4.6573,0,0,1,4.4922,4.7823h0A4.6579,4.6579,0,0,1,1360.2359,1067.0714Z"/><path class="v" d="M1116.4517,1162.8712l-228.2236,15.0645c-16.6309,1.0976-30.6788-11.1114-30.2764-26.3135l6.5674-247.44c.3779-14.2685,13.4082-25.5361,29.0527-25.124l221.6582,5.85c15.2744.4033,27.4277,11.8115,27.4277,25.7471v226.5254C1142.6577,1150.6847,1131.2212,1161.8966,1116.4517,1162.8712Z"/><path class="c" d="M1076.1109,984.0773H927.3687c-3.2744,0-8.3115-3.1114-8.7451-6.0694-.8926-6.07,5.4619-7.8047,8.7363-7.8047l148.751,3.0186a5.7244,5.7244,0,0,1,5.9521,5.4277h0A5.7251,5.7251,0,0,1,1076.1109,984.0773Z"/><path class="c" d="M1076.1109,1010.9025H927.3687c-3.2744,0-8.3115-3.11-8.7451-6.0694-.8926-6.07,5.4619-7.8037,8.7363-7.8037l148.751,3.0176a5.7258,5.7258,0,0,1,5.9521,5.4287h0A5.7243,5.7243,0,0,1,1076.1109,1010.9025Z"/><path class="c" d="M1037.4751,958.5919H925.2036c-2.4707,0-6.2734-2.5-6.6015-4.8769-.6729-4.877,4.123-6.2706,6.5937-6.2706l112.2793,2.4248a4.4411,4.4411,0,0,1,4.4932,4.3614h0A4.4417,4.4417,0,0,1,1037.4751,958.5919Z"/><path class="c" d="M1076.1109,1071.0958H927.3687c-3.2744,0-8.3115-3.1113-8.7451-6.07-.8926-6.07,5.4619-7.8047,8.7363-7.8047l148.751,3.0176a5.7258,5.7258,0,0,1,5.9521,5.4287h0A5.7258,5.7258,0,0,1,1076.1109,1071.0958Z"/><path class="c" d="M1076.1109,1097.921H927.3687c-3.2744,0-8.3115-3.1113-8.7451-6.0693-.8926-6.07,5.4619-7.8047,8.7363-7.8047l148.751,3.0176a5.725,5.725,0,0,1,5.9521,5.4277h0A5.7252,5.7252,0,0,1,1076.1109,1097.921Z"/><path class="c" d="M1037.4751,1045.61H925.2036c-2.4707,0-6.2734-2.499-6.6015-4.8779-.6729-4.876,4.123-6.2686,6.5937-6.2686l112.2793,2.4238a4.4417,4.4417,0,0,1,4.4932,4.3614h0A4.4417,4.4417,0,0,1,1037.4751,1045.61Z"/><path class="j" d="M1094.8462,1218.2423l-52.5976,5.2539c-4.378.4365-7.7618,5.7871-7.7373,12.2314l.02,5.4c.0254,6.7549,3.7744,12.2168,8.3721,12.1993l52.0742-.1954Z"/><path class="j" d="M2023.9693,1216.8126s13.3486,2.1914,12.8808,5.0938c-.7549,4.6816-12.8428,5.19-12.8428,5.19Z"/><path class="j" d="M1132.6812,1226.1466a7.5381,7.5381,0,0,1-7.3574-9.1777l6.8886-30.77q.0674-.3031.16-.5976a21.606,21.606,0,0,1,21.3271-15.1153l265.12,9.4a7.5321,7.5321,0,1,1-.5332,15.0547l-265.12-9.4a6.5205,6.5205,0,0,0-6.3349,4.3067l-6.8086,30.4111A7.5354,7.5354,0,0,1,1132.6812,1226.1466Z"/><path class="t" d="M1947.937,1262.3712l-842.9482-2.5654a14.6543,14.6543,0,0,1-14.5606-14.6006l-.0751-19.794a14.6571,14.6571,0,0,1,14.3046-14.708l841.5049-19.1074Z"/><path class="j" d="M1224.7329,1207.8282s-8.4228,21.7139.1983,52.752l53.6982.3467s-14.0156-28.9043-.2041-54.3838Z"/><path class="x" d="M2023.97,1216.87l.0342,9.4014a6.6694,6.6694,0,0,1-3.9,6.0947l-61.4619,28.0391a21.3448,21.3448,0,0,1-25.7666-6.2c-4.4062-5.7236-7.8369-14.1328-6.9482-26.2363,1.1357-15.4805,4.8369-24.57,8.8759-29.9034a16.9612,16.9612,0,0,1,18.502-5.8388l67.7842,20.7646A4.0749,4.0749,0,0,1,2023.97,1216.87Z"/><path class="j" d="M1106.7017,1248.6446a1.1592,1.1592,0,0,1-.0039-2.3183l89.6054-.336h.003a1.1587,1.1587,0,0,1,.0058,2.3174l-89.6054.3369Z"/><path class="j" d="M1295.9546,1247.9337a1.1587,1.1587,0,0,1-.0049-2.3174l605.9922-2.2754h.0039a1.1592,1.1592,0,0,1,.0049,2.3184l-605.9922,2.2744Z"/><path class="h" d="M1771.7339,713.6622a15.6792,15.6792,0,1,1,15.6787,15.6807A15.6794,15.6794,0,0,1,1771.7339,713.6622Z"/><path class="h" d="M1758.7964,699.879a7.7027,7.7027,0,0,1-6.457-11.8906,41.7695,41.7695,0,0,1,68.8379-1.9043,7.7029,7.7029,0,0,1-12.4483,9.0762,26.3654,26.3654,0,0,0-43.4609,1.2021A7.6951,7.6951,0,0,1,1758.7964,699.879Z"/><path class="h" d="M1735.9292,684.12a7.7026,7.7026,0,0,1-6.458-11.89,69.52,69.52,0,0,1,114.5742-3.17,7.7028,7.7028,0,0,1-12.4482,9.0761,54.1154,54.1154,0,0,0-89.1963,2.4668A7.6928,7.6928,0,0,1,1735.9292,684.12Z"/><path class="y" d="M2042.687,1300.8849H614.8091c-10.418,0-19.5332-4.0049-22.2109-9.7588l-8.0772-17.3584c-3.8906-8.3643,7.1973-16.5547,22.3457-16.5039l1442.5586,4.7793c15.3389.0508,26.2871,8.5088,21.88,16.9043l-6.6055,12.58C2061.7837,1297.08,2052.8365,1300.8849,2042.687,1300.8849Z"/><path class="l" d="M845.0142,1063.4044c3.916,6.9785,43.249,67.9043,35.0166,127.4932l-42.81-15.4785-19.5625-80.3233Z"/><path class="t" d="M674.0708,1038.4347s26.3037-47.1748,90.3262-34.1319c64.0254,13.043,98.9648,104.6807,81.6,286.1866,0,0-101.7129-40.4375-233.9668-7.84C612.03,1282.65,633.7984,1106.8683,674.0708,1038.4347Z"/><path class="t" d="M625.2388,1019.3722l45.0019,44.9258s115.3741,31.1709,147.418,30.7978,44.6582-23.7939,44.6582-23.7939-27.0449-42.83-81.7695-62.2032a159.879,159.879,0,0,0-16.1465-4.792,164.8187,164.8187,0,0,0-28.5879-4.1435C679.1616,996.7911,625.2388,1019.3722,625.2388,1019.3722Z"/><path class="j" d="M625.24,1019.3732c-7.1944,7.8183,3.8994,16.36,16.3271,28.7675,12.4258,12.4053,25.2637,19.64,28.6729,16.1582s-3.9-16.3613-16.3272-28.7675S628.54,1015.7862,625.24,1019.3732Z"/><path class="l" d="M664.2554,1064.4825s.6709-8.9726-10.6064-20.4287c-6.793-6.9-15.3926-11.4092-21.1583-13.9053a6.5767,6.5767,0,0,0-8.749,3.69l-3.6064,9.3027,16.7988,10.8164Z"/><path class="k" d="M743.7779,1230.8878s-138.836-75.2363-188.6,6.8369c-36.8369,60.7559,18.5362,117.336,223.93,111.5879,0,0,20.2989-9.5078,15.3555-58.8232C792.5044,1270.9493,743.7779,1230.8878,743.7779,1230.8878Z"/><path class="k" d="M743.7779,1230.8878s184.9082-75.7432,221.4961-28.3936c42.0488,54.42,1.7246,146.8184-193.1856,113.7891l-23.7529-25.7939Z"/><path class="j" d="M795.6392,1305.2462s37.7422,1.4922,56.9844,10.93,8.9677,32.4736-30.1026,31.8584-36.1045-6.4287-36.1045-6.4287S797.2486,1328.2989,795.6392,1305.2462Z"/><path class="s" d="M779.3345,1349.63l-.4522-.6338c21.5625-15.3857,15.7667-54.8975,15.2344-58.2187l-140.15-51.0088.2657-.7315L794.8081,1290.2l.0391.2217C794.9224,1290.8487,802.1382,1333.3585,779.3345,1349.63Z"/><path class="l" d="M752.024,1234.4962c11.2841.001,20.5566-2.8535,28.0742-8.5244,14.1972-10.708,16.832-27.7793,14.7724-39.1445l-13.583-7.8975c-.6748-3.7275-26.8867,10.1211-26.8418,10.1074-.12.0391-12.51,3.624-55.4677-18.3291-29.9053-15.2822-44.9776-36.9717-46.0772-66.3066-.8311-22.1153,9.0283-34.5362,11.3545-39.919.31-.7177-14.4522-15.5175-14.0293-17.0234L639.16,1041.836c.3564-1.2685-10.64-5.6064-10.4834-5.9687l-8.541,7.2744a142.4232,142.4232,0,0,0-12.0235,62.9736c1.2022,32.0362,14.4307,76.2539,70.626,104.9717C709.3823,1226.7482,733.4341,1234.4952,752.024,1234.4962Z"/><path class="u" d="M761.1392,1236.296H880.9566a5.8187,5.8187,0,0,0,5.5263-3.96l24.8994-74.3593a5.79,5.79,0,0,0-5.5263-7.6094H790.6314a12.1844,12.1844,0,0,0-11.5694,8.2861l-23.45,70.0332A5.79,5.79,0,0,0,761.1392,1236.296Z"/><path class="u" d="M768.66,1236.296H888.4771a5.8227,5.8227,0,0,0,5.5273-3.96l24.8994-74.3593a5.7912,5.7912,0,0,0-5.5273-7.6094H798.1519a12.1863,12.1863,0,0,0-11.57,8.2861l-23.4493,70.0332A5.79,5.79,0,0,0,768.66,1236.296Z"/><path class="a" d="M852.6128,1190.8976c0-2.8233-3.2568-3.9737-6.1006-3.9737-2.8418,0-7.4834,3.0987-7.455,7.0547.0322,4.2686,3.3691,4.8233,6.2109,4.8233S852.6128,1194.4913,852.6128,1190.8976Z"/><path class="u" d="M717.6431,1225.7872h167.37a3.5234,3.5234,0,0,1,3.5234,3.5234v.0518a6.9336,6.9336,0,0,1-6.9336,6.9336h-163.96a0,0,0,0,1,0,0v-10.5088A0,0,0,0,1,717.6431,1225.7872Z" transform="translate(1606.1797 2462.0831) rotate(-180)"/><path class="k" d="M777.1782,1187.961l-.7529-.2c.2432-.91,5.9619-22.36,9.8164-29.2949,3.9082-7.0351,8.6924-8.4189,8.8946-8.4736l.207.75c-.0469.0137-4.6836,1.375-8.4209,8.1006C783.1157,1165.6935,777.2368,1187.7384,777.1782,1187.961Z"/><path class="k" d="M759.47,1226.1769v-.7784c3.9248,0,4.9-1.6259,4.9092-1.6425l9.31-27.8233.7373.2481-9.3369,27.8877C765.0171,1224.213,763.9126,1226.1769,759.47,1226.1769Z"/><path class="q" d="M644.3072,1170.0294a5.1649,5.1649,0,0,1-1.334-.1836c-2.5782-.6914-5.4131-3.2744-7.3955-6.7422h0c-3.0362-5.3095-3.1172-10.8076-.1856-12.5156a4.21,4.21,0,0,1,3.2627-.3164c2.5791.6914,5.4131,3.2744,7.3965,6.7412,3.0361,5.3105,3.1182,10.8086.1855,12.5176A3.7885,3.7885,0,0,1,644.3072,1170.0294Zm-6.9883-18.3867a2.2315,2.2315,0,0,0-1.1426.29c-2.1113,1.23-1.7666,5.9922.7529,10.3985h0c1.7569,3.0732,4.2881,5.4326,6.4483,6.0107a2.66,2.66,0,0,0,2.0761-.1562c2.1114-1.2315,1.7657-5.9932-.7529-10.4-1.7578-3.0723-4.2881-5.4317-6.4482-6.01A3.6139,3.6139,0,0,0,637.3189,1151.6427Z"/><path class="l" d="M734.8218,1000.0509c7.8721-.2315,13.8418-1.041,18.3721-6.3672l14.0136-16.4844,4.0791-4.7988,23.9844-28.2188-12.5957,32.9971-7.5644,19.8047-2.3936,6.2686c-1.625,4.2548.5225,6.2382,2.0352,11.2168.6132,2.0156,4.7461,14.4277-6.0225,14.5039-13.418.1-30.3877-15.4961-34.1143-28.962A.94.94,0,0,0,734.8218,1000.0509Z"/><path class="j" d="M763.31,966.61s-26.4111-25.3828-11.1748-46.8086c15.2363-21.4238,19.042,34.3857,19.042,34.3857l-4.2578,12.9Z"/><path class="j" d="M767.3384,976.63q-.0732.2827-.1309.5693c-2.4511,11.1289,7.8145,19.8223,7.8145,19.8223l.0889-.0381,7.5644-19.8047c-3.2148-2.4072-7.9463-5.3183-11.3887-4.7783C769.4859,972.6827,768.0406,973.9064,767.3384,976.63Z"/><path class="l" d="M823.2525,962.8409c5.955-19.8369-2.4239-39.9609-18.7168-44.9482s-34.3272,7.0508-40.2842,26.8867c-5.9551,19.8369,2.4248,39.9609,18.7168,44.9482S817.2954,982.6778,823.2525,962.8409Z"/><path class="j" d="M769.8325,941.9132s8.41,6.1172,15.459.9482,12.0352-10.0713,27.82-2.1269,33.0645,4.3789,36.2559-4.5684c3.19-8.9453-4.3281-15.7959-14.2432-15.3525s2.0977-4.9912-4.8-14.3945-24.3916.2841-33.0644-4.377-39.5674-8.7119-45.125,17.7588Z"/><path class="l" d="M763.2329,947.215c2.0284,3.13,5.917,4.1845,8.6875,2.3544s3.3711-5.85,1.3448-8.98c-2.0284-3.13-5.917-4.1836-8.6885-2.3545C761.8081,940.0636,761.2066,944.0851,763.2329,947.215Z"/><path class="m" d="M831.9331,933.0685c-6.6328,0-15.6308-8.0918-16.0439-8.4668l.7754-.8555c.1064.0957,10.6113,9.543,16.6806,8.002,2.334-.5928,3.6534-1.6973,3.4424-2.8848-.1992-1.1309-1.8594-2.209-4.2051-1.9639-5.1367.5235-7.9248-1.2178-8.0419-1.2929l.624-.9727c.0234.0146,2.5957,1.6006,7.3008,1.1162,3.1582-.3154,5.1689,1.26,5.46,2.9121.2549,1.4414-.7392,3.3028-4.2959,4.2051A6.8731,6.8731,0,0,1,831.9331,933.0685Z"/><path class="m" d="M804.6656,910.9073a18.0888,18.0888,0,0,1-6.6124-1.1689,70.9011,70.9011,0,0,1-7.4423-3.5586c-4.4766-2.3652-8.34-4.4092-12.55-3.5908l-.2217-1.1338c4.6074-.8965,8.6416,1.2344,13.3115,3.7031a69.7605,69.7605,0,0,0,7.3242,3.5039c8.0274,3.1465,17.419-1.3974,18.0069-1.8926l.8447.7862C816.8247,908.1349,811.0708,910.9073,804.6656,910.9073Z"/><path class="m" d="M760.1441,918.43a1.3181,1.3181,0,0,1-.4678-.0791c-.39-.1465-.9844-.6035-.6084-2.0147l.084-.1816c.6474-.9258,3.9912-5.4775,6.31-4.0186.2939.1846.916.75.3027,1.9854C765.0015,915.6573,761.9214,918.43,760.1441,918.43Zm.0166-1.6992c-.1045.4394-.04.57-.04.5722.2979.0938,1.9737-.6914,3.5586-2.3222,1.126-1.1582,1.2217-1.7666,1.1836-1.8545C763.84,912.4786,761.4829,914.8692,760.1607,916.7306Z"/><path class="o" d="M799.6714,954.7882a.6253.6253,0,0,0,.46-.3184.6328.6328,0,0,0-.2412-.8564,6.7119,6.7119,0,0,0-8.252.7734.6384.6384,0,0,0-.09.8877.6815.6815,0,0,0,.88.0908,10.5969,10.5969,0,0,1,6.8536-.6494A.6187.6187,0,0,0,799.6714,954.7882Z"/><path class="o" d="M793.899,961.0353c-.2364,1.4863.4384,2.832,1.5068,3.0039s2.126-.8926,2.3613-2.3789-.44-2.8321-1.5078-3.0049C795.19,958.4825,794.1343,959.548,793.899,961.0353Z"/><path class="o" d="M821.4976,962.7042a.45.45,0,0,0,.4355-.1455.766.766,0,0,0,.128-.8789,4.37,4.37,0,0,0-6.1026-1.9863.7534.7534,0,0,0-.372.7988.4624.4624,0,0,0,.59.374,6.5137,6.5137,0,0,1,5.0713,1.6436A.4152.4152,0,0,0,821.4976,962.7042Z"/><path class="o" d="M813.6656,966.2247c-.7774,1.2832-.6612,2.7871.2607,3.3574.9238.57,2.3027-.0078,3.082-1.292.7774-1.2841.6612-2.788-.2617-3.3574C815.8238,964.3614,814.4439,964.94,813.6656,966.2247Z"/><path class="s" d="M795.7886,982.03c-3.7568,0-9.43-1.1074-12.7969-7.0576a.4378.4378,0,1,1,.7617-.4317c5.0118,8.8526,15.4961,6.2783,15.6016,6.251a.4376.4376,0,1,1,.2178.8477A17.1186,17.1186,0,0,1,795.7886,982.03Z"/><path class="s" d="M782.1,976.5157a.4285.4285,0,0,1-.1377-.0224.4371.4371,0,0,1-.2783-.5528,5.8652,5.8652,0,0,1,2.876-2.9892.4784.4784,0,0,1,.6465.0947.4063.4063,0,0,1-.08.5869c-.02.0147-.0654.041-.1289.0772a4.9594,4.9594,0,0,0-2.4815,2.5049A.4368.4368,0,0,1,782.1,976.5157Z"/><path class="z" d="M771.272,1047.5538c-35.6523-1.0254-48.5439-31.9736-48.6709-32.2861l1.8-.7266c.1211.3008,12.57,30.086,46.9268,31.0742Z"/><path class="z" d="M754.8784,1064.2257c-.1845-.1152-18.5234-11.8428-20.8974-32.9248l1.9277-.2168c2.2715,20.1621,19.8233,31.3877,20,31.498Z"/><rect class="z" x="833.2861" y="1069.2909" width="1.9406" height="22.6333" transform="translate(-295.8833 314.7873) rotate(-18.2081)"/><path class="m" d="M817.1782,987.4845a8.2462,8.2462,0,0,1-5.9365-2.4756c-5.2705-5.2217-5.0205-17.3213.5557-26.9736,3.4316-5.9414,8.2471-9.8584,12.88-10.4786a8.3161,8.3161,0,0,1,7.205,2.3887c5.2706,5.2217,5.0206,17.3223-.5546,26.9746-3.4327,5.9405-8.2481,9.8584-12.88,10.4776A9.5576,9.5576,0,0,1,817.1782,987.4845Zm8.751-38.709a8.1519,8.1519,0,0,0-1.0791.0723c-4.2344.5673-8.6933,4.2451-11.9248,9.84-5.2988,9.1719-5.6416,20.5645-.7646,25.3965a7.063,7.063,0,0,0,6.1142,2.0225c4.2344-.5665,8.6924-4.2452,11.9239-9.8389,5.2988-9.1729,5.6425-20.5645.7656-25.3965A6.99,6.99,0,0,0,825.9292,948.7755Z"/><g class="p"><path class="m" d="M780.4038,943.8517c-4.5156,9.6006-3.2675,21.2812,2.7871,26.09s14.6231.9229,19.1387-8.6777,3.2676-21.2813-2.7871-26.09S784.9185,934.2511,780.4038,943.8517Z"/></g><g class="p"><path class="m" d="M811.3482,958.8058c-4.5313,9.6465-3.919,21.35,1.3681,26.1425,5.2862,4.7911,13.2452.8555,17.7774-8.79s3.9189-21.35-1.3672-26.1406C823.8384,945.2257,815.8794,949.16,811.3482,958.8058Z"/></g><path class="m" d="M789.9693,972.52a10.5372,10.5372,0,0,1-6.5752-2.3252c-6.6875-5.2226-8.1612-17.8066-3.2871-28.0537,2.8427-5.9765,7.2568-10.0605,12.1113-11.207a10.5633,10.5633,0,0,1,9.209,2.0107c6.6875,5.2217,8.1611,17.8067,3.2871,28.0528-2.8428,5.9765-7.2569,10.0615-12.1113,11.208A11.4124,11.4124,0,0,1,789.9693,972.52Zm4.8672-40.5947a10.1036,10.1036,0,0,0-2.3184.2764c-4.4024,1.04-8.6016,4.9648-11.2344,10.5-4.6269,9.7256-3.32,21.5986,2.9121,26.4658a9.2965,9.2965,0,0,0,8.1074,1.7695c4.4024-1.039,8.6016-4.9648,11.2344-10.5,4.627-9.7256,3.32-21.5986-2.9121-26.4638A9.269,9.269,0,0,0,794.8365,931.9249Z"/><path class="m" d="M812.1226,962.9142a1.2134,1.2134,0,0,1-.9639-.4717c-.1181-.1514-2.6465-3.2764-8.1338-3.4131a1.2159,1.2159,0,0,1-1.1865-1.2461,1.23,1.23,0,0,1,1.2461-1.1865c6.72.167,9.873,4.1914,10.0039,4.3623a1.2156,1.2156,0,0,1-.9658,1.9551Z"/><path class="a" d="M1352.813,1031.6056l-106.2558,3.7041a11.4911,11.4911,0,0,1-11.8916-11.4834V913.4581a11.4915,11.4915,0,0,1,11.875-11.4844l106.2548,3.5489a11.4908,11.4908,0,0,1,11.1075,11.4843v103.1153A11.4908,11.4908,0,0,1,1352.813,1031.6056Z"/><path class="k" d="M1266.8306,935.1544c0-6.5332,5.3252-11.2129,11.8291-11.8281,9.9707-.9444,12.4521,6.7656,12.4521,13.2988s-5.6972,10.8428-14.1513,10.8428C1270.4282,947.4679,1266.8306,941.6876,1266.8306,935.1544Z"/><path class="k" d="M1256.9644,979.755l-10.085,22.1475c-3.01,6.6074,1.4112,14.3544,8.1914,14.3544h88.4317c6.25,0,10.6582-6.67,8.664-13.1142l-19.9648-64.5147c-2.583-8.3486-13.1338-9.19-16.81-1.3408l-21.0654,44.9805c-2.7051,5.7744-9.6846,7.2373-14.169,2.9687l-8.98-8.5507C1266.6616,972.3868,1259.6275,973.9064,1256.9644,979.755Z"/><path class="a" d="M1759.0259,1074.8546l-141.7041,4.94a15.3238,15.3238,0,0,1-15.8584-15.3145V917.2921a15.3233,15.3233,0,0,1,15.8359-15.3154l141.7041,4.7324a15.3246,15.3246,0,0,1,14.8125,15.3164V1059.54A15.3233,15.3233,0,0,1,1759.0259,1074.8546Z"/><path class="t" d="M1642.0181,949.0177l-2.8926,79.4316a14.9778,14.9778,0,0,0,22.1485,13.6895l75.1464-41.0547a10.2031,10.2031,0,0,0,.8252-17.4043l-70.1015-47.42A16.1107,16.1107,0,0,0,1642.0181,949.0177Z"/><path class="l" d="M514.2368,655.4942s31.1338,80.2432,46.5567,72.2588c23.53-12.1836,29.57-66.2148,29.57-66.2148l27.834-1.6318s17.5635,115.75-36.5176,143.5322c-43.6592,22.4287-89.1641-59.1592-89.1641-59.1592L484.64,670.0509Z"/><path class="j" d="M426.5318,1278.0177s.3838,15.2939,10.7324,19.6074,40.333,8.2061,29.1289,18.0391c-6.4287,5.6425-36.7275,1.998-45.2813,1.998s-16.5849,3.7276-22.9423-1.998c-6.9942-6.2989,0-37.6465,0-37.6465s7.3808,3.8447,14.0195,3.6728C421.7564,1281.4415,426.5318,1278.0177,426.5318,1278.0177Z"/><path class="i" d="M515.815,816.4747s2.0654,69.02-19.9619,201.4238c-15.9014,95.586-34.6729,191.9063-43.8838,238.0831a36.0234,36.0234,0,0,1-33.65,29.2568l-8.8477.3555c-17.8027.7128-32.25-14.5782-30.9512-32.7579l22.3428-312.4082L406.37,837.6036Z"/><path class="j" d="M328.521,1278.0177s.3838,15.2939,10.7324,19.6074,40.3321,8.2061,29.1289,18.0391c-6.4287,5.6425-36.7275,1.998-45.2812,1.998s-16.5859,3.7276-22.9424-1.998c-6.9931-6.2989,0-37.6465,0-37.6465s7.3819,3.8447,14.0195,3.6728C323.7456,1281.4415,328.521,1278.0177,328.521,1278.0177Z"/><path class="i" d="M417.8032,816.4747s2.0655,69.02-19.9609,201.4238c-15.9014,95.586-34.6738,191.9063-43.8838,238.0831a36.0223,36.0223,0,0,1-33.65,29.2568l-8.8486.3555c-17.8008.7128-32.25-14.5782-30.95-32.7579l22.3423-312.4082,5.5058-102.8242Z"/><path class="j" d="M297.5376,892.1163c.2129,8.3262,50.5664,11.6338,112.8447,9.6914s112.044-10.5556,111.83-18.8828S471.8872,869.7091,409.61,871.6525,297.3238,883.7882,297.5376,892.1163Z"/><path class="u" d="M312.7818,656.3663s11.0127-43.6474,92.2656-44.09c117.1738-.64,106.3242,107.0263,117.165,270.6484,0,0-115.417-16.3213-224.7334,7.1416C297.479,890.0665,287.3384,723.0577,312.7818,656.3663Z"/><path class="u" d="M282.7906,650.1066l53.0683,29.3623s116.1983,10.5527,147.0449,5.47,39.3086-27.7324,39.3086-27.7324-32.8535-33.9932-88.6943-43.0684c-5.2471-.86-10.6875-1.4912-16.33-1.8584a160.5558,160.5558,0,0,0-28.2265.5606C318.187,620.8165,282.7906,650.1066,282.7906,650.1066Z"/><path class="l" d="M393.8765,602.2872l6.1348-19.7949,1.7841-5.7637,10.4971-33.8838,1.3809,33.7061.8261,20.2305.2618,6.4043c.1777,4.3466,2.8271,5.2607,6.0517,9.038,1.3067,1.53,9.668,10.8116.1777,15.002-11.8193,5.2236-33.9169-2.6846-42.3193-13.043C378.7368,614.1671,391.8941,608.6837,393.8765,602.2872Z"/><path class="i" d="M512.4068,889.6612s-67.4795-19.8535-207.2325,7.3975l-1.0771,20.1045,204.8672,7.2412Z"/><path class="j" d="M281.6856,651.33c-4.4991,6.3652,2.1284,18.9414,14.8032,28.0879s26.5977,11.4033,31.0967,5.0371-2.1289-18.9424-14.8037-28.0889S286.1851,644.965,281.6856,651.33Z"/><path class="l" d="M201.2285,907.2423h0a4.8552,4.8552,0,0,0-4.6528,5.0234l1.58,41.3047a4.8564,4.8564,0,0,0,5.0239,4.6533h0a4.8569,4.8569,0,0,0,4.6533-5.0244l-1.5805-41.3047A4.8544,4.8544,0,0,0,201.2285,907.2423Z"/><path class="l" d="M213.6148,906.7677h0a4.8566,4.8566,0,0,0-4.6529,5.0244l1.7671,46.1934a4.8561,4.8561,0,0,0,5.023,4.6533h0a4.8566,4.8566,0,0,0,4.6538-5.0235l-1.7676-46.1943A4.8561,4.8561,0,0,0,213.6148,906.7677Z"/><path class="l" d="M216.0254,882.5987l-1.3066,1.1241a5.8715,5.8715,0,0,0-.6206,8.2558l20.4541,23.7793a5.8712,5.8712,0,0,0,8.2558.6211l1.3062-1.124a5.87,5.87,0,0,0,.6211-8.2559L224.2808,883.22A5.87,5.87,0,0,0,216.0254,882.5987Z"/><path class="l" d="M226.0015,906.2941h0a4.8557,4.8557,0,0,0-4.6533,5.0234l1.4165,37.0293a4.8546,4.8546,0,0,0,5.0234,4.6523h0a4.8552,4.8552,0,0,0,4.6533-5.0224l-1.4165-37.0293A4.8556,4.8556,0,0,0,226.0015,906.2941Z"/><path class="l" d="M191.9243,884.0382s-13.0918,24.38-5.1977,42.3877c2.7324,6.2324,39.1572,3.8349,42.2353-3.14s-.3164-31.8906-.3164-31.8906Z"/><path class="l" d="M188.9263,907.6749h0a4.8467,4.8467,0,0,0-4.6436,5.0137l1.4136,36.9521a4.8445,4.8445,0,0,0,5.0127,4.6436h0a4.8463,4.8463,0,0,0,4.6441-5.0127l-1.4141-36.9522A4.8459,4.8459,0,0,0,188.9263,907.6749Z"/><path class="l" d="M235.4,895.8907c12.5542-52.5254,34.6821-127.0156,68.8091-183.6,7.9082-13.1113,11.1182-18,16.8115-24.96,4.5821-5.5987-.0722-20.044-9.5683-27.9864-8.91-7.4531-24.292-8.6748-27.1358-6.0371-4.8369,4.4854-10.6225,13.584-19.6723,28.0528-31.4434,50.2695-55.6768,117.5839-74.39,206.1875Z"/><path class="y" d="M439.3042,530.1212a44.5171,44.5171,0,0,1,0,18.4854c-2.1416,10.2832-12.5986-14.9942-12.5986-14.9942Z"/><path class="l" d="M440.5484,551.5724c-2.61-19.8828-18.0948-34.2461-34.583-32.0821-16.4893,2.1661-27.74,20.0391-25.1309,39.9219,2.6113,19.8819,18.0947,34.2461,34.583,32.0811S443.1577,571.4542,440.5484,551.5724Z"/><path class="j" d="M380.0835,549.0167l14.5752-1.5117a10.6085,10.6085,0,0,0,7.8711-4.7695c2.9863-4.6739,6.58-7.0743,20.1777-6.5645,17.2168.6475,28.584-9.6162,30.4444-18.626,1.8994-9.1953-6.9121-15.4277-15.56-11.0439s-4.9355-6.3662-13.2519-7.5078c-15.5391-2.1319-18.45,9.8457-31.1719,9.457-16.6826-.5117-46.5645,12.165-32.3926,41.5313Z"/><path class="o" d="M412.2759,553.9708a.611.611,0,0,0-.2744-1.125,6.61,6.61,0,0,0-7.0361,4.0059.6143.6143,0,0,0,.2744.8183.6706.6706,0,0,0,.8193-.2744,10.4457,10.4457,0,0,1,5.8418-3.332A.6124.6124,0,0,0,412.2759,553.9708Z"/><path class="o" d="M409.6294,561.8019c.3828,1.4052,1.5205,2.3183,2.54,2.04s1.5351-1.6426,1.1523-3.0478-1.52-2.3194-2.54-2.0411S409.2447,560.3966,409.6294,561.8019Z"/><path class="o" d="M434.8579,552.1593a.4467.4467,0,0,0,.33-.3047.7345.7345,0,0,0-.2373-.8252,4.281,4.281,0,0,0-6.2236.7061.7269.7269,0,0,0-.0117.8535.4522.4522,0,0,0,.6748.0918,6.3974,6.3974,0,0,1,5.167-.5938A.41.41,0,0,0,434.8579,552.1593Z"/><path class="o" d="M429.2915,558.4151c-.1806,1.4444.5225,2.7227,1.5713,2.8536s2.0459-.9327,2.2266-2.3789-.5225-2.7227-1.5713-2.8545S429.4722,556.9689,429.2915,558.4151Z"/><path class="y" d="M360.7759,549.9816s10.0645,21.7207,24.3389,23.3144c0,0-11.541-16.5537,12.7861-26.6416C397.9009,546.6544,375.564,543.14,360.7759,549.9816Z"/><path class="l" d="M380.899,561.9689c3.0537,1.9423,6.9355,1.3046,8.6708-1.4229s.668-6.5137-2.3847-8.456-6.9346-1.3057-8.67,1.4218S377.8462,560.0265,380.899,561.9689Z"/><path class="y" d="M397.9009,546.6544s-1.9492,18.2285,1.7617,21.6738,28.208,4.9287,39.6416.5108h0a23.8106,23.8106,0,0,1-19.6084,23.9824,34.5928,34.5928,0,0,1-11.6963-.04h0c-8.0029-1.3995-15.7851-4.709-19.0839-12.1338-1.0049-2.2588,1.9169-16.1573,1.9169-16.1573s1.0967-8.1572-3.6474-12.4C387.1851,552.09,392.6636,547.1661,397.9009,546.6544Z"/><path class="j" d="M435.7427,505.0675a4.5733,4.5733,0,0,1-4.9258-3.9375l.8174-.0762c.0127.1358.3682,3.3008,4.334,3.1885l.0254.8213C435.9087,505.0665,435.8247,505.0675,435.7427,505.0675Z"/><path class="m" d="M427.5855,531.3448l-.1143-.3935c.1846-.0537,18.5029-5.4854,19.2617-14.916.2139-2.6661-.2314-4.4375-1.3632-5.4121-1.8155-1.5635-5.1211-.7911-8.0381-.1114-.4493.1055-.8868.2071-1.3076.2979l-.087-.4014c.419-.0908.8555-.1924,1.3018-.2959,3.0117-.7021,6.4258-1.5,8.3984.2,1.2393,1.0664,1.7305,2.9482,1.5059,5.7559-.3252,4.0312-3.8184,7.9541-10.1045,11.3427A54.8689,54.8689,0,0,1,427.5855,531.3448Z"/><path class="m" d="M391.5044,512.2189a41.0474,41.0474,0,0,1-5.4931-.3789l.0556-.4073c9.3526,1.2656,16.0889-.9092,20.0908-2.958a22.2506,22.2506,0,0,0,6.49-4.7744l.3154.2627C412.8872,504.0558,405.899,512.2189,391.5044,512.2189Z"/><path class="m" d="M425.4634,581.6036c0,2.3516-1.2158,4.26-2.7178,4.26s-2.7177-1.9082-2.7177-4.26,1.2168-4.26,2.7177-4.26S425.4634,579.2511,425.4634,581.6036Z"/><path class="q" d="M241.0733,774.2706a5.6613,5.6613,0,0,1-1.7193-.2656,6.723,6.723,0,0,1-4.2519-4.794,14.1392,14.1392,0,0,1,4.4966-14.1621,6.2535,6.2535,0,0,1,10.49,3.33,14.1342,14.1342,0,0,1-4.4961,14.1621A7.3735,7.3735,0,0,1,241.0733,774.2706Zm3.0537-18.9365a5.4157,5.4157,0,0,0-3.2862,1.2969,12.143,12.143,0,0,0-3.8115,12.0039A4.2712,4.2712,0,0,0,244.35,770.96a12.1458,12.1458,0,0,0,3.8115-12.0049,4.7906,4.7906,0,0,0-2.9331-3.4531A3.6386,3.6386,0,0,0,244.127,755.3341Z"/><path class="j" d="M501.31,680.9737c-3.3535-12.1337-14.668-27.3964-14.7813-27.5488l1.0713-.8c.1162.1553,11.5781,15.6143,14.9981,27.9932Z"/><path class="j" d="M394.1275,1044.8634l-1.32-.2119c.0908-.5655,9.164-56.8448,15.4033-76.9756,6.2978-20.32,33.208-37.2725,33.4785-37.4414l.707,1.1357c-.2666.167-26.76,16.8584-32.9082,36.7012C403.2759,988.1124,394.2173,1044.2989,394.1275,1044.8634Z"/><path class="t" d="M627.0435,527.2355,777.399,405.0079a16.7447,16.7447,0,0,1,26.9443,9.53l41.167,194.73a16.7447,16.7447,0,0,1-18.336,20.0937L654.9907,609.1437A16.7454,16.7454,0,0,1,641.24,598.3214l-19.3389-52.2832A16.7451,16.7451,0,0,1,627.0435,527.2355Z"/><path class="t" d="M551.4331,547.1739l80.17-16.9482a17.7034,17.7034,0,0,1,21.2636,15.4355l3.7364,34.8985a17.7053,17.7053,0,0,1-12.5118,18.84l-82.2568,24.6992A17.7037,17.7037,0,0,1,539.939,612.71l-9.5635-28.8692A28.3614,28.3614,0,0,1,551.4331,547.1739Z"/><path class="i" d="M644.7993,607.9474l-25.2646,2.2734a10.587,10.587,0,0,1-11.3047-8.3545l-12.08-57.1426a10.5844,10.5844,0,0,1,6.8086-12.163l23.9444-8.5176a10.5875,10.5875,0,0,1,13.9052,7.7851l13.3994,63.3858A10.5869,10.5869,0,0,1,644.7993,607.9474Z"/><path class="t" d="M605.17,692.7472h0a14.0418,14.0418,0,0,1-16.6426-10.834l-14.6621-69.3516a14.043,14.043,0,0,1,10.834-16.6425h0a14.0426,14.0426,0,0,1,16.6425,10.8339l14.6612,69.3516A14.0426,14.0426,0,0,1,605.17,692.7472Z"/><path class="t" d="M627.0435,527.2355,777.399,405.0079s24.3535-2.7236,26.9443,9.53l41.167,194.73a16.7447,16.7447,0,0,1-18.336,20.0937L654.9907,609.1437A16.7454,16.7454,0,0,1,641.24,598.3214l-19.3389-52.2832A16.7451,16.7451,0,0,1,627.0435,527.2355Z"/><path class="aa" d="M630.981,662.9493s6.8047,14.8135-6.7608,20.93c-17.2841,7.792-46.288.9277-35.4043-4.16,9.6495-4.5108,24.89-7.6338,24.89-7.6338s-38.86,7.4023-37.6387-1.1924,34.7246-14.5049,34.7246-14.5049-38.5146,3.6377-34.73-4.1084,34.17-13.3018,34.17-13.3018-37.4492,5.5831-32.8438-3.3105,24.5567-7.8564,33.1084-9.3477c8.0821-1.4091,11.6075,3.3438,12.4082,11.2373,0,0,5.3662,7.3956,4.586,12.6836-.2979,2.0284,1.8564,3.6153,2.2715,4.9981A51.0941,51.0941,0,0,1,630.981,662.9493Z"/></svg>