<svg xmlns="http://www.w3.org/2000/svg" width="2703.6055" height="1396.6353" viewBox="0 0 2703.6055 1396.6353"><defs><style>.a{fill:#ebf3fa;}.b{fill:#a8d29f;}.c{fill:#82b378;}.d{fill:#ed7d2b;}.e{fill:#c7dcfb;}.f{fill:#dfebfd;}.g{fill:#78acea;}.h{fill:#699dee;}.i{fill:#5288d8;}.j{fill:#d7e9ff;}.k{fill:#f99746;}.l{fill:#afcdfb;}.m{fill:#fff;}.n{fill:#c65447;}.o{fill:#ffb27d;}.p{fill:#233862;}.q{fill:#2b478b;}.r{fill:#ed985f;}.s{fill:#2c3a64;}.t{fill:#2e3552;}</style></defs><title>Asset 3</title><path class="a" d="M206.0542,1395.9361s-309.7632-332.5869-52.3857-692.66C382.0313,383.795,648.2793,405.6339,843.6206,535.2813c83.1988,55.2188,323.0694,6.8057,527.23-318.2783,278.419-443.3262,1243.52-174.4478,1067.5518,507.6206-85.1563,330.0732,259.164,342.07,83.72,672.0117Z"/><path class="b" d="M800.9253,752.9664s-153.2422-218.13-213.1294-189.8526S800.9253,752.9664,800.9253,752.9664Z"/><path class="b" d="M791.1807,694.3541S767.7735,530.3409,730.8726,536.776,791.1807,694.3541,791.1807,694.3541Z"/><path class="c" d="M661.6226,1205.5513s14.7295-72.98-42.4741-82.1513c0,0-38.7979-1.3545-61.6416,13.2783,0,0,64.8784,37.456,57.1631,49.0967s-69.2842-46.9483-69.2842-46.9483-69.55,30.4619-85.0733,52.5235c0,0,82.187,14.6445,71.8438,24.0283s-96.5737-1.8828-96.5737-1.8828-55.5669,44.7558-31.3653,80.3857,51.8223,35.376,60.565,29.1846,51.54-57.3486,56.9819-50.3916-13.3906,50.1533-35.67,64.1289c0,0,69.9653,23.5566,91.039-6.2959s11.3272-53.0674,24.6861-71.28c13.3584-18.2109,28.68-26.7451,25.9433-14.2529s-30.66,38.7461-30.7807,62.6191-2.4873,41.251,24.7783,20.1407,63.4839-69.9248,51.6733-96.0538Z"/><path class="c" d="M434.9536,1278.0357s163.19-99.6045,226.669-72.4844c0,0,21.7754,19.8448,59.251,28.0557l9.8559,8.4648s-45.9248-14.3261-57.2959-10.3916C673.4336,1231.68,656.5923,1163.5533,434.9536,1278.0357Z"/><path class="c" d="M720.8736,1233.607s50.5893,6.4746,79.5039,52.39l-6.1724,4.2109s-38.76-42.5244-70.1113-50.1065S720.8736,1233.607,720.8736,1233.607Z"/><path class="b" d="M711.5743,992.6021s118.5009-66.36,63.2-156.4209c0,0-44.24-55.3008-91.64-69.52,0,0,25.28,134.3008,0,137.461s-17.38-151.6807-17.38-151.6807S540.9336,692.4,491.9532,697.14c0,0,77.4209,131.1406,52.1406,127.9805s-112.1807-135.88-112.1807-135.88-127.98-23.7007-148.52,52.14,12.64,113.7608,31.6,118.501,140.6206,3.16,137.46,18.96-85.32,41.08-131.1407,26.86c0,0,50.5606,124.82,116.9209,118.5s86.9-47.4,127.98-50.5605,71.1,7.9,50.56,18.9609-90.0606,3.624-123.2408,31.8321-60.04,45.5878,1.58,58.2275,172.2207,4.74,194.3408-42.66Z"/><path class="c" d="M341.8526,765.0806S673.6543,872.5211,711.5743,992.6021c0,0-1.58,53.72,31.6005,115.34v23.7s-34.76-80.58-53.7207-91.6407C689.4541,1040.0015,763.7144,935.7213,341.8526,765.0806Z"/><path class="c" d="M743.1748,1107.942s51.169,77.7031,21.9976,172.289l-13.1646-3.5351s12.7789-104.1817-13.9926-156.5782C711.2442,1067.7193,743.1748,1107.942,743.1748,1107.942Z"/><path class="d" d="M832.0118,437.3922,654.7129,1354.0084a30.2151,30.2151,0,0,0,29.6651,35.9531h93.5078Z"/><path class="e" d="M2010.57,699.78s-79.7509-50.8746-37.7021-111.292c0,0,32.9707-36.6875,66.498-44.6836,0,0-22.9394,92.3784-5.4873,95.5849S2052.02,534.61,2052.02,534.61s89.1923-36.7671,123.0625-31.5156c0,0-59.07,88.1-41.3653,86.9116s83.43-90.0083,83.43-90.0083,89.9395-11.3716,101.1953,42.1851-13.331,78.6006-26.7041,81.14-97.9092-3.416-96.3427,7.6968,57.6894,31.9717,90.1191,23.9126c0,0-40.1406,84.7778-86.0332,77.7339s-58.5352-36.43-86.9746-40.2666-49.7559,2.6553-35.9141,11.166,62.4795,6.1152,84.4258,27.0547,39.93,34.0967-3.4229,40.4258-119.9462-3.5781-133.4345-37.4219Z"/><path class="e" d="M2276.7442,556.3292S2041.7325,617.7945,2010.57,699.78c0,0-1.0449,37.4189-26.5771,78.9423l-.9463,16.4805s27.3877-54.6455,41.0137-61.5791C2024.0606,733.6236,1976.585,658.1466,2276.7442,556.3292Z"/><path class="e" d="M1983.9932,778.7222s-38.6836,51.9893-22.1748,118.9258l9.2949-1.9336s-4.7265-72.9531,15.9815-108.32S1983.9932,778.7222,1983.9932,778.7222Z"/><path class="f" d="M1795.8428,478.9556s-122.5342-26.9072-97.7822-121.3369c0,0,24.289-60.7392,62.3789-86.0107,0,0,13.6406,125.4931,36.8349,121.5122s-25.2812-138.74-25.2812-138.74,94.25-86.5214,138.8174-95.4565c0,0-33.2969,136.6714-11.7969,127.104s62.7539-150.1758,62.7539-150.1758,106.7813-55.2446,145.2608,6.2925,19.3105,103.9492,3.82,113.22-123.459,40.4746-116.4317,53.5948,86.4287,13.4511,123.1231-11.397c0,0-11.2471,123.8867-71.6016,136.082s-89.5195-18.6147-126.6807-10.4-60.7334,26.0357-39.6132,30.3086,80.583-20.9292,117.4726-4.8848,65.2891,24.21,14.2051,51.8955-150.9688,50.3389-183.2236,14.3658Z"/><path class="f" d="M2061.7022,178.76s-264.5156,183.8858-265.8594,300.1953c0,0,15.792,47.0645,2.9736,110.4263l6.3506,20.95s9.1348-80.5454,22.9317-95.4028C1828.0987,514.9293,1734.5108,442.6466,2061.7022,178.76Z"/><path class="f" d="M1798.8164,589.3819s-24.4111,82.3989,26.7217,158.1948l10.6895-6.6533s-39.2129-88.67-29.5879-142.1616S1798.8164,589.3819,1798.8164,589.3819Z"/><path class="g" d="M834.1426,433.6832,716.625,1333.6568a49.85,49.85,0,0,0,49.43,56.3047H938.4546L841.2539,430.4327Z"/><path class="h" d="M834.1426,433.6832l-52.6069,894.2353a58.6013,58.6013,0,0,0,58.5,62.043h257.1172Z"/><path class="i" d="M832.17,440.9825l25.5776,886.936a58.6019,58.6019,0,0,0,58.5,62.043h257.1172Z"/><path class="j" d="M2063.1963,1389.9615H1049.3985a52.4171,52.4171,0,0,1-51.562-42.9883L843.5728,503.3546a62.3684,62.3684,0,0,1,61.3511-73.587H1906.7852a52.4168,52.4168,0,0,1,51.5625,42.9883l156.41,855.36A52.4163,52.4163,0,0,1,2063.1963,1389.9615Z"/><path class="k" d="M863.6416,612.9161h1121.04l-28.7442-159.2793a29.0243,29.0243,0,0,0-28.5625-23.8692H841.5176a9.5036,9.5036,0,0,0-9.3481,11.2149Z"/><path class="g" d="M889.8521,381.837a48.6466,48.6466,0,0,0-48.6035,48.5918h9.3369a39.2726,39.2726,0,1,1,52.1079,37.1094,38.8614,38.8614,0,0,1-10.604,2.1v9.3374a47.9987,47.9987,0,0,0,12.4189-2.2032,48.5983,48.5983,0,0,0-14.6562-94.9355Z"/><path class="g" d="M904.8848,473.9644a10.82,10.82,0,0,1-.3765,2.8081,10.5582,10.5582,0,1,1,.3765-2.8081Z"/><path class="g" d="M1064.1084,381.837a48.6471,48.6471,0,0,0-48.604,48.5918h9.3262a39.272,39.272,0,0,1,78.5439,0,38.9111,38.9111,0,0,1-2.02,12.4306,39.4159,39.4159,0,0,1-24.4043,24.6788,38.9433,38.9433,0,0,1-10.6157,2.1v9.3374a48.0055,48.0055,0,0,0,12.4194-2.2032,48.5962,48.5962,0,0,0-14.645-94.9355Z"/><path class="g" d="M1079.13,473.9644a10.82,10.82,0,0,1-.3765,2.8081,10.589,10.589,0,1,1,.3765-2.8081Z"/><path class="g" d="M1238.3643,381.837a48.6466,48.6466,0,0,0-48.6035,48.5918h9.3257a39.264,39.264,0,1,1,41.5034,39.2095v9.3374a48.0872,48.0872,0,0,0,12.4194-2.2032,48.5983,48.5983,0,0,0-14.645-94.9355Z"/><path class="g" d="M1253.3858,473.9644a10.82,10.82,0,0,1-.3765,2.8081,10.589,10.589,0,1,1,.3765-2.8081Z"/><path class="g" d="M1412.6094,381.837a48.6375,48.6375,0,0,0-48.5928,48.5918h9.3262a39.2723,39.2723,0,1,1,52.1084,37.1094,38.8672,38.8672,0,0,1-10.6045,2.1v9.3374a48.0887,48.0887,0,0,0,12.419-2.2032,48.5983,48.5983,0,0,0-14.6563-94.9355Z"/><path class="g" d="M1427.6426,473.9644a10.8462,10.8462,0,0,1-.3769,2.8081,10.5551,10.5551,0,1,1,.3769-2.8081Z"/><path class="g" d="M1586.8653,381.837a48.6466,48.6466,0,0,0-48.6035,48.5918h9.3261a39.272,39.272,0,0,1,78.544,0,38.9249,38.9249,0,0,1-2.0205,12.4306,39.4075,39.4075,0,0,1-24.4161,24.6788,38.78,38.78,0,0,1-10.6044,2.1v9.3374a47.9912,47.9912,0,0,0,12.4189-2.2032,48.5961,48.5961,0,0,0-14.6445-94.9355Z"/><path class="g" d="M1601.8868,473.9644a10.8033,10.8033,0,0,1-.377,2.8081,10.5541,10.5541,0,1,1,.377-2.8081Z"/><path class="g" d="M1761.1211,381.837a48.6473,48.6473,0,0,0-48.6035,48.5918h9.3262a39.2724,39.2724,0,1,1,52.1074,37.1094,38.7661,38.7661,0,0,1-10.6035,2.1v9.3374a47.9987,47.9987,0,0,0,12.4189-2.2032,48.5984,48.5984,0,0,0-14.6455-94.9355Z"/><path class="g" d="M1776.1426,473.9644a10.8416,10.8416,0,0,1-.376,2.8081,10.562,10.562,0,1,1,.376-2.8081Z"/><path class="g" d="M1935.3662,381.837a48.6375,48.6375,0,0,0-48.5927,48.5918H1896.1a39.272,39.272,0,0,1,78.544,0,38.8972,38.8972,0,0,1-2.0205,12.4306,39.4036,39.4036,0,0,1-24.4151,24.6788,38.8672,38.8672,0,0,1-10.6045,2.1v9.3374a47.9987,47.9987,0,0,0,12.419-2.2032,48.5983,48.5983,0,0,0-14.6563-94.9355Z"/><path class="g" d="M1950.3994,473.9644a10.8419,10.8419,0,0,1-.3769,2.8081,10.5551,10.5551,0,1,1,.3769-2.8081Z"/><path class="l" d="M1511.9278,912.1392h-56.67c-6.5507,0-12.9453-5.3593-14.2089-11.9111l-10.9317-56.67c-1.2637-6.5508,3.0625-11.9112,9.6143-11.9112h56.67c6.5518,0,12.9453,5.36,14.209,11.9112l10.9316,56.67C1522.8057,906.78,1518.48,912.1392,1511.9278,912.1392Z"/><path class="l" d="M1654.93,912.1392h-56.67c-6.5508,0-12.9453-5.3593-14.209-11.9111l-10.9316-56.67c-1.2637-6.5508,3.0625-11.9112,9.6133-11.9112h56.6709c6.5507,0,12.9453,5.36,14.2089,11.9112l10.9307,56.67C1665.8076,906.78,1661.4815,912.1392,1654.93,912.1392Z"/><path class="g" d="M1797.9317,912.1392h-56.67c-6.5518,0-12.9454-5.3593-14.209-11.9111l-10.9317-56.67c-1.2636-6.5508,3.0625-11.9112,9.6133-11.9112h56.67c6.5518,0,12.9453,5.36,14.209,11.9112l10.9317,56.67C1808.8086,906.78,1804.4825,912.1392,1797.9317,912.1392Z"/><path class="l" d="M1082.9229,912.1392h-56.67c-6.5513,0-12.9454-5.3593-14.209-11.9111l-10.9317-56.67c-1.2636-6.5508,3.0625-11.9112,9.6138-11.9112h56.67c6.5508,0,12.9453,5.36,14.2085,11.9112l10.9317,56.67C1093.8008,906.78,1089.4742,912.1392,1082.9229,912.1392Z"/><path class="k" d="M1020.8125,742.0025H996.46a6.5274,6.5274,0,0,1-6.106-5.1182l-4.6977-24.3535a4.1132,4.1132,0,0,1,4.1313-5.1191H1014.14a6.5281,6.5281,0,0,1,6.1059,5.1191l4.6978,24.3535A4.1125,4.1125,0,0,1,1020.8125,742.0025Z"/><path class="l" d="M1225.9248,912.1392h-56.67c-6.5512,0-12.9448-5.3593-14.2085-11.9111l-10.9316-56.67c-1.2637-6.5508,3.0625-11.9112,9.6133-11.9112h56.67c6.5513,0,12.9453,5.36,14.209,11.9112l10.9316,56.67C1236.8023,906.78,1232.4761,912.1392,1225.9248,912.1392Z"/><path class="l" d="M1368.9268,912.1392h-56.67c-6.5513,0-12.9453-5.3593-14.209-11.9111l-10.9316-56.67c-1.2637-6.5508,3.0625-11.9112,9.6137-11.9112h56.67c6.5518,0,12.9454,5.36,14.209,11.9112l10.9317,56.67C1379.8037,906.78,1375.4776,912.1392,1368.9268,912.1392Z"/><path class="g" d="M1940.9336,912.1392h-56.6709c-6.5508,0-12.9443-5.3593-14.208-11.9111l-10.9316-56.67c-1.2637-6.5508,3.0625-11.9112,9.6133-11.9112h56.67c6.5517,0,12.9453,5.36,14.209,11.9112l10.9316,56.67C1951.8106,906.78,1947.4844,912.1392,1940.9336,912.1392Z"/><path class="l" d="M1488.1856,789.0562h-56.67c-6.5508,0-12.9454-5.36-14.209-11.9111l-10.9317-56.67c-1.2636-6.5518,3.0625-11.9121,9.6133-11.9121h56.6709c6.5508,0,12.9453,5.36,14.209,11.9121l10.9316,56.67C1499.0635,783.6959,1494.7373,789.0562,1488.1856,789.0562Z"/><path class="l" d="M1631.1875,789.0562h-56.67c-6.5517,0-12.9453-5.36-14.209-11.9111l-10.9316-56.67c-1.2637-6.5518,3.0625-11.9121,9.6133-11.9121h56.67c6.5517,0,12.9453,5.36,14.209,11.9121l10.9316,56.67C1642.0645,783.6959,1637.7383,789.0562,1631.1875,789.0562Z"/><path class="g" d="M1774.19,789.0562h-56.67c-6.5518,0-12.9453-5.36-14.209-11.9111l-10.9317-56.67c-1.2646-6.5518,3.0625-11.9121,9.6133-11.9121h56.67c6.5508,0,12.9454,5.36,14.209,11.9121l10.9317,56.67C1785.0664,783.6959,1780.74,789.0562,1774.19,789.0562Z"/><path class="g" d="M1917.1914,789.0562h-56.6709c-6.5507,0-12.9453-5.36-14.2089-11.9111l-10.9317-56.67c-1.2637-6.5518,3.0625-11.9121,9.6143-11.9121h56.67c6.5508,0,12.9453,5.36,14.209,11.9121l10.9316,56.67C1928.0684,783.6959,1923.7422,789.0562,1917.1914,789.0562Z"/><path class="l" d="M1537.0928,1042.5943h-56.6709c-6.5508,0-12.9443-5.36-14.208-11.9111l-10.9316-56.6709c-1.2637-6.5508,3.0615-11.9112,9.6132-11.9112h56.67c6.5517,0,12.9453,5.36,14.2089,11.9112l10.9317,56.6709C1547.97,1037.234,1543.6436,1042.5943,1537.0928,1042.5943Z"/><path class="l" d="M1680.0938,1042.5943h-56.67c-6.5508,0-12.9454-5.36-14.209-11.9111l-10.9317-56.6709c-1.2636-6.5508,3.0625-11.9112,9.6143-11.9112h56.67c6.5518,0,12.9453,5.36,14.209,11.9112l10.9316,56.6709C1690.9717,1037.234,1686.6455,1042.5943,1680.0938,1042.5943Z"/><path class="g" d="M1823.0957,1042.5943h-56.67c-6.5508,0-12.9453-5.36-14.209-11.9111l-10.9316-56.6709c-1.2637-6.5508,3.0625-11.9112,9.6142-11.9112h56.67c6.5507,0,12.9453,5.36,14.209,11.9112l10.9316,56.6709C1833.9737,1037.234,1829.6475,1042.5943,1823.0957,1042.5943Z"/><path class="l" d="M1108.0874,1042.5943h-56.67c-6.5508,0-12.9453-5.36-14.209-11.9111l-10.9316-56.6709c-1.2637-6.5508,3.0625-11.9112,9.6143-11.9112h56.67c6.5512,0,12.9453,5.36,14.209,11.9112l10.9316,56.6709C1118.9649,1037.234,1114.6387,1042.5943,1108.0874,1042.5943Z"/><path class="l" d="M1251.0889,1042.5943h-56.67c-6.5513,0-12.9453-5.36-14.209-11.9111l-10.9316-56.6709c-1.2637-6.5508,3.0625-11.9112,9.6137-11.9112h56.67c6.5508,0,12.9453,5.36,14.209,11.9112l10.9312,56.6709C1261.9668,1037.234,1257.6407,1042.5943,1251.0889,1042.5943Z"/><path class="l" d="M1394.0909,1042.5943h-56.67c-6.5517,0-12.9453-5.36-14.209-11.9111L1312.28,974.0123c-1.2637-6.5508,3.0625-11.9112,9.6133-11.9112h56.6709c6.5508,0,12.9453,5.36,14.209,11.9112l10.9316,56.6709C1404.9688,1037.234,1400.6426,1042.5943,1394.0909,1042.5943Z"/><path class="g" d="M1966.0977,1042.5943h-56.67c-6.5518,0-12.9453-5.36-14.209-11.9111l-10.9317-56.6709c-1.2636-6.5508,3.0625-11.9112,9.6133-11.9112h56.6709c6.5508,0,12.9444,5.36,14.208,11.9112l10.9317,56.6709C1976.9746,1037.234,1972.6485,1042.5943,1966.0977,1042.5943Z"/><path class="l" d="M1562.2569,1173.0484h-56.67c-6.5517,0-12.9453-5.3594-14.2089-11.9111l-10.9317-56.67c-1.2637-6.5508,3.0625-11.9112,9.6133-11.9112h56.6709c6.5508,0,12.9453,5.36,14.209,11.9112l10.9316,56.67C1573.1348,1167.689,1568.8086,1173.0484,1562.2569,1173.0484Z"/><path class="l" d="M1705.2588,1173.0484h-56.67c-6.5518,0-12.9463-5.3594-14.209-11.9111l-10.9316-56.67c-1.2637-6.5508,3.0615-11.9112,9.6133-11.9112h56.67c6.5517,0,12.9453,5.36,14.209,11.9112l10.9316,56.67C1716.1358,1167.689,1711.81,1173.0484,1705.2588,1173.0484Z"/><path class="g" d="M1848.26,1173.0484h-56.67c-6.5508,0-12.9453-5.3594-14.209-11.9111l-10.9316-56.67c-1.2637-6.5508,3.0625-11.9112,9.6142-11.9112h56.67c6.5518,0,12.9453,5.36,14.209,11.9112l10.9317,56.67C1859.1377,1167.689,1854.8116,1173.0484,1848.26,1173.0484Z"/><path class="l" d="M1133.252,1173.0484h-56.67c-6.5513,0-12.9453-5.3594-14.209-11.9111l-10.9317-56.67c-1.2636-6.5508,3.0625-11.9112,9.6138-11.9112h56.67c6.5513,0,12.9449,5.36,14.2085,11.9112l10.9317,56.67C1144.1289,1167.689,1139.8028,1173.0484,1133.252,1173.0484Z"/><path class="k" d="M1276.2534,1173.0484h-56.67c-6.5507,0-12.9448-5.3594-14.2085-11.9111l-10.9316-56.67c-1.2637-6.5508,3.062-11.9112,9.6133-11.9112h56.67c6.5513,0,12.9453,5.36,14.209,11.9112l10.9316,56.67C1287.1309,1167.689,1282.8047,1173.0484,1276.2534,1173.0484Z"/><path class="l" d="M1419.2549,1173.0484h-56.67c-6.5518,0-12.9453-5.3594-14.209-11.9111l-10.9316-56.67c-1.2637-6.5508,3.0625-11.9112,9.6142-11.9112h56.67c6.5508,0,12.9454,5.36,14.209,11.9112l10.9317,56.67C1430.1328,1167.689,1425.8067,1173.0484,1419.2549,1173.0484Z"/><path class="g" d="M1991.2618,1173.0484h-56.67c-6.5508,0-12.9453-5.3594-14.209-11.9111l-10.9316-56.67c-1.2637-6.5508,3.0625-11.9112,9.6133-11.9112h56.6709c6.5517,0,12.9453,5.36,14.209,11.9112l10.9316,56.67C2002.14,1167.689,1997.8135,1173.0484,1991.2618,1173.0484Z"/><path class="l" d="M1585.9991,1296.1324h-56.67c-6.5517,0-12.9453-5.36-14.209-11.9111l-10.9316-56.6709c-1.2637-6.5508,3.0625-11.9112,9.6143-11.9112h56.67c6.5508,0,12.9453,5.36,14.209,11.9112l10.9316,56.6709C1596.877,1290.772,1592.5508,1296.1324,1585.9991,1296.1324Z"/><path class="l" d="M1729.001,1296.1324h-56.67c-6.5518,0-12.9453-5.36-14.209-11.9111l-10.9316-56.6709c-1.2637-6.5508,3.0625-11.9112,9.6132-11.9112h56.6709c6.5508,0,12.9454,5.36,14.209,11.9112l10.9307,56.6709C1739.8789,1290.772,1735.5528,1296.1324,1729.001,1296.1324Z"/><path class="g" d="M1872.003,1296.1324h-56.67c-6.5517,0-12.9453-5.36-14.2089-11.9111l-10.9317-56.6709c-1.2637-6.5508,3.0625-11.9112,9.6133-11.9112h56.67c6.5518,0,12.9453,5.36,14.21,11.9112l10.9306,56.6709C1882.88,1290.772,1878.5537,1296.1324,1872.003,1296.1324Z"/><path class="l" d="M1156.9942,1296.1324h-56.67c-6.5518,0-12.9454-5.36-14.209-11.9111l-10.9317-56.6709c-1.2636-6.5508,3.0625-11.9112,9.6133-11.9112h56.67c6.5513,0,12.9453,5.36,14.209,11.9112l10.9316,56.6709C1167.8716,1290.772,1163.5454,1296.1324,1156.9942,1296.1324Z"/><path class="l" d="M1299.9961,1296.1324h-56.67c-6.5513,0-12.9453-5.36-14.209-11.9111l-10.9316-56.6709c-1.2637-6.5508,3.0625-11.9112,9.6138-11.9112h56.67c6.5517,0,12.9453,5.36,14.209,11.9112l10.9316,56.6709C1310.8731,1290.772,1306.5469,1296.1324,1299.9961,1296.1324Z"/><path class="l" d="M1442.9981,1296.1324h-56.6709c-6.5508,0-12.9453-5.36-14.209-11.9111l-10.9316-56.6709c-1.2637-6.5508,3.0625-11.9112,9.6142-11.9112h56.67c6.5508,0,12.9453,5.36,14.209,11.9112l10.9317,56.6709C1453.875,1290.772,1449.5489,1296.1324,1442.9981,1296.1324Z"/><path class="l" d="M1192.5747,719.6392H1042.4409a4.0351,4.0351,0,0,1-4.0229-4.0234h0a4.035,4.035,0,0,1,4.0229-4.0225h150.1338a4.035,4.035,0,0,1,4.023,4.0225h0A4.0352,4.0352,0,0,1,1192.5747,719.6392Z"/><path class="l" d="M1197.1407,737.8218H1047.0069a4.0348,4.0348,0,0,1-4.023-4.0234h0a4.0346,4.0346,0,0,1,4.023-4.0224h150.1338a4.0349,4.0349,0,0,1,4.0229,4.0224h0A4.0351,4.0351,0,0,1,1197.1407,737.8218Z"/><path class="m" d="M1031.5552,584.2427h-51.52a7.6956,7.6956,0,0,1-7.6729-7.6728h0a7.696,7.696,0,0,1,7.6729-7.6733h51.52a7.696,7.696,0,0,1,7.6733,7.6733h0A7.6956,7.6956,0,0,1,1031.5552,584.2427Z"/><path class="m" d="M1172.9229,584.2427h-51.52a7.6953,7.6953,0,0,1-7.6734-7.6728h0a7.6957,7.6957,0,0,1,7.6734-7.6733h51.52a7.696,7.696,0,0,1,7.6733,7.6733h0A7.6956,7.6956,0,0,1,1172.9229,584.2427Z"/><path class="m" d="M1314.2906,584.2427h-51.52a7.6955,7.6955,0,0,1-7.6728-7.6728h0a7.6959,7.6959,0,0,1,7.6728-7.6733h51.52a7.6956,7.6956,0,0,1,7.6728,7.6733h0A7.6952,7.6952,0,0,1,1314.2906,584.2427Z"/><path class="m" d="M1455.6582,584.2427h-51.52a7.6957,7.6957,0,0,1-7.6738-7.6728h0a7.6961,7.6961,0,0,1,7.6738-7.6733h51.52a7.6959,7.6959,0,0,1,7.6729,7.6733h0A7.6955,7.6955,0,0,1,1455.6582,584.2427Z"/><path class="m" d="M1597.0254,584.2427h-51.5195a7.6949,7.6949,0,0,1-7.6729-7.6728h0a7.6953,7.6953,0,0,1,7.6729-7.6733h51.5195a7.6953,7.6953,0,0,1,7.6729,7.6733h0A7.6949,7.6949,0,0,1,1597.0254,584.2427Z"/><path class="m" d="M1738.3926,584.2427h-51.5195A7.6956,7.6956,0,0,1,1679.2,576.57h0a7.696,7.696,0,0,1,7.6729-7.6733h51.5195a7.6961,7.6961,0,0,1,7.6738,7.6733h0A7.6957,7.6957,0,0,1,1738.3926,584.2427Z"/><path class="m" d="M1879.7608,584.2427h-51.52a7.6948,7.6948,0,0,1-7.6728-7.6728h0a7.6953,7.6953,0,0,1,7.6728-7.6733h51.52a7.6959,7.6959,0,0,1,7.6728,7.6733h0A7.6955,7.6955,0,0,1,1879.7608,584.2427Z"/><path class="n" d="M1553.918,790.1724c-11.377,0-19.6611-3.6123-24.1758-10.6191-8.6582-13.4385-1.9746-32.2754,19.8643-55.9912a276.9071,276.9071,0,0,1,34.7617-31.1778,1.6437,1.6437,0,1,1,1.9434,2.6514c-.7266.5342-72.52,53.69-53.8047,82.7363,5.9287,9.2012,18.6181,9.8106,28.2334,8.6983,17.7861-2.0567,40.9785-11.6367,62.0381-25.624,21.7988-14.4776,37.1533-30.795,42.1289-44.7666,3.2636-9.167,2.2548-15.6592-3.0039-19.2969-6.7911-4.7012-20.9795-4.7041-37.9522-.0127-16.2559,4.4941-32.6162,12.585-42.6992,21.1172a1.6447,1.6447,0,0,1-2.124-2.5117c10.4218-8.8184,27.2617-17.1621,43.9472-21.7745,18.168-5.0224,33.002-4.8486,40.7.4776,4.56,3.1543,8.9942,9.7246,4.2295,23.1035-5.209,14.6279-21.03,31.542-43.4062,46.4033-21.4727,14.2617-45.2032,24.0371-63.4805,26.1514A62.8689,62.8689,0,0,1,1553.918,790.1724Z"/><path class="o" d="M1851.3936,696.7535,1845.545,685.72s2.9033-19.6621-21.7334-32.0991c0,0-9.004-3.6661-14.087,3.6772-4.6816,6.7637,8.9229,5.542,8.1934,17.1138s4.7607,18.3608,12.4072,22.13l6.3184,7.32Z"/><path class="p" d="M2084.2178,670.3756s-21.1562,103.8408-137.582,137.7685c-36.3438,10.5908-118.9092-109.06-118.9092-109.06s2.9023-11.03,21.0879-8.4971c0,0,80.3926,53.2217,90.5137,59.0039,8.98,5.1309,68.041-65.9478,94.9648-77.4131S2084.2178,670.3756,2084.2178,670.3756Z"/><rect class="n" x="1796.6714" y="604.9377" width="25.6208" height="128.8805" transform="translate(1480.8356 2570.5048) rotate(-100.4931)"/><polygon class="o" points="1716.656 686.567 1748.451 693.708 1743.786 668.515 1716.656 686.567"/><path class="o" d="M1886.792,650.6773l1.4756,7.9644a9.0224,9.0224,0,0,1-7.2285,10.5136l-5.8613,1.0855-4.666-25.1924,6.375-1.1807A8.499,8.499,0,0,1,1886.792,650.6773Z"/><path class="p" d="M2223.2149,1323.148s14.4433,13.1817,11.625,22.5469-15.8516,15.6094-17.6133,27.0557-8.8066,17.69-15.1484,17.69h-30.2305s-4.668-8.0547,6.6055-10.4834,15.5234-15.8789,14.8183-28.3662,1.0567-29.1367,1.0567-29.1367l23.955-5.55Z"/><path class="p" d="M2046.0205,1357.24s2.5928,29.9971-3.749,33.1192l-81.1494-.167s0-9.3653,13.0342-11.4463,35.9316-9.7119,39.8076-26.709S2046.0205,1357.24,2046.0205,1357.24Z"/><path class="k" d="M1977.5078,933.5006s4.28,52.582,9.3106,115.789c6.8379,85.86,15.06,191.3262,15.874,211.3057,1.4053,34.6943,7.0488,90.19,7.0488,90.19s13.38,13.1836,40.1592,7.627c0,0,23.8633-79.2217,30.68-163.043.1055-1.373.2119-2.7568.3174-4.1406,6.3408-85.33,16.2012-265.0127,16.2012-265.0127Z"/><path class="d" d="M1977.5078,933.5006s4.28,52.582,9.3106,115.789l93.7617,146.08c.1055-1.373.2119-2.7568.3174-4.1406,6.3408-85.33,16.2012-265.0127,16.2012-265.0127Z"/><path class="k" d="M1997.0547,939.7447s77.1485,190.4316,127.875,279.9248c50.7285,89.4922,66.58,114.4668,66.58,114.4668s29.0635-11.4473,31.7051-19.251c0,0-19.3985-172.7695-53.3692-214.8867-19.1963-23.7978-41.7451-95.2148-42.8017-120.19-1.0567-24.9737-6.8692-74.4033-6.8692-74.4033Z"/><path class="o" d="M2098.56,646.276s-52.2,25.186-82.293,15.8417a71.0005,71.0005,0,0,1,20.37-16.2978c-1.0411-6.04-1.8516-11.2827-2.3145-15.7275a145.2473,145.2473,0,0,1-1.2734-16.0694l20.14-15.84,19.0977-15.1582C2070.7813,625.6475,2098.56,646.276,2098.56,646.276Z"/><path class="q" d="M1974.2129,937.8433a4.6991,4.6991,0,0,0,3.1328,1.2481c11.3389-.2305,44.3252,6.0351,72.211,3.1875,23.6133-2.2793,44.4472-9.1143,66.7851-18.9072,3.0117-1.37,9.8477-5.0186,9.7246-8.2061-.1211-3.6484-.4609-8.7754-.9218-15.3945-.9356-13.0205-2.252-31.5069-2.6719-53.4258-.3115-16.249-.1358-34.3828,1.0449-53.5879.0674-1.2891.1348-2.5908.1895-3.8926.3388-7.04.5019-14.1338.5019-21.0644a365.5881,365.5881,0,0,0-4.7344-62.6758c-5.6826-33.0537-16.33-58.919-32.0625-70.4341-2.0888-1.6-15.0556,4.6655-27.0859,10.4844-11,5.3574-21.9863,5.9272-32.4033,3.8794l-10.416,9.1142c-12.628,11.502-26.5166,27.3438-32.6475,51.2832-5.0859,20.29-8.0967,56.9785-9.7246,95.0508-.8,17.32-1.3828,34.6406-1.6133,51.1611v.5694c-.123,1.709-.123,3.4316-.123,5.1406C1972.8291,903.65,1973.3985,937.274,1974.2129,937.8433Z"/><path class="r" d="M2072.6328,599.3223s-13.1943,24.0464-38.31,30.77a145.2473,145.2473,0,0,1-1.2734-16.0694l20.14-15.84Z"/><path class="o" d="M2023.8662,613.3287s49.7959,8.1455,54.4717-22.4673c4.6739-30.6128,14.249-50.1787-17.3467-56.6743s-39.5712,4.2695-43.6562,14.1142S2011.0332,610.421,2023.8662,613.3287Z"/><path class="s" d="M2096.4356,530.522c.4531-.518,1.4951-.9365,3.8154-1.0629a9.4139,9.4139,0,0,0-4.335-1.2212c-.4843-3.2266-2.2011-8.9375-7.7548-10.3257a6.9592,6.9592,0,0,1,3.374,5.0215c-6.4317-6.606-20.2129-11.4141-58.377-8.4019-50.2949,3.97-33.7187,36.1724-27.207,40.0112s22.9-6.685,35.0322-5.7226,14.4395,18.4931,18.5547,20.8984,2.4971-1.8476,8.0654-4.3647,6.0977,6.71,4.4893,12.7094,6.043,13.9126,6.043,13.9126l7.7314-8.3271c7.7315-8.3267,15.0186-43.5957,11.5039-51.1143C2097.0606,531.8707,2096.753,531.1983,2096.4356,530.522Z"/><path class="o" d="M1845.44,685.1968s1.7139-6.767-2.9815-9.81-9.0127-11.3159-10.9931-10.1948c-4.1,2.3208,2.2441,9.54,1.083,18.5454C1832.1416,686.89,1839.4825,695.1519,1845.44,685.1968Z"/><path class="p" d="M2122.4727,846.3453c-.3115-16.249-.1358-34.3828,1.0449-53.5879.0674-1.2891.1348-2.5908.1895-3.8926-4.7334-23.4512-11.8946-44.2578-22.4336-44.9355C2101.2735,743.9293,2069.8741,793.272,2122.4727,846.3453Z"/><path class="o" d="M2164.0059,931.4361s-2.6172,25.4443-5.4883,30.2578-15.0986,20.1924-20.3066,23.21,3.18-20.2647,2.1191-24.7949-4.2871,8.2675-6.582,8.5683-1.7051-11.2178-1.7871-15.41,11.1689-14.5411,15.1357-23.4668S2164.0059,931.4361,2164.0059,931.4361Z"/><path class="q" d="M2087.3868,634.4366s31.5078,14.9194,46.6142,37.8555c23.4326,35.5786,50.5938,165.2426,51.0957,177.2505s-19.8252,96.7763-19.8252,96.7763-20.6152-1.3584-25.9326-11.7637c0,0,4.1182-87.0976,1.5088-92.6972s-85.9453-116.834-76.5742-140.5694S2087.3868,634.4366,2087.3868,634.4366Z"/><polygon class="n" points="1732.948 675.727 1734.608 690.599 1716.656 686.567 1732.948 675.727"/><path class="c" d="M2414.7246,1389.9615h-90.7988c-4.8652-4.127,3.3672-13.5,11.9688-14.1309,3.7363-.2822,8.4609.5,13.8593,1.6407,1.2491-16.5957,8.3848-91.2012,35.2774-88.2032,30.2363,3.3555,0,32.8545-8.5488,50.3194-6.3311,12.9355-13.0108,31.4863-16.0625,40.24,2.4541.5322,4.996,1.0537,7.5918,1.5313,4.0078-12.3057,18.92-53.6973,37.8828-51.2862,22.2656,2.8242,13.3164,19.42-2.4649,29.2715-11.5781,7.2442-25.7949,17.54-32.5508,22.5147a96.4052,96.4052,0,0,0,17.7579,1.4228C2404.19,1382.9127,2411.7813,1387.4957,2414.7246,1389.9615Z"/><path class="c" d="M342.0259,1385.647c-4.812-7.5585-19.2934-27.1777-38.582-24.581-21.0152,2.8291,23.21,16.6846,36.75,24.6387a22.433,22.433,0,0,1-7.4908-.876c-9.0517-3.2266-24.5546,2.9619-29.5107,5.1328h86.1758a13.652,13.652,0,0,0-6.1616-7.8809c-1.4151-.8652-4.2593-.9853-7.9312-.706,5.124-6.04,8.6821-25.3369-5.582-20.3721-10.4209,3.6279-10.3926,15.418-9.37,22.3936-2.2168.3486-4.4649.6982-6.6866,1.0175-4.29-21.8662-19.4658-85.9521-50.2241-87.6611-31.1816-1.7314,26.4424,66.4629,45.6284,88.2735C346.584,1385.3218,344.2173,1385.5445,342.0259,1385.647Z"/><path class="t" d="M3.0635,1389.0523h2697.479a3.063,3.063,0,0,1,3.063,3.063v1.0449a3.063,3.063,0,0,1-3.063,3.063H3.0635A3.0635,3.0635,0,0,1,0,1393.16v-1.0439a3.0635,3.0635,0,0,1,3.0635-3.0635Z"/></svg>