<svg xmlns="http://www.w3.org/2000/svg" width="2926.897" height="1467.6105" viewBox="0 0 2926.897 1467.6105"><defs><style>.a{fill:#fcecdb;}.b{fill:#a8d29f;}.c{fill:#7f2722;}.d{fill:#aa443e;}.e{fill:#ffb27d;}.f{fill:#ed975d;}.g{fill:#6bb7bf;}.aj,.h{fill:#fff;}.i{fill:#5ea7aa;}.j{fill:#c65447;}.k{fill:#163560;}.l{fill:#c4453b;}.m{fill:#f99746;}.n{fill:#ed7d2b;}.o{fill:#86d1cd;}.p{fill:#f1a34f;}.q{fill:#db7714;}.r{fill:#5685d8;}.s{fill:#739af0;}.t{fill:#1c468a;}.u{fill:#e5b0b4;}.v{fill:#ffb93e;}.w{fill:#ffa412;}.x{fill:#233862;}.y{fill:#2b478b;}.z{fill:#b64c41;}.aa{fill:#abddda;}.ab{fill:#c5efeb;}.ac{fill:#ffb680;}.ad{fill:#ffd599;}.ae{fill:#599dad;}.af{fill:#a9453d;}.ag{fill:#7693ce;}.ah{fill:#ebf3fa;}.ai{fill:#c94c43;}.aj{opacity:0.7;}</style></defs><title>Asset 1</title><path class="a" d="M263.6841,1467.0069c.1211.086,2363.64-.28,2363.64-.28s6.832-13.9991,15.3906-32.3194c6.3437-13.5781,14.2011-31.6035,22.3623-53.2988V1381.1q2.2836-6.0483,4.5859-12.4785,3.22-9.0219,6.4385-18.7363,1.1939-3.5948,2.3711-7.2862c4.7256-14.7548,9.32-30.5908,13.5605-47.3447.294-1.1689.5889-2.3457.8828-3.5224q2.376-9.62,4.5948-19.6358,1.2216-5.5562,2.3808-11.2236l.1553-.7793c.2861-1.4014.5625-2.8037.8389-4.2139a693.3923,693.3923,0,0,0,11.5273-85.5781q.5582-7.9057.917-15.94.3765-8.1006.5283-16.3213a570.4934,570.4934,0,0,0-7.4687-105.17q-3.517-21.0689-8.8789-42.3525-3.9464-15.5376-8.9737-31.11c-.623-1.93-1.2461-3.8682-1.9121-5.8067a496.3692,496.3692,0,0,0-29.2588-69.2139c-1.0556-2.06-2.1377-4.1367-3.246-6.2041a509.0915,509.0915,0,0,0-30.1583-49.5439q-1.7255-2.518-3.5039-5.0195-9.8672-13.9674-21.0039-27.753-16.2129-20.0933-35.2988-39.6777-26.4286-27.1039-52.4082-49.2837-10.6816-9.19-21.2969-17.5757-9.0864-7.2173-18.1211-13.8462c-.3369-.2509-.6914-.5019-1.0293-.7529q-20.9-15.3567-41.4179-27.8828c-2.795-1.7046-5.5723-3.3833-8.3682-5.0278q-20.1328-11.8645-39.8857-21.2627-4.31-2.064-8.6016-4.0152c-90.0518-40.9848-173.5273-46.3242-247.37-39.5307-57.09,5.2529-108.4326,17.7661-152.5938,26.6884q-4.3491.8826-8.6015,1.7134c-28.7481,5.5816-54.2774,9.2593-76.1807,7.8316-34.9609-2.2847-63.4668-23.53-94.1016-54.8565q-3.3486-3.4269-6.7324-7.001c-17.8535-18.8657-36.623-40.8637-57.9463-64.29q-5.8285-6.4124-11.9423-12.9551c-8.0567-8.6191-16.4854-17.394-25.3555-26.23-1.3672-1.3676-2.7442-2.726-4.1367-4.0932q-4.4913-4.4136-9.1563-8.8443-2.0508-1.9606-4.1357-3.9116-15.1231-14.1885-32.0283-28.3242c-48.7559-40.5259-109.7657-79.5894-190.4976-109.4624-.043-.0176-.0776-.0259-.1118-.0435A799.0811,799.0811,0,0,0,1338.7,260.902a1195.3123,1195.3123,0,0,0-145.5493-20.9859q-18.2637-1.5183-36.7183-2.51-19.7951-1.051-39.7124-1.48-11.9429-.2469-23.9023-.26c-19.7129-.0347-39.4356.4414-59.0361,1.4453q-10.437.5193-20.8125,1.2461c-84.8077,5.9453-166.5176,21.9981-235.4629,50.6943-48.3575,20.1114-230.5474,110.1031-284.002,262.333-16.8838,48.0459-20.9341,102.2886-3.9116,162.4932C549.8408,926.92,458.11,953.4347,343.334,1054.962,190.1436,1190.4552,140.8164,1373.2853,263.6841,1467.0069Z"/><path class="b" d="M1092.3667,1463.671h-70.0986c-3.7559-3.1855,2.6-10.4219,9.2407-10.9082,2.8843-.2178,6.5317.3857,10.6992,1.2656.9644-12.8125,6.4732-70.4092,27.2344-68.0947,23.3438,2.5918,0,25.3652-6.5991,38.8477-4.8882,9.9863-10.0449,24.3086-12.4014,31.0664,1.895.4111,3.8574.8134,5.8613,1.1826,3.0938-9.5,14.6065-41.4551,29.2466-39.5938,17.1895,2.18,10.28,14.9922-1.9033,22.5977-8.938,5.5928-19.9145,13.542-25.13,17.3818a74.5756,74.5756,0,0,0,13.71,1.0987C1084.2334,1458.23,1090.0947,1461.7677,1092.3667,1463.671Z"/><path class="b" d="M411.8247,1463.671s-30.1133-82.7-51.2568-75.6523S411.8247,1463.671,411.8247,1463.671Z"/><path class="b" d="M400.292,1463.671c-2.5625,0-50.6162-49.8682-53.8193-36.8115S400.292,1463.671,400.292,1463.671Z"/><path class="b" d="M451.5488,1463.671s-19.8735-18.2217-45.0351-13.4775-35.9077,9.9384-51.7119,6.3447-23.878,7.1328-23.878,7.1328Z"/><path class="c" d="M2510.898,605.4464l.1074-.1426A.4078.4078,0,0,0,2510.898,605.4464Z"/><path class="d" d="M1530.7515,603.7115s29.6494-33.25-21.0459-39.59-59.3106-46.478-94.1245-58.334c-32.2144-10.9712-89.0025,11.9072-94.22,21.6094,0,0,13.6543,40.3125,3.9013,72.8227s45.5142,66.9712,65.02,63.07c0,0-33.8105,2.8032-49.9028-6.7261,0,0,27.3086,26.01,59.0059,14.3359s60.2539-18.0132,65.2383-2.896S1530.7515,603.7115,1530.7515,603.7115Z"/><path class="e" d="M1537.3423,1117.2784c-7.2559,29.0352-12.1914,51.6328-7.1875,63.1416,11.9473,27.4942-16.0732,128.5938-32.7217,183.1045-6.4863,21.2324-11.2451,35.3936-11.2451,35.3936H1460.83s.5855-14.2,1.3755-35.3936c1.9209-50.97,5.0518-142.3857,4.2031-173.6631-1.2-44.2793-27.0161-272.6377-27.0161-272.6377s3.9014-.3906,10.2608-.956c27.4453-2.4287,100.7-8.0947,103.1777.5166C1572.7564,985.9239,1550.9575,1062.9054,1537.3423,1117.2784Z"/><path class="f" d="M1537.3423,1117.2784c-31.7363-15.6045-80.0918-71.665-80.0918-71.665s-9.89-71.0908-7.5976-129.3457c27.4453-2.4287,100.7-8.0947,103.1777.5166C1572.7564,985.9239,1550.9575,1062.9054,1537.3423,1117.2784Z"/><path class="e" d="M1453.481,692.6617c2.38-.6587,4.914-9.48,6.9438-18.9189,2.4458-11.3457,4.2027-23.56,4.2027-23.56l10.8545.2119,29.0078.5606,2.375.0488a135.6338,135.6338,0,0,0-2.7725,17.5532,87.2808,87.2808,0,0,0,.6885,23.6494c1.1484,5.9908,3.0176,9.733,4.8926,10.7007C1511.2925,703.6305,1450.6826,692.3107,1453.481,692.6617Z"/><path class="f" d="M1504.7837,692.2071c-18.0137-4.4428-40.16-42.0263-40.16-42.0263a21.8284,21.8284,0,0,1,10.8613.2138c9.9238,2.4126,20.7832,10.0445,28.6045,18.1641A87.1571,87.1571,0,0,0,1504.7837,692.2071Z"/><path class="e" d="M1513.3208,674.39s-51.78-.9355-50.7007-33.1723-4.8774-54.0689,28.2281-54.835,39.1142,11.7505,41.3711,22.5982S1526.8189,673.8028,1513.3208,674.39Z"/><path class="e" d="M1427.1812,688.99s58.0312,2.4385,106.7968,17.3121c0,0,18.2051,54.6987,3.9014,96.9614s28.8985,123.6523,28.8985,123.6523-123.8575,12.8106-127.271-3.7695S1396.46,766.5275,1427.1812,688.99Z"/><path class="e" d="M1784.7486,1286.9239l-21.6329,21.9346s-16.3847-13.6152-38.66-32.1269c-46.9414-39.0225-120.0215-99.8428-120.7432-100.837-46.1806-46.5615-128.3115-266.8437-128.3115-266.8437s11.957-24.4805,74.6982-26.87c25.6221-.9756,45.7618,37.6953,61.3282,85.3388,17.8281,54.5205,29.6679,120.792,36.9443,152.8409a33.6368,33.6368,0,0,0,5.13,11.6845,34.0794,34.0794,0,0,0,12.3867,10.8936c34.37,17.79,69.8711,65.2969,93.0147,100.9053C1774.7134,1268.1583,1784.7486,1286.9239,1784.7486,1286.9239Z"/><path class="e" d="M1522.0122,702.9405s81.6914-37.957,86.7393-45.9726,6.1767-105.0083,4.2256-118.6626h12.68s24.707,106.5854,17.5556,132.5937-109.2851,80.0337-109.2851,80.0337Z"/><path class="f" d="M1653.5015,1132.045c-14.6006-1.2392-82.4619-138.7773-86.7246-141.6543,0,0,23.8174-15.039,44.65-22.8711,17.8281,54.5205,29.6679,120.792,36.9443,152.8409A33.6368,33.6368,0,0,0,1653.5015,1132.045Z"/><path class="e" d="M1418.4068,703.8009s4.1455-16.25-83.5079,84.3535l-80.103-39.459-7.6992,8.5879s82.0273,74.2393,92.688,70.8779,78.6221-63.5888,78.6221-63.5888Z"/><path class="g" d="M1601.732,882.1612c-26.4112-34.1845-41.8887-80.3066-51.0176-116.5107-.0811-.3184-.1582-.6309-.2373-.9482C1590.1109,736.7516,1569.3892,680,1569.3892,680c-17.2422,3.5234-58.1289,20.29-58.1924,20.3154l-.002,0s-14.6005,19.7208-35.414,16.795c-20.7735-2.9219-25.3736-26.274-25.3862-26.34l0-.0014-.0009,0v-.001l-.002,0c-.0625-.0122-20.791-4.2085-33.2075.001-7.5479,2.5586-56.1616,42.9238-56.4868,46.8252-.3174,3.8144,16.4629,47.4077,49.7275,54.5092-3.6865,110.9483,28.9668,268.9688,28.9668,268.9688,90.1475,7.7734,161.1895-42.8154,195.0225-73.05a241.3086,241.3086,0,0,0,21.6035-21.5059S1633.5279,923.3194,1601.732,882.1612Z"/><path class="h" d="M1499.0288,653.0665s1.3008,5.0391,4.7139,5.8521,12.3545,1.9506,13.167,1.3a43.8294,43.8294,0,0,0,3.5762-5.0391S1506.1812,651.6036,1499.0288,653.0665Z"/><path class="e" d="M1612.9771,538.3053s-5.4453-1.3814-6.2578-10.4844c-.543-6.0859-3.25-10.18-2.0323-10.4844,1.3008-.3252,4.9493,6.4722,6.34,7.9649,1.1748,1.26,3.9013-19.9937,6.8271-19.5064s9.916,4.064,7.8028,32.51Z"/><path class="e" d="M1254.7959,748.6954s-10.4165-17.3066-13.5459-20.729c-6.2-6.78-21.4692-9.3852-21.936-5.9228-.4639,3.4487,10.54,6.8794,12.0879,14.4736.43,2.1064-4.52-1.3931-7.44-2.61-1.7592-.7329-2.61.2085-1.5918,1.314,5.1822,5.6265,8.4395,11.6973,12.8814,13.4741s11.8452,8.5879,11.8452,8.5879Z"/><path class="e" d="M1489.7671,1443.2657c-12.3574,3.4815-22.11,11.5078-28.9375,16.7071s-47.79,9.7529-52.9883,3.9c-5.208-5.8516,16.9019-17.126,24.0508-20.7442,7.1592-3.6084,28.9375-44.2109,28.9375-44.2109h25.3584S1502.1148,1439.7931,1489.7671,1443.2657Z"/><path class="e" d="M1809.0142,1373.4728c-9.7529.7988-10.7285-19.3409-24.2656-30.0694s-21.6329-34.5449-21.6329-34.5449l21.6329-21.9346s27.68,9.1778,27.1914,24.295,13.167,28.2832,15.6054,39.5S1818.7671,1372.6632,1809.0142,1373.4728Z"/><path class="d" d="M1530.7515,603.7115s-7.6651,5.9307-31.7227,0-20.1562,41.3721-41.125,35.52-54.5171-71.1973-7.5088-72.1729S1523.6245,575.5065,1530.7515,603.7115Z"/><path class="i" d="M1656.0181,966.5157a241.3086,241.3086,0,0,1-21.6035,21.5059c-99.5391-37.4131-85.1543-222.4678-85.1543-222.4678a6.9745,6.9745,0,0,1,1.4541.0967c9.1289,36.2041,24.6064,82.3262,51.0176,116.5107C1633.5269,923.3194,1656.0181,966.5157,1656.0181,966.5157Z"/><path class="j" d="M1488.64,1391.463a23.2252,23.2252,0,0,0,.04,14.4863c3.92,11.8487,10.1934,34.7549,1.0869,37.3164-12.3574,3.4815-22.11,11.5078-28.9375,16.7071s-47.79,9.7529-52.9883,3.9c-5.208-5.8516,16.9019-17.126,24.0508-20.7442,5.4-2.7226,19.12-26.4951,25.5342-38.0107a29.3014,29.3014,0,0,0,3.6816-13.1045c.2461-6.1758.6368-16.1465,1.0972-28.4893,0,0,22.7339,11.6738,35.228,0C1493.7681,1375.5206,1490.6548,1385.26,1488.64,1391.463Z"/><path class="j" d="M1809.0142,1373.4728c-9.7529.7988-10.7285-19.3409-24.2656-30.0694-9.7676-7.7412-16.7032-22.2978-19.8067-29.8037a21.65,21.65,0,0,0-6.1836-8.3633c-6.2959-5.2314-18.89-15.6963-34.3027-28.5048,0,0,8.2314-28.0889,34.4473-32.8877,11.2246,17.2617,19.538,31.7265,23.4169,38.666a14.0109,14.0109,0,0,0,6.7461,6.084c7.7618,3.29,23.24,11.2871,22.8741,22.625-.4873,15.1171,13.167,28.2832,15.6054,39.5S1818.7671,1372.6632,1809.0142,1373.4728Z"/><path class="k" d="M1833.731,815.3956s36.251,14.1123,68.8926-22.35c-.7588,1.1611-22.878,35.1377-41.81,41.291,2.4385,1.709,4.79,3.5039,7.0654,5.3477,9.7158,7.834,18.1934,16.4258,27.707,21.5527.01,0,.01.01.02.01,23.6074,12.7109,43.873,18.5674,60.9521,19.23,16.1573-7.2481,25.47-22.878,30.7119-36.4532,2.5254-1.958,5.03-3.9355,7.4786-5.8554a62.8773,62.8773,0,0,1-17.0977,40.2246c23.4346-6.0186,38.41-24.0195,45.6113-46.5137q.6621-2.0449,1.2188-4.1377c.2109-.749.4131-1.4971.5859-2.2558a108.7379,108.7379,0,0,0,2.707-15.9659,128.7369,128.7369,0,0,0-7.623-56.93c-.3066-.816-.623-1.6226-.94-2.42a.7455.7455,0,0,1-.0381-.0962,107.9289,107.9289,0,0,0-9.8506-18.9126c-6.998-10.6372-8.2275-24.6152-6.6143-38.7856,3.5039-30.9707,20.545-62.8633,20.545-62.8633a48.4419,48.4419,0,0,0-8.2276-9.3218c-10.8291-9.8017-32.91-22.9448-69.6416-16.167-55.8926,10.3106-75.2285,50.0948-68.7773,99.1333,6.4424,49.0484,4.9638,77.4082-32.3145,90.2823-.125.0478-.25.0859-.3838.1347C1834.1724,796.9825,1830.7739,807.2159,1833.731,815.3956Z"/><path class="e" d="M1955.19,942.2052s45.5986,51.5351,64.6445,58.33c19.6211,6.9931,90.0293-3.1787,90.0293-3.1787s-8.1348-61.99-6.417-81.1553c1.7187-19.1748,44.2422-89.1885,47.6787-118.1221S2121.771,739.68,2121.771,739.68s-22.1894.0518-23.624-2.5942c-.6445-1.2027-1.2207-2.4229-1.7354-3.6514-5.7216-13.7276-3.5312-28.5205-3.5312-28.5205l-42.4375-1.7529c.3779,5.1372.6787,9.5273.9111,13.3413a28.6213,28.6213,0,0,1-19.7676,29.0195c-11.6142,3.7368-21.6142,8.1611-22.3359,10.8848-3.6592,13.8818,31.1406,109.3925,19.1738,118.705C1978.315,914.0528,1955.19,942.2052,1955.19,942.2052Z"/><path class="f" d="M2050.4429,703.1608s2.8408,20.999,45.9687,30.2734c-5.7216-13.7276-3.5312-28.5205-3.5312-28.5205Z"/><path class="e" d="M2106.6734,699.8126s-41.7305,30.1934-60.1329,3.916-36.1826-40.0771-10.3173-60.4658,38.1211-14.0264,46.3965-6.75S2117.0542,691.2814,2106.6734,699.8126Z"/><path class="h" d="M2085.9165,692.2247s2.7832,2.8452,10.7266-2.6479c0,0,6.6689-4.6109,4.2558-8.1285C2100.8989,681.4483,2092.6157,682.91,2085.9165,692.2247Z"/><path class="k" d="M2074.5454,631.1949s16.083-25.1977-10.2324-38.3842c-44.2119-22.1534-45.9141,37.3227-59.1318,41.4668s-28.7715,30.7573-12.7705,49.2656,36.66,14.1162,40.94,23.4946,18.4766,4.8706,17.4775,1.4976c-.3857-1.3042-3.8408-3.2056-5.78-8.1011-1.0713-2.7022,1.8476-5.7354.7724-5.7764-10.6094-.4053-16.956-16.5771-5.5605-15.4038s16.1142-9.7153,15.6318-14.2168-11.3584-14.8823-1.2539-20.6743S2068.8189,638.9337,2074.5454,631.1949Z"/><path class="e" d="M1990.91,1231.9083c-15.4639,68.4668,46.6211,207.584,46.6211,207.584h21.331s-9.0888-163.3252,3.35-204.1484c7.2686-23.8555,22.3106-101.086,33.5645-161.169,8.0059-42.7471,14.0879-76.8183,14.0879-76.8183H1945.3794s12.6,135.4726,36.6524,201.4775C1987.9488,1215.0675,1991.8374,1227.8107,1990.91,1231.9083Z"/><path class="f" d="M1965.1978,997.3566s-10.0078,136.1884,18.1513,205.1289l112.4268-128.3106c8.0059-42.7471,14.0879-76.8183,14.0879-76.8183Z"/><path class="e" d="M1736.6782,1082.4317c75.0313,70.4454,211.73,128.09,211.73,128.09,30.93-14.7822,145.7129-223.7979,145.7129-223.7979s-49.1992-42.081-123.125-52.7509c-23.9531-3.4571-36.9668,16.21-43.6035,44.3769-5.0352,21.3721-6.4092,47.6455-6.1172,72.419a704.8055,704.8055,0,0,0,6.1172,82.0625s-22.4776-25.7842-56.6983-31.4981c-92.2041-15.4053-120.039-34.2519-120.039-34.2519Z"/><path class="e" d="M2121.7739,739.6764s65.5665-10.5572,72.9493-49.625c5.1543-27.2754,19.83-123.6338,19.83-123.6338l15.0079-2.1318s6.3359,116.2465-.6895,133.8652c-8.9336,22.4018-75.2363,86.4136-75.2363,86.4136Z"/><path class="e" d="M2042.1753,744.878l-32.9238,11.5274s-51.2529,63.7314-65.7588,71.039c-18.4453,9.293-98.3379,13.8741-98.3379,13.8741l-.8594,10.5957s74.7383,17.7539,110.8946,10.5947c9.4-1.8613,80.4375-59.2822,80.4375-59.2822Z"/><path class="e" d="M1736.6822,1082.43s-20.6739-16.3223-27.5469-23.1943-26.6309-33.5039-23.1944-39.5166,20.7979,13.3486,37.7989,14.6035,19.3427,6.84,23.13,19.8,6.0312,17.8476,6.0312,17.8476Z"/><path class="j" d="M1915.4019,863.378v.01s36.376,3.38,42.4238.999c5.99-2.3623,17.7891-11.2715,29.4443-20.3633,2.5254-1.958,5.03-3.9355,7.4786-5.8554,11.6738-9.14,21.831-17.0127,23.9052-16.6094a.07.07,0,0,1,.0284.01.9055.9055,0,0,1,.4228.2207c1.2295.9795,2.6982,4.8672,4.1572,10.09,3.83,13.7383,7.6035,36.7412,6.9317,40.3506a.0736.0736,0,0,0-.01.0391,1.1544,1.1544,0,0,1-.1055.3066c-.01.0195-.01.0293-.02.0381a.4039.4039,0,0,1-.0293.0391c-1.5264,2.1406-24.51,20.9384-34.5225,29.0693-2.8037,2.3047-4.5986,3.7441-4.5986,3.7441s.2305.125.6719.3457c.4033.2119.998.5088,1.7471.8838,1.7285.8731,4.32,2.15,7.623,3.7149l.01.01c7.5742,3.6006,18.8457,8.6983,31.6806,13.6328,22.85,8.8223,50.6426,17.1465,71.2637,15.7159q2.2324-.1583,4.35-.461s-3.38-19.5273,1.4971-28.1191c4.8682-8.583,37.5762-87.5557,39.0264-93.335,1.2861-5.1465,1.7373-12.3174,2.207-18.7207.125-1.6992.24-3.332.3848-4.8672.4316-4.7529,1.0273-8.4873,2.2656-9.6972.0478-.0479.1152-.1153.1914-.1817a1.1976,1.1976,0,0,1,.1055-.1064c.0771-.0762.1738-.1729.2792-.2686.1631-.1728.3545-.3652.5762-.5664a1.0888,1.0888,0,0,1,.1533-.1533c8.0733-8.0068,48.6836-48.6069,66.2334-72.3008.1153-.1631.23-.3169.336-.4609,3.7529-5.1167,6.4033-9.4082,7.3535-12.3745l.01-.01c.3925-1.2192.748-2.5059,1.0742-3.84,4.3974-18.0772,2.7754-45.2754,2.7754-45.2754a.1218.1218,0,0,0-.0479-.0191c-.375-.1342-3.1592-1.0366-13.623-2.4194a88.8464,88.8464,0,0,0-16.9834-.1436h-.01s-6.5371,38.67-8.41,40.7632c-4.9726,5.5489-60.9042,49.2788-70.9462,52.3028-.02,0-.0284.0092-.0381.0092a3.0475,3.0475,0,0,1-.8643.1539h-.1435c-1.2871-.0191-2.5547-.0386-3.7452-.0386a.6915.6915,0,0,0-.2011,0c-4.9053-.0381-9.2783-.3936-9.2783-.3936s15.0576,20.1416,13.3486,36.1934c-1.7276,16.0615-48.1162,15.4756-60.7129,5.7412-6.6533-5.1357-14.4961-14.7842-20.41-22.7432-3.1972-4.2817-5.8173-8.0742-7.4111-10.4262-1.0664-1.5645-1.6611-2.4864-1.6611-2.4864a.3914.3914,0,0,1-.0479.0191c-.0869.0195-.26.0766-.5283.1728-.1055.0288-.2207.0767-.3545.1153-.1348.0478-.2793.0962-.4326.144-2.16.7393-6.5762,2.2944-11.0117,4.1953a74.7772,74.7772,0,0,0-6.7969,3.2544.1173.1173,0,0,0-.0381.0293,25.054,25.054,0,0,0-3.7637,2.4668c-10.1767,8.3721-58.5908,67.2129-64.7255,71.3115-.02.02-.0293.0293-.0479.0293a1.5907,1.5907,0,0,1-.3457.1826c-3.9844,1.2188-28.0908,6.8926-28.0908,6.8926v.01a67.1915,67.1915,0,0,0-2.0362,14.0166C1913.1841,857.3976,1915.2866,863.0812,1915.4019,863.378Z"/><path class="e" d="M2058.8618,1439.4923s20.961,14.0547,31.6993,16.2021,30.9257,3.6836,32.6445,10.4327h-88.48a59.3713,59.3713,0,0,1,2.8057-26.6348C2042.4536,1424.7687,2058.8618,1439.4923,2058.8618,1439.4923Z"/><path class="f" d="M1921.2759,1050.7687c4.3965-4.6729,28.2773-23.5821,118.2168-11.3252,0,0-56.5078-64.7393-112.1-61.0938C1922.3579,999.7218,1920.9839,1025.9952,1921.2759,1050.7687Z"/><path class="l" d="M1990.9087,905.4659a446.5807,446.5807,0,0,0,41.7334,18.586c12.959-16.1241,19.5811-43.3116,17.7969-59.8379-2.833-26.3526-27.6777-40.48-31.332-42.4209,4.625,3.6777,12.541,48.3867,10.9541,50.8183a.1381.1381,0,0,1-.0313.0391c-1.5234,2.1465-24.5127,20.9375-34.52,29.0742C1992.7,904.0216,1990.9087,905.4659,1990.9087,905.4659Z"/><path class="l" d="M2153.6372,784.5665c3.1407-3.0625,69.5059-68.6543,75.2354-86.4194C2228.8726,698.1471,2143.5347,751.8453,2153.6372,784.5665Z"/><path class="j" d="M2108.2554,944.4357s104.1006,91.7587,129.6211,134.707c.6748,1.1348,0,3.9121,0,5.13,0,0-27.419,4.1455-48.8965-8.0586s-33.5029-9.627-48.1074-7.05-33.252.8593-49.2705-15.4629-39.2129-8.877-51.24-8.3047-26.3447-6.3-33.2177-14.3174-29.208-15.4629-38.3711-10.0225-26.3369,3.15-37.2227-5.44-16.6123-23.4814-38.375-18.8994-32.6455,4.5811-42.3808-2.291-26.917-18.5859-41.8086-14.4473c-14.89,4.1387-37.3262-20.5215-37.3262-20.5215s-1.0908-4.6015,0-5.13c14.8574-7.1817,128.333-55.0743,223.8535-47.4717C1995.5132,906.8556,2043.8247,941.38,2108.2554,944.4357Z"/><path class="m" d="M1771.6568,954.3263s1.0888,1.1992,2.9511,3.03c6.2744,6.1484,21.2852,19.415,32.7373,17.8291a12.8818,12.8818,0,0,0,1.6416-.34.0243.0243,0,0,0,.0157-.0078c14.8925-4.12,32.0576,7.584,41.789,14.458,9.7383,6.874,20.6221,6.874,42.3809,2.2891a32.21,32.21,0,0,1,12.3115-.458c11.002,1.9414,16.4395,10.6308,23.582,17.2207v.0078c.8047.7422,1.626,1.4521,2.4854,2.1308a41.1839,41.1839,0,0,0,20.709,8.1612c6.2744.6631,12.2568-.1973,16.5107-2.7227,2.92-1.7363,7.1817-2.1553,11.8545-1.6738,9.3438.9707,20.33,5.5879,25.5391,10.6621.3545.34.6777.6865.9785,1.0342,6.873,8.0185,21.1894,14.8926,33.2178,14.3164,8.5791-.4024,22.8242-4.3086,36.1142-.6l.0078.0078a33.3406,33.3406,0,0,1,15.1211,8.9023,53.0052,53.0052,0,0,0,26.0449,15.0264h.0079a57.8386,57.8386,0,0,0,23.2187.4346c9.5488-1.6895,17.9942-3.37,28.6953-.9317l.0078.0078a71.7087,71.7087,0,0,1,19.3994,7.9717c21.4825,12.2012,48.8995,8.0576,48.8995,8.0576-21.9082-41.2285-129.62-139.833-129.62-139.833-64.4316-3.0547-112.747-37.583-112.747-37.583C1892.9751,893.5646,1771.6568,954.3263,1771.6568,954.3263Z"/><path class="n" d="M2117.6489,1063.6007h.0079a57.8386,57.8386,0,0,0,23.2187.4346c9.5488-1.6895,17.9942-3.37,28.6953-.9317-.6074-.7734-40.5967-51.8594-45.6875-48.6152C2118.7534,1017.7472,2106.67,1057.0821,2117.6489,1063.6007Z"/><path class="n" d="M2006.1646,1024.9132c.3545.34.6777.6865.9785,1.0342,6.873,8.0185,21.1894,14.8926,33.2178,14.3164,8.5791-.4024,22.8242-4.3086,36.1142-.6-.3154-.6944-20.9375-44.9532-31.3789-46.5166C2036.0357,991.79,2008.5943,1011.1339,2006.1646,1024.9132Z"/><path class="n" d="M1774.6079,957.3566c6.2744,6.1484,21.2852,19.415,32.7373,17.8291.544-.1036,1.0889-.2139,1.6416-.34a.0243.0243,0,0,0,.0157-.0078c1.1045-.4658,71.9687-30.6768,75.6142-37.4561C1888.01,931.0841,1793.0679,948.4,1774.6079,957.3566Z"/><path class="n" d="M1850.7915,989.296c9.7383,6.874,20.6221,6.874,42.3809,2.2891a32.21,32.21,0,0,1,12.3115-.458s41.7256-23.9922,39.8945-31.5049S1850.7915,984.1661,1850.7915,989.296Z"/><path class="n" d="M1929.0659,1008.3478v.0078c.8047.7422,1.626,1.4521,2.4854,2.1308a41.1839,41.1839,0,0,0,20.709,8.1612c6.2744.6631,12.2568-.1973,16.5107-2.7227,2.92-1.7363,7.1817-2.1553,11.8545-1.6738,2.6592-2.3594,24.7412-22.208,20.5352-27.1485C1996.6861,981.838,1926.6353,1001.0714,1929.0659,1008.3478Z"/><path class="e" d="M2214.106,566.4176s-.9893-11.7847-5.2559-19.8447,11.1416-23.4693,16.3574-25.1285,9.0079-.7114,9.0079,2.37-7.3487,8.2973-5.9268,12.8017,3.3877,9.72,2.998,15.1719-1.7255,12.4976-1.7255,12.4976Z"/><path class="e" d="M1847.6636,841.1651a78.2588,78.2588,0,0,1-13.6953-7.0205c-6.0928-4.1162-19.7744,6.9053-21.5547,10.9424s-1.3477,7.1592,1.1221,7.4258,7.2861-5.1748,10.7734-3.6455,7.4981,3.5547,11.9023,3.7129,10.167-.3037,10.167-.3037Z"/><path class="g" d="M2725.92,1074.2755s-8.791,6.6133-18.9355,6.0645c-7.53-.4083-15.2363-7.0049-15.544-7.4512l-5.4921,10.664s14.0468,7.6485,25.6494,4.836c3.5566-.8623,9.209-4.6963,11.7129-7.4893A10.1672,10.1672,0,0,0,2725.92,1074.2755Z"/><path class="o" d="M2724.67,1052.6534l14.72-6.915s-.6094,31.293-25.9453,42.0224C2713.4439,1087.7608,2728.7368,1065.65,2724.67,1052.6534Z"/><path class="g" d="M225.3613,1217.5382s-12.958-9.7861-16.3017-24.4024c-2.4815-10.85,3.7446-24.4658,4.2534-25.083l-17.3623-3.457s-5.1426,23.0391,3.5645,38.3584c2.6684,4.6943,10.4067,11.1572,15.3872,13.5733A15.0069,15.0069,0,0,0,225.3613,1217.5382Z"/><path class="o" d="M255.5313,1206.9728l15.7944,18.0742s-44.6475,11.8564-70.1694-19.7305C201.1563,1205.3165,238.7451,1218.0275,255.5313,1206.9728Z"/><path class="g" d="M1856.4419,361.2032s-1.9453-15.2514,5.7432-27.1875c5.706-8.8593,19.0488-13.65,19.8037-13.7143l-9.1465-14.0484s-19.0078,11.76-23.623,27.7945c-1.4141,4.9135-.6709,14.4306.9873,19.4028A14.2036,14.2036,0,0,0,1856.4419,361.2032Z"/><path class="o" d="M1883.5591,374.6485l-1.791,22.6568s-37.5713-22.397-33.0625-60.5835C1848.7056,336.7218,1864.9654,370.5924,1883.5591,374.6485Z"/><path class="p" d="M1253.397,1210.128s6.4355-13.86,35.0786-6.5742c12.8384,3.2656,35.062,22.1485,5.6773,38.09-30.5665,16.583-40.2193-.7432-40.2193-.7432s49.2261-8.083,42.1992-27.9678c-7.7548-21.9453-28.38,1.8155-28.38,1.8155A37.8335,37.8335,0,0,0,1253.397,1210.128Z"/><path class="q" d="M1248.6123,1239.9933s-6.6-10.2305,3.3-19.47l12.21,9.7344s-11.88,9.3692,0,17.8028C1264.1226,1248.0607,1250.3213,1244.2677,1248.6123,1239.9933Z"/><path class="r" d="M1707.5132,747.9176s16.7363-11.6265,29.3,5.7065l13.7979-5.9365s-6.8135-10.7573-33.5586-5.9878C1699.5552,744.82,1707.5132,747.9176,1707.5132,747.9176Z"/><path class="s" d="M1691.0318,759.2882s4.5576-18.8081,38.8818-18.8081c0,0-12.8613,1.22-22.9111,17.9136Z"/><path class="p" d="M2162.1236,1072.6954s12.1289-7.66,13.4052-16.916c0,0,11.81.6387,14.3623,4.4688,0,0-5.4257,15.32-11.8095,18.1933C2178.0816,1078.4415,2163.7193,1079.3985,2162.1236,1072.6954Z"/><path class="n" d="M1226.7515,385.4215s-7.8662-4.9683-8.6943-10.9717c0,0-7.6592.4141-9.3155,2.8985,0,0,3.52,9.936,7.6592,11.7993C1216.4009,389.1476,1225.7163,389.7682,1226.7515,385.4215Z"/><path class="o" d="M2165.2857,1243.4083s10.748-6.7881,11.8789-14.99c0,0,10.4648.5664,12.7265,3.96,0,0-4.8076,13.5752-10.4638,16.1211C2179.4273,1248.4991,2166.7,1249.3478,2165.2857,1243.4083Z"/><path class="k" d="M1146.3189,1091.2872s51.0849,17.7305,67.91,15.4981c0,0,1.1245-8.6162-13.6836-16.6465s-27.561-34.8194-35.6025-32.792-18.6694,9.2851-18.6694,9.2851Z"/><path class="k" d="M1219.1084,1011.9991s53.3594-8.7666,67.0855-18.749c0,0-3.12-8.11-19.9649-8.11s-40.8261-17.47-46.9292-11.8545-11.9848,17.0625-11.9848,17.0625Z"/><path class="t" d="M1146.3555,1091.3243q-21.8145-.6885-41.0464-1.8437C910.54,1077.9786,904.85,1034.6681,904.85,1034.6681c-32.39-99.2569,97.7686-197.82,97.7686-197.82s78.9765-11.09,75.8413,35.3281c-3.1348,46.4092-112.396,137.5986-112.396,137.5986,36.377,3.4063,95.5229,23.8643,136.0728,39.2774,25.8671,9.8359,44.1723,17.622,44.1723,17.622a24.23,24.23,0,0,1,2.939,12.5186A37.7205,37.7205,0,0,1,1146.3555,1091.3243Z"/><path class="k" d="M1105.3091,1089.4806C910.54,1077.9786,904.85,1034.6681,904.85,1034.6681c-32.39-99.2569,97.7686-197.82,97.7686-197.82s78.9765-11.09,75.8413,35.3281c-3.1348,46.4092-112.396,137.5986-112.396,137.5986,36.377,3.4063,95.5229,23.8643,136.0728,39.2774C1107.022,1061.6769,1110.2222,1076.8,1105.3091,1089.4806Z"/><path class="t" d="M1219.3,1011.9513c-.0659.0176-.1255.03-.1914.0478-167.6577,45.2774-226.8179,44.6162-243.86,41.211-7.5577-1.5137-12.8775-12.543-12.8775-12.543-32.3784-99.2607,105.6753-211.14,105.6753-211.14s59.48-2.6924,76.0786,24.4384a30.1017,30.1017,0,0,1,4.17,18.209c-2.0166,29.8955-47.26,72.9785-79.2138,99.8584-16.8868,14.2119-30.063,23.8936-31.188,24.7188l-.06.042c55.7695-34.419,169.481-6.4463,169.481-6.4463s6.5922,4.6445,8.69,8.5175A30.9943,30.9943,0,0,1,1219.3,1011.9513Z"/><path class="e" d="M1287.7505,444.82c-6.1767-.3252-19.831,19.1812-22.4316,20.8067s-1.3008-7.1524-3.3472-13.3291-6.731,7.8022-6.731,16.58,6.731,15.9361,6.731,15.9361a9.4725,9.4725,0,0,1-1.4731,4.2978c-7.98,13.26-24.7989,43.3369-38.3028,67.6441-11.1723,20.01-20.0112,36.0927-20.0112,36.0927-16.3276.7373-35.7251,3.3145-53.2808,6.1382-18.1689,2.9463-34.374,6.2613-43.4585,8.2241-4.7881.9834-7.6113,1.5977-7.6113,1.5977s-1.1055,3.3149-2.333,8.3472c-.8589,3.438-1.7183,7.8559-2.4551,12.5224-2.21,16.3286-1.2275,36.2154,16.8189,37.3213a42.68,42.68,0,0,0,10.0669-.7373c9.9438-1.352,22.5893-5.0322,35.7251-9.8218a560.5981,560.5981,0,0,0,57.6992-24.6762c11.1723-5.6465,19.2744-10.0674,21.3613-11.9077,2.7012-2.3321,9.085-19.7637,16.083-41.002,11.417-34.7437,24.6753-79.7979,26.7627-87.042,0,0,18.3154-30.0869,18.9658-34.3135S1293.9278,445.1456,1287.7505,444.82Z"/><path class="e" d="M1060.3413,371.9972c-5.3642-1.4629,23.8955-29.7783,5.3643-29.584-14.8526.1558-31.2276,32.0366-31.2276,32.0366-2.456,4.541-5.1479,9.0825-5.1479,9.0825-24.9209,31.92-40.5122,57.4566-50.21,77.4659-18.9063,39.0385-15.3458,56.3476-15.3458,56.3476-.3686,6.3838.2447,14.3657,1.5958,23.45,5.0332,37.69,21.1157,91.9512,24.7983,104.228q.7376,2.576.7368,2.5777l43.95-31.5518a42.7634,42.7634,0,0,0-.123-10.4331c-.7364-7.49-2.9463-16.8208-5.6475-26.5166-.1221-.4917-.3677-.9829-.4907-1.4746-4.1734-14.6084-9.8208-30.2-14.732-42.9683-.8593-2.2085-1.5962-4.2978-2.455-6.2607a5.1824,5.1824,0,0,1-.4913-1.2261c-4.788-12.0337-8.3481-20.2583-8.3481-20.2583,1.4731-3.1919,3.0693-6.3838,4.5425-9.6987.2456-.6148.4907-1.2256.7363-1.84.9824-2.209,1.9649-4.4209,2.8233-6.63a12.766,12.766,0,0,1,.4917-1.2285,7.4472,7.4472,0,0,0,.6137-1.4717.3811.3811,0,0,0,.1231-.2461c14.977-36.2154,26.394-76.9741,31.0591-94.8975a8.7271,8.7271,0,0,1,2.6591-3.7c.05-.0215,22.0469-9.354,27.9536-12.75C1079.4829,371.0509,1065.7056,373.46,1060.3413,371.9972Z"/><path class="d" d="M1065.1323,734.673s-59.4375-61.6636-110.2763-99.17c-3.4766-9.4008-5.3677-21.9008-5.3677-21.9008-2.8545,5.206-2.4116,11.9258-1.4722,16.97-13.8105-9.73-26.7236-17.3052-37.309-20.9194-3.5606-20.6866,16.3417-42.4258,16.3417-42.4258-17.0957,6.9292-24.0249,29.7339-26.2929,40.1816a20.8472,20.8472,0,0,0-5.1221.1675s-1.7173-69.85,104.9683-69.85c41.51,0,35.5625-72.1172,94.6469-66.9409,0,0,64.524,12.6079,52.4781,68.88s7.749,68.88,14.6308,81.4942S1139.9839,722.0587,1065.1323,734.673Z"/><path class="e" d="M1117.6343,619.9635,1055.41,644.6046l-6.6074-27.57c-.6553-8.3291.1967-17.5845,1.5908-26.0913a208.6579,208.6579,0,0,1,6.7851-28.3941c.084-.271.1309-.4116.1309-.4116l1.6006-.0376,5.166-.14,34.9727-.8985a66.8868,66.8868,0,0,0-2.3023,14.543A51.5275,51.5275,0,0,0,1117.6343,619.9635Z"/><path class="u" d="M1022.0757,603.277s-83.6108,46.2641-19.4585,233.5659l133.6763,7.2851s-57.1089-79.456-43.4522-106.769,40.9693-112.9766,40.9693-112.9766Z"/><path class="v" d="M1250.8716,579.2071s-11.6421,39.1377-17.2383,42.2632c-5.6059,3.1255-78.9111,40.7471-101.1284,43.77,0,0-7.7676.7955-10.519,2.1148l-.0093.0093a1.7275,1.7275,0,0,0-.8892.6836.9109.9109,0,0,0-.0654.1679c-1.5723,4.1367-21.2529,71.19-21.7119,88.9815-.3272,12.3994,54.3262,92.1718,53.6806,101.2217a6.2838,6.2838,0,0,1-.5522,2.2177c-3.0786,6.7852-18.1274,6.2051-30.49-.2715a195.9471,195.9471,0,0,0-31.4639-12.83c-14.3369-4.418-30.4429-7.3282-43.5728-4.6426-25.2212,5.1758-51.0976-1.291-60.1567-29.1045-9.05-27.8135-7.7583-84.7324-10.3413-96.3745-2.5923-11.6323-4.8569-48.1587,10.65-72.416h.01a.0344.0344,0,0,1,.0092-.0279s1.937-3.8838-1.2915-11.96c-3.2383-8.0855-26.84-93.1455-23.2842-118.6939,0,0,.9932-24.8657,16.6153-53.33a44.7877,44.7877,0,0,1,17.893,9.5332c8.2447,7.357,13.6221,15,14.9229,15.3223,0,0-8.6841,19.4151-8.1973,21.0337s29.91,85.06,31.5288,89.9072c0,0,11.58-1.0048,14.0879,1.5127,0,0-.9858,23.9336,53.34,4.0933,0,0,3.3506-.5425,3.51,2.2646,0,0,70.0645-11.1884,94.4366-12.9331,0,0,1.3037-.1455,8.8349-14.2343,8.9551-16.7539,12.6387-20.7173,12.6387-20.7173S1244.2363,556.7682,1250.8716,579.2071Z"/><path class="w" d="M1152.9907,858.4191a6.2838,6.2838,0,0,1-.5522,2.2177c-3.0786,6.7852-18.1274,6.2051-30.49-.2715a195.9471,195.9471,0,0,0-31.4639-12.83c-8.6563-21.5254-20.5977-54.1953-25.1553-80.7647-6.9443-40.4941,47.71-91.3765,55.6924-98.5547-1.5723,4.1367-21.2529,71.19-21.7119,88.9815C1098.9829,769.5968,1153.6363,849.3692,1152.9907,858.4191Z"/><path class="f" d="M1096.7461,575.6041s-29.1333,14.815-46.353,15.3389a208.6579,208.6579,0,0,1,6.7851-28.3941,17.4681,17.4681,0,0,1,1.7315-.4492,13.5622,13.5622,0,0,1,3.6123-.2807c.5146.0283,1.0293.0844,1.5537.1406C1078.5342,563.6349,1096.7461,575.6041,1096.7461,575.6041Z"/><path class="e" d="M1043.2183,569.6236s49.6792,25.1734,64.88-6.0058,31.85-48.9287.7734-66.3194-43.0859-8.5205-50.6909.6524S1030.687,562.2716,1043.2183,569.6236Z"/><path class="d" d="M1082.168,497.0279s15.0605,14.9795,10.6333,29.2095,2.73,42.5425,22.1406,45.7764,42.4834-62.3731,16.9434-74.9859-67.274-18.8505-79.8736-3.0034-7.7563,35.8833-7.7563,35.8833S1061.7363,496.0577,1082.168,497.0279Z"/><path class="h" d="M1062.3589,559.3107s-2.041,3.3564-10.9028-.1534c0,0-7.4409-2.9453-5.9058-6.8652C1045.55,552.2921,1053.84,551.85,1062.3589,559.3107Z"/><path class="x" d="M676.4209,625.1427l6.0908-9.7232c24.2305-32.3891,14.6455-49.0732,7.2-57.5971a58.691,58.691,0,0,0-21.1738-15.1241c-.31-.1313-.6142-.249-.9214-.374a47.5443,47.5443,0,0,0-12.645-4.792c-51.6313-25.7129-83.5019,73.5752-77.0039,81.8628s26.36,12.7891,26.36,12.7891a17.0048,17.0048,0,0,1-1.3448-4.0415c4.667,6.4507,26.2715,10.4053,26.2715,10.4053-4.5288-8.4248-5.4941-15.6285-4.6245-21.59l12.3638,2.36c1.3247,9.6172,4.38,19.2387,8.229,24.15,7.5342,9.6142,26.872,12.8222,26.872,12.8222-.6293-1.1806-.5175-4.3378-.5175-4.3378.1753,2.0742,3.2583,4.291,3.2583,4.291,2.3467.6211,7.8413-.4873,7.8413-.4873S671.5923,652.819,676.4209,625.1427Z"/><path class="e" d="M603.1582,680.232c-.0327.0108-.0552.022-.0879.0328C602.9165,680.2428,602.95,680.232,603.1582,680.232Z"/><path class="e" d="M663.1377,662.965c.7246,6.498,1.5918,12.3271,1.9761,15.1044.8672,6.2242-58.19,2.1734-61.9556,2.1626,2.6236-1.1416,10.6367-26.5542,13.1724-36.247,3.0737-11.7564,5.4888-24.4571,5.4888-24.4571l41.7026,2.6343,2.481.1538a144.925,144.925,0,0,0-3.3921,16.0376c-.0987.67-.1978,1.3506-.2852,2.0088C661.5679,645.8951,662.2378,654.9405,663.1377,662.965Z"/><path class="f" d="M663.1377,662.965c-29.1719-8.5459-41.55-42.2427-41.55-42.2427,12.3379.3623,28.4107,8.9267,41.0235,17.6313-.0987.67-.1978,1.3506-.2852,2.0088C661.5679,645.8951,662.2378,654.9405,663.1377,662.965Z"/><path class="e" d="M665.2007,651.1266S612.4976,638.1,621.1153,605.4044s7.6186-56.397,41.6323-49.4624,37.2368,21.127,37.0151,32.74S679.1323,653.6725,665.2007,651.1266Z"/><path class="x" d="M686.8589,561.4684s-24.5195,34.5434-48.07,34.3764-31.55-8.6074-31.55-8.6074,20.4692-8.9575,30.188-31.4814C637.4273,555.756,680.853,540.3478,686.8589,561.4684Z"/><path class="x" d="M682.4737,563.6388s8.4628,11.4018,8.8754,20.4179-2.9472,26.4624,2.2012,27.2017c0,0,17.7246-23.1987,9.4634-41.1641C694.2539,551.045,682.4737,563.6388,682.4737,563.6388Z"/><path class="x" d="M684.124,565.462s-20.8671,37.4468-52.0932,42.9424c0,0,34.3525-17.3061,43.7329-43.1894S684.124,565.462,684.124,565.462Z"/><path class="h" d="M656.9756,630.1661s.6577,4.9776,3.832,6.1543,11.6045,3.31,12.459,2.7818a42.3028,42.3028,0,0,0,4.0127-4.4092S663.9966,629.5992,656.9756,630.1661Z"/><path class="e" d="M637.2974,1130.31q-1.0048,4.1982-1.9981,8.31c-3.9736,16.51-7.6728,31.8233-10,44.6329-3.03,16.6748-3.7431,29.0791.2305,34.2929,16.3672,21.461,0,191.7617,0,191.7617l-18.6284,19.1885s-32.3828-168.1386-41.1646-194.4834c-3.9956-11.9765-9.8134-63.1308-14.9511-115.35q-.3948-3.9184-.7686-7.8379c-.8887-9.1328-1.7451-18.2324-2.5683-27.1133-4.61-49.4082-8.0577-91.7148-8.0577-91.7148s34.3482-24.15,65.5562-26.8389c18.3872-1.6025,35.6763,4.2481,44.2163,26.8389C661.6011,1024.8624,648.999,1081.6144,637.2974,1130.31Z"/><path class="f" d="M637.2974,1130.31c-25.522-18.4307-61.4287-51.2315-74.4585-104.9971-2.4917-26.7305,18.5845-52.1309,42.1084-60.1553,18.3872-1.6025,35.6763,4.2481,44.2163,26.8389C661.6011,1024.8624,648.999,1081.6144,637.2974,1130.31Z"/><path class="e" d="M730.3682,805.5616l125.4243,32.3975v14.6445S730.9771,851.14,722.9273,837.2355,730.3682,805.5616,730.3682,805.5616Z"/><path class="e" d="M855.7881,1288.2833l-5.8618,24.2041s-169.6641-87.6308-191.6074-104.459c-8.815-6.7627-20.4619-43.4814-31.2525-85.0185-16.0708-61.9121-30.2309-134.5264-30.2309-134.5264s23.7876-91.4736,87.4555-35.4893c38.1016,33.503,32.1744,98.06,28.003,148.27-2.7774,33.6894-4.7754,60.9238,7.8593,67.9824,24.6441,13.7539,96.962,77.1143,119.85,120.7051Z"/><path class="e" d="M567.978,881.6671c-44.31-11.2754-93.0175-80.0166-93.0175-80.0166l12.4765-10.8223c12.917,15.2285,66.625,41.4571,66.625,41.4571-.2885-13.9366.0767-26.6485.9566-38.2178,5.9594-78.6333,35.6025-104.8311,43.6938-110.58a19.45,19.45,0,0,1,2.0547-1.3227s.0308.5708.0767,1.6538c.1176,2.3354.333,7.0439.5522,13.5044C603.0405,745.4508,605.0044,891.1,567.978,881.6671Z"/><path class="m" d="M603.0669,787.298c-2.2969,56.0966-10.6885,111.6435-35.1118,108.0693-29.936-4.3691-37.7339-32.3106-39.3247-53.082a119.3269,119.3269,0,0,1,.437-23.0791s14.7329-.0674,17.1191-2.2637c11.3155-10.4522,7.9546-112.9653,13.5562-123.6084s41.9463-17.478,41.9463-17.478S605.3526,731.8517,603.0669,787.298Z"/><path class="n" d="M603.0669,787.298c-2.2969,56.0966-10.6885,111.6435-35.1118,108.0693-29.936-4.3691-37.7339-32.3106-39.3247-53.082,7.35-.37,20.29-2.1621,25.4321-10.0049,7.3609-11.2256,30.3281-83.4888,30.3281-83.4888S593.42,765.0138,603.0669,787.298Z"/><path class="m" d="M791.9175,805.5616c8.1147,11.5244,3.646,33.8692-13.3726,51.8584-10.5683,11.1719-24.8818,17.7793-48.1767,14.3457C720.2144,870.27,691.84,854.25,688.857,834.7189c-.5337-3.542-.835-5.6123-.835-5.6123s-12.916,12.9345-13.3989,15.3769c-.2178,1.0986-1.3316,10.8711-1.5064,12.208-.2012,1.6152.9478,7.5508.9478,7.5508s-61.7115,26.9883-112.7285-3.7461c0,0-14.5474-124.6567-4.1-145.3989,5.1919-10.3057,34.313-30.3755,44.4527-39.2412,2.2759-1.9947,4.5923-8.0059,3.9648-11.878-.5151-3.271,3.2495-8.7866,6.4034-7.7822,6.0971,1.9526,23.352,10.49,35.4931,7.2334,6.0469-1.6069,13.7158-8.5972,19.5772-6.9971,7.1655,1.9566-.4029,19.2,3.6577,19.4239,5.5952.2758,35.82,6.3217,38.3559,11.1967.8828,1.6988,9.565,24.6978,20.4512,55.1348a.327.327,0,0,1,.0181.0791C750.043,799.3634,780.0088,788.6485,791.9175,805.5616Z"/><path class="n" d="M688.022,829.1066s-1.5029-47.5518-5.3447-46.9717S623.4,836.0743,636.5728,857.42,688.022,829.1066,688.022,829.1066Z"/><path class="y" d="M730.3682,1024.0831s-21.3662,6.6-52.84,10.9541c-38.9717,5.3887-93.4512,7.3311-142.1036-10.9541,0,0-4.01-72.3994,7.5186-110.14,11.5288-37.75,16.917-55.8047,16.917-55.8047s46.188,11.58,93.0967,2.6a152.1649,152.1649,0,0,0,19.6738-5.085s28.9365,61.4336,36.894,87.76S730.3682,1024.0831,730.3682,1024.0831Z"/><path class="x" d="M730.3682,1024.0831s-21.3662,6.6-52.84,10.9541c-57.7164-32.7275-29.5733-170.4453-29.5733-170.4453q2.5686-2.083,5.002-3.8535a152.1649,152.1649,0,0,0,19.6738-5.085s28.9365,61.4336,36.894,87.76S730.3682,1024.0831,730.3682,1024.0831Z"/><path class="z" d="M608.9092,871.7657c-34.2158,0-48.3184-11.7744-49.3623-12.5771l-2.2134-16.1143c.3281.2432,46.2388,27.8106,117.29,1.4092l-1.5064,12.208C645.793,866.8458,626.6807,871.7657,608.9092,871.7657Z"/><path class="e" d="M855.7925,837.9591s23.0112-11.335,32.1592-12.4326,24.5156-1.4639,24.5156,0-16.4658,11.6924-20.8569,12.4326-12.8067,6.9609-10.2451,7.6924,16.1-2.378,16.2827,0-8.2329,3.8418-9.6963,5.6718-6.5864,4.0245-14.8194,2.9268-17.34-1.6465-17.34-1.6465Z"/><path class="e" d="M487.4136,790.7862l-12.5073,10.9121s-22.2207-16.2324-23.2852-22.8857v-.666c0-6.919,14.104-21.29,25.813-21.8233a6.3137,6.3137,0,0,1,3.1934.8c6.24,3.9,6.979,20.1582,6.9282,28.57C487.5371,788.7618,487.4136,790.7862,487.4136,790.7862Z"/><path class="y" d="M855.7881,1288.2833l-5.8618,24.2041s-169.6641-87.6308-191.6074-104.459c-8.815-6.7627-20.4619-43.4814-31.2525-85.0185,14.479,2.9746,45.7534,4.5547,85.2276-21.7461-2.7774,33.6894-4.7754,60.9238,7.8593,67.9824,24.6441,13.7539,96.962,77.1143,119.85,120.7051Z"/><path class="m" d="M889.3272,1297.6778s-.0513-.0078-.1514-.0341c-.76-.1905-4.25-1.3409-6.5625-6.8916-1.5244-3.6543-1.9824-6.6553-3.38-10.27l-5.7285-9.8877c-5.9927-7.8907-8.0942-6.042-8.0942-6.042s-1.5659,2.0088-3.8814,4.6582c-3.8217,4.37-9.6836,10.4677-13.832,12.0332a12.06,12.06,0,0,0-5.9258,4.6386,11.4161,11.4161,0,0,0-1.768,4.0645s12.3027,2.1445,11.23,8.207c-2.0879,11.7334-1.5952,13.8672-1.3818,14.252l.0742.0791s20.9819,10.9824,27.6909,13.1387c11.9395,3.8242,18.1758,11.94,22.0459,15.6474a6.905,6.905,0,0,0,5.8731,1.85c3.1479-.4961,7.2314-1.5068,8.1274-3.4375Z"/><path class="x" d="M625.53,1217.545c16.3672,21.461,0,191.7617,0,191.7617l-18.6284,19.1885s-32.3828-168.1386-41.1646-194.4834c-3.9956-11.9765-9.8134-63.1308-14.9511-115.35,15.5219,6.9268,53.3935,22.01,84.5136,19.957-3.9736,16.51-7.6728,31.8233-10,44.6329C622.27,1199.9269,621.5562,1212.3312,625.53,1217.545Z"/><path class="m" d="M644.2515,1437.03l-10.05,5.44c-3.6538,1.292-6.6665,1.6631-10.3633,3.0811-5.6157,2.1513-9.5674,6.38-9.7549,7.1406-2.8354,11.5264-6.86,10.7939-6.86,10.7939l-40.375.3789c-1.9043-.9511,1.3222-9.1015,2.8691-10.624,3.8174-3.7617,15.2407-1.8691,19.4082-13.6924,2.35-6.6445,13.9346-27.3,13.9346-27.3l.0815-.0713c.3906-.2021,2.5376-.6328,14.2066,1.794,6.0283,1.2471,8.5278-10.9893,8.5278-10.9893a11.4334,11.4334,0,0,1,4.0122,1.8848,12.0642,12.0642,0,0,1,4.4648,6.0586c1.4444,4.1914,7.37,10.2275,11.628,14.1748,2.5815,2.3906,4.5439,4.0137,4.5439,4.0137S652.3115,1431.2687,644.2515,1437.03Z"/><path class="x" d="M3.2569,1460.1212H2923.64a3.2569,3.2569,0,0,1,3.2569,3.2569v.9756a3.2568,3.2568,0,0,1-3.2568,3.2568H3.2568A3.2568,3.2568,0,0,1,0,1464.3537v-.9756a3.2569,3.2569,0,0,1,3.2569-3.2569Z"/><path class="o" d="M668.4424,201.9977c4.6411,6.6064,8.0977,14.6362,10.5952,23.5947,16.5816,59.3657-8.8139,159.6509-8.8139,159.6509s-136.3726-13.4068-171.7867-63.82c-26.7749-38.1153-27.9668-86.0552-6.66-121.4292a97.3485,97.3485,0,0,1,27.5415-29.5689C566.2642,137.4464,633.0283,151.5841,668.4424,201.9977Z"/><path class="o" d="M670.2222,385.2452s7.6489,15.0049,13.4717,12.28,10.1235-13.2305,7.4814-16.1274S670.2222,385.2452,670.2222,385.2452Z"/><path class="m" d="M672.3721,384.8868l-2.7691,1.9453a1.3228,1.3228,0,0,1-1.8383-.3213h0a1.3222,1.3222,0,0,1,.3213-1.8378l2.769-1.9454a1.3234,1.3234,0,0,1,1.8384.3208h0A1.3234,1.3234,0,0,1,672.3721,384.8868Z"/><path class="m" d="M791.9273,520.8268a14.4838,14.4838,0,0,0-4.0088-4.9781,3.9137,3.9137,0,0,0-3.521-.7539c.2275-.5327,22.6357-53.5688,13.7964-76.21-4.7945-12.28-37.1612-1.5845-63.1675,7.0088-22.9409,7.5805-41.1255,17.1259-47.5864,9.2251-5.9966-7.334,3.3095-25.291,9.603-39.6973,3.7065-8.4834,7.9072-18.0991,6.12-20.0019-2.1777-2.3174-9.48,1.7646-15.3476,5.0444-7.34,4.103-13.6787,7.6465-16.7754,4.6059-5.5528-5.4516-1.6084-18.748-1.438-19.311l.6445.1948c-.0381.1255-2.2314,13.0147,2.3584,17.5215,1.9028,1.8682,8.6768-1.9184,14.12-4.9614,7.5562-4.2241,16.56-9.7871,19.9331-6.1973,2.667,2.8379-2.1406,11.5781-7.5673,24-5.7452,13.1509-12.8951,29.5171-7.8946,35.9458,3.5655,4.5835,23.6787-2.063,43.1294-8.49,29.687-9.81,63.001-22.1157,68.5659-7.8618,3.8682,9.9082,2.6729,26.603-1.6049,49.9746A278.9683,278.9683,0,0,1,791.9273,520.8268Z"/><path class="aa" d="M668.4424,201.9977c4.6411,6.6064,8.0977,14.6362,10.5952,23.5947-.1719,41.3345-32.94,73.4956-97.7881,78.3935C446.9727,314.129,491.7808,200,491.7808,200l-.0039-.0063a97.3485,97.3485,0,0,1,27.5415-29.5689C566.2642,137.4464,633.0283,151.5841,668.4424,201.9977Z"/><path class="ab" d="M612.0972,181.6622c-.7842,6.1436-20.0108,15.7588-34.6587,13.89s-22.0322-12.77-22.0479-18.9629c-.03-11.8609,17.3858-14.3858,32.0337-12.5166S612.8809,175.5187,612.0972,181.6622Z"/><path class="n" d="M1653.1421,121.6739c1.3623,9.9937.5947,20.8882-1.77,32.2637-15.6358,75.3994-101.3252,172.148-101.3252,172.148s-143.6768-93.0748-154.0781-169.337c-7.8633-57.6572,18.3017-111.5512,62.2338-138.5971a121.625,121.625,0,0,1,47.524-17.0274C1576.7437-8.5614,1642.7407,45.4117,1653.1421,121.6739Z"/><path class="n" d="M1550.0454,326.087s-.1142,21.0405,7.9112,21.3545,18.8222-8.8794,17.5507-13.61S1550.0454,326.087,1550.0454,326.087Z"/><path class="t" d="M1552.6372,326.9225l-4.1894.5713a1.6539,1.6539,0,0,1-1.8565-1.4107h0a1.6543,1.6543,0,0,1,1.4112-1.8564l4.1884-.5713a1.6533,1.6533,0,0,1,1.8565,1.4106h0A1.6529,1.6529,0,0,1,1552.6372,326.9225Z"/><path class="t" d="M1607.3892,546.3575a18.0815,18.0815,0,0,0-1.5957-7.8232,4.889,4.889,0,0,0-3.4756-2.8555c.5576-.4614,55.84-46.479,59.0107-76.6782,1.72-16.3789-40.3369-23.0664-74.1308-28.44-29.8086-4.74-55.4658-4.5723-58.1065-17.0459-2.45-11.5786,18.1748-26.1739,33.42-38.5552,8.9785-7.291,19.1552-15.5557,18.2617-18.6919-1.0889-3.8213-11.5342-3.4771-19.9268-3.2012-10.5.3452-19.5674.6441-21.2607-4.5068-3.0371-9.2349,8.9638-21.731,9.4765-22.2583l.6035.5859c-.1142.1172-9.9394,13.1656-7.4287,20.8,1.04,3.1646,10.7305,2.8457,18.5166,2.5894,10.81-.3555,23.9932-1.3677,25.6778,4.5508,1.333,4.6792-9.0137,11.6235-22.16,22.2993-13.917,11.3022-31.2373,25.3681-29.3721,35.3706,1.3291,7.1313,27.4639,11.2876,52.7374,15.3066,38.5761,6.1343,82.6084,11.5772,80.6123,30.5889-1.3877,13.2153-12.2872,31.06-30.4366,54.5483C1624.9361,529.6046,1607.53,546.2408,1607.3892,546.3575Z"/><path class="m" d="M1653.1421,121.6739c1.3623,9.9937.5947,20.8882-1.77,32.2637-23.8916,45.78-78.7031,62.687-153.4883,30.9414-154.8545-65.7349-39.68-166.7182-39.68-166.7182l-.0015-.0093a121.625,121.625,0,0,1,47.524-17.0274C1576.7437-8.5614,1642.7407,45.4117,1653.1421,121.6739Z"/><path class="ac" d="M1602.2622,66.795c-4.3935,6.37-31.247,6.0176-46.4336-4.456s-17.1318-26.8067-13.5976-33.69c6.7676-13.1816,27.5449-5.998,42.7314,4.4756S1606.6548,60.4254,1602.2622,66.795Z"/><path class="w" d="M2430.023,317.89a57.47,57.47,0,0,1-13.9483,13.3847c-37.6259,26.5835-114.6006,33.8955-114.6006,33.8955s-24.8154-99.3672,1.7784-136.96c20.1054-28.4219,53.5537-41.3023,83.8066-35.1885a72.7567,72.7567,0,0,1,27.7334,11.9614C2449.7993,229.7472,2456.6157,280.297,2430.023,317.89Z"/><path class="w" d="M2301.4722,365.17s-8.6416,9.1534-5.2608,12.5679,11.8555,3.8037,13.2315,1.2158S2301.4722,365.17,2301.4722,365.17Z"/><path class="m" d="M2302.2642,366.5929l-2.0645-1.46a.99.99,0,0,1-.2363-1.375h0a.9892.9892,0,0,1,1.375-.2353l2.0645,1.46a.99.99,0,0,1,.2363,1.375h0A.9891.9891,0,0,1,2302.2642,366.5929Z"/><path class="m" d="M2236.5982,484.899a10.833,10.833,0,0,0,2.498-4.0722,2.928,2.928,0,0,0-.3545-2.668c.4326.0259,43.3955,2.479,57.1143-9.43,7.44-6.4595-8.2188-26.5576-20.8-42.707-11.0987-14.2446-22.3858-24.6484-18.4463-31.1812,3.6562-6.0634,18.6348-4.0229,30.3564-3.2109,6.9034.4785,14.7276,1.02,15.6182-.7158,1.084-2.1153-3.624-6.2305-7.4063-9.5371-4.7324-4.1363-8.8183-7.7085-7.456-10.6524,2.4433-5.2778,12.7939-5.8413,13.2334-5.8628l.0234.503c-.0976.0048-9.7217,1.6977-11.7412,6.061-.8369,1.8086,3.53,5.6265,7.0391,8.6938,4.872,4.2583,11.05,9.1993,9.3691,12.4751-1.3281,2.59-8.6875,1.4014-18.7949.7012-10.7-.7412-24.0176-1.6636-27.2871,3.4717-2.3311,3.6606,7.3994,16.15,16.81,28.228,14.3613,18.4346,31.3925,38.7949,22.7558,46.2925-6.0029,5.2119-18.0556,8.564-35.583,11.4229A208.5181,208.5181,0,0,1,2236.5982,484.899Z"/><path class="v" d="M2430.023,317.89a57.47,57.47,0,0,1-13.9483,13.3847c-29.1406,10.2613-60.0117-4.7285-79.748-49.1479-40.8672-91.9766,50.7295-89.1,50.7295-89.1l.0029-.0049a72.7567,72.7567,0,0,1,27.7334,11.9614C2449.7993,229.7472,2456.6157,280.297,2430.023,317.89Z"/><path class="ad" d="M2430.1851,273.1173c-4.5215.9912-16.12-10.1284-18.4834-20.91s3.456-18.7168,7.8115-20.2832c8.3428-3,14.4941,8.6255,16.8565,19.4063C2438.7339,262.1114,2434.7075,272.1261,2430.1851,273.1173Z"/><path class="e" d="M2295.9448,857.0441s-8.5156-10.3331-13.0947-11.7842-13.4414-8.3106-14.5976-5.4824,5.956,7.1855,5.582,10.416c-.375,3.2324-22.6123,8.4179-22.4756,11.8369s5.2324,11.6826,13.7129,10.7344,29.9912-6.0538,34.4092-3.8487S2295.9448,857.0441,2295.9448,857.0441Z"/><path class="x" d="M2432.8716,1460.3917h91.8916c6.584-4.4648-1.7764-48.1172-1.7764-48.1172s-25.0791-9.5156-29.4111,9.836c-4.3447,19.3378-31.9443,25.4873-46.5508,27.8457C2437.03,1451.5821,2433.8716,1457.0733,2432.8716,1460.3917Z"/><path class="g" d="M2457.5952,1015.0694s4.13,51.5313,8.9844,113.4747c6.5986,84.1455,24.3945,292.7714,24.3945,292.7714s11.667,9.9541,37.5088,4.5088c0,0,21.9971-71.9726,28.5752-154.1181q.1524-2.02.3057-4.06c6.1191-83.624,15.6338-259.7158,15.6338-259.7158Z"/><path class="ae" d="M2456.1851,997.2628s5.54,69.3379,10.3945,131.2813l90.4785,143.1621q.1524-2.02.3057-4.06c6.1191-83.624,15.6338-259.7158,15.6338-259.7158Z"/><path class="e" d="M2511.8677,756.4669a40.9586,40.9586,0,0,0,28.2705,3.8057,58.6344,58.6344,0,0,0,19.1533-8.0835,56.5341,56.5341,0,0,0,7.7266-5.82s-.3389-.49-.9092-1.4526c-2.959-5.062-11.9336-23.2612-7.9414-52.5029.0537-.3833-2.8428.16-7.2187,1.1938-13.0206,3.084-39.1973,10.5078-40.3555,10.8379h-.0449s-.32,6.1494-1.3995,17.1743c-.0888.9712-.1865,1.9873-.2929,3.0391-.1338,1.2925-.2676,2.6645-.4278,4.0728C2507.2154,740.193,2511.8677,756.4669,2511.8677,756.4669Z"/><path class="f" d="M2509.1489,721.62c19.4385,4.4561,48.4483-24.2417,48.4483-24.2417a30.61,30.61,0,0,0-6.6484-3.7705c-13.0206,3.084-39.1973,10.5078-40.3555,10.8379h-.0449S2510.228,710.5948,2509.1489,721.62Z"/><path class="e" d="M2502.5454,702.8917a98.9007,98.9007,0,0,0,18.1836,4.2383c14.9014,2.0122,34.4961.8257,40.6524-17.2041,10.3691-30.3477,23.6133-48.544-6.8985-60.936-16.334-6.6343-26.7832-6.9864-33.8808-4.4541-6.166,2.184-9.8018,6.55-12.5537,10.8681C2502.1236,644.693,2490.2036,697.5792,2502.5454,702.8917Z"/><path class="x" d="M2719.5308,1384.5558s8.0381,16.3867,7.4844,25.38c-.417,6.7656-4.2588,14.8593-7.3174,21.76a17.508,17.508,0,0,1-7.9815,8.6446c-6.0361,3.0644-15.3242,9.3417-17.8027,19.7812h40.8633s17.1865-34.4551,29.4228-39.4639c10.6153-4.3457,10.5635-21.7568-1.7031-28.6172-5.9512-3.3291-17.0478-22.038-17.0478-22.038Z"/><path class="g" d="M2482.522,997.3566s70.9639,215.8876,108.6631,245.8251,129.7314,150.7989,129.7314,150.7989,26.6114-12.1973,31.0469-24.3936c0,0-69.3008-158.8379-102.5654-171.2881-29.4561-11.0244-8.3155-182.4863-68.3184-212.3613C2541.4614,966.212,2482.522,997.3566,2482.522,997.3566Z"/><path class="af" d="M2484.0308,637.8c17.668,12.6982,42.1074.2144,49.7041,3.5937,7.5879,3.3711,8.9512,16.1,9.0879,20.14.1367,4.0483.6689,7.46,10.9746,5.0386a5.0118,5.0118,0,0,1,3.7422.2241c4.2744,2.5361-1.1885,14.83-2.836,17.49,0,0-2.3711,8.8057,2.8907,13.0933.6367.5117,10.9736,5.03,35.8847-33.0923,3.916-5.9839,7.6543-19.4648,1.6065-32.4443-6.0391-12.98-31.2862-25.5249-52.6944-32.1739-8.0234-2.4931-13.9707-2.4018-18.625-.6948-7.7617,2.8369-11.9,10.1724-16.0058,17.5405C2500.8736,628.8937,2484.0308,637.8,2484.0308,637.8Z"/><path class="m" d="M2525.2818,806.7735c38.9795-52.3647-12.2481-74.4931-40.4248-64.4477-19.4815,6.9448-31.2979,18.7768-41.8545,34.8071-12.4952,18.9746-31.9893,45.6-53.6983,64.3l-.0068.01-.01-.0156-96.5967,8.457-.5742,19.7334c1.5274,4.374,72.791,10.4814,90.7139,16.22C2382.8306,885.837,2472.8345,877.2325,2525.2818,806.7735Z"/><path class="m" d="M2461.37,1001.8888a291.47,291.47,0,0,0,84.6416,13.9219c9.0107.0712,21.7548-1.6758,32.3349-3.4493,10.8106-1.8271,19.3574-3.6816,19.3574-3.6816,9.26-2.1387,19.4912-7.86,18.1192-18.4219-4.1533-32.084-1.4707-116.1377-3.6006-168.6318,0,0-.1074-10.24,6.4072-17.4063.01-.0088.0186-.0088.0186-.0175,1.0693-1.167-8.6377-54.3033-19.2832-64.2364-6.1563-5.7441-34.7266-8.685-36.9014-8.2217-.65-.1425-1.3008-.2939-1.9785-.41,0,0-30.2276,16.4028-52.1973,4.0591,0,0-32.0644,7.3891-41.289,17.1391-3.1817,3.36-15.8868,23.97-16.2256,46.6162-.49,31.5508.74,67.4053.74,67.4141C2449.2847,900.92,2437.6,1001.8888,2461.37,1001.8888Z"/><path class="n" d="M2562.3169,731.7794s-32.7412,33.7695-56.1484,26.8516c0,0-3.1192-4.5606,7.4228-6.0225S2535.5132,751.7447,2562.3169,731.7794Z"/><path class="n" d="M2578.3462,1012.3614c10.8106-1.8271,19.3574-3.6816,19.3574-3.6816,9.26-2.1387,19.4912-7.86,18.1192-18.4219-4.1533-32.084-1.4707-116.1377-3.6006-168.6318,0,0-.1074-10.24,6.4072-17.4063-10.2129,9.02-37.9844,37.5889-58.6289,58.917C2531.3472,892.7364,2529.231,946.713,2578.3462,1012.3614Z"/><path class="h" d="M2502.314,683.2989s-.6387,3.9287,8.4951,7.0635c0,0,7.6689,2.6338,9.0693-1.3955C2519.8784,688.9669,2513.7876,683.1661,2502.314,683.2989Z"/><path class="ag" d="M2490.0874,939.7091l7.6924-1.15c2.9551-.8262,5.2168-2.15,5.3027-4.9932l.45-15.0107a5.5586,5.5586,0,0,0-3.69-5.4639c-7.3369-2.4785-13.8935-8.5078-12.31-17.6582,0,0,4.2363-21.9463,4.33-22.5927l28.32.85c.0546.65,3.4882,22.8281,3.4882,22.8281,1.6856,8.3974-5.9424,14.9346-13.4814,16.9238a5.1111,5.1111,0,0,0-3.8633,4.7627l-.457,15.2139c-.0889,2.9707,2.041,4.3828,5.2177,5.54l7.3233,1.6865c.5693.0176.6016.7159.0322.6983l-28.3779-.8516C2489.4947,940.4747,2489.5191,939.9679,2490.0874,939.7091Z"/><path class="ah" d="M2488.8364,900.0255c1.3545,7.7207,8.4014,12.7266,16.3243,12.9648,7.8672.2364,15.7851-5.23,17.3506-12.2695a11.6383,11.6383,0,0,0,.1445-4.1973,29.0569,29.0569,0,0,0-.7578-3.51c-.126-.4395-3.1006-19.3653-3.1006-19.3653l-25.7149-.7724-4.0048,20.35c-.0743.3223-.14.6445-.1866.9678l-.0752.3506.0186.0009c-.0469.3223-.1025.6367-.1406.96A16.0437,16.0437,0,0,0,2488.8364,900.0255Z"/><path class="ai" d="M2488.8364,900.0255c1.3545,7.7207,8.4014,12.7266,16.3243,12.9648,7.8672.2364,15.7851-5.23,17.3506-12.2695-3.1495-.456-11.8721-1.5244-18.7325-.4131C2499.1939,901.0509,2493.2993,900.6056,2488.8364,900.0255Z"/><path class="aj" d="M2516.2564,900.5333a11.6159,11.6159,0,0,0,.1445-4.1973,28.9965,28.9965,0,0,0-.7578-3.51c-.126-.4395-3.1006-19.3662-3.1006-19.3662l3.2432.0976s2.9756,18.9258,3.1015,19.3662a28.996,28.996,0,0,1,.7569,3.51,11.6167,11.6167,0,0,1-.1446,4.1973c-1.5654,7.039-9.4834,12.5048-17.3506,12.2695-.5634-.0176-1.12-.0645-1.6728-.1289C2507.7993,912.3,2514.7954,907.1036,2516.2564,900.5333Z"/><path class="e" d="M2535.0523,921.7462s-26.1963-11.624-32.8487-7.8809-14.97,16.6319-11.2265,21.6211,45.7383,0,45.7383,0Z"/><path class="m" d="M2694.86,922.7355c-44.8379-159.6-95.4951-182.77-95.4951-182.77s-23.9795,37.5147-26.0127,59.1367c-1.6446,17.4942,48.0605,79.6221,69.3027,101.5176l-.001-.001s-100.3828,12.4141-105.0322,14.9083S2522.9937,927.74,2526.32,939.93c0,0,120.8028,4.082,139.71,2.6309C2696.7993,940.1993,2694.86,922.7355,2694.86,922.7355Z"/><path class="m" d="M1166.9385,406.5182l-17.9634,114.2944a87.8,87.8,0,0,1-21.0224-4.126c-38.3208-12.24-60.2754-46.17-60.2754-46.17Z"/><path class="n" d="M1127.9527,516.6866c-38.3208-12.24-60.2754-46.17-60.2754-46.17l99.2612-63.998S1118.2388,459.0753,1127.9527,516.6866Z"/><path class="m" d="M2588.1255,623.1329a140.2757,140.2757,0,0,1-18.8945,1.7315c-39.1192,1.3286-58.2793-13.8384-58.2793-13.8384l56.0176-86.8872Z"/><path class="n" d="M2569.231,624.8644c-39.1192,1.3286-58.2793-13.8384-58.2793-13.8384l56.0176-86.8872S2558.9859,595.06,2569.231,624.8644Z"/><polygon class="m" points="446.731 816.655 451.799 819.316 508.695 702.416 508.695 702.416 446.731 816.655"/><path class="v" d="M506.3887,685.441s11.5576,4.5054,16.59-4.8745c0,0-5.9853,10.9424,1.898,15.669,0,0-10.0327-4-16.1822,6.1806C508.6948,702.4161,515.0864,691.7735,506.3887,685.441Z"/><path class="v" d="M511.1753,681.4713s-1.0151-7.7222-4.8359-8.0776S509.937,677.9928,511.1753,681.4713Z"/><path class="v" d="M505.4981,691.1525s-7.6138-1.6407-9.2334,1.8378S501.8052,691.149,505.4981,691.1525Z"/><path class="v" d="M526.0528,689.2789s11.2172-.7134,10.7924,1.8926S530.4859,689.3658,526.0528,689.2789Z"/><path class="v" d="M518.7222,703.4415s8.5874,7.252,6.4766,8.8379S521.86,706.5733,518.7222,703.4415Z"/><path class="v" d="M520.2979,679.1593s.8706-12.126-2.1875-10.9024S519.981,676.1949,520.2979,679.1593Z"/><path class="v" d="M525.3379,680.5358s6.3257-8.3482,7.6182-6.4322S525.3379,680.5358,525.3379,680.5358Z"/><path class="e" d="M474.9063,778.8126c-9.1812,5.5879-23.2852,0-23.2852,0v-.666c0-6.919,14.104-21.29,25.813-21.8233a6.3137,6.3137,0,0,1,3.1934.8C481.2925,762.0441,482.2241,774.5538,474.9063,778.8126Z"/></svg>