<svg xmlns="http://www.w3.org/2000/svg" width="1632.1023" height="1146.5006" viewBox="0 0 1632.1023 1146.5006"><defs><style>.a{isolation:isolate;}.b{fill:#8e9ba2;}.c{fill:#b22759;}.d{opacity:0.12;mix-blend-mode:multiply;}.e{fill:#a30a40;}.f{fill:#ebceb1;}.g{fill:#293a53;}.h{fill:#ad6f5e;}.i{fill:#96795d;}.j{fill:#c2c1b3;}.k{fill:#d6b492;}.l{fill:#dae0e3;}.m{fill:#828e94;}</style></defs><title>object</title><g class="a"><polygon class="b" points="1385.113 655.501 1371.293 1146.501 1568.977 1146.501 1528.113 695.501 1385.113 655.501"/><path class="c" d="M320.3188,241.7779c-42.1606,4.5344-90.1735,36.6528-95.88,74.477-19.2249-33.07-87.0764-42.7391-127.9477-31.441C-11.364,314.6285-25.1529,443.8748,36.9635,517.1777c33.432,39.4531,76.7313,71.2662,122.5473,98.5093,38.3665,22.813,134.7851,68.33,135.0033,68.0707.2981.16,73.2025-77.6427,100.4818-112.973,32.5767-42.191,61.1309-87.7051,77.7-136.6923C503.4793,343.0752,431.5771,229.8119,320.3188,241.7779Z"/><g class="d"><path d="M451.3758,447.5349a606.4586,606.4586,0,0,1-75.9832,108.32C347.1018,587.8961,312.48,617.7124,271.1,633.36a152.8656,152.8656,0,0,1-59.9955,10.109c40.0857,20.3062,83.3238,40.6379,83.47,40.4646.2981.1605,73.2022-77.6425,100.4816-112.9729,32.577-42.191,61.131-87.7051,77.7-136.6923a138.1055,138.1055,0,0,0,7.0665-48.7962A439.6969,439.6969,0,0,1,451.3758,447.5349Z"/></g><path class="e" d="M763.059,22.1769c-46.4168-7.9918-107.4828,11.7-125.0941,50.3669C627.4968,31.365,557.9608.38,510.862.0054c-124.2885-.9876-178.3662,132.8765-134.3295,230.09,23.7012,52.3224,60.2686,99.4877,100.9156,142.5373,34.0382,36.05,123.1761,114.0249,123.488,113.8147.27.2622,101.8335-60.6525,141.73-90.0877,47.6435-35.151,92.0018-75.0765,124.6145-122.3608C927.8734,186.1458,885.5492,43.2667,763.059,22.1769Z"/><g class="d"><path d="M840.2458,281.545a673.6124,673.6124,0,0,1-114.1433,92.5756c-39.9752,25.614-86.0362,46.9235-135.0023,51.04a169.7938,169.7938,0,0,1-67.1654-7.4668c36.6378,33.8951,76.6353,68.7772,76.844,68.6366.27.2622,101.8331-60.6526,141.7293-90.0877,47.6439-35.151,92.0019-75.0765,124.6144-122.3609a153.3988,153.3988,0,0,0,22.4043-49.9732A488.3878,488.3878,0,0,1,840.2458,281.545Z"/></g><path class="c" d="M1143.2431,315.4862c-41.0218-12.4434-98.3908-1.5335-118.65,31.406-4.8184-38.3694-64.1318-74.1823-106.6271-79.8228-112.14-14.8844-176.0515,99.9275-147.224,192.6842,15.5154,49.9234,43.2315,96.6378,75.0955,140.0943,26.6833,36.39,98.41,116.8492,98.7154,116.6945.214.2672,98.8-43.3141,138.1458-65.4071,46.9867-26.383,91.5439-57.448,126.3215-96.4815C1273.6362,482.13,1251.4963,348.3235,1143.2431,315.4862Z"/><g class="d"><path d="M1184.336,558.4568a613.0831,613.0831,0,0,1-113.5111,70.76c-38.9875,18.633-82.9866,32.6932-127.6741,30.8984a154.5379,154.5379,0,0,1-59.82-14.3051c29.2736,34.7372,61.47,70.7441,61.6748,70.64.214.2672,98.7992-43.3142,138.1455-65.4071,46.9871-26.383,91.5441-57.448,126.3214-96.4816a139.6148,139.6148,0,0,0,25.8606-42.6112A444.512,444.512,0,0,1,1184.336,558.4568Z"/></g><path class="e" d="M1458.5022,110.4729c-44.8692,5.7484-95.3834,41.0437-100.6517,81.5094-21.22-34.8559-93.7979-43.7-137.1456-30.7659-114.39,34.1328-126.3006,172.2816-58.4632,249.1205,36.5113,41.3562,83.3814,74.3505,132.8368,102.4159,41.4141,23.5016,145.2362,69.9624,145.4633,69.6815.3215.1647,76.396-84.3952,104.727-122.6677,33.8326-45.7045,63.3029-94.8664,79.9148-147.4732C1656.0476,214.5511,1576.9083,95.3033,1458.5022,110.4729Z"/><g class="d"><path d="M1602.89,327.1154a646.96,646.96,0,0,1-78.698,117.1747c-29.4809,34.7865-65.7627,67.3367-109.559,84.9208a163.072,163.072,0,0,1-63.7707,12.08c43.1935,20.7908,89.75,41.5406,89.9019,41.3526.3215.1648,76.3956-84.395,104.7267-122.6676,33.833-45.7046,63.3031-94.8664,79.9147-147.4732a147.3278,147.3278,0,0,0,6.4813-52.1975A469.0743,469.0743,0,0,1,1602.89,327.1154Z"/></g><polygon class="f" points="190.113 819.501 190.113 696.501 159.113 615.501 169.113 575.501 218.113 564.501 221.113 590.501 191.113 601.501 213.113 644.501 267.78 671.167 247.113 699.501 263.113 844.501 190.113 819.501"/><path class="g" d="M190.113,711.1673s29.5747,13.6666,58.2874,0l2.3543,21.3361s-31.6417,14.33-60.6417-1.3361Z"/><path class="h" d="M173.113,797.5006l-26.1277,349h187.82c-18.5664-133.76-57.6924-327-57.6924-327Z"/><polygon class="i" points="641.056 600.729 641.113 526.501 684.113 466.501 684.113 427.501 628.113 391.501 613.113 414.501 648.613 457.694 601.113 486.501 538.113 430.501 533.113 471.501 564.113 537.501 557.113 606.501 640.113 623.501 641.056 600.729"/><polygon class="j" points="538.631 575.082 660.113 605.501 674.922 888.15 779.61 1146.501 522.113 1146.501 490.043 887.79 538.631 575.082"/><polygon class="g" points="968.113 845.501 1097.692 809.558 1119.451 1146.501 924.201 1146.501 968.113 845.501"/><polygon class="k" points="1083.113 651.501 1004.496 689.781 980.113 674.501 976.113 631.501 952.113 623.501 936.113 695.501 994.113 751.501 985.113 840.501 1076.113 815.501 1067.113 738.501 1083.113 651.501"/><polygon class="l" points="971.318 844.502 976.113 803.501 1086.113 781.501 1090.113 811.501 971.318 844.502"/><path class="f" d="M1503.113,655.5006s38-86,37-85-19.8229-79.35-19.8229-79.35l-79.1771,91.35-28.5-12.5-.5-32.5,32-20-15-26-67,24-6,69,52.5,71,1.5,7,96,27Z"/><polygon class="m" points="1371.113 651.501 1368.113 710.501 1548.113 744.501 1543.113 697.501 1371.113 651.501"/></g></svg>