<svg xmlns="http://www.w3.org/2000/svg" width="2629.8008" height="1382.3173" viewBox="0 0 2629.8008 1382.3173"><defs><style>.a{fill:#fbecdb;}.b{fill:#a8d29f;}.c{fill:#f4a671;}.d{fill:#2c3a64;}.e{fill:#b64c41;}.f{fill:#963333;}.g{fill:#ffb27d;}.h{fill:#f99746;}.i{fill:#ed985f;}.j{fill:#233862;}.k{fill:#ed7d2b;}.l{fill:#2b478b;}.m{fill:#35488b;}.n{fill:#ed975d;}.o{fill:#4a75cb;}.p{fill:#e58638;}.q{fill:#739af0;}.r{opacity:0.5;}.s{fill:#ccdfed;}.t{fill:#efcdaf;}.u{fill:#e2b99a;}.v{fill:#fff3e9;}.w{fill:#afcdfb;}.x{fill:#e57970;}.y{fill:#d3671e;}.z{fill:#f1a34f;}.aa{fill:#d86713;opacity:0.4;}.ab{fill:#c95c12;}.ac{fill:#caddff;}.ad{fill:#f9ddbf;}.ae{fill:#e5c1a1;}.af{fill:#699ff0;}.ag{fill:#b7d2f9;}.ah{fill:#2e3552;}</style></defs><title>Asset 1</title><path class="a" d="M213.9258,1379.0116S-92.082,1050.4569,162.1748,694.75c225.5937-315.6084,488.6143-294.0342,681.5869-165.959,82.19,54.55,319.1533,6.7236,520.8379-314.419C1639.6435-223.5792,2593.043,42.0394,2419.209,715.8387c-84.1241,326.07,256.0215,337.9229,82.7041,663.8633Z"/><path class="b" d="M272.24,1379.702s106.58-255.834,329.5518-117.8652c168.792,104.4453,381.0156-30.7109,491.52-184.7861s777.1045,1.9853,925.4229,190.1357c62.3047,79.0342,213.122,6.73,237.123,109.4678Z"/><path class="c" d="M1595.9775,840.1337c.1953-10.4512,8.3037-28.2823-7.708-45.2207a336.51,336.51,0,0,1-26.1279-32.5078c-1.7334-2.711-21.1065,13.2246-20.6885,13.8671,3.1856,4.7237,17.8037,28.7813,19.9268,42.1963,2.3183,15.1211,28.2236,31.6709,28.2236,31.6709S1595.92,850.5311,1595.9775,840.1337Z"/><path class="c" d="M1572.1758,775.8651l-30.7285.4014s-48.0606-75.9385-49.5332-100.0283c-1.418-23.0069-47.6055-123.6914,6.4648-186.5528a100.3881,100.3881,0,0,1,7.9629-8.2988,3.25,3.25,0,0,1,.3086-.2939s.0928.1474.2666.4414c1.0986,1.8339,5.3935,9.5966,10.4258,26.7539,7.8838,26.82,17.6259,76.6074,19.9287,162.5966C1537.2715,670.8846,1558.6582,744.495,1572.1758,775.8651Z"/><path class="d" d="M1476.28,372.703s-3.3164,8.9736,1.581,12.4893c4.8955,3.5166-12.4355,19.65-15.7812,33.2011s.8359,20.7451.8359,20.7451-.501-8.1972,2.51-12.2119c0,0-3.2344,9.3116,2.1191,16.2276,5.3535,6.914,2.21,10.4258,2.21,10.4258s16.9726.28,21.1-11.2071c0,0-1.0039,5.4649-2.23,7.4727,0,0,16.5742-5.8,20.89-17.1758s-3.7559-24.6953-8.7891-26.4873-13.2158-15.3916-11.7109-19.0723S1476.28,372.703,1476.28,372.703Z"/><path class="e" d="M1480.1758,1338.8153l-19.8877,7.4053s-86.3848-119.81-97.02-225.2207c-1.8994-18.8194-1.2666-37.0537,2.8418-53.8916,0,0-.8447-4.8223-2.3222-13.3467-.6826-3.9785-1.5264-8.7676-2.4844-14.2559-2.8086-16.0908-6.6738-38.1084-11.0908-63.1787-10.1631-57.69-23.3321-131.44-33.5615-185.6552l5.3584-1.7217,57.9824-18.7051,11.9834-38.0606,43.1748-11.3652s9.6445,18.8672,18.2666,107.9922c1.5908,11.6914,3.0361,24.584,4.124,38.5635a763.1208,763.1208,0,0,1-4.1074,156.12q-2.9708,23.2353-7.583,47.917c-2.2735,12.0478-2.6143,28.4639-1.6563,47.3144C1448.5459,1204.8973,1480.1758,1338.8153,1480.1758,1338.8153Z"/><path class="f" d="M1457.541,867.3749l-93.7529,186.3867c-.6826-3.9785-1.5264-8.7676-2.4844-14.2559-2.8086-16.0908-6.6738-38.1084-11.0908-63.1787-10.1631-57.69-23.3321-131.44-33.5615-185.6552l5.3584-1.7217,57.9824-18.7051,11.9834-38.0606,51.5732-15.3369s1.2461,22.8389,9.8682,111.9639C1455.0078,840.5028,1456.4531,853.3954,1457.541,867.3749Z"/><path class="d" d="M1519.4922,316.5048,1425.86,392.3094s-2.73-16.4482-12.3662-13.9189c-15.03,3.9346-38.0927-36.3633-20.3467-72.8057,1.1651-2.3828,15.5772-38.46,61.6885-43.0019C1514.1211,267.1249,1519.4922,316.5048,1519.4922,316.5048Z"/><path class="g" d="M1485.7617,518.9911c-11.415,5.293-25.2012,8.8984-41.876,9.8076-62.5136,3.4258-76.7041-51.374-79.2861-87.7461a52.41,52.41,0,0,1,21.4492-2.7109c4.4336.2431,9.0606.6982,12.876,1.1689,7.6484-3.9941,21.3848-23.3984,29.3242-55.8564l2.6953,1.251,45.1065,21.205s-4.7891,14.6787-8.3282,28.7237c-2.7607,10.9931-4.7421,21.6113-3.0859,24.583,3.5566,1.4453,5.6836,2.3545,5.6836,2.3545a.1282.1282,0,0,0,.0156.0488A309.5744,309.5744,0,0,1,1485.7617,518.9911Z"/><path class="h" d="M1501.4033,560.0028c-.4687,1.2441-.99,2.4619-1.5517,3.72-15.834,34.1006-58.8614,146.7647-58.8614,146.7647,4.1758,25.4013-177.1318,23.5947-177.6406.4678-5.5137-19.7139,13.585-49.0245,30.4346-70.0362,4.122-5.126,8.0966-9.7431,11.55-13.624a56.8386,56.8386,0,0,0,5.916-7.9639,55.5393,55.5393,0,0,0,7.99-23.3144c2.3281-22.0557,2.4893-43.1748,2.4356-60.3321-.0264-8.3378-.0938-15.7255,0-21.8417,3.4394-2.5567,6.7724-4.9122,9.8769-7.1475a87.4241,87.4241,0,0,0,12.0049-9.9707c3.3994-3.5733,5.5273-7.2276,5.7686-11.35a61.3609,61.3609,0,0,0-.2413-9.5156c-.1474-1.5118-.3476-3.0108-.5751-4.5235a129.029,129.029,0,0,0-9.0606-30.26c16.7822-6.7861,46.6016-2.7441,46.6016-2.7441s-.0264,1.66-.04,4.377c-.1074,10.8935,0,38.8652,3.4932,44.165,4.3623,6.585,84.2617,35.4805,88.4912,26.5264,4.1494-8.793-7.2266-50.0284-7.6553-51.58a.2189.2189,0,0,1-.0127-.0537c.8565.3349,1.6866.67,2.503.99,4.0683,1.66,7.5879,3.5606,10.9736,4.792,21.7354,7.9365,23.7832,15.1631,23.7832,15.1631C1491.46,493.1649,1513.8769,526.9315,1501.4033,560.0028Z"/><path class="i" d="M1476.0527,406.12s-4.7959,14.6631-8.3291,28.7227c-26.3652-7.3565-34.372-35.0713-36.7822-49.9278Z"/><path class="g" d="M1481.6045,421.6464s-63.0791-14.5977-53.3828-53.7412,8.084-67.3887,48.7685-59.7227,44.7793,24.5322,44.7217,38.3857S1498.2637,424.4354,1481.6045,421.6464Z"/><path class="d" d="M1525.26,324.3456c-6.7823-14.1875-14.7637-13.4307-19.7559-10.916-29.64-27.4229-58.7119-5.02-58.7119-5.02-11.1895,27.0323-35.44,38.0782-35.44,38.0782s9.69,9.9218,37.7763,9.7031c8.58-.0664,17.2051-4.0049,25.0537-9.4326a151.056,151.056,0,0,1-32.89,24.53c35.1582-6.7285,58.7344-47.4316,61.1494-51.7548,2.9785,4.3984,8.6758,13.7617,9.1543,21.6679.6523,10.7442-3.044,31.6084,3.1084,32.3985C1514.7041,373.6005,1535.43,345.621,1525.26,324.3456Z"/><path class="j" d="M1542.416,1375.3319H1442.248s-3.7461-15.9756,2.8311-26.8486c5.8213-9.6182,5.3447-15.4707,1.0332-23.4287,4.5371,1.8574,8.6533,3.9189,15.1162,3.5488,4.9912-.2861,10.5293-3.8135,15.1582-6.501,4.3115,4.916,22.51,27.0986,28.2793,31.2442C1511.2119,1358.05,1540.4014,1356.3739,1542.416,1375.3319Z"/><path class="k" d="M1363.6338,649.5917c-26.1524-1.8477-51.0459-4.1631-69.85-8.6729,4.122-5.126,8.0966-9.7431,11.55-13.624a56.8386,56.8386,0,0,0,5.916-7.9639,55.5393,55.5393,0,0,0,7.99-23.3144c2.3281-22.0557,2.4893-43.1748,2.4356-60.3321,22.8056-25.5361,41.958-46.2939,41.958-46.2939s42.5058,38.96,49.09,77.7715S1431.7412,654.41,1363.6338,649.5917Z"/><path class="f" d="M1374.1621,437.328s30.8662,36.5742,24.252,91.4629h12.791s7.2373-38.3818-25.1563-90.4492c0,0-4.2275-.6-5.6-.7158C1378.8506,437.4891,1374.1621,437.328,1374.1621,437.328Z"/><path class="f" d="M1485.457,557.8768l-12.42-3.0644c16.6895-44.1123,3.8945-81.9072-.2139-92.0518,4.0684,1.6592,7.7227,3.2656,10.9746,4.792C1501.0224,523.7762,1485.457,557.8768,1485.457,557.8768Z"/><path class="e" d="M1490.8594,535.704s-61.586-16.041-78.9639-20.502-18.7481,5.7989-18.7481,5.7989-2.4238,33.44-2.6865,36.8759c-4.0146,52.4912-79.2168,61.458-79.2168,61.458s-19.4258,24.2071-36.0879,48.0069c-28.5693,40.8056-25.0517,109.7451-25.0517,109.7451h0a201.1944,201.1944,0,0,0-.0908,27.2383c2.2578,36.2265,6.3808,190.1679,10.6875,235.7207,1.5556,16.5107,2.92,28.26,3.4765,32.9521a.086.086,0,0,1,.0117.0459,6.5089,6.5089,0,0,1-1.0576,4.0332,214.0214,214.0214,0,0,0-15.8955,33.43c-42.2705,112.64,6.51,251.3565,6.51,251.3565l12.6592-5.1006s27.7588-154.376,50.3144-222.5762c3.8291-11.5674,7.4981-20.6562,10.8623-26.0879,9.8067-15.8291,18.9072-41.69,27.168-72.4492,15.6133-58.1543,28.18-133.8066,36.543-192.2012,1.1533.0547,10.32-78.42,40.4541-114.5215l11.8017-12.0791,37.4053-91.9189s10.3291-61.1,13.4521-71.3613C1497.5293,543.3075,1490.8594,535.704,1490.8594,535.704Z"/><path class="k" d="M1399.3691,524.1239a5.3536,5.3536,0,1,1,5.3535,5.3535A5.3536,5.3536,0,0,1,1399.3691,524.1239Z"/><path class="h" d="M1400.332,524.1239a5.3531,5.3531,0,1,1,5.3526,5.3535A5.3534,5.3534,0,0,1,1400.332,524.1239Z"/><path class="l" d="M1402.5244,523.1151a.778.778,0,1,1,.5039.9776A.7756.7756,0,0,1,1402.5244,523.1151Z"/><path class="l" d="M1407.3633,524.661a.778.778,0,1,1,.5049.9766A.7773.7773,0,0,1,1407.3633,524.661Z"/><path class="k" d="M1476.5312,541.4911a5.3536,5.3536,0,1,1,5.3536,5.3525A5.3543,5.3543,0,0,1,1476.5312,541.4911Z"/><path class="h" d="M1477.4932,541.4911a5.3535,5.3535,0,1,1,5.3544,5.3525A5.3538,5.3538,0,0,1,1477.4932,541.4911Z"/><path class="l" d="M1479.6855,540.4813a.7782.7782,0,1,1,.5049.9785A.7791.7791,0,0,1,1479.6855,540.4813Z"/><path class="l" d="M1484.5254,542.0272a.7781.7781,0,1,1,.5039.9776A.7795.7795,0,0,1,1484.5254,542.0272Z"/><path class="d" d="M1391.9463,353.9667s-3.3155,8.9726,1.581,12.4883c4.8965,3.5175-12.4345,19.6513-15.7812,33.2021s.8369,20.7441.8369,20.7441-.502-8.1972,2.51-12.2128c0,0-3.2354,9.3134,2.1191,16.2285,5.3525,6.914,2.209,10.4258,2.209,10.4258s16.9736.2812,21.1-11.2071c0,0-1.0029,5.4658-2.23,7.4727,0,0,16.5732-5.7989,20.89-17.1758s-3.7569-24.6953-8.7891-26.4883-13.2168-15.3906-11.7109-19.0713S1391.9463,353.9667,1391.9463,353.9667Z"/><path class="h" d="M1517.3428,508.288c-14.3067,2.1015-20.1026,10.5859-20.1026,10.5859s-1.23-18,1.1387-29.1885c.8154-3.9092,2.0879-6.9873,3.9883-8.164.8691-.5362,2.248-.5362,3.9746-.1348.1875.04.375.0947.5752.1475C1508.0156,483.368,1512.3105,491.1307,1517.3428,508.288Z"/><path class="l" d="M1717.6308,842.2069c-25.4775,1.3291-42.8906-38.2051-53.623-38.7256a67.0628,67.0628,0,0,0-9.4043,1.041,185.5417,185.5417,0,0,1,23.1162,60.1153c15.2764,76.2656-16.914,147.0254-71.89,158.0254-53.4688,10.6992-108.81-39.08-125.835-112.001-.4766-2.0381-.9189-4.0986-1.3408-6.1807a185.7969,185.7969,0,0,1-1.85-63.97.9877.9877,0,0,1,.0224-.1768,34.5045,34.5045,0,0,0-5.1406,1.6387c-9.7139,4.6192-10.5557,47.7979-34.5928,56.3828-24.0263,8.5733-40.2207-37.4736-11.6084-73.3418,17.4454-21.8769,48.3623-32.4336,69.8291-37.34a102.9712,102.9712,0,0,1,15.3086-19.4629c.211-.2109.4209-.4326.6426-.6426A62.55,62.55,0,0,1,1478.832,705.87c-.0547-.0107-.1-.0332-.1553-.044a31.7218,31.7218,0,1,1,34.627-49.27,62.784,62.784,0,0,1,29.8076-6.414,31.722,31.722,0,1,1,52.1289,31.459,62.5949,62.5949,0,0,1-3.8652,67.913,100.5651,100.5651,0,0,1,25.9307,13.669c21.5341-4.12,56.7373-7.4658,82.8115,6.8682C1740.3379,792.1376,1743.1084,840.8661,1717.6308,842.2069Z"/><path class="j" d="M1479.9951,910.662c-.4766-2.0381-.9189-4.0986-1.3408-6.1807a185.7969,185.7969,0,0,1-1.85-63.97c3.1572-3.6777,7.3554-6.4141,12.1181-4.1543,10.5245,4.9854,8.8614,55.3857,24.9239,67.0166C1525.7539,911.9911,1495.98,912.0917,1479.9951,910.662Z"/><path class="j" d="M1541.0849,760.203a176.4324,176.4324,0,0,1-30.4619,8.0088c.211-.2109.4209-.4326.6426-.6426A62.55,62.55,0,0,1,1478.832,705.87c-.0547-.0107-.1-.0332-.1553-.044.6309-.2548,1.44.1329,2.4932,1.6172,4.01,5.6827,25.665,51.6514,59.915,46.3907C1541.0849,753.8339,1550.0351,756.88,1541.0849,760.203Z"/><path class="j" d="M1557.3242,654.1405s8.03-14.9541,19.9385-11.0771,13.5693,21.0459,5.8154,25.7539C1583.0781,668.8173,1571.5361,658.1385,1557.3242,654.1405Z"/><path class="j" d="M1501.3848,662.8817s-17.17-7.91-24.9239,1.2276,7.7539,20.7968,7.7539,20.7968S1491.6924,669.4071,1501.3848,662.8817Z"/><path class="g" d="M1508.3906,746.8505l-5.5332,20.4814s-19.4258-7.0762-29.4453-10.874c-3.0029-1.1553-4.7-1.919-4.7-1.919-8-3.1279-17.5225-7.1425-27.9062-11.4648l-.1485-.0273c-17.7119-7.7881-37.4834-16.8643-53.8906-25.9483-11.5166-6.5137-21.3525-13.03-27.78-18.9336a18.3014,18.3014,0,0,1-1.8066-1.8584c-15.0547-15.7168-28.9531-56.4638-37.7793-99.0478-1.2315-5.8819-2.3155-11.7364-3.4258-17.4424-3.8213-21.1865-6.2129-41.8067-6.7178-59.333-.4023-10.4717-.2246-19.9248.8438-27.5323a66.3951,66.3951,0,0,1,1.2158-7.58c8.0557-42.8975,30.4531-44.9688,30.4531-44.9688.4707-.0683.9424-.1367,1.5615-.1758,3.81.0752,7.2061,3.2881,10.3223,8.8995,3.9385,6.98,7.4785,17.8681,10.791,30.8544,4.9912,20.6319,9.41,46.9727,13.2627,73.0567,2.1572,14.3066,4.166,28.5879,6.3613,41.831,1.1543,8.01,2.3887,15.5733,3.58,22.52,2.3448,13.2695,4.6719,24.09,7.2246,31.1289,1.62,4.5742,7.3907,11.582,15.2471,19.73,13.64,14.24,34.1084,32.1631,52.0723,47.0293,7.4375,6.2393,14.5107,11.9522,20.3857,16.6846C1492.0508,739.6366,1508.3906,746.8505,1508.3906,746.8505Z"/><path class="h" d="M1366.9766,480.25c-28.51-13.4043-55.7051,5.0615-55.7051,5.0615,8.2529-43.5391,31.7558-45.458,31.7558-45.458C1352.7021,437.8671,1360.4248,454.8788,1366.9766,480.25Z"/><path class="g" d="M1495.251,742.2811s11.8017,4.6983,18.5156,5.8907,17.0713-2.1368,25.5791,3.413,14.5654,9.2422,14.5654,9.2422,2.0733,3.1475-2.4541,4.4239c-2.5791.7275-15.626-7.5284-16.1806-5.3262s8.2978,7.13,13.4443,7.4072,14.5273,4.7881,14.5273,8.1162-15.2041,11.2071-24.082,10.6514-27.1221-16.2041-31.7363-17.3145-24.0342-8.86-24.0342-8.86Z"/><path class="j" d="M1327.3408,1375.3417H1227.1719s-2.4014-15.2666,2.831-26.8487c5.0127-11.1132,13.7988-16.6152,11.919-30.0615,6.3642,6.5537,15.1152,12.8662,29.5966,10.917,1.7745,2.877,12.1436,19.7481,18.07,24.0068C1296.1357,1358.0594,1325.3252,1356.3837,1327.3408,1375.3417Z"/><path class="d" d="M2363.2793,1283.53s19.4033,17.9833,15.6172,30.7617-21.2969,21.2959-23.6631,36.914-11.8311,24.1358-20.3506,24.1358h-40.6113s-6.2715-10.9893,8.873-14.3028,20.8535-21.665,19.9072-38.7021,1.4209-39.7539,1.4209-39.7539l32.1807-7.5713Z"/><path class="d" d="M2121.4482,1373.5917c-1.4843.7461-5.8222,1.3115-11.956,1.7461h-98.22c.46-3.1485,3.0264-12.1934,17.417-14.53,16.958-2.7461,46.3545-12.6113,52.9151-34.3008.2051-.7051.3935-1.4189.5576-2.1406,5.207-23.1895,43.0664,7.1016,43.0664,7.1016s.1143.9267.2783,2.5009C2126.3848,1342.4725,2128.6318,1369.9921,2121.4482,1373.5917Z"/><path class="m" d="M2033.1894,753.3329s5.75,71.7412,12.5079,157.9775c9.1855,117.1455,20.2314,261.04,21.3261,288.2989,1.8877,47.3349,9.4688,123.0517,9.4688,123.0517s17.9746,17.9883,53.9511,10.4072c0,0,32.0586-108.0869,41.2159-222.45.1416-1.874.2841-3.7617.4267-5.65,8.5176-116.4209,21.7647-361.5723,21.7647-361.5723Z"/><path class="d" d="M2033.1894,753.3329s5.75,71.7412,12.5079,157.9775l125.9619,199.3076c.1416-1.874.2841-3.7617.4267-5.65,8.5176-116.4209,21.7647-361.5723,21.7647-361.5723Z"/><path class="m" d="M2059.4482,761.8524s103.6426,259.8184,171.792,381.919,89.4453,156.1748,89.4453,156.1748,39.044-15.6182,42.5938-26.2666c0,0-26.0606-235.7207-71.6992-293.1827-25.7871-32.4687-56.0811-129.9082-57.5-163.9834S2224.8516,715,2224.8516,715Z"/><path class="g" d="M1856.05,725.8934s-36.5723,17.5547-41.4971,22.0606-17.0722,26.624-16.1386,28.292c.9316,1.667,2.7519,2.1826,6.0683-.1094,3.3145-2.293,12.6172-11.8731,12.959-10.0938s-24.8281,31.3985-20.377,37.6661,29.6856,4.416,44.0948-5.833c14.41-10.2471,28.7929-47.918,30.96-49.9747C1890.4922,730.4579,1856.05,725.8934,1856.05,725.8934Z"/><path class="k" d="M1854.4023,744.704c-10.1533-8.834-10.42-11.07-10.42-11.07s64.8535-112.1465,70.4756-122.9317S1954.8369,431.49,1954.8369,431.49L2075,396.6512s-84.6406,218.8614-99.4219,245.9092c-24.4267,44.6973-104.168,110.4805-104.168,110.4805A37.4989,37.4989,0,0,1,1854.4023,744.704Z"/><path class="g" d="M2013.791,352.8231s-42.2891,74.4033-83.623,84.1153c0,0,1.7216-24.9893,11.7851-42.0889-4.1211-4.8613-7.74-9.3272-10.873-13.3233a249.3746,249.3746,0,0,1-15.3516-21.4951l14.0273-37.7119,9.52-25.5889a123.0591,123.0591,0,0,0,14.873,21.4317C1981.2383,349.3075,2013.791,352.8231,2013.791,352.8231Z"/><path class="n" d="M1954.1484,318.162s5.0459,37.2861-23.0683,63.3642a249.3746,249.3746,0,0,1-15.3516-21.4951l14.0273-37.7119C1944.7978,317.7352,1954.1484,318.162,1954.1484,318.162Z"/><path class="g" d="M1904.584,365.5292s63.1836-24.6319,47.2383-63.7432-18.5293-68.6308-59.544-54.5576-42.72,32.1738-40.5732,46.5225S1887.7373,370.93,1904.584,365.5292Z"/><path class="h" d="M2230.9717,734.6366c-25.4795,36.6377-216.0586,85.5986-213.7813,60.2451a276.2049,276.2049,0,0,0-.0244-50.0234q-.7236-8.1592-2.0254-17.2813c-4.8574-33.35-16.3437-76.1865-42.0019-125.8047q-2.8844-5.578-5.9961-11.26a384.3271,384.3271,0,0,1-26.416-59.3594c-13.2081-38.1553-18.5469-74.668-11.8672-98.5273a1.2481,1.2481,0,0,1,.1015-.3291c39.8262-18.42,55.26-89.8487,55.26-89.8487s135.9,24.3916,212.0361,205.5313c0,0,7.3115,19.8886,15.6621,46.8857,10.1465,32.7412,21.836,75.9082,23.86,106.7012C2236.7656,716.1913,2235.5508,728.0331,2230.9717,734.6366Z"/><path class="l" d="M1960.8926,229.1337c.4414-.8741,1.7275-1.8086,4.8652-2.7686a13.1468,13.1468,0,0,0-6.3613-.2363c-1.7715-4.3281-6.084-11.6992-14.1719-11.7569a9.9657,9.9657,0,0,1,6.3477,5.8516c-11.0831-7.0249-31.627-9.0649-82.9112,8.0166-67.5879,22.5127-33.8193,61.749-23.5771,64.8945,10.2441,3.1456,29.1025-17.0419,46.0644-19.7978s26.1367,20.8711,32.6035,22.83,2.79-3.416,9.56-8.8008,10.6611,7.2832,10.5137,16.1787,13.0556,17.3291,13.0556,17.3291l7.7442-14.2041c7.7432-14.2041,5.6367-65.7686-1.7617-75.05C1962.21,230.8007,1961.5586,229.9677,1960.8926,229.1337Z"/><path class="k" d="M2235.7793,701.5663c-163.9854-49.4658-190.0723-244.9795-190.0723-244.9795s93.3653,71.3535,166.2119,138.2783C2222.0654,627.6063,2233.7549,670.7733,2235.7793,701.5663Z"/><path class="g" d="M2280.7392,707.9852s-3.6982,31.0244-2.8037,36.086,6.8008,20.123,8.27,20.206,5.9287.2627,5.8086-2.84-2.1348-6.001-.837-5.4873c1.2979.5117,1.6709,12.2226,7.584,11.9189s23.3233-6.8662,22.6162-20.4658-19.2529-38.5127-19.6933-40.7715C2297.9355,687.4823,2280.7392,707.9852,2280.7392,707.9852Z"/><path class="h" d="M2290.5625,713.22c-13.01,5.9609-17.84-.1191-17.84-.1191s-75.7832-126.545-83.7646-136.7217-147.877-70.21-147.877-70.21-56.9345-21.7636-59.1845-56.3c-1.9551-30.0107,15.082-48.4482,33.7412-59.5693a62.9815,62.9815,0,0,1,70.8115,4.5742c45.8906,35.6387,136.8633,107.3271,151.5039,126.7666,32.584,43.2666,68.7012,178.8877,68.7012,178.8877A45.0628,45.0628,0,0,1,2290.5625,713.22Z"/><path class="o" d="M1964.8066,799.0321,1930.7,833.1093l-.4727-.2969L1879.0381,800.7s26.4892,8.5527,30.0722,7.5537c3.376-.9424,40.3819-13.6572,49.1045-12.5986a3.5026,3.5026,0,0,1,1.2715.3564Z"/><path class="p" d="M1929.16,842.3612c-1.3691-.2969-5.43-1.26-10.958-2.6748-15.8935-4.07-43.9179-11.875-54.9834-18.2773-9.9257-5.7432-62.3711-36.2364-98.5029-57.6563a66.9512,66.9512,0,0,1,40.5537-7.2939c42.1826,24.7627,97.294,57.2666,104.0381,62.0088,11.0947,7.8046,26.2148,17.2431,26.2148,17.2431a10.763,10.763,0,0,1-.2167,1.0723C1934.793,838.8788,1933.2207,843.2343,1929.16,842.3612Z"/><path class="q" d="M1929.16,842.3612c-1.3691-.2969-5.43-1.26-10.958-2.6748-15.8935-4.07-43.9179-11.875-54.9834-18.2773-9.9257-5.7432-62.3711-36.2364-98.5029-57.6563-18.1435-10.7529-32.1738-19.2217-34.6387-21.1162-7.37-5.667-21.5634-19.835-18.0742-22.5068,3.4932-2.6739,10.2988.0166,12.8584-.3789.0352-.0059.0713-.01.1094-.0176.6-.0918,1.5889-.2481,2.9531-.33,4.874-.2891,14.5361.3838,28.2969,8.3281,0,0,21.834,12.752,49.0488,28.7276,42.1826,24.7627,97.294,57.2666,104.0381,62.0088,11.0947,7.8046,26.2148,17.2431,26.2148,17.2431a10.763,10.763,0,0,1-.2167,1.0723C1934.793,838.8788,1933.2207,843.2343,1929.16,842.3612Z"/><path class="o" d="M1929.16,842.3593c-1.3691-.294-5.43-1.2569-10.956-2.6729.7178-6.3037-3.69-11.3242-3.69-11.3242l20.7929,8.4209C1934.793,838.8768,1933.2217,843.2352,1929.16,842.3593Z"/><g class="r"><path class="o" d="M1884.1035,815.5712h0a.6874.6874,0,0,1-.2412-.9375l.3691-.6231a.6867.6867,0,0,1,.9375-.2412h0a.6872.6872,0,0,1,.2412.9375l-.3691.6231A.6865.6865,0,0,1,1884.1035,815.5712Z"/><path class="o" d="M1881.0654,813.7743h0a.6856.6856,0,0,1-.2412-.9365l.3691-.6241a.6871.6871,0,0,1,.9375-.24h0a.687.687,0,0,1,.24.9375l-.3692.6231A.6852.6852,0,0,1,1881.0654,813.7743Z"/><path class="o" d="M1878.0264,811.9784h0a.6853.6853,0,0,1-.2413-.9365l.3692-.6241a.6874.6874,0,0,1,.9375-.2412h0a.6862.6862,0,0,1,.24.9375l-.3691.6241A.685.685,0,0,1,1878.0264,811.9784Z"/><path class="o" d="M1874.9873,810.1825h0a.6857.6857,0,0,1-.24-.9365l.3681-.6241a.6865.6865,0,0,1,.9375-.2412h0a.6875.6875,0,0,1,.2412.9375l-.3681.6241A.6874.6874,0,0,1,1874.9873,810.1825Z"/><path class="o" d="M1871.9492,808.3876h0a.6874.6874,0,0,1-.24-.9385l.3681-.624a.6873.6873,0,0,1,.9375-.24h0a.6866.6866,0,0,1,.2412.9375l-.3691.6241A.6874.6874,0,0,1,1871.9492,808.3876Z"/><path class="o" d="M1868.9111,806.5907h0a.6865.6865,0,0,1-.2412-.9375l.3692-.623a.6864.6864,0,0,1,.9375-.2413h0a.6871.6871,0,0,1,.24.9375l-.3692.6241A.6861.6861,0,0,1,1868.9111,806.5907Z"/><path class="o" d="M1865.8721,804.7948h0a.6882.6882,0,0,1-.2413-.9375l.3692-.624a.687.687,0,0,1,.9375-.24h0a.6862.6862,0,0,1,.24.9375l-.3672.6231A.688.688,0,0,1,1865.8721,804.7948Z"/><path class="o" d="M1862.834,802.9989h0a.6865.6865,0,0,1-.2412-.9375l.3681-.623a.6874.6874,0,0,1,.9385-.2413h0a.6865.6865,0,0,1,.2412.9366l-.3691.624A.6867.6867,0,0,1,1862.834,802.9989Z"/><path class="o" d="M1859.7949,801.202h0a.6861.6861,0,0,1-.24-.9365l.3691-.624a.6851.6851,0,0,1,.9365-.24h0a.6856.6856,0,0,1,.2413.9366l-.3692.624A.6862.6862,0,0,1,1859.7949,801.202Z"/><path class="o" d="M1823.9912,780.0389h0a.6865.6865,0,0,1-.2412-.9375l.3691-.624a.6862.6862,0,0,1,.9375-.24h0a.6853.6853,0,0,1,.24.9365l-.3692.624A.6853.6853,0,0,1,1823.9912,780.0389Z"/><path class="o" d="M1820.9521,778.243h0a.6864.6864,0,0,1-.24-.9375l.3682-.624a.6865.6865,0,0,1,.9375-.2412h0a.6864.6864,0,0,1,.24.9375l-.3672.624A.6874.6874,0,0,1,1820.9521,778.243Z"/><path class="o" d="M1817.9141,776.4462h0a.6862.6862,0,0,1-.24-.9366l.3692-.624a.6855.6855,0,0,1,.9365-.2412h0a.6883.6883,0,0,1,.2412.9385l-.3691.623A.6862.6862,0,0,1,1817.9141,776.4462Z"/><path class="o" d="M1814.876,774.65h0a.6855.6855,0,0,1-.2412-.9366l.3691-.624a.6856.6856,0,0,1,.9365-.2412h0a.6865.6865,0,0,1,.2412.9375l-.3691.624A.6861.6861,0,0,1,1814.876,774.65Z"/><path class="o" d="M1811.8369,772.8544h0a.6865.6865,0,0,1-.2412-.9375l.3691-.6231a.6865.6865,0,0,1,.9375-.2412h0a.6861.6861,0,0,1,.24.9375l-.3692.624A.6859.6859,0,0,1,1811.8369,772.8544Z"/><path class="o" d="M1808.7978,771.0575h0a.6868.6868,0,0,1-.24-.9365l.3682-.6241a.6871.6871,0,0,1,.9375-.24h0a.6865.6865,0,0,1,.2412.9375l-.3682.6231A.6863.6863,0,0,1,1808.7978,771.0575Z"/><path class="o" d="M1805.76,769.2626h0a.6873.6873,0,0,1-.24-.9375l.3692-.6241a.6852.6852,0,0,1,.9365-.24h0a.6853.6853,0,0,1,.2412.9365l-.3691.6241A.6874.6874,0,0,1,1805.76,769.2626Z"/><path class="o" d="M1802.7217,767.4667v-.001a.686.686,0,0,1-.2412-.9375l.3691-.623a.6861.6861,0,0,1,.9375-.24h0a.6859.6859,0,0,1,.24.9365l-.3691.6241A.6864.6864,0,0,1,1802.7217,767.4667Z"/><path class="o" d="M1799.6826,765.6708h0a.6886.6886,0,0,1-.2412-.9385l.3691-.624a.687.687,0,0,1,.9375-.24h0a.6864.6864,0,0,1,.24.9375l-.3672.6241A.6879.6879,0,0,1,1799.6826,765.6708Z"/><path class="o" d="M1787.9238,758.72h0a.6871.6871,0,0,1-.24-.9375l.3691-.623a.6855.6855,0,0,1,.9365-.2413h0a.6856.6856,0,0,1,.2413.9366l-.3692.624A.6865.6865,0,0,1,1787.9238,758.72Z"/><path class="o" d="M1793.8662,762.2313h0a.6856.6856,0,0,1-.2412-.9375l.3682-.623a.6871.6871,0,0,1,.9384-.24h0a.6871.6871,0,0,1,.24.9366l-.3692.624A.6853.6853,0,0,1,1793.8662,762.2313Z"/><path class="o" d="M1784.8857,756.9237h0a.6867.6867,0,0,1-.2412-.9375l.3692-.624a.6862.6862,0,0,1,.9375-.24h0a.6883.6883,0,0,1,.2412.9375l-.37.6231A.6854.6854,0,0,1,1784.8857,756.9237Z"/><path class="o" d="M1781.8476,755.1268h0a.6834.6834,0,0,1-.24-.9365l.3672-.624a.6867.6867,0,0,1,.9375-.2412h0a.6874.6874,0,0,1,.2412.9384l-.3682.6231A.6862.6862,0,0,1,1781.8476,755.1268Z"/><path class="o" d="M1778.8086,753.3309h0a.6851.6851,0,0,1-.24-.9365l.3672-.624a.6885.6885,0,0,1,.9385-.2412h0a.6865.6865,0,0,1,.2412.9375l-.3691.623A.6856.6856,0,0,1,1778.8086,753.3309Z"/><path class="o" d="M1775.77,751.535h0a.6859.6859,0,0,1-.24-.9365l.3691-.624a.6864.6864,0,0,1,.9365-.2412h0a.6867.6867,0,0,1,.2413.9375l-.3692.624A.6862.6862,0,0,1,1775.77,751.535Z"/><path class="o" d="M1772.7324,749.7391h0a.6859.6859,0,0,1-.2422-.9375l.3692-.623a.6853.6853,0,0,1,.9375-.24h0a.6853.6853,0,0,1,.2412.9365l-.3682.624A.6873.6873,0,0,1,1772.7324,749.7391Z"/><path class="o" d="M1769.6933,747.9423h0a.6835.6835,0,0,1-.24-.9366l.3672-.624a.6864.6864,0,0,1,.9375-.24h0a.6865.6865,0,0,1,.2412.9375l-.3682.623A.6854.6854,0,0,1,1769.6933,747.9423Z"/><path class="o" d="M1766.6543,746.1473h0a.6869.6869,0,0,1-.24-.9375l.3691-.624a.6853.6853,0,0,1,.9365-.24h0a.6864.6864,0,0,1,.2412.9365l-.3691.624A.6865.6865,0,0,1,1766.6543,746.1473Z"/><path class="o" d="M1763.6162,744.3514h0a.6876.6876,0,0,1-.2412-.9384l.3691-.6231a.6862.6862,0,0,1,.9375-.24h0a.6861.6861,0,0,1,.24.9365l-.3692.624A.6864.6864,0,0,1,1763.6162,744.3514Z"/><path class="o" d="M1760.6387,742.5907h0a.6864.6864,0,0,1-.2413-.9375l.3682-.624a.6873.6873,0,0,1,.9375-.24h0a.6863.6863,0,0,1,.2412.9375l-.3691.6241A.6861.6861,0,0,1,1760.6387,742.5907Z"/><path class="o" d="M1757.6,740.7948h0a.6855.6855,0,0,1-.24-.9375l.3681-.624a.6862.6862,0,0,1,.9366-.24h0a.6865.6865,0,0,1,.2412.9375l-.3682.6231A.6867.6867,0,0,1,1757.6,740.7948Z"/><path class="o" d="M1754.5615,738.9989h0a.6856.6856,0,0,1-.2412-.9375l.3682-.623a.6866.6866,0,0,1,.9375-.2413h0a.6854.6854,0,0,1,.24.9366l-.3682.624A.6855.6855,0,0,1,1754.5615,738.9989Z"/><path class="o" d="M1731.2041,723.3358a1.0453,1.0453,0,0,1-1.47.169l-4.7637-3.7715c.6-.0918,1.5889-.2481,2.9531-.33l3.11,2.4619A1.05,1.05,0,0,1,1731.2041,723.3358Z"/><path class="o" d="M1808.4738,767.1507h1.0728a1.2885,1.2885,0,0,1,1.2885,1.2885v4.4715a1.2878,1.2878,0,0,1-1.2878,1.2878h-1.0723a1.2886,1.2886,0,0,1-1.2886-1.2886v-4.4718A1.2874,1.2874,0,0,1,1808.4738,767.1507Z" transform="translate(643.5982 -813.0781) rotate(30.5773)"/><path class="o" d="M1814.5109,770.7191h1.0734a1.2879,1.2879,0,0,1,1.2879,1.2879v4.4724a1.2875,1.2875,0,0,1-1.2875,1.2875h-1.0728a1.2886,1.2886,0,0,1-1.2886-1.2886v-4.4718a1.2875,1.2875,0,0,1,1.2875-1.2875Z" transform="translate(646.3283 -815.7084) rotate(30.5801)"/><path class="o" d="M1850.8633,795.9227h0a.6854.6854,0,0,1-.24-.9375l.3682-.623a.6856.6856,0,0,1,.9365-.2412h0a.6867.6867,0,0,1,.2412.9375l-.3681.624A.6862.6862,0,0,1,1850.8633,795.9227Z"/><path class="o" d="M1847.8252,794.1268h0a.6856.6856,0,0,1-.2412-.9365l.3691-.624a.6863.6863,0,0,1,.9375-.2412h0a.6869.6869,0,0,1,.24.9375l-.3691.623A.6853.6853,0,0,1,1847.8252,794.1268Z"/><path class="o" d="M1844.7871,792.3309h0a.6865.6865,0,0,1-.2412-.9375l.3682-.623a.6865.6865,0,0,1,.9375-.2412h0a.6853.6853,0,0,1,.24.9375l-.3682.623A.6856.6856,0,0,1,1844.7871,792.3309Z"/><path class="o" d="M1841.748,790.5341h0a.6857.6857,0,0,1-.2412-.9366l.3692-.624a.685.685,0,0,1,.9365-.24h0a.6856.6856,0,0,1,.2412.9365l-.3682.624A.6864.6864,0,0,1,1841.748,790.5341Z"/><path class="o" d="M1838.709,788.7382h0a.686.686,0,0,1-.24-.9366l.3682-.624a.6867.6867,0,0,1,.9365-.2412h0a.6856.6856,0,0,1,.2412.9375l-.3681.623A.6864.6864,0,0,1,1838.709,788.7382Z"/><path class="o" d="M1835.6709,786.9423h0a.6873.6873,0,0,1-.2412-.9375l.3691-.6231a.6865.6865,0,0,1,.9375-.2412h0a.6865.6865,0,0,1,.24.9375l-.3692.624A.6851.6851,0,0,1,1835.6709,786.9423Z"/><path class="o" d="M1832.6328,785.1464h0a.6863.6863,0,0,1-.2412-.9375l.3682-.6241a.6871.6871,0,0,1,.9375-.24h0a.6853.6853,0,0,1,.24.9375l-.3682.624A.6853.6853,0,0,1,1832.6328,785.1464Z"/><path class="o" d="M1829.5937,783.3505h0a.6865.6865,0,0,1-.2412-.9375l.3692-.6241a.6864.6864,0,0,1,.9365-.2412h0a.6877.6877,0,0,1,.2412.9385l-.3682.624A.6872.6872,0,0,1,1829.5937,783.3505Z"/><path class="o" d="M1826.5547,781.5546h0a.6873.6873,0,0,1-.24-.9375l.3682-.6241a.6855.6855,0,0,1,.9365-.24h0a.6866.6866,0,0,1,.2422.9375l-.3691.6231A.6865.6865,0,0,1,1826.5547,781.5546Z"/></g><path class="l" d="M1807.8506,790.0663a2.4486,2.4486,0,0,0,2.5537-3.626,13.87,13.87,0,0,0-4.8486-5.1738c-4.6006-2.6572-5.9639,5.7637-4.4659,6.7109A26.5844,26.5844,0,0,0,1807.8506,790.0663Z"/><path class="l" d="M1807.3974,780.05l-5.6523,9.5625a51.3548,51.3548,0,0,1-13.3086-5.4356,41.0308,41.0308,0,0,1-9.0293-6.5537,13.8006,13.8006,0,0,1-1.3506-1.5136l5.9258-10.0254a5.6107,5.6107,0,0,1,2.09.2627c6.7294,1.9082,20.5459,12.8056,20.5459,12.8056Z"/><path class="o" d="M1786.0723,766.3466l-6.6651,11.2763a13.8006,13.8006,0,0,1-1.3506-1.5136l5.9258-10.0254A5.6107,5.6107,0,0,1,1786.0723,766.3466Z"/><path class="l" d="M1914.7607,826.6786c.2764-.1016,19.81,4.3125,30.4268,12.0849l-13.4258-.206-17.248-10.1953S1913.3769,827.1913,1914.7607,826.6786Z"/><path class="o" d="M1874.8945,787.7782s-12.0849,8.3164-14.1855,9.4443-5.4707.8184-5.4707.8184l-.02-.0039-20.7861-3.5039s-22.1572-12.94-26.9268-15.876l-.0009-.001c-.4317-.2666-.7217-.4521-.8389-.5351-1.3955-1.0127-1.8613-1.9112-1.3848-2.1914.4766-.2784,36.918,14.2177,40.9414,15.8476.0381.0156.0772.03.1143.0469,3.9248,1.5674,4.7139.75,4.7139.75l20.0927-5.5166a2.0234,2.0234,0,0,1,1.0791-.127A9.6,9.6,0,0,1,1874.8945,787.7782Z"/><path class="o" d="M1872.2226,786.9305c-5.496,1.6895-20.6865,6.3291-22.01,6.4981-1.4238.1826-34.5606-11.8311-42.7071-14.7715l-.0009-.001c-.4317-.2666-.7217-.4521-.8389-.5351-1.3955-1.0127-1.8613-1.9112-1.3848-2.1914.4766-.2784,36.918,14.2177,40.9414,15.8476s4.8282.7969,4.8282.7969l20.0927-5.5166A2.0234,2.0234,0,0,1,1872.2226,786.9305Z"/><path class="o" d="M1874.8945,787.7782s-12.0849,8.3164-14.1855,9.4443-5.4707.8184-5.4707.8184l-.02-.0039a45.0087,45.0087,0,0,1-8.8818-6.2129c3.9248,1.5674,4.7139.75,4.7139.75l20.0927-5.5166a2.0234,2.0234,0,0,1,1.0791-.127A9.6,9.6,0,0,1,1874.8945,787.7782Z"/><path class="q" d="M1931.166,833.3143,1879.0381,800.7s26.915,8.7812,30.54,7.8037c3.4151-.9209,40.835-13.4131,49.6836-12.2871-10.0527,4.0615-33.6328,14.1181-35.2637,19.6943C1922.4453,821.2216,1928.1758,829.4843,1931.166,833.3143Z"/><path class="d" d="M679.3183,199.0272c-.1054-2.88-2.3349-33.9194-49.6132-35.541,0,0,23.25,2.7715,27.2666,12.9927,0,0-15.83-12.6294-28.7217-8.5674s-20.4639,26.6479-20.5391,34.0767,7.086,31.3759,15.2676,33.4121a24.9646,24.9646,0,0,0,9.91.0127,111.3041,111.3041,0,0,0-6.3506,11.3359c-18.8643,38.7256.5908,76.5713,16.5615,72.3906,10.2432-2.6816,13.1406,14.7959,13.1406,14.7959l99.5127-80.5625S719.2021,177.7416,679.3183,199.0272Z"/><path class="l" d="M713.9658,1339.8954l-21.1377,7.8711s-91.81-127.335-103.1133-239.3682c-2.0185-20-1.3457-39.3808,3.02-57.2764,0,0-.8965-5.125-2.4668-14.1845-.7256-4.2285-1.6221-9.3184-2.64-15.1524-2.9863-17.1015-7.0937-40.5019-11.7881-67.1474-10.8027-61.3145-24.7988-139.6953-35.67-197.3164l5.6953-1.83,61.625-19.88,12.7354-40.45,45.8867-12.08s10.251,20.0528,19.4141,114.7774c1.6914,12.4238,3.2275,26.1269,4.3837,40.9853a811.1524,811.1524,0,0,1-4.3662,165.9268q-3.16,24.6944-8.0595,50.9258c-2.4161,12.8037-2.7784,30.2509-1.76,50.2861C680.35,1197.5653,713.9658,1339.8954,713.9658,1339.8954Z"/><path class="j" d="M689.91,838.8436l-99.6425,198.0938c-.7256-4.2285-1.6221-9.3184-2.64-15.1524-2.9863-17.1015-7.0937-40.5019-11.7881-67.1474-10.8027-61.3145-24.7988-139.6953-35.67-197.3164l5.6953-1.83,61.625-19.88,12.7354-40.45,45.8867-12.08s10.251,20.0528,19.4141,114.7774C687.2178,810.2821,688.7539,823.9852,689.91,838.8436Z"/><path class="l" d="M646.0752,708.5028l-2.3067-19.7812c-38.6455,10.2646-141.8994-28.6827-141.8994-28.6827s-37.4375,32.9092-32.5224,111.794c2.3994,38.5019,6.7822,202.1123,11.3584,250.5273,1.6543,17.5469,3.1035,30.0342,3.6953,35.0215a.0945.0945,0,0,1,.0117.0488,6.9119,6.9119,0,0,1-1.123,4.2872,227.3643,227.3643,0,0,0-16.8946,35.5292c-44.9248,119.7149,6.92,267.1446,6.92,267.1446l13.4532-5.4219s29.5019-164.0723,53.4746-236.5557c4.0693-12.2939,7.9707-21.9541,11.5459-27.7285,10.4209-16.8213,20.0947-44.3076,28.874-77,16.5937-61.8066,29.9492-142.21,38.8379-204.2715C620.7266,813.4706,646.0752,708.5028,646.0752,708.5028Z"/><path class="i" d="M950.5293,683.2333c-8.3174,7.3574-30.3936-17.916-33.4326-21.2744a1.9631,1.9631,0,0,0-.3194-.4805l6.7188-18.7168s28.9531-1.1182,33.751,3.6787C962.0469,651.24,959.6465,675.3954,950.5293,683.2333Z"/><path class="i" d="M923.4961,642.7616l-2.88,19.3574s-1.2793,0-3.5195-.16c-7.0381-.4805-24.1534-1.4395-43.5088-3.5215-29.1133-2.878-63.666-7.9981-77.4229-16.4746-20.9541-12.795-55.3467-51.9873-77.7412-91.1787a25.8429,25.8429,0,0,1-1.6-2.878c-11.6777-20.7968-19.8359-41.4326-20.4746-57.9072a82.68,82.68,0,0,1,2.7187-26.2344,66.8909,66.8909,0,0,1,11.837-23.6738,11.9429,11.9429,0,0,1,2.24-2.72c7.6777-9.1172,15.1963-12.9571,15.1963-12.9571,3.8389-1.6005,7.998.32,12.3164,4.959v.16A73.3255,73.3255,0,0,1,751.6953,445.85c.16.16.32.32.32.4805.8008,1.4384,1.6006,3.038,2.5606,4.7978a4.0354,4.0354,0,0,1,.6386,1.12q2.64,5.518,5.2793,11.5166c19.6748,42.8692,40.6309,107.8145,58.0664,127.17,7.5176,8.3184,41.9112,24.6338,69.2627,36.792C907.5,636.3651,923.4961,642.7616,923.4961,642.7616Z"/><path class="g" d="M719.9023,468.576c-12.1318,5.626-26.7832,9.4571-44.5058,10.4239-66.4395,3.6406-81.5225-54.6016-84.2666-93.2578a55.7333,55.7333,0,0,1,22.7968-2.8819c4.711.26,9.63.7422,13.6846,1.2422,8.1289-4.2451,22.7276-24.8672,31.166-59.3642l2.8653,1.3291,47.9394,22.538s-5.09,15.6-8.8515,30.5274c-2.9346,11.6826-5.04,22.97-3.2793,26.1269,3.7793,1.5362,6.04,2.502,6.04,2.502a.1417.1417,0,0,0,.0166.0527A328.9881,328.9881,0,0,1,719.9023,468.576Z"/><path class="h" d="M736.5215,512.1669c-.501,1.3291-1.0537,2.623-1.6573,3.9531-16.8251,36.2393-47.9755,186.3584-47.9755,186.3584,4.4355,26.9893-202.8389-5.2979-203.3741-29.8721-7.3-26.0586,25.9034-67.9238,44.628-88.9267a59.5729,59.5729,0,0,0,6.2812-8.4551,58.9508,58.9508,0,0,0,8.49-24.7813c3.6767-34.8359,2.2773-67.4843,2.5878-87.3349v-.0039c3.6592-2.708,7.1973-5.211,10.4932-7.5928a93.7651,93.7651,0,0,0,12.77-10.5947c3.6065-3.7969,5.8672-7.68,6.125-12.0625a64.1338,64.1338,0,0,0-.2578-10.1133c-.1562-1.6045-.3623-3.21-.6045-4.8145a137.1384,137.1384,0,0,0-9.63-32.15c17.8272-7.2128,49.5283-2.916,49.5283-2.916s-.0341,1.76-.0517,4.6416c-.1035,11.58,0,41.3135,3.71,46.94,4.6426,7.0068,89.5635,37.707,94.0518,28.1982,4.417-9.3535-7.68-53.17-8.1289-54.8252a.1417.1417,0,0,1-.0166-.0527c28.4385,11.166,38.6035,20.5361,38.6035,20.5361C724.958,439.411,749.7744,477.0145,736.5215,512.1669Z"/><path class="i" d="M709.583,348.6141s-5.0967,15.586-8.8516,30.5274C672.71,371.3241,664.2,341.868,661.6387,326.078Z"/><path class="g" d="M715.4853,365.1171S648.4433,349.6024,658.748,308c10.3047-41.6006,8.5928-71.6221,51.8321-63.4737,43.24,8.1465,47.5927,26.0733,47.53,40.7959S733.1894,368.0809,715.4853,365.1171Z"/><path class="d" d="M761.8808,261.703c-7.207-15.0781-15.6894-14.2734-20.996-11.6006-31.501-29.1455-62.3985-5.3349-62.3985-5.3349-11.8926,28.73-37.668,40.47-37.668,40.47s10.2989,10.5459,40.15,10.3135c9.1172-.0713,18.2852-4.2579,26.627-10.0264A160.5311,160.5311,0,0,1,672.64,311.5966c37.3662-7.1514,62.4239-50.4112,64.99-55.0059,3.165,4.6748,9.22,14.626,9.73,23.0283.6924,11.419-3.2363,33.5938,3.3028,34.4346C750.6631,314.0536,772.6894,284.3163,761.8808,261.703Z"/><path class="h" d="M742.1016,428.2909s16.1425,28.1582,18.5566,35.4053c0,0-20.9316-.8057-29.3848,15.2959C731.2734,478.9921,729.2471,432.0858,742.1016,428.2909Z"/><path class="k" d="M631.08,652.036c-40.8819-.4326-75.5-42.8838-96.6563-76.8115a58.9508,58.9508,0,0,0,8.49-24.7813c3.6767-34.8359,2.2773-67.4843,2.5878-87.3349v-.0039c3.6592-2.708,7.1973-5.211,10.4932-7.5928a93.7651,93.7651,0,0,0,12.77-10.5947C602.2432,501.5018,686.51,652.6219,631.08,652.036Z"/><path class="j" d="M551.5312,1375.3827H445.0693s-2.5517-16.2256,3.0088-28.5361c5.3291-11.8116,13.6748-17.18,11.6768-31.4707,6.7646,6.9648,17.79,14.7646,33.1806,12.6943,1.8868,3.0576,12.1729,19.4189,18.4727,23.9453C518.3652,1357.0145,549.3887,1355.2323,551.5312,1375.3827Z"/><path class="j" d="M780.1162,1375.3827H673.6553s-3.98-16.9805,3.01-28.5361c6.1866-10.2227,3.8145-16.0469-.7676-24.5039a41.3844,41.3844,0,0,0,17.9317,3.3769c5.3037-.3057,10.9131-2.7129,15.832-5.57,4.5821,5.2246,24.2022,27.4609,30.333,31.8662C746.9512,1357.0145,777.9736,1355.2323,780.1162,1375.3827Z"/><polygon class="j" points="872.213 589.718 768.624 724.466 777.046 730.361 881.904 595.613 872.213 589.718"/><polygon class="l" points="881.904 595.613 987.028 595.613 876.984 730.361 777.046 730.361 881.904 595.613"/><polygon class="s" points="872.213 589.718 976.643 589.718 982.537 595.613 881.904 595.613 872.213 589.718"/><polygon class="l" points="874.991 591.408 978.537 591.408 980.221 589.718 872.213 589.718 874.991 591.408"/><path class="g" d="M860.2812,677.3856c-.292-5.3623-7.3632-5.1162-12.7343-5.1416-8.8106-.042-22.708-.6445-30.7471-3.7256,0,0,25.6728-.3662,20.2168-8.48-.9942-1.4765-13.7549-.3584-28.0029-.3584-5.8418,0-20.2832,8.0059-19.5381,8.378-10.3223-1.3643-19.709-3.3643-22.7432-4.02h0c-7.0391-3.8389-15.5166-8.4786-24.4736-13.5987-21.5957-12.1552-46.39-27.0322-63.3457-39.35-9.7578-7.0381-17.1162-13.2763-19.6748-17.7558-3.9991-6.8789-8.4785-17.7559-13.4375-31.1914-2.5586-7.0391-5.2784-14.7168-7.9981-22.875-4.7988-13.4375-9.5976-27.9942-14.5566-42.5489-8.957-26.5547-18.5557-53.2695-27.6729-73.9052-5.9179-12.9561-11.6777-23.6739-17.1162-30.2315-4.3193-5.2793-8.4785-7.998-12.4775-7.3574-.64.1582-1.12.3183-1.6.4785,0,0-23.0342,6.3984-23.3545,52.7861a70.6885,70.6885,0,0,0,.16,8.1592c.32,8.1582,1.92,18.0772,4.3194,28.9531,3.8388,18.2364,10.2373,39.3506,18.2353,60.7881,2.2393,5.7569,4.4785,11.6768,6.8789,17.5938,17.2754,42.8711,39.5108,82.8623,58.2256,96.456a19.4883,19.4883,0,0,0,2.2393,1.6016c7.8379,4.96,19.3564,9.918,32.6318,14.5557,18.876,6.4013,41.2705,12.1572,61.2666,16.957h.16c11.6767,2.5586,22.3945,4.96,31.3515,6.7187,0,0,1.4707.3662,4.0879.8868q.5625.1113,1.1914.2324a357.4357,357.4357,0,0,1,42.3907,12.957c23.0351,9.1172,39.9794-2.2178,47.6679-10.2373C856.706,689.0272,860.5478,682.28,860.2812,677.3856Z"/><path class="h" d="M595.5166,422.8807c-30.7949-8.49-54.55,15.5547-54.55,15.5547.3867-46.3135,23.44-52.6543,23.44-52.6543C573.6826,381.94,584.4307,398.0028,595.5166,422.8807Z"/><path class="t" d="M1328.0693,989.7177c-12.5752-11.3077-2.23-38.0108-7.0224-43.2823a44.6312,44.6312,0,0,0-4.8985-3.916,123.0136,123.0136,0,0,1-17.3086,39.03c-28.5517,42.9346-76.7929,61.0566-107.7373,40.47-30.0967-20.02-32.7461-69.2939-6.582-111.4785q1.0957-1.768,2.2656-3.5283a123.1962,123.1962,0,0,1,29.0908-30.878.6888.6888,0,0,1,.0938-.0722,22.6192,22.6192,0,0,0-3.1787-1.6377c-6.7207-2.3828-27.3379,17.4805-42.6358,10.25-15.2871-7.23-1.32-36.418,28.9014-39.8447,18.4316-2.0928,37.88,7.4326,50.25,15.1855a68.2193,68.2193,0,0,1,16.2969-1.9619c.1963,0,.4-.0059.6015,0a41.4669,41.4669,0,0,1,13.68-44.1367c-.0205-.0313-.0312-.0625-.0517-.0938a21.0289,21.0289,0,1,1,39.3213-6.8984,41.6152,41.6152,0,0,1,16.9882,10.9512,21.0284,21.0284,0,1,1,9.7227,39.1728,41.5007,41.5007,0,0,1-33.62,30.0518,66.6026,66.6026,0,0,1,5.7646,18.5576c12.0323,8.1513,30.1143,23.0693,35.6358,42.0058C1362.1709,976.8632,1340.6494,1001.02,1328.0693,989.7177Z"/><path class="u" d="M1184.5205,910.5409q1.0957-1.768,2.2656-3.5283a123.1962,123.1962,0,0,1,29.0908-30.878c3.2041-.2461,6.4551.4356,7.6319,3.7276,2.6025,7.2666-21.7813,30.1347-19.6934,43.1133C1205.3662,932.5956,1191.35,918.6971,1184.5205,910.5409Z"/><path class="u" d="M1283.6465,868.5624a116.9151,116.9151,0,0,1-18.042-10.5088c.1963,0,.4-.0059.6015,0a41.4669,41.4669,0,0,1,13.68-44.1367c-.0205-.0313-.0312-.0625-.0517-.0938.416.1758.6133.7363.4121,1.9258-.78,4.5439-12.15,36.2539,6.3838,49.8252C1286.63,865.5741,1289.4023,871.1952,1283.6465,868.5624Z"/><path class="v" d="M1340.9385,826.4081s10.7705-3.2549,14.542,4.1406-3.49,16.2295-9.334,14.8066C1346.1465,845.3553,1345.7324,834.9393,1340.9385,826.4081Z"/><path class="v" d="M1310.6,804.31s-4.35-11.7519-12.2676-11.0967-6.1015,13.3887-6.1015,13.3887S1302.9971,802.8319,1310.6,804.31Z"/><path class="w" d="M1066.6191,920.6093s-26.9892-34.7959-27.1718-63.1963.6425-37.8272,5.3828-36.5469c4.7422,1.2812,26.0644,17.1152,33.7275,32.8867s21.126,57.0342,21.4063,62.6455S1066.6191,920.6093,1066.6191,920.6093Z"/><path class="x" d="M1068.0937,909.5009s-17.2441-24.0372-17.8984-43.2413c-.6514-19.2041-.3242-25.5595,2.6133-24.6044s16.34,12.0664,21.3476,22.874,14.0664,38.96,14.3457,42.7588S1068.0937,909.5009,1068.0937,909.5009Z"/><path class="w" d="M1110.1689,906.0868s-12.9414-47.1289-7.8291-59.9609,31.6192-4.2627,34.625,4.7832,1.1543,47.2431,1.1543,47.2431Z"/><path class="x" d="M1113.6084,851.9s-1.8711,37.3525,4.6611,51.8867l12.5586-3.5654s1.9492-41.7051.2735-44.5225S1113.6084,851.9,1113.6084,851.9Z"/><path class="w" d="M1101.6074,848.8026s43.5195,28.8037,47.0332,25.7637-9.7246-32.28-14.8564-34.8985C1128.6533,837.0516,1101.2939,831.6512,1101.6074,848.8026Z"/><rect class="y" x="1021.5615" y="886.0321" width="593.2959" height="489.2109" transform="translate(2636.4189 2261.2751) rotate(180)"/><rect class="z" x="1318.206" y="886.0331" width="593.2959" height="489.2129"/><polygon class="aa" points="1911.502 886.033 1911.502 1221.591 1318.206 1375.246 1318.206 886.033 1911.502 886.033"/><polygon class="z" points="1318.209 886.032 1435.604 1014.75 2021.052 1014.75 1911.505 886.032 1318.209 886.032"/><polygon class="z" points="1021.907 1251.178 1115.921 1251.178 1107.639 1224.722 1115.921 1205.819 1021.907 1205.819 1021.907 1251.178"/><polygon class="aa" points="1911.631 1335.078 1817.619 1335.078 1825.899 1308.623 1817.619 1289.721 1911.631 1289.721 1911.631 1335.078"/><polygon class="ab" points="1318.209 941.338 1193.15 1066.396 1021.907 1066.396 1021.907 886.032 1318.209 886.032 1318.209 941.338"/><polygon class="z" points="1021.562 886.032 888.172 1014.75 1185.006 1014.75 1318.209 886.032 1021.562 886.032"/><path class="z" d="M1359.6855,1172.51v-96.3759H1389.34a46.3831,46.3831,0,0,1,17.8389,3.3418,40.1645,40.1645,0,0,1,13.9,9.3994,42.9829,42.9829,0,0,1,9.0351,14.5293,52.2319,52.2319,0,0,1,3.2432,18.8v4.3681a52.4291,52.4291,0,0,1-3.21,18.7657,42.0831,42.0831,0,0,1-9.0683,14.4951,40.3389,40.3389,0,0,1-14,9.3672,47.1976,47.1976,0,0,1-17.9375,3.31Zm19.8575-80.2919v64.34h9.5986q11.78,0,17.9375-7.7793,6.1553-7.7754,6.1562-22.2061v-4.5009q0-14.6939-6.09-22.2744t-17.8057-7.5791Z"/><path class="z" d="M1526.9531,1126.5057a61.4378,61.4378,0,0,1-2.9785,19.8243,42.9027,42.9027,0,0,1-8.373,14.86,36.481,36.481,0,0,1-12.94,9.3662,43.7652,43.7652,0,0,1-33.23,0,37.1176,37.1176,0,0,1-13.0058-9.3662,43.1053,43.1053,0,0,1-8.5059-14.86,60.2154,60.2154,0,0,1-3.0449-19.8243v-4.2363a60.9107,60.9107,0,0,1,3.0117-19.791,43.6929,43.6929,0,0,1,8.4395-14.96,36.4316,36.4316,0,0,1,12.9736-9.4326,43.7516,43.7516,0,0,1,33.2285,0,36.44,36.44,0,0,1,12.9736,9.4326,43.7256,43.7256,0,0,1,8.4395,14.96,60.9107,60.9107,0,0,1,3.0117,19.791Zm-20.1211-4.3681q0-15.1583-5.4287-23.0352t-15.4892-7.8779q-10.0622,0-15.4893,7.8779t-5.4277,23.0352v4.3681a56.1217,56.1217,0,0,0,1.4238,13.3389,29.784,29.784,0,0,0,4.1035,9.7285,17.8146,17.8146,0,0,0,6.5859,5.9571,19.16,19.16,0,0,0,8.9366,2.02q10.06,0,15.4228-7.9434,5.36-7.9423,5.3623-23.1006Z"/><path class="z" d="M1619.7558,1172.51h-19.8574l-38.6572-63.413v63.413h-19.8574v-96.3759h19.8574l38.7227,63.5439v-63.5439h19.7919Z"/><path class="z" d="M1692.7,1152.6512h-34.8174l-6.6191,19.8584h-21.1153l35.875-96.3759h18.4024l36.0752,96.3759h-21.1162Zm-29.4561-16.0839h24.0938l-12.1123-36.0752Z"/><path class="z" d="M1794.1064,1092.2177H1764.584V1172.51h-19.8574v-80.2919h-29.125v-16.084h78.5048Z"/><path class="z" d="M1863.41,1130.7421h-38.1279v25.8154h44.7461V1172.51h-64.6025v-96.3759h64.4707v16.084h-44.6143v22.9687H1863.41Z"/><path class="ac" d="M875.0723,1246.37l-10.8047,2.0967a23.8008,23.8008,0,0,1-27.8262-18.78l-15.8926-81.8008a23.8222,23.8222,0,0,1,15.4551-26.9336,6.59,6.59,0,0,1-.2363-.8672l-.9346-4.8086a6.193,6.193,0,0,1,4.8936-7.2421l4.8076-.9356a6.2,6.2,0,0,1,7.2519,4.8848l.9258,4.8174a4.4005,4.4005,0,0,1,.0928.6738c0,.042.0088.0762.0088.1172a23.824,23.824,0,0,1,25.1552,19.1347l15.8838,81.8086A23.8173,23.8173,0,0,1,875.0723,1246.37Z"/><rect class="l" x="826.3791" y="1146.4429" width="58.4894" height="57.2682" transform="translate(-208.3319 184.6748) rotate(-10.9906)"/><path class="o" d="M852.8047,1117.4745l-16.8008,3.4775a6.59,6.59,0,0,1-.2363-.8672l-.9346-4.8086a6.193,6.193,0,0,1,4.8936-7.2421l4.8076-.9356a6.2,6.2,0,0,1,7.2519,4.8848l.9258,4.8174A4.4005,4.4005,0,0,1,852.8047,1117.4745Z"/><path class="ad" d="M1166.1875,1096.829s-7.1133,10.0137-13.6348,10.1533-16.4433-4.6416-16.4433-4.6416-5.9883-13.3457-1.9258-18.5674a8.719,8.719,0,0,1,8.331,1.3692,12.81,12.81,0,0,1,2.2051,2.1123,6.9976,6.9976,0,0,0,3.4238,2.3212c4.6534,1.4151,10.1768-1.915,12.2432,1.3a21.77,21.77,0,0,0,3.5967,4.2578A16.4746,16.4746,0,0,0,1166.1875,1096.829Z"/><path class="ad" d="M1073.4492,1169.0653s25.1436-60.9228,70.4-62.083c0,0,41.7754,4.6416,44.0967,62.083Z"/><path class="z" d="M1131.4512,1108.8427s18.1406,4.0332,23.7373,1.663c0,0,.8457-7.5849-6.794-6.5214-5.2285.7275-8.6347-1.7852-10.6377-2.8038C1134.9219,1099.7372,1130.6982,1105.6688,1131.4512,1108.8427Z"/><path class="ae" d="M1147.2373,1097.4081c-1.1592.8711-4.7227-12.2656-4.7227-12.2656a12.81,12.81,0,0,1,2.2051,2.1123,6.9976,6.9976,0,0,0,3.4238,2.3212C1148.1553,1089.9589,1148.3633,1096.5614,1147.2373,1097.4081Z"/><path class="ae" d="M1163.9834,1095.1337c-.2549.1513-8.6455,5.1757-9.7822,5.1757-1.1612,0,6.1855-9.4335,6.1855-9.4335A21.77,21.77,0,0,0,1163.9834,1095.1337Z"/><path class="ae" d="M1098.0117,1152.0458c-.4639-.3975,17.794-26.8828,22.8223-27.0772,5.0293-.1924,16.3261,5.8028,24.5068,6.5762s16.1094-1.5469,17.6563,3.2881,5.8017,21.9775,3.19,24.7207S1108.0517,1160.6229,1098.0117,1152.0458Z"/><path class="x" d="M886.1211,1193.2352a8.57,8.57,0,0,1-2.88,3.251,8.7689,8.7689,0,0,1-2.1416,1.0371,8.6,8.6,0,0,1-6.584-.501l-112.74-57.2724a8.6324,8.6324,0,0,1,7.8193-15.3926L882.334,1181.63A8.6549,8.6549,0,0,1,886.1211,1193.2352Z"/><polygon class="e" points="799.16 1158.741 792.053 1135.765 773.897 1126.543 784.842 1151.468 799.16 1158.741"/><polygon class="e" points="826.693 1172.728 812.375 1165.455 801.432 1140.53 819.587 1149.753 826.693 1172.728"/><polygon class="e" points="854.204 1186.704 839.879 1179.427 828.935 1154.503 847.097 1163.729 854.204 1186.704"/><path class="e" d="M883.2412,1196.4862a8.7689,8.7689,0,0,1-2.1416,1.0371,8.6,8.6,0,0,1-6.584-.501L867.9,1193.661l-10.9444-24.9238,18.1553,9.2236Z"/><path class="e" d="M757.9892,1128.1434s-2.2763-12.2549-12.2334-15.8965c0,0,1.17,1.4141-3.6191,2.94s-3.3984,4.83-5.1025,6.3252C737.0342,1121.5126,743.9433,1130.69,757.9892,1128.1434Z"/><path class="o" d="M756.0586,1129.7606l-.2656-.1347a1.5609,1.5609,0,0,1-.6817-2.0918l1.4024-2.7618a1.5622,1.5622,0,0,1,2.0937-.6836l.2637.1348a1.56,1.56,0,0,1,.6836,2.0928l-1.4043,2.7617A1.56,1.56,0,0,1,756.0586,1129.7606Z"/><path class="e" d="M885.6514,1192.9969s11.2392-5.3906,20.0527.504c0,0-1.833-.1114-.24,4.6572s-1.8965,5.5928-2.1,7.8515C903.3642,1206.01,891.8779,1205.8427,885.6514,1192.9969Z"/><path class="o" d="M886.8741,1189.7024h.2968a1.5568,1.5568,0,0,1,1.5568,1.5568v3.1007a1.5535,1.5535,0,0,1-1.5535,1.5535h-.3016a1.5556,1.5556,0,0,1-1.5556-1.5556V1191.26A1.5571,1.5571,0,0,1,886.8741,1189.7024Z" transform="translate(1138.1645 2657.9111) rotate(-153.0908)"/><path class="z" d="M1032.0547,1194.121a8.5613,8.5613,0,0,1-4.1865,1.1572,8.81,8.81,0,0,1-2.36-.2979,8.5992,8.5992,0,0,1-5.248-4.0078L956.9316,1081.52a8.6319,8.6319,0,0,1,14.9424-8.6465l63.3291,109.4521A8.6549,8.6549,0,0,1,1032.0547,1194.121Z"/><polygon class="ad" points="977.932 1117.814 984.49 1094.677 974.291 1077.051 969.889 1103.913 977.932 1117.814"/><polygon class="ad" points="993.397 1144.546 985.354 1130.643 989.758 1103.781 999.956 1121.408 993.397 1144.546"/><polygon class="ad" points="1008.852 1171.254 1000.804 1157.347 1005.207 1130.483 1015.41 1148.116 1008.852 1171.254"/><path class="ad" d="M1027.8682,1195.2782a8.81,8.81,0,0,1-2.36-.2979,8.5992,8.5992,0,0,1-5.248-4.0078l-3.7159-6.4228,4.4043-26.8613,10.1973,17.6259Z"/><path class="z" d="M960.08,1069.7255s4.7695-11.5166-1.5967-19.9961c0,0,.2119,1.8242-4.6358.4941s-5.4814,2.1973-7.7265,2.5234C946.1211,1052.7469,946.9141,1064.2069,960.08,1069.7255Z"/><path class="y" d="M957.58,1070.0292l-.1485-.2578a1.56,1.56,0,0,1,.5674-2.126l2.6826-1.5518a1.56,1.56,0,0,1,2.126.5674l.1484.2578a1.5614,1.5614,0,0,1-.5673,2.127l-2.6817,1.5508A1.561,1.561,0,0,1,957.58,1070.0292Z"/><path class="z" d="M1031.791,1193.6649s12.36,1.6045,16.5391,11.35c0,0-1.4766-1.0918-2.7393,3.7735s-4.6377,3.6562-6.0381,5.4394C1039.5527,1214.2274,1030.0127,1207.829,1031.791,1193.6649Z"/><path class="y" d="M1030.2812,1195.6805l.1485.2579a1.5609,1.5609,0,0,0,2.1269.5664l2.6817-1.5508a1.5621,1.5621,0,0,0,.5674-2.127l-.1495-.2568a1.5616,1.5616,0,0,0-2.1269-.5684l-2.6807,1.5518A1.5609,1.5609,0,0,0,1030.2812,1195.6805Z"/><path class="o" d="M827.1123,1224.8251a8.564,8.564,0,0,1-3.2041-2.9307,8.8218,8.8218,0,0,1-1.002-2.1592,8.5981,8.5981,0,0,1,.6075-6.5742l59.082-111.8027a8.632,8.632,0,0,1,15.2637,8.0664l-59.0811,111.8017A8.6556,8.6556,0,0,1,827.1123,1224.8251Z"/><polygon class="af" points="863.004 1138.432 886.09 1131.695 895.605 1113.691 870.507 1124.233 863.004 1138.432"/><polygon class="af" points="848.575 1165.736 856.078 1151.537 881.176 1140.996 871.661 1159.001 848.575 1165.736"/><polygon class="af" points="834.158 1193.019 841.665 1178.811 866.763 1168.271 857.244 1186.282 834.158 1193.019"/><path class="af" d="M823.9082,1221.8944a8.8218,8.8218,0,0,1-1.002-2.1592,8.5981,8.5981,0,0,1,.6075-6.5742l3.4668-6.5605,25.0966-10.5411-9.5136,18.004Z"/><path class="af" d="M894.2607,1097.7587s12.29-2.0782,16.0909-11.9756c0,0-1.4327,1.1474-2.8809-3.666s-4.7754-3.4746-6.2432-5.2041C901.2275,1076.913,891.94,1083.6747,894.2607,1097.7587Z"/><path class="o" d="M895.3408,1094.017h.2983a1.5555,1.5555,0,0,1,1.5555,1.5555v3.0985a1.557,1.557,0,0,1-1.557,1.557H895.34a1.5555,1.5555,0,0,1-1.5555-1.5555v-3.1A1.556,1.556,0,0,1,895.3408,1094.017Z" transform="translate(2283.7897 817.4746) rotate(117.8331)"/><path class="o" d="M827.3594,1224.3593s5.207,11.3251-.8282,20.0429c0,0,.1407-1.831-4.6523-.3154s-5.5615-1.9873-7.8164-2.2256C814.0625,1241.8612,814.415,1230.3788,827.3594,1224.3593Z"/><path class="o" d="M824.85,1224.1522l-.14.2627a1.562,1.562,0,0,0,.65,2.1035l2.7392,1.4473a1.5615,1.5615,0,0,0,2.1035-.6494l.1387-.2627a1.5623,1.5623,0,0,0-.6494-2.1035l-2.7383-1.4463A1.5609,1.5609,0,0,0,824.85,1224.1522Z"/><path class="e" d="M945.15,1123.203s5.164,7.2676,9.8965,7.3691,11.9336-3.3691,11.9336-3.3691,4.3457-9.6846,1.3974-13.4746a6.3281,6.3281,0,0,0-6.0459.9932,9.3267,9.3267,0,0,0-1.6006,1.5332,5.0731,5.0731,0,0,1-2.4843,1.6845c-3.377,1.0274-7.3858-1.39-8.8848.9434a15.8623,15.8623,0,0,1-2.61,3.0908A11.9026,11.9026,0,0,1,945.15,1123.203Z"/><path class="e" d="M1012.4551,1175.6288s-18.2471-44.2149-51.0918-45.0567c0,0-30.3184,3.3682-32.002,45.0567Z"/><path class="f" d="M970.3613,1131.9218s-13.165,2.9277-17.2265,1.208c0,0-.6143-5.5059,4.93-4.7334,3.795.5283,6.2666-1.295,7.72-2.0352C967.8418,1125.3143,970.9082,1129.619,970.3613,1131.9218Z"/><path class="f" d="M958.9043,1123.6239c.8418.6318,3.4277-8.9023,3.4277-8.9023a9.3267,9.3267,0,0,0-1.6006,1.5332,5.0731,5.0731,0,0,1-2.4843,1.6845C958.2383,1118.2177,958.0879,1123.01,958.9043,1123.6239Z"/><path class="f" d="M946.7519,1121.9735c.1846.1094,6.2735,3.7559,7.1,3.7559.8417,0-4.4893-6.8467-4.4893-6.8467A15.8623,15.8623,0,0,1,946.7519,1121.9735Z"/><path class="f" d="M994.6289,1163.2762c.3379-.288-12.9131-19.51-16.5625-19.65s-11.8486,4.2109-17.7852,4.7724-11.6914-1.123-12.8134,2.3858c-1.1241,3.51-4.212,15.9492-2.3174,17.9414C947.0459,1170.7157,987.3428,1169.5009,994.6289,1163.2762Z"/><path class="ac" d="M1075.9766,1125.5643l.0039-.0009c-5.4356.0664-8.1582-8.1387-8.1582-8.1387l-52.917,16.0195a10.3849,10.3849,0,0,1-1.462,10.2676s-9.1542,6.1142-6.3085,15.5137l11.71,38.6845A13.0584,13.0584,0,0,0,1035.08,1206.6l55.82-16.8975a13.0587,13.0587,0,0,0,8.6894-16.2343l-11.7109-38.6856A13.06,13.06,0,0,0,1075.9766,1125.5643Z"/><path class="f" d="M1009.6172,1131.7294l3.1777,10.5c1.1494,3.7949,15.6416,2.7666,32.3721-2.2979,16.7275-5.0644,29.3584-12.2461,28.21-16.042l-3.1787-10.499Z"/><path class="e" d="M1070.1982,1113.3905c1.1494,3.7949-11.48,10.9766-28.2109,16.041-16.7285,5.0645-31.2217,6.0928-32.37,2.2979s11.48-10.9776,28.21-16.042S1069.0488,1109.5946,1070.1982,1113.3905Z"/><path class="ag" d="M934,1146.578l.0019.001c-3.7959-1.84-2.8388-8.4815-2.8388-8.4815l-42.2989-7.2353a8.0611,8.0611,0,0,1-4.5771,6.6221s-8.4775,1.0693-9.7627,8.583l-5.2891,30.9218a10.1348,10.1348,0,0,0,8.2579,11.6651l44.6171,7.6328a10.1353,10.1353,0,0,0,11.6661-8.2578l5.29-30.9219A10.1353,10.1353,0,0,0,934,1146.578Z"/><path class="ab" d="M885.7861,1127.8368l-1.4355,8.3926c-.5186,3.0341,9.9013,7.3476,23.2734,9.6347s24.6338,1.6827,25.1524-1.3506l1.4355-8.3935Z"/><path class="z" d="M934.2119,1136.12c-.5186,3.0352-11.78,3.64-25.1523,1.3516s-23.792-6.6006-23.2735-9.6348,11.78-3.6387,25.1533-1.3516S934.7305,1133.0868,934.2119,1136.12Z"/><rect class="y" x="799.1963" y="1159.1288" width="262.0957" height="216.1142" transform="translate(1860.4883 2534.3718) rotate(180)"/><rect class="z" x="930.2441" y="1159.1288" width="262.0957" height="216.1142" transform="translate(2122.5839 2534.3718) rotate(180)"/><polygon class="aa" points="930.244 1159.129 1193.016 1159.129 1193.016 1307.19 930.244 1375.243 930.244 1159.129"/><polygon class="z" points="930.244 1159.129 982.106 1215.991 1240.733 1215.991 1192.34 1159.129 930.244 1159.129"/><polygon class="z" points="799.35 1320.435 840.881 1320.435 837.223 1308.749 840.881 1300.398 799.35 1300.398 799.35 1320.435"/><polygon class="ab" points="930.244 1183.56 874.998 1238.806 799.35 1238.806 799.35 1159.129 930.244 1159.129 930.244 1183.56"/><polygon class="z" points="799.196 1159.129 740.27 1215.991 871.4 1215.991 930.244 1159.129 799.196 1159.129"/><path class="z" d="M948.5664,1285.6835v-42.5752H961.667a20.4773,20.4773,0,0,1,7.88,1.4756,17.7289,17.7289,0,0,1,6.1406,4.1533,18.968,18.968,0,0,1,3.9922,6.418,23.0667,23.0667,0,0,1,1.4326,8.3046v1.93a23.1551,23.1551,0,0,1-1.418,8.29,18.5982,18.5982,0,0,1-4.0068,6.4033,17.7923,17.7923,0,0,1-6.1836,4.1377,20.86,20.86,0,0,1-7.9238,1.4629Zm8.7725-35.47v28.4229H961.58q5.203,0,7.9238-3.4375,2.7188-3.4336,2.72-9.81v-1.9883q0-6.4921-2.69-9.84t-7.8662-3.3477Z"/><path class="z" d="M1022.46,1265.36a27.1277,27.1277,0,0,1-1.3164,8.7578,18.9458,18.9458,0,0,1-3.6992,6.5655,16.097,16.097,0,0,1-5.7168,4.1367,19.3328,19.3328,0,0,1-14.6787,0,16.3909,16.3909,0,0,1-5.7461-4.1367,19.049,19.049,0,0,1-3.7568-6.5655A26.5867,26.5867,0,0,1,986.2,1265.36v-1.8711a26.9163,26.9163,0,0,1,1.331-8.7431,19.2915,19.2915,0,0,1,3.7276-6.6084,16.0747,16.0747,0,0,1,5.7314-4.167,19.32,19.32,0,0,1,14.6787,0,16.0751,16.0751,0,0,1,5.7315,4.167,19.3094,19.3094,0,0,1,3.7285,6.6084,26.9163,26.9163,0,0,1,1.331,8.7431Zm-8.89-1.93q0-6.6957-2.3984-10.1757a8.4659,8.4659,0,0,0-13.6846,0q-2.3979,3.48-2.3984,10.1757v1.93a24.7809,24.7809,0,0,0,.63,5.8926,13.1648,13.1648,0,0,0,1.8125,4.2979,7.8841,7.8841,0,0,0,2.91,2.6318,8.4683,8.4683,0,0,0,3.9473.8916,7.7222,7.7222,0,0,0,6.8125-3.5088q2.37-3.5083,2.3691-10.2051Z"/><path class="z" d="M1063.456,1285.6835h-8.7724l-17.0772-28.0137v28.0137h-8.7724v-42.5752h8.7724l17.1065,28.0713v-28.0713h8.7431Z"/><path class="z" d="M1095.68,1276.911h-15.3809l-2.9238,8.7725h-9.3281l15.8486-42.5752h8.13l15.9365,42.5752h-9.3291Zm-13.0127-7.1055h10.6445l-5.3506-15.9375Z"/><path class="z" d="M1140.4775,1250.2137h-13.042v35.47h-8.7714v-35.47h-12.8672v-7.1054h34.6806Z"/><path class="z" d="M1171.0928,1267.2313H1154.25v11.4053h19.7676v7.0469h-28.54v-42.5752h28.4805v7.1054H1154.25V1260.36h16.8428Z"/><path class="b" d="M426.7412,1332.4618s-52.5283-267.6924-142.03-256.7012S426.7412,1332.4618,426.7412,1332.4618Z"/><path class="b" d="M387.7685,1320.0477s-82.7285-98.6953-156.2666-69.3486S335.68,1272.7255,387.7685,1320.0477Z"/><path class="b" d="M1929.8594,1219.4237s32.8691-182.1045,61.1982-150.6289C2019.3848,1100.27,1929.8594,1219.4237,1929.8594,1219.4237Z"/><path class="b" d="M1941.9,1235.09s56.501-89.7031,76.4355-60.3262S1941.9,1235.09,1941.9,1235.09Z"/><rect class="ah" y="1375.3417" width="2629.8008" height="6.9756" rx="2.9795" ry="2.9795"/></svg>