<svg xmlns="http://www.w3.org/2000/svg" width="855.9748" height="645.2115" viewBox="0 0 855.9748 645.2115"><defs><style>.a{opacity:0.5;}.b{fill:#eed5d5;}.c{fill:#efbfa5;}.d{fill:#8cabef;}.e{fill:#3b3387;}.f{fill:#eff5f1;}.g{fill:#353a85;}.h{fill:#292949;}.i{fill:#babcbe;}.j{fill:#909497;}.k{fill:#3e3d3b;}.l{fill:#e0e0e1;}.m{fill:#474ebb;}.n{fill:#e1cfb5;}.o{fill:#f4c7b3;}.p{fill:#5d66d3;}.q{fill:#d6c7ac;}.r{fill:#454446;}.s{fill:#d67086;}</style></defs><title>object (2)</title><g class="a"><path class="b" d="M392.7007,538.4841c-25.0673.0847-50.1343.7684-75.157,3.9265-9.4349,1.1907-18.6718,3.81-28.128,4.8664-18.8887,2.11-37.4391,6.0467-56.3947,7.8626-15.2644,1.4623-30.5932,2.3251-45.8135,4.18a142.3458,142.3458,0,0,1-44.2275-1.5356c-10.4827-2.1274-21.0134-3.325-31.32-6.7421-11.53-3.8226-24.0553-6.5554-36.0682-6.4571-17.13.14-33.8123.1567-50.2058,6.9059-5.7546,2.3693-12.7994,6.264-17.1694,11.2363C-1.7873,574.11-3.1413,602.5106,6.8471,614.3159c16.8237,19.8688,52.73,27.6647,76.3121,28.0327,25.8408.4032,50.9442-1.7733,76.823-3.0532,24.0469-1.1893,48.0337-2.8814,72.12-2.8219,49.1946.1217,98.3956,0,147.5017-3.7288,46.1359-3.5034,92.3878-2.3006,138.6252-2.3006,47.4142,0,94.5078.4229,141.58,7.5732,20.51,3.1154,41.405,4.206,62.0176,6.3887,18.4607,1.9549,36.2006-.0385,54.5879-1.8451a118.372,118.372,0,0,0,44.8045-13.6229c11.1031-6.0208,30.897-24.7257,34.3019-39.0973,9.5456-40.29-134.5271-39.322-156.6479-39.2313-24.7461.1015-49.6885,1.0251-74.4152-.0454-10.4011-.45-20.6493-2.757-30.8007-5.2848-10.1112-2.5177-20.2988-1.8775-30.5527-2.9356-42.76-4.4126-85.6158-3.7678-128.5124-3.7678C420.6335,538.5756,406.6671,538.4369,392.7007,538.4841Z"/></g><polygon class="c" points="248.972 551.94 248.972 586.922 261.544 586.922 267.556 547.568 248.972 551.94"/><polygon class="c" points="320.488 545.028 327.3 589.05 342.044 588.417 340.147 544.185 320.488 545.028"/><polygon class="d" points="242.96 424.04 242.96 535.543 242.96 554.673 269.196 553.58 283.953 476.512 301.479 405.125 242.96 424.04"/><polygon class="d" points="342.242 399.886 345.513 547.655 315.997 547.573 309.581 496.177 282.591 409.08 342.242 399.886"/><path class="e" d="M266.5786,231.9594q-.3373.1251-.67.2546c-10.62,4.1313-18.9587,22.6684-23.7377,33.5617-12.3363,28.1194-17.7254,57.4209-18.7047,88.4955-.5273,16.7325-.33,33.4927.2012,50.236.1466,4.6259,4.1574,46.039,2.1065,47.0281,21.0353-10.1451,42.4238-19.7277,64.816-25.5189s45.9492-7.6941,68.568-2.419c-6.8794-52.5693-16.8489-106.0562-31.2279-156.8512-1.72-6.0753-2.8691-12.5518-5.4183-18.3092-2.9358-6.6311-7.3415-8.5891-12.9085-12.509a36.2227,36.2227,0,0,0-5.9251-3.6308C292.6269,227.3609,277.7653,227.814,266.5786,231.9594Z"/><path class="f" d="M345.73,399.266c-28.0049,4.2761-74.6057,7.5412-102.61,11.8174-1.5088-50.6353,3.4768-109.11,15.6937-158.11,2.2158-8.8875,5.4893-18.4816,13.2546-23.0084,8.32-4.85,25.9665-4.1921,31.0439,5.23,7.4284,13.7845,8.8949,35.7269,12.2091,51.0673C322.8193,320.971,341.0849,364.052,345.73,399.266Z"/><path class="c" d="M301.1622,193.9941c-4.16-20.6082-29.9232-16.7295-37.1252.0856-4.7441,11.0762,2.1405,27.3168,13.291,32.0244q-1.023,4.2254-1.6837,8.5273l9.4719.53c.9771.0547,2.1245.0347,2.709-.75a3.0057,3.0057,0,0,0,.4182-1.6994q.1278-2.9945.2561-5.9888c.24-.0711.48-.1456.7209-.2279,5.9786-2.0428,10.2591-7.6515,11.9841-13.7294S302.4122,200.1869,301.1622,193.9941Z"/><path class="g" d="M298.5721,199.6321c3.2612,6.2068,1.2432,13.7249-.5552,20.1626-1.5946,5.7086-1.8793,9.3408,4.6084,9.7484,3.6556.23,10.1542.7112,12.803-2.4927,2.0047-2.4271-.3436-8.5229-1.8923-10.8438-1.183-1.772-3.6432-2.3678-4.7785-4.1708a6.8537,6.8537,0,0,1-.8158-2.4872,35.6946,35.6946,0,0,1-.269-10.7164,36.207,36.207,0,0,0,.6752-7.26c-.2695-3.5212-3.3876-7.1659-5.2-10.1453-3.3726-5.5429-13.0321-12.1374-19.266-6.332a10.3632,10.3632,0,0,0-2.5423,5.1443,8.6073,8.6073,0,0,0-.38,3.4286c.6923,4.5662,4.98,4.6541,8.2084,6.3526A23.1264,23.1264,0,0,1,298.5721,199.6321Z"/><path class="g" d="M265.66,206.1188c.2678,3.2693,2.5478,6.58,1.2183,9.5787a14.2341,14.2341,0,0,1-2.77,3.3681,11.6059,11.6059,0,0,0-2.2778,11.2q-9.7538,1.213-19.5074,2.4264a5.8981,5.8981,0,0,1-2.928-.1307c-1.9592-.788-2.4634-3.2777-2.6882-5.3775-.4427-4.1351-.8276-8.577,1.1985-12.2088.9394-1.6839,2.3434-3.0733,3.2772-4.76,4.4915-8.1136-3.1195-19.8228,2.7952-26.9657,2.6392-3.1872,7.0718-4.117,10.5894-6.2966,6.1336-3.8006,9.34-11.3274,15.7075-14.722,12.0245-6.4109,26.9024,7.0957,21.2128,19.6764C286.8472,192.1666,264.5817,192.9523,265.66,206.1188Z"/><path class="e" d="M267.37,233.4723s-8.9091,125.7289,10.6127,150.52,27.8719,34.1319,27.8719,34.1319l-79.8387,33.2452S205.7923,278.103,267.37,233.4723Z"/><polygon class="g" points="248.972 583.642 235.854 596.76 242.413 603.319 262.09 591.294 262.09 582.697 248.972 583.642"/><polygon class="g" points="326.125 581.455 341.834 583.503 356.048 596.023 346.905 599.698 326.396 593.465 326.125 581.455"/><polygon class="h" points="744.38 583.671 744.596 585.914 745.311 593.358 760.382 599.815 766.844 591.876 758.951 584.926 758.223 584.614 758.135 585.54 744.38 583.671"/><path class="i" d="M743.6142,583.5672l.7662.1041-.5-5.2012,14.3426,6.1443,11.9308-125.6668,1.469-5.9364c-11.275.1649-24.6738.3332-38.1748.44Z"/><polygon class="j" points="744.38 583.671 758.135 585.54 758.223 584.614 743.881 578.47 744.38 583.671"/><path class="i" d="M683.35,453.3852l2.7742,32.8938,27.8227,85.2826,13.5937-1.8069.2215,1.6671.077-.01-10.0173-87.8889L726.4,453.5C710.6207,453.5976,695.1884,453.5942,683.35,453.3852Z"/><polygon class="h" points="713.947 571.562 713.091 571.675 706.873 580.21 715.105 586.823 728.547 577.329 727.762 571.422 714.477 573.188 713.947 571.562"/><polygon class="k" points="713.947 571.562 714.477 573.188 727.762 571.422 727.54 569.755 713.947 571.562"/><path class="l" d="M777.6313,262.1236c1.7467,8.23,8.26,14.2665,14.62,19.9814a346.62,346.62,0,0,0-14.2429-31.8023A28.083,28.083,0,0,0,777.6313,262.1236Z"/><path class="m" d="M802.3777,318.3207a22.5165,22.5165,0,0,1-5.5662,4.1991c-5.2152,2.7884-11.2618,3.665-17.1754,3.656-4.7335-.0075-9.5333-.5457-14.1572.4676s-9.2031,4.0247-10.3717,8.6115c-.6453,2.5315-.4348,5.7111-2.6229,7.1383a6.7483,6.7483,0,0,1-3.5477.7608c-3.745.1071-7.9985.01-10.5132-2.7674-3.8931-4.299-1.6193-12.9221-6.8787-15.3657-1.5407-.7162-3.32-.6055-4.9954-.8889-7.1166-1.2042-10.5973-9.2545-9.913-16.6452a18.1544,18.1544,0,0,1,.9627-4.4431c2.9393-8.2027,9.7533-14.29,14.9131-21.3111,10.0737-13.7085,16.8847-32.0245,10.69-48.2481a44.12,44.12,0,0,1-1.643-4.634,11.4163,11.4163,0,0,1-.3913-2.6427c-.09-4.8387,3.51-8.8225,5.8374-13.0655q.3261-.5942.6143-1.2516a22.6028,22.6028,0,0,0,1.1868-3.5444l-1.0129.4828a16.22,16.22,0,0,1-7.9645,3.7957l-27.9076,13.3-11.1948,45.57-7.6778,31.2543-.1131.4611L664.0734,452.5143c3.4379.4378,10.3317.7131,19.2767.8708,11.8382.209,27.2706.2125,43.0494.1151q3.5183-.0215,7.0486-.0494c13.5013-.1064,26.9-.2749,38.1747-.44,17.2859-.2527,29.5774-.497,29.5774-.497S811.7032,375.3518,802.3777,318.3207Z"/><path class="n" d="M739.8292,212.6247a16.22,16.22,0,0,0,7.9646-3.7956Z"/><path class="o" d="M741.1512,171.8458c-2.9789-2.6265-6.3831-3.1032-10.18-3.1316-1.7939-.0133-2.394.45-3.3192.2876a4.5589,4.5589,0,0,1-1.5821-.6984c-1.359-.8463-2.571-3.06-3.2071-4.865-3.5209,2.227-6.0823,6.2485-6.7883,12.3728-.7674,6.6579-.7555,13.6814,1.5264,20.3429s7.1517,12.9256,13.47,15.3977c.3685.1439.7336.2707,1.097.389a16.22,16.22,0,0,0,7.6622.684l7.9642-3.7958q.5942-.5059,1.1539-1.0641C751.5641,196.4325,748.7283,178.5267,741.1512,171.8458Z"/><path class="h" d="M794.8684,284.463c-.8609-.783-1.7377-1.5675-2.6174-2.358q.8685,2.2272,1.7287,4.5173t1.7079,4.6475q.5466,1.5186,1.0587,3.087-.5126-1.5679-1.0587-3.087-.8479-2.3574-1.7079-4.6475t-1.7287-4.5173c-6.36-5.7149-12.8731-11.7515-14.62-19.9814a28.0879,28.0879,0,0,1,.3769-11.8209c1.3505-6.3256,3.9051-12.6639,4.5719-19.1237,1.1426-11.0641.2408-26.9706-2.4605-37.7943-2.8883-11.5734-9.186-22.0458-16.74-31.1663-9.1643-11.0641-26.2006-23.45-38.2663-8.9615-.1387.1664-.2725.3371-.4032.5109a22.4252,22.4252,0,0,0-4.0992-1.5764c-8.3354,7.0209-10.4792,18.3214-9.6052,28.707.8758,10.4057,6.1276,22.1949,3.1637,32.5165a10.7628,10.7628,0,0,0-.6443,3,2.6529,2.6529,0,0,0,1.4568,2.5071,3.7727,3.7727,0,0,0,1.8488.07c5.1-.6583,10.6515-1.5425,14.1108-5.348a8.9676,8.9676,0,0,0,1.2259-1.7023c-.3631-.1185-.7282-.245-1.0965-.3891-6.3179-2.4721-11.1882-8.7359-13.47-15.3977s-2.294-13.6851-1.5263-20.3428c.7058-6.1244,3.2675-10.1459,6.7886-12.3729.636,1.805,1.8479,4.0188,3.2073,4.8649a4.5525,4.5525,0,0,0,1.5814.6984c.9255.163,1.5254-.3009,3.32-.2876,3.7966.0285,7.2012.5051,10.18,3.1317,7.5771,6.6809,10.4126,24.5867,7.7962,35.9191,7.1447-7.126,10.0084-20.364,5.3055-30.2567q-.4011-.8437-.8505-1.65.4491.8065.8505,1.65c4.7029,9.8927,1.8392,23.1307-5.3055,30.2567q-.0682.2938-.1409.5815a22.5926,22.5926,0,0,1-1.1866,3.5444q-.2886.6565-.6142,1.2515c-2.3279,4.243-5.9278,8.2268-5.8378,13.0655a11.4156,11.4156,0,0,0,.3913,2.6427,44.1209,44.1209,0,0,0,1.6432,4.634c6.1943,16.2237-.6168,34.54-10.69,48.2479-5.16,7.0216-11.9738,13.1086-14.9134,21.3112a18.1516,18.1516,0,0,0-.9627,4.4432c-.684,7.3907,2.7964,15.4411,9.913,16.6451,1.6752.2834,3.4549.1728,4.9956.8889,5.2594,2.4438,2.9857,11.0669,6.8786,15.3658,2.5146,2.7772,6.7682,2.8747,10.5132,2.7675a6.75,6.75,0,0,0,3.5477-.7609c2.1883-1.4274,1.9775-4.6067,2.6228-7.1383,1.169-4.5867,5.7482-7.5982,10.372-8.6115s9.4233-.4751,14.1569-.4677c5.9137.0092,11.96-.8675,17.1753-3.6558a22.5393,22.5393,0,0,0,5.5666-4.1992q-.3-1.832-.6264-3.6354.3272,1.803.6264,3.6354a17.913,17.913,0,0,0,4.9334-9.3382C808.9209,299.5417,801.9523,290.9081,794.8684,284.463Zm-53.883-120.5659a28.3578,28.3578,0,0,1,2.8823,1.6742A28.3578,28.3578,0,0,0,740.9854,163.8971Z"/><polygon class="o" points="635.562 191.834 631.586 184.643 633.701 177.712 632.46 176.518 630.928 177.986 631.036 171.731 627.866 167.765 621.119 168.129 615.852 172.71 616.924 179.371 621.991 185.592 627.006 195.671 635.562 191.834"/><polygon class="m" points="634.794 186.103 622.772 189.167 648.771 251.769 707.333 262.09 715.618 227.963 663.369 221.71 634.794 186.103"/><polygon class="g" points="168.11 406.083 163.065 475.111 146.363 589.39 133.52 589.39 125.409 483.943 121.816 398.629 168.11 406.083"/><polygon class="h" points="133.594 587.862 133.594 594.806 147.482 601.75 154.426 594.806 147.482 587.862 133.594 587.862"/><polygon class="g" points="77.138 389.815 82.019 486.573 93.195 597.649 106.35 597.649 117.04 492.41 132.659 381.641 77.138 389.815"/><polygon class="h" points="106.274 596.084 106.274 603.196 92.049 610.309 84.937 603.196 92.049 596.084 106.274 596.084"/><path class="o" d="M121.9708,234.68l-13.4622-1.3164a67.5442,67.5442,0,0,1,.715-10.7521c-3.7415-1.31-8.0655-3.276-8.7225-7.1853a11.1758,11.1758,0,0,1,.2152-3.7209q1.3081-7.6314,2.6162-15.2626a13.6363,13.6363,0,0,1,1.5772-5.0795c1.6752-2.647,4.9317-3.8086,8.0174-4.3485,7.8746-1.378,16.46.3168,22.5737,5.4672a12.2114,12.2114,0,0,1,3.8183,5.0215c1.1089,3.0873.2873,6.4954-.5416,9.6693q-1.1475,4.3945-2.2951,8.7891c-.88,3.37-2.1517,7.2005-5.3955,8.468-1.7223.673-3.7569.48-5.3158,1.4743C123.0221,227.6576,123.3983,231.748,121.9708,234.68Z"/><path class="h" d="M153.4807,182.6674a36.2789,36.2789,0,0,0-.2549-11.6581c-.5039-2.3842-3.552-9.8908-2.625-12.01-1.7338,3.674-6.4107,4.688-10.4532,5.0916-15.1469,1.5124-32.0491-2.2326-45.9755,5.5415a17.9784,17.9784,0,0,0-6.15,6.0818,27.0884,27.0884,0,0,0-.0357,28.6448,38.7274,38.7274,0,0,0,4.2223,5.3073c3.1808,3.44,6.9856,7.6893,11.3563,8.96.0989-3.9086-3.478-16.228-.48-19.4363,4.2085-4.5019,11.8619-3.6248,17.3305-2.846a80.3448,80.3448,0,0,0,20.9338.1105,24.6755,24.6755,0,0,0,6.7148-1.4254c5.07-2.1183,4.8922-6.8288,5.3476-11.6389Q153.4448,183.0429,153.4807,182.6674Z"/><polygon class="o" points="27.149 328.614 26.189 337.076 30.958 342.877 30.242 344.512 28.194 343.712 30.774 349.66 29.307 354.713 22.702 357.036 15.844 354.733 14.233 347.929 16.623 339.966 17.436 328.326 27.149 328.614"/><polygon class="p" points="28.683 334.407 15.955 336.232 16.074 265.982 90.098 233.018 89.757 271.245 45.7 287.602 28.683 334.407"/><polygon class="o" points="181.032 146.41 181.468 137.905 176.35 132.409 176.963 130.733 179.057 131.405 176.115 125.628 177.266 120.493 183.716 117.767 190.703 119.643 192.731 126.334 190.837 134.43 190.744 146.097 181.032 146.41"/><polygon class="p" points="179.143 140.722 191.734 138.115 192.731 186.555 187.784 223.993 155.589 271.245 129.229 233.109 159.834 210.618 179.143 140.722"/><polygon class="p" points="132.631 231.217 90.098 233.018 68.629 314.737 50.899 428.024 187.784 431.352 155.589 271.245 132.631 231.217"/><polygon class="h" points="592.671 579.42 593.717 587.554 578.494 597.78 569.314 590.692 576.402 581.512 591.625 571.286 592.671 579.42"/><polygon class="h" points="593.186 576.689 581.446 472.949 595.571 356.812 592.395 332.107 529.304 329.711 527.028 369.92 537.619 473.108 577.465 581.991 593.186 576.689"/><polygon class="i" points="523.382 214.928 491.648 223.571 454.946 288.604 472.331 304.701 496.799 275.726 523.382 214.928"/><polygon class="h" points="483.011 341.336 482.845 446.024 503.917 580.791 519.085 580.639 527.422 456.011 546.935 331.271 483.011 341.336"/><polygon class="h" points="519.061 587.036 502.741 595.401 494.459 587.281 502.578 578.999 518.979 578.835 519.061 587.036"/><path class="i" d="M602.1,376.9406c-.1446-4.5365-.3967-8.3226-.4329-9.6744-.3248-12.17-1.4092-24.312-2.9327-36.3954-1.3652-10.828-3.0884-37.7093-4.9415-48.4706-1.53-8.8852-6.8615-31.063-10.7139-39.3044-9.58-20.4952-6.62-22.3885-48.7012-28.4741-18.4428-2.6674-22.8021,8.8265-37.88,22.0439-1.487,1.3035-1.4051,9.0654-1.75,11.1207-.6077,3.62-1.2585,7.2331-2.0049,10.8295-.5866,2.8268-1.2339,5.6448-1.96,8.4442l.0015-.0009s-12.658,57.6029-21.0286,69.8369-25.6639,29.3371,3.2638,39.78a103.4313,103.4313,0,0,0,15.621,4.0769s23.6579-2.629,35.8246-2.5382a206.68,206.68,0,0,1,33.4731,3.1173c7.3667,1.2312,14.8838,3.02,21.4736,6.4625,6.2868,3.284,10.8242,8.1147,17.203,11.5153a3.3308,3.3308,0,0,0,1.9534.56C602.2322,399.3624,602.4042,386.4889,602.1,376.9406Z"/><polygon class="q" points="512.564 307.244 527.611 311.005 529.499 304.644 519.765 299.787 522.054 297.193 508.786 295.544 505.931 301.891 512.564 307.244"/><polygon class="r" points="508.994 308.098 512.91 292.296 475.591 278.528 454.946 288.604 461.307 307.965 508.994 308.098"/><path class="o" d="M534.3294,220.4011c2.1231,1.0487,7.1347,1.4248,12.3624-.6227a2.7306,2.7306,0,0,0,1.75-2.56,70.8274,70.8274,0,0,0-.7641-9.4889c3.921-1.3786,8.4518-3.4461,9.135-7.5458a11.7132,11.7132,0,0,0-.2309-3.9009q-1.3823-7.9993-2.7646-15.9986a14.2974,14.2974,0,0,0-1.6608-5.3234c-1.76-2.773-5.1761-3.9862-8.4121-4.5479-8.2581-1.4336-17.2569.3554-23.66,5.7641a12.8025,12.8025,0,0,0-3.9962,5.27c-1.1584,3.2385-.292,6.8105.5815,10.1371q1.2093,4.6059,2.4187,9.2118c.9274,3.5317,2.2662,7.5465,5.669,8.8707,1.8067.7032,3.94.4978,5.5755,1.5382C533.2173,213.04,532.8286,217.3293,534.3294,220.4011Z"/><path class="h" d="M486.6679,167.2172a34.6026,34.6026,0,0,0-2.6627-3.8221c-2.1177-2.6106-4.7268-4.8485-6.4308-7.7462s-2.3035-6.8259-.259-9.4942c1.32-1.7221,3.4607-2.5829,5.5419-3.1954a40.2814,40.2814,0,0,1,21.1861-.3915c6.5983,1.6795,12.5036,4.4609,19.1456,1.98,6.241-2.3306,10.7486-1.3812,17.271.946,7.0584,2.5185,16.5339,3.1125,22.9232,6.6681A18.85,18.85,0,0,1,569.84,158.53a28.4005,28.4005,0,0,1,.078,30.0328,40.5828,40.5828,0,0,1-4.4194,5.5706c-3.33,3.6114-7.3132,8.0718-11.8939,9.41-.1092-4.0978,3.6236-17.0193.4765-20.378-4.9944-5.33-16.2866-3.47-22.4823-2.1582-6.7581,1.4315-12.7817,6.2173-19.4818,7.24-4.8212.7358-10.9744-1.6285-15.0743-4.1206C491.9833,181.0494,489.6281,172.0783,486.6679,167.2172Z"/><polygon class="i" points="569.314 222.498 595.571 245.505 625.142 308.098 581.515 308.367 569.314 222.498"/><path class="s" d="M513.7846,228.3413c-33.4952-1.0543-74.5828,18.843-83.18,47.8257-11.4367-27.9839-63.49-42.9606-96.7144-38.58-87.6759,11.56-112.581,111.2182-71.9649,175.3764,21.86,34.5312,52.2779,64.16,85.1644,90.4861,27.5395,22.0455,98.0384,68.2,98.2375,68.0212.2158.1583,65.7749-52.78,90.9847-77.4548,30.1053-29.4669,57.4249-61.9741,75.7424-98.5083C646.0879,327.6279,602.1754,231.1234,513.7846,228.3413Z"/><path class="b" d="M785.08,246.012c-18.8244-.5925-41.9157,10.59-46.7471,26.8782-6.4275-15.727-35.6816-24.144-54.3538-21.682-49.2742,6.4968-63.2709,62.505-40.4445,98.5621,12.2854,19.4066,29.38,36.0581,47.8626,50.8535,15.4773,12.39,55.0979,38.3286,55.21,38.2281.1213.0889,36.9657-29.6623,51.1336-43.53,16.9193-16.56,32.273-34.83,42.5675-55.3619C859.4349,301.8114,834.756,247.5756,785.08,246.012Z"/><path class="s" d="M136.0846,255.7573c-14.2348-3.8139-33.8235.58-40.4137,12.1258-2.0872-13.1292-22.87-24.7669-37.5342-26.2267C19.4387,237.804-1.2288,277.9714,9.72,309.5175c5.8926,16.9786,15.9412,32.7175,27.3783,47.29,9.5776,12.2032,35.1276,39.0412,35.2308,38.9846.0765.0894,33.4593-15.994,46.73-24.0276,15.8475-9.5937,30.8074-20.7687,42.3175-34.5716C182.7615,311.5477,173.6488,265.822,136.0846,255.7573Z"/><path class="s" d="M660.4089,53.8529c-12.94.5907-28.1819,9.4817-30.6322,20.907-5.24-10.4441-25.7465-14.6664-38.42-11.9892-33.4444,7.0648-40.0759,46.2124-22.5135,69.7287,9.4523,12.6569,22.0566,23.17,35.514,32.3365,11.2694,7.6762,39.8121,23.3648,39.8835,23.29.0879.0546,23.7773-22.2981,32.7581-32.5578,10.7249-12.252,20.2857-25.5928,26.2574-40.2176C714.3512,88.1778,694.5557,52.294,660.4089,53.8529Z"/><path class="b" d="M290.3963,14.82C274.6606,10.7893,253.1237,15.87,246,28.6757,243.54,14.23,220.4928,1.6559,204.3121.225c-42.6991-3.776-64.9906,40.7468-52.54,75.3834,6.701,18.6421,17.9676,35.8671,30.75,51.79,10.7045,13.3338,39.1912,42.6038,39.3042,42.54.0854.0976,36.6841-18.0347,51.213-27.05,17.35-10.7664,33.7032-23.2651,46.2217-38.6182C342.52,75.7443,331.9213,25.4569,290.3963,14.82Z"/><polygon class="e" points="263.403 233.472 239.134 246.948 194.861 322.923 200.326 337.68 267.556 368.289 276.635 354.621 227.681 319.04 262.09 270.997 263.403 233.472"/><polygon class="c" points="275.189 356.798 288.873 362.823 291.059 378.674 282.86 380.86 270.378 364.041 275.189 356.798"/><polygon class="o" points="785.08 246.012 796.024 238.908 807.545 244.929 806.238 255.286 792.251 255.286 785.08 246.012"/><polygon class="o" points="604.62 309.92 615.563 302.816 627.085 308.837 625.777 319.194 611.791 319.194 604.62 309.92"/><polygon class="o" points="471.613 231.726 482.556 224.622 494.078 230.643 492.77 240.999 478.784 240.999 471.613 231.726"/><polygon class="c" points="318.995 239.914 329.938 232.811 341.46 238.832 340.152 249.188 326.166 249.188 318.995 239.914"/></svg>