<svg xmlns="http://www.w3.org/2000/svg" width="2106.5524" height="1620.8541" viewBox="0 0 2106.5524 1620.8541"><defs><style>.a{fill:#daebe8;}.b{fill:#ccd39c;}.c{fill:#ffb27d;}.d{fill:#e9845c;}.e{fill:#331832;}.f{fill:#68a1bf;}.g{fill:#ef8062;}.h{fill:#5c305d;}.i{fill:#080435;}.j{fill:#fff;}.k{opacity:0.5;}.l{fill:#ec865c;}.m{fill:#764678;}.n{opacity:0.8;}.o{fill:#acc9c5;}.p{opacity:0.6;}.q{fill:#8bb2ac;}.r{opacity:0.7;}.s{fill:#e56e56;}.t{opacity:0.4;}.u{fill:#366f90;}.v{fill:#73b3ce;}.w{fill:#020202;}.x{opacity:0.3;}.y{fill:#444092;}</style></defs><title>Asset 1</title><path class="a" d="M2106.5524,303.9219V1313.1608c0,161.8352-124.3679,270.9917-274.6317,293.03-175.36,25.7082-356.0278,14.9949-725.1861-11.907-207.2833-15.1131-624.07,9.9241-832.1029,11.907C122.9574,1607.631,0,1474.996,0,1313.1608V303.9219c0-161.8353,123.2139-302.55,274.6317-293.03,140.6058,8.8391,347.4256,43.84,563.0251,22.4133C949.5556,22.1775,1105.3141,11.79,1266.2123,5.6733c207.7963-7.9216,424.1655-8.7207,565.7084,5.2186,85.4308,8.4149,162.0917,49.2856,212.5612,112.5C2083.2415,171.9183,2106.5524,233.6338,2106.5524,303.9219Z"/><ellipse class="b" cx="1050.3925" cy="1360.5848" rx="851.8209" ry="97.171"/><path class="c" d="M1555.3177,754.945c-23.1736-5.5881-46.1316-22.6974-67.4977-46.0331a220.6454,220.6454,0,0,1-26.1717-34.9022l19.09-11.6021,13.1041-13.3376c8.2884,14.23,43.3436,50.826,73.9286,59.5445,23.0554,6.5722,55.1252-.4267,65.8636-2.4332l30.9408,35.82C1640.4105,762.0962,1585.3338,762.1831,1555.3177,754.945Z"/><path class="c" d="M1475.1742,682.485s-41.6-.3937-51.7114-9.9921-15.1061-30.4432-8.2392-24.8848c6.7091,5.4306,11.4446,14.63,11.4446,14.63s-10.1433-20.7906-6.03-22.4008c5.9446-2.3268,15.4931,16.4369,15.4931,16.4369s-12.9288-25.811-6.591-25.6989,16.0188,19.2575,16.0188,19.2575-11.8952-23.8425-4.5365-23.54,12.5749,19.2685,18.682,17.41,26.1412-1.6044,31.4826,4.7733Z"/><path class="c" d="M1495.533,651.7363c-3.5857-7.0655-23.9284-25.4392-29.8886-25.4463s14.2322,37.4942,14.2322,37.4942Z"/><path class="d" d="M1470.9789,652.6364l-.9686-.346c1.7025-4.7653-1.4348-9.62-1.4671-9.6685l.8607-.5655C1469.545,642.272,1472.8521,647.3935,1470.9789,652.6364Z"/><path class="d" d="M1434.0243,665.29c-5.9431,0-7.7059-2.6428-7.79-2.7753l.868-.5525-.434.2762.4313-.28c.0215.0324,2.2685,3.2532,10.4731,2.0166l.1527,1.0179A24.8323,24.8323,0,0,1,1434.0243,665.29Z"/><path class="d" d="M1443.528,657.4838c-8.6,0-10.9223-6.3474-10.9484-6.4224l.9721-.3392c.1133.3216,2.9208,7.8537,14.6284,5.162l.23,1.0026A21.8,21.8,0,0,1,1443.528,657.4838Z"/><path class="d" d="M1451.1306,650.923a9.4812,9.4812,0,0,1-5.6746-1.5462,5.4443,5.4443,0,0,1-2.2622-3.4522l1.0206-.13a4.4272,4.4272,0,0,0,1.87,2.7655c1.9137,1.3723,5.0322,1.6863,9.0177.9078l.1976,1.01A21.8959,21.8959,0,0,1,1451.1306,650.923Z"/><path class="e" d="M1600.13,740.6944l-1.15-.4932c4.7339-11.0495,17.3165-23.9411,17.4432-24.07l.8931.8768C1617.1914,717.1352,1604.7714,729.8624,1600.13,740.6944Z"/><path class="e" d="M1632.363,1314.8265s-.7446,14.3009-10.5365,18.0762-37.9467,6.6609-27.7112,16.1441c5.873,5.4415,34.3151,2.7954,42.3186,3.0112s15.4255,3.9069,21.518-1.29c6.7027-5.7171.95-35.226.95-35.226s-7.0042,3.4117-13.2112,3.0829C1636.7455,1318.1512,1632.363,1314.8265,1632.363,1314.8265Z"/><path class="f" d="M1561.8091,949.2767c1.779,30.3247,5.3362,70.56,12.2538,120.4089,12.4673,89.8405,27.6015,180.44,35.0543,223.88a33.72,33.72,0,0,0,30.7486,28.2244l8.27.5554c16.6391,1.1175,30.5443-12.8266,29.7865-29.87L1664.9,999.5936l-1.1-41.4175S1559.147,903.8973,1561.8091,949.2767Z"/><path class="e" d="M1724.0711,1317.3s-.7445,14.3009-10.5364,18.0761-37.9467,6.661-27.7113,16.1442c5.8731,5.4415,34.3152,2.7954,42.3186,3.0112s15.4256,3.9069,21.5181-1.29c6.7027-5.7171.95-35.2261.95-35.2261s-7.0041,3.4118-13.2112,3.083C1728.4537,1320.6242,1724.0711,1317.3,1724.0711,1317.3Z"/><path class="f" d="M1652.1753,883.1838s-3.6738,64.5289,13.5958,188.9748c12.4673,89.84,27.6015,180.44,35.0544,223.88a33.72,33.72,0,0,0,30.7486,28.2243l8.27.5554c16.6392,1.1175,30.5443-12.8265,29.7866-29.87l-13.0225-292.8823L1754.05,905.715Z"/><path class="e" d="M1762.4778,962.2438c-1.2487,7.6965-48.3683,4.4083-105.8852-5.2537s-102.5875-23.9311-101.3388-31.6276,48.344-5.906,105.8608,3.7561S1763.7265,954.5472,1762.4778,962.2438Z"/><path class="g" d="M1778.0929,741.6647s-4.705-41.8719-80.01-52.5377c-108.5967-15.3812-112.1225,85.8458-142.83,236.2355,0,0,109.1084-.5717,207.5369,34.9882C1762.7907,960.3507,1793.2746,806.7318,1778.0929,741.6647Z"/><path class="g" d="M1810.2923,757.9309l-56.5189,2.2487s-115.8216,12.863-143.79,4.2563-27.5285-56.1878-27.5285-56.1878,36.0493-19.6187,88.9867-20.9883c4.9748-.1351,10.1008-.0336,15.38.3378a176.5842,176.5842,0,0,1,26.1089,4.0834C1815.0039,714.5913,1810.2923,757.9309,1810.2923,757.9309Z"/><path class="c" d="M1709.7045,681.2717l-3.1908-19.1336-.9278-5.57-5.4591-32.7521-5.5353,31.0871-3.32,18.66-1.0511,5.9066c-.7134,4.0091-1.4988,7.4755-4.9666,10.5722-1.4048,1.2546-12.1184,5.8541-3.8464,10.94,10.304,6.3368,31.222,1.3374,40.3219-7.21C1721.6707,693.7487,1710.7356,687.4553,1709.7045,681.2717Z"/><path class="f" d="M1560.5021,931.105s61.3592-1.61,195.1412,34.6269l.3859,14.5347-191.8753,1.606Z"/><ellipse class="e" cx="1775.0563" cy="751.8221" rx="13.2109" ry="35.7623" transform="translate(734.99 2374.8819) rotate(-80.303)"/><path class="h" d="M1683.6243,604.158a41.6679,41.6679,0,0,0-5.2938,16.4729c-1.0375,9.7772,15.5218-9.7532,15.5218-9.7532Z"/><ellipse class="c" cx="1701.8567" cy="634.9614" rx="33.9874" ry="28.1865" transform="translate(400.6128 1902.3432) rotate(-64.7052)"/><path class="e" d="M1730.9875,637.9568l-12.5562-5.522a9.93,9.93,0,0,1-5.6482-6.504c-1.322-5.02-3.838-8.189-16.1011-11.6281-15.5279-4.3547-22.7194-16.7573-21.7968-25.3182.9415-8.7376,10.5779-11.7687,17.0287-5.3852s6.2221-4.26,13.9595-2.8961c14.4586,2.55,13.6221,14.0583,25.0714,17.3548,15.0122,4.3223,38.0109,24.1763,16.9718,46.2869Z"/><path class="i" d="M1700.8807,633.152a.5714.5714,0,0,1,.5658-.9238,6.1859,6.1859,0,0,1,5.1233,5.5838.5756.5756,0,0,1-.479.6512.6272.6272,0,0,1-.6512-.4789,9.7833,9.7833,0,0,0-4.2511-4.6423A.5691.5691,0,0,1,1700.8807,633.152Z"/><path class="i" d="M1700.9965,640.8881c-.744,1.1425-2.0193,1.631-2.8483,1.0911s-.898-1.9038-.1539-3.0463,2.0193-1.631,2.8484-1.0912S1701.7406,639.7456,1700.9965,640.8881Z"/><path class="i" d="M1681.2751,625.07a.4163.4163,0,0,1-.2068-.3656.6881.6881,0,0,1,.4476-.6677,4.0078,4.0078,0,0,1,5.3437,2.4122.68.68,0,0,1-.2335.7644.4229.4229,0,0,1-.6269-.112,5.9917,5.9917,0,0,0-4.4359-2.0092A.38.38,0,0,1,1681.2751,625.07Z"/><path class="i" d="M1684.4441,632.2389c-.2528,1.34-1.2459,2.2772-2.2181,2.0938s-1.5554-1.4182-1.3027-2.758,1.2458-2.2773,2.2181-2.0939S1684.6968,630.8991,1684.4441,632.2389Z"/><path class="h" d="M1747.9166,644.3449s-15.1894,16.4754-28.3667,13.8074c0,0,15.0266-11.4467-3.7636-27.404C1715.7863,630.7483,1736.6974,634.0134,1747.9166,644.3449Z"/><path class="c" d="M1726.5509,649.2647c-3.2768.8567-6.5537-.8227-7.3192-3.7509s1.27-5.9965,4.5471-6.8531,6.5537.8228,7.3192,3.751S1729.8277,648.408,1726.5509,649.2647Z"/><path class="h" d="M1715.7863,630.7483s-3.4842,16.8024-7.7773,18.8107-26.5493-3.6863-35.4729-10.8975h0a22.2888,22.2888,0,0,0,10.6058,26.987,32.39,32.39,0,0,0,10.4347,3.314h0c7.5329,1.0451,15.4153.3235,20.4822-5.3478,1.5418-1.7256,2.9189-14.9476,2.9189-14.9476s1.3576-7.5832,6.8011-10.0064C1723.7788,638.6607,1720.3071,632.7047,1715.7863,630.7483Z"/><path class="e" d="M1695.7275,583.1476a5.8886,5.8886,0,0,1-1.9766-.372l.2588-.7241c3.4967,1.2425,4.724-1.4833,4.7742-1.6l.7071.3019A4.2186,4.2186,0,0,1,1695.7275,583.1476Z"/><path class="j" d="M1693.7168,608.6048a51.4807,51.4807,0,0,1-7.2971-6.2122c-4.6315-4.82-6.6215-9.3164-5.7554-13.0027.6019-2.5659,1.5794-4.1027,2.989-4.6988,2.2435-.9478,5.0592.7381,7.5415,2.2273.3684.2205.7278.4361,1.0755.6365l-.1923.3333c-.35-.2017-.7107-.4187-1.0808-.64-2.4042-1.4425-5.1327-3.0754-7.1946-2.2026-1.2876.5445-2.1923,1.9946-2.7646,4.4325-1.0538,4.4886,2.4959,9.3554,5.6592,12.6481a51.0029,51.0029,0,0,0,7.2352,6.16Z"/><path class="j" d="M1736.35,603.1279c-8.7966-1.5677-14.242-5.4854-17.2608-8.4952a20.8,20.8,0,0,1-4.5-6.2427l.3557-.1438c.0468.115,4.848,11.54,21.4736,14.5035Z"/><path class="c" d="M1688.5346,654.2643c-8.094,0-12.2726-6.9126-12.3212-6.9943a.8308.8308,0,0,1,1.4312-.8441c.2031.3432,5.0977,8.3662,14.79,5.6058a.83.83,0,1,1,.4546,1.5974A15.8385,15.8385,0,0,1,1688.5346,654.2643Z"/><path class="e" d="M1668.5668,1097.4838c-.0709-.5311-7.1282-53.3322-12.4353-72.2416-5.2549-18.7289-29.6206-35.0085-29.8658-35.1712l.69-1.0439c.25.1644,25.0017,16.7046,30.3816,35.8772,5.33,18.9939,12.3993,71.8823,12.4694,72.4141Z"/><path class="c" d="M1634.1538,803.4635c20.01,12.0631,53.9324,22.379,67.2037,17.1475,24.7121-9.7415,31.0958-38.27,38.4268-60.52,3.7516-11.3862,10.9357-17.9423,27.0126-17.2511,6.6763.2871,17.78-.98,30.9338,6.363,6.3549,3.5474,5.4961,10.69,4.0228,16.6291-2.3057,9.295-4.4524,22.592-11.2675,38.3283-16.1876,37.3741-23.5579,53.6386-52.0808,68.8588-35.0073,18.6805-95.7062,4.9279-135.1915-35.0016C1599.0559,833.8132,1629.46,800.6335,1634.1538,803.4635Z"/><g class="k"><path class="l" d="M1719.864,863.7544a13.1588,13.1588,0,0,1-4.7411-.8212,7.9242,7.9242,0,0,1-4.6171-4.2272c-2.2263-5.2011,1.93-11.9636,9.4607-15.3938,4.4714-2.0377,9.2807-2.4258,12.8638-1.0368a7.9222,7.9222,0,0,1,4.6162,4.2271c2.2263,5.2011-1.929,11.9636-9.4607,15.3938h0A19.8679,19.8679,0,0,1,1719.864,863.7544Zm8.2144-19.5905a17.1479,17.1479,0,0,0-6.9853,1.6226c-5.9692,2.7195-9.6726,8.1461-8.0878,11.85a5.353,5.353,0,0,0,3.1,2.7609c2.9136,1.1285,6.935.7647,10.7542-.9756h0c5.9692-2.72,9.6726-8.1462,8.0878-11.85a5.3517,5.3517,0,0,0-3.0987-2.761A10.4679,10.4679,0,0,0,1728.0784,844.1639Z"/></g><path class="c" d="M1609.3948,840.0106s-45.8094-5.3317-55.8251-17.1025-13.0672-35.3361-6.1522-28.4006c6.756,6.776,10.8929,17.474,10.8929,17.474s-8.7332-24.1119-4.0091-25.4024c6.8266-1.865,15.1428,19.9425,15.1428,19.9425s-11.2124-29.9737-4.2395-29.1039,15.39,23.1134,15.39,23.1134-10.305-27.6819-2.2291-26.4818,11.5927,22.72,18.5434,21.39,29.0044,1.3092,34.1413,8.9681Z"/><path class="d" d="M1566.4783,820.4488c-5.0286-.7458-8.5352-7.9149-8.6816-8.22l1.0278-.495c.0332.0692,3.3916,6.93,7.8208,7.5864Z"/><path class="d" d="M1578.7581,816.4579c-6.7625-2.4339-10.0409-9.4381-10.1775-9.7351l1.0368-.4761c.0315.0683,3.2227,6.8686,9.5271,9.1376Z"/><path class="d" d="M1589.3578,809.5493c-5.4274-.3409-9.5584-8.8239-9.7309-9.1851l1.0278-.4937c.0395.0826,4.0133,8.2413,8.7751,8.54Z"/><path class="c" d="M1636.75,805.8557c-.8574-.3989-24.6748-28.2013-31.2438-28.9108s6.4563,30.5109,6.4563,30.5109Z"/><path class="a" d="M1110.3775,1053.8694l-24.3189,45.2637a14.5268,14.5268,0,0,0,3.7641,18.2525l39.9827,31.7433-49.8586-27.5827a9.1587,9.1587,0,0,0-11.3936,2.0612l-18.918,22.1191,10.7564-26.54a13.3453,13.3453,0,0,0-2.7931-14.3089l-18.6243-19.1838,23.9054,13.019a9.5136,9.5136,0,0,0,11.8455-2.2486Z"/><path class="m" d="M1183.0684,91.3318s212.0867,371.3288,241.5429,296.3372C1460.4542,296.4177,1195.2419,10.826,1183.0684,91.3318Z"/><path class="f" d="M1427.7419,373.4406c2.3082-21.1209-5.9882-47.0166-20.1938-74.2934-30.5618-58.7362-88.4693-123.8847-126.637-161.5591-45.0731-44.4911-90.2845-58.6375-90.2845-58.6375s.1381-.148.4045-.4341c3.7783-3.9558,33.0477-34.4189,75.1812-72.8432,207.7963-7.9216,424.1655-8.7207,565.7084,5.2186,85.4308,8.4149,162.0917,49.2856,212.5612,112.5-170.546,133.9963-625.875,274.2667-625.875,274.2667a44.3234,44.3234,0,0,0,2.9889-4.5674,49.7765,49.7765,0,0,0,6.1065-19.2369C1427.7221,373.7168,1427.732,373.5786,1427.7419,373.4406Z"/><path class="c" d="M938.5956,214.5382s-159.5,2.66-169.8658,17.7571c-19.9887,29.1122,60.3643,29.1122,60.3643,29.1122Z"/><path class="c" d="M1190.6266,100.3872c-49.5436,26.104-85.7034,41.51-119.8332,58.9277C986.6216,202.2708,840.2429,311.9558,848.33,394.83S960.0888,570.6684,990.6747,546.99,957.5858,407.5667,969.54,380.9285s165.6651-26.2995,170.654-5.5809-104.7225,106.8068-68.7266,145.3959c0,0,20.2233,21.703,80.4-27.622,32.5956-26.7176,98.476-50.2847,150.251-106.9323,20.3711-22.2882,50.6983-53.6341,59.7852-71.8908C1377.458,283.0469,1217.7751,86.083,1190.6266,100.3872Z"/><path class="c" d="M1042.7485,174.7877S860.6384,229.91,808.85,296.3147s-77.1182,120.4638-47.5247,139.7,143.4794-90.26,143.4794-90.26Z"/><path class="c" d="M1127.4687,132.7181c-67.6936,20.9466-419.53,168.63-423.7273,193.4512-8.1308,48.0789,124.5624,1.8468,124.5624,1.8468Z"/><path class="g" d="M976.0564,531.0364s-64.2112-60.2464-126.9953-7.5972,18.34,136.0819,98.3369,159.1669,102.3093,35.1841,115.921,27.1716,163.7473-237.2816,62.6247-315.0932C1053.3871,338.8537,971.679,402.6789,976.0564,531.0364Z"/><path class="c" d="M1140.1937,375.3476s-90.43,99.5236-82.5376,139.97,87.3164-16.9491,178.3155-77.0363S1180.3118,313.311,1140.1937,375.3476Z"/><path class="d" d="M848.3279,397.2963a2.4656,2.4656,0,0,1-2.3731-1.8035c-.41-1.4681-9.8208-36.3252,8.4943-68.4147,12.0695-21.1474,33.3063-35.9155,63.1214-43.8941a2.466,2.466,0,1,1,1.275,4.7644c-28.4725,7.62-48.6886,21.5917-60.0862,41.5276-17.3052,30.2706-8.1475,64.3524-8.0532,64.6933a2.4689,2.4689,0,0,1-2.3782,3.127Z"/><path class="d" d="M775.9566,345.0558a2.4669,2.4669,0,0,1-2.0979-3.76c1.3647-2.2174,33.7368-54.4714,60.3368-68.4362,26.2416-13.7771,72.84-26.6194,74.8111-27.1593a2.4663,2.4663,0,1,1,1.3037,4.7572c-.4775.1307-48.057,13.2425-73.8219,26.7694-25.4034,13.3363-58.102,66.1232-58.4294,66.6546A2.4645,2.4645,0,0,1,775.9566,345.0558Z"/><path class="j" d="M881.7874,613.14,849.74,560.0652a17.5281,17.5281,0,0,0-21.2652-7.3119l-57.537,22,59.288-34.8122a11.0509,11.0509,0,0,0,4.8638-13.0968l-11.3369-33.2394,20.9445,27.4831a16.1033,16.1033,0,0,0,16.5739,5.8959l31.367-7.5447-28.2126,16.8177a11.4792,11.4792,0,0,0-4.9471,13.6813Z"/><g class="n"><path class="o" d="M1338.4757,745.7493l-.0551-.055a18.655,18.655,0,0,1-5.5162-13.1869V684.454a31.7524,31.7524,0,0,0-32.3843-31.7462l-483.4082,9.6234A33.7327,33.7327,0,0,0,784.293,692.02s7.06,38.008-1.9172,45.8686c-76.9367,67.3674-140.4593,174.8572-140.4593,285.1874,0,149.4473,79.681,256.4881,179.9588,329.0847,0,0,84.3284,18.1525,219.4568,18.625,156.8534.5487,248.6572-18.625,248.6572-18.625,100.2875-72.5868,183.43-150.6171,183.43-312.4031C1473.4191,929.4276,1410.7861,818.06,1338.4757,745.7493Z"/></g><g class="p"><path class="o" d="M1355.3831,734.5915l-.0579-.0582a19.8425,19.8425,0,0,1-5.7908-13.9647V669.68a33.4735,33.4735,0,0,0-33.9969-33.6189L808.0594,646.2526a35.53,35.53,0,0,0-34.4529,31.44s7.4115,40.25-2.0126,48.5745c-80.7675,71.3415-147.453,185.1722-147.453,302.0109,0,124.4511,51.7243,221.1332,125.0131,294.1461a228.91,228.91,0,0,0,135.705,65.1813,1458.214,1458.214,0,0,0,158.585,8.894c80.4328.2838,144.5719-4.4157,189.1439-9.298a240.7548,240.7548,0,0,0,130.7913-56.5584c77.0438-66.2482,133.6663-146.7037,133.6663-284.6994C1497.0455,929.1052,1431.294,811.1676,1355.3831,734.5915Z"/></g><ellipse class="q" cx="1055.9371" cy="1335.7301" rx="197.7836" ry="22.0927"/><path class="q" d="M906.5759,716.3638c-42.5239,0-83.4253-1.0744-120.0357-3.69l.2111-2.9522c204.1861,14.59,542.6113-18.8345,546.0057-19.1736l.2946,2.9451C1330.2628,693.7713,1101.5117,716.3638,906.5759,716.3638Z"/><path class="q" d="M1029.1327,734.0721c-95.8728,0-190.3749-2.6868-242.4761-11.51l.4941-2.9181c132.39,22.4192,540.0718,5.1062,544.175,4.9279l.1276,2.9568C1328.96,727.637,1177.435,734.0721,1029.1327,734.0721Z"/><path class="q" d="M784.295,693.5l-.0036-2.96c4.76-.0049,476.7333-.7057,546.7585-17.237l.6792,2.88C1261.3743,692.7929,789.0576,693.495,784.295,693.5Z"/><g class="r"><path class="g" d="M826.9951,1170.19s-49.167-52.6266-103.2427-13.0328,7.6475,112.0545,71.6981,135.2,81.61,34.2208,93.1511,28.4134,146.4132-184.856,68.0646-253.8049C900.45,1017.4943,830.3278,1065.1916,826.9951,1170.19Z"/><path class="a" d="M941.469,1100.2033a2.6731,2.6731,0,0,1-2.5228-1.7906c-4.6346-13.2429-14.0745-20.7332-28.0574-22.2623a55.8129,55.8129,0,0,0-20.1564,1.7169,2.6729,2.6729,0,0,1-1.5867-5.1049c.42-.13,42.0762-12.6061,54.8461,23.884a2.675,2.675,0,0,1-2.5228,3.5569Z"/></g><path class="g" d="M1167.3767,1146.8943s11.2093-90.38-71.0558-110.7577-102.5425,98.2689-73.0752,179.1914,32.9557,106.9425,47.948,113.4339,298.0961-7.7848,301.4866-139.7175C1375.113,1094.3812,1271.974,1065.0014,1167.3767,1146.8943Z"/><path class="a" d="M1330.6951,1202.4562a3.381,3.381,0,0,1-2.8993-5.113c9.0948-15.2347,8.71-30.4678-1.1429-45.2776a70.6407,70.6407,0,0,0-18.0073-18.1682,3.38,3.38,0,1,1,3.6674-5.6781,76.7085,76.7085,0,0,1,19.9687,20.1016c11.2591,16.923,11.7147,35.0723,1.32,52.4868A3.3807,3.3807,0,0,1,1330.6951,1202.4562Z"/><path class="s" d="M916.8289,1256.9388s-45.1666-7.51-57.113,33.39,47.23,53.5523,88.4915,40.433,54.4044-14.3306,57.977-21.7265,2.2879-149.901-63.9138-154.3474C894.77,1151.4972,877.8676,1202.6948,916.8289,1256.9388Z"/><path class="a" d="M911.8484,1186.4263a1.7,1.7,0,0,1-1.3867-2.68c.1613-.2273,16.3412-22.6424,36.9055-9.1847a1.7,1.7,0,0,1-1.8615,2.8444c-7.4625-4.8839-15.1216-5.01-22.7669-.3674a35.511,35.511,0,0,0-9.501,8.6681A1.697,1.697,0,0,1,911.8484,1186.4263Z"/><path class="s" d="M950.6473,928.2294s-28.4568-33.1347-62.2268-10.5154,1.7918,68.0906,40.0147,83.7393,48.5818,22.8051,55.7219,19.5789,93.4037-108.2955,47.6791-152.06C999.0282,837.57,955.33,864.6926,950.6473,928.2294Z"/><path class="a" d="M1021.8522,888.7273a1.622,1.622,0,0,1-1.5507-1.1509c-2.4627-8.11-7.961-12.8827-16.3421-14.1854a34.0346,34.0346,0,0,0-12.3522.5147,1.6209,1.6209,0,0,1-.83-3.1337c.2575-.0682,25.814-6.5729,32.6268,15.8629a1.6215,1.6215,0,0,1-1.5516,2.0924Z"/><path class="g" d="M1184.5155,870.9116s-45.2428-9.8246-59.3362,30.8886,45.0432,56.4265,87.3651,45.2233,55.6554-11.7747,59.63-19.067,9.7448-151.2761-56.8938-159.05C1167.4669,763.3288,1147.8574,814.1966,1184.5155,870.9116Z"/><path class="a" d="M1183.0673,799.4536a1.7177,1.7177,0,0,1-1.3521-2.7771c.1734-.2219,17.6237-22.0571,37.7272-7.4449a1.7186,1.7186,0,0,1-2.0215,2.78c-7.2953-5.3034-15.0245-5.81-22.9748-1.5a35.9111,35.9111,0,0,0-10.0248,8.2828A1.7144,1.7144,0,0,1,1183.0673,799.4536Z"/><path class="g" d="M751.8578,1016.908s14.3984-21.2954-3.6813-36.96-38.38,11.578-41.3361,35.7058-5.4124,31.1189-2.4734,34.6723,75.9707,36.2328,93.7261,3.4852C810.8328,1030.3148,788.6566,1009.7118,751.8578,1016.908Z"/><path class="a" d="M786.25,1051.9105a.9542.9542,0,0,1-.509-1.7618,11.1865,11.1865,0,0,0,5.5133-11.5342,19.9436,19.9436,0,0,0-2.2016-6.8766.9541.9541,0,0,1,1.65-.9577c.0786.1356,7.7346,13.6364-3.946,20.9839A.9537.9537,0,0,1,786.25,1051.9105Z"/><path class="a" d="M1302.58,928.5191l19.6712,54.58a16.4021,16.4021,0,0,0,18.1717,10.61l56.8312-9.6336-60.788,21.0685a10.3409,10.3409,0,0,0-6.8653,11.1254l4.3056,32.58-14.1773-29.06a15.0685,15.0685,0,0,0-14.1267-8.45l-30.1661,1.1694,28.9726-10.2568a10.7418,10.7418,0,0,0,7.0489-11.6466Z"/><path class="a" d="M931.4985,855.872,904.04,906.9789a16.402,16.402,0,0,0,4.25,20.6087l45.1443,35.8412-56.2951-31.1434a10.3409,10.3409,0,0,0-12.8644,2.3272l-21.36,24.9745L875.06,929.6207a15.0686,15.0686,0,0,0-3.1536-16.1562l-21.0286-21.66,26.9913,14.7a10.7419,10.7419,0,0,0,13.3748-2.5389Z"/><path class="a" d="M1105.1337,783.2031l-17.662,32.8734a10.55,10.55,0,0,0,2.7337,13.2561l29.0381,23.054-36.2106-20.0323a6.6517,6.6517,0,0,0-8.2748,1.4969l-13.7393,16.0643,7.8119-19.2752a9.6926,9.6926,0,0,0-2.0285-10.3922l-13.5262-13.9325,17.3616,9.4553a6.9094,6.9094,0,0,0,8.6031-1.6331Z"/><path class="a" d="M820.5874,768.4869,802.9255,801.36a10.55,10.55,0,0,0,2.7337,13.2561l29.0381,23.054-36.2107-20.0322a6.6512,6.6512,0,0,0-8.2746,1.4969l-13.7394,16.0643,7.8119-19.2753a9.6927,9.6927,0,0,0-2.0285-10.3921L768.73,791.5994l17.3616,9.4553a6.91,6.91,0,0,0,8.603-1.6331Z"/><path class="a" d="M778.201,1109.1577l-17.6621,32.8734a10.55,10.55,0,0,0,2.7338,13.2561l29.0381,23.054L756.1,1158.3088a6.6516,6.6516,0,0,0-8.2747,1.4971L734.0861,1175.87l7.8119-19.2752a9.6928,9.6928,0,0,0-2.0285-10.3922L726.3434,1132.27l17.3616,9.4553a6.91,6.91,0,0,0,8.603-1.6331Z"/><path class="q" d="M1080.44,1398.4657c-80.1366,0-157.0083-4.7788-183.3181-7.05-45.0931-3.8921-86.2819-22.514-86.6925-22.7018a2.4663,2.4663,0,0,1,2.0493-4.4868c.4029.1842,40.8493,18.4575,85.0672,22.2741,43.9911,3.7977,229.7125,14.6311,334.6626-1.7357,102.412-15.9743,147.731-72.0916,148.1766-72.6558a2.466,2.466,0,0,1,3.8723,3.0546c-.4708.5976-11.8154,14.8072-36.22,31.1876-22.4367,15.06-60.6131,34.7928-115.0684,43.2866C1190.41,1396.2762,1134.6766,1398.4657,1080.44,1398.4657Z"/><path class="q" d="M766.9241,1340.8282a2.454,2.454,0,0,1-1.4456-.47c-47.9078-34.7471-92.1392-112.3927-92.58-113.1734a2.4662,2.4662,0,0,1,4.2936-2.4276c.4362.7709,44.1492,77.4947,91.1824,111.6084a2.466,2.466,0,0,1-1.45,4.4625Z"/><g class="p"><path class="j" d="M484.3511,190.6711s-23.2982-44.81-82.2518-39.1952-51.9354,50.5317-80.0085,46.3207-67.3757,0-75.7976,28.0732-46.3208,12.633-47.7244,36.4951,43.5134,40.7061,95.4488,19.6512,77.2012,16.357,150.1914,9.5822,82.0331-15.1968,125.2361-10.9858,42.1774-25.37,22.5252-45.0221S492.7735,217.81,484.3511,190.6711Z"/></g><g class="t"><path class="j" d="M661.9316,381.8721s-25.2567-43.7458-71.4633-36.5582-1.0268,26.91-61.6088,36.5582-73.9307,30.1848-46.2067,46.6138,72.9039-29.7776,122.191-7.1877S720.0463,424.5911,661.9316,381.8721Z"/></g><g class="t"><path class="j" d="M1517.3348,487.169s-25.2567-43.7458-71.4633-36.5581-1.0268,26.9095-61.6089,36.5581-73.93,30.1849-46.2066,46.6138,72.9038-29.7776,122.1909-7.1876S1575.45,529.8879,1517.3348,487.169Z"/></g><g class="t"><path class="j" d="M1743.3212,393.344s-16.9768-29.4047-48.0357-24.5733-.69,18.0879-41.4118,24.5733-49.6941,20.2894-31.0589,31.3326,49.004-20.0157,82.1335-4.8313S1782.3843,422.0586,1743.3212,393.344Z"/></g><g class="t"><path class="j" d="M357.6888,463.3911s-16.9769-29.4048-48.0357-24.5734-.69,18.0878-41.4118,24.5734-49.6941,20.2894-31.0589,31.3325,49.004-20.0157,82.1335-4.8314S396.7519,492.1056,357.6888,463.3911Z"/></g><path class="m" d="M438.9236,647.5668s6.7313,19.2038-17.3238,30.3805-14.641,23.3646-8.3956,30.39c10.685,12.0188-33.4609,7.3661-43.3259,30.3158C352.7459,778.5091,403.97,780.444,428.3468,770.53s98.6628-39.75,101.4866-48.2052,4.197-30.0073-9.2581-29.4646c-24.0871.9716-.6931-23.8832-17.5874-28.1231S438.9236,647.5668,438.9236,647.5668Z"/><path class="c" d="M591.2365,770.2537c23.1736-5.5882,46.1317-22.6974,67.4977-46.0332a220.638,220.638,0,0,0,26.1717-34.9022L646.7252,666.114l19.09,11.6022-13.1041-13.3376c-8.2884,14.23-43.3436,50.8259-73.9287,59.5445-23.0554,6.5722-55.1252-.4267-65.8637-2.4332l-30.9407,35.82C506.1437,777.4048,561.2205,777.4918,591.2365,770.2537Z"/><path class="e" d="M475.77,1305.5805s.3733,14.9089,10.4611,19.1142,39.317,8.0006,28.395,17.5854c-6.267,5.5-35.8022,1.946-44.14,1.9457s-16.1684,3.6339-22.3649-1.9473c-6.8172-6.14.0009-36.6986.0009-36.6986s7.1958,3.7485,13.6668,3.5806C471.1147,1308.9185,475.77,1305.5805,475.77,1305.5805Z"/><path class="e" d="M359.919,1305.5776s.3732,14.9088,10.461,19.1142,39.317,8.0006,28.3951,17.5855c-6.2672,5.5-35.8023,1.9459-44.14,1.9456s-16.1684,3.6338-22.3649-1.9474c-6.8172-6.14.001-36.6986.001-36.6986s7.1957,3.7486,13.6667,3.5807C355.2632,1308.9156,359.919,1305.5776,359.919,1305.5776Z"/><path class="u" d="M547.1993,968.3425c-2.5846,28.5648-6.9973,65.5431-14.5044,110.6616-14.38,86.4245-31.3547,173.5127-39.6832,215.2642a32.5715,32.5715,0,0,1-30.4263,26.4518l-8,.3207c-16.0959.6455-29.1592-13.1813-27.9833-29.6185L446.81,1008.9561l2.71-50.5836S551.4724,921.1154,547.1993,968.3425Z"/><path class="e" d="M366.4544,939.4591c.8866,11.8989,41.5745,30.5515,94.4059,26.2869s94.5889-11.034,93.7022-22.9328-44.0815-24.4213-96.913-20.1568S365.5677,927.56,366.4544,939.4591Z"/><path class="u" d="M509.1153,950.042,378.1144,1302.084a36.1866,36.1866,0,0,1-33.77,25.7033l-6.7478.1153c-15.9319.2725-28.1106-14.4593-25.2055-30.4891l68.296-348.9256c.8919-4.0275,15.0778-5.8806,19.1071-6.2154C433.2123,939.4955,511.1823,935.1275,509.1153,950.042Z"/><path class="v" d="M430.0227,747.039s24.0992-37.5293,75.4813-23.5721c24.282,6.5958,54.3506,5.7137,56.4463,51.6431,1.8818,41.2412,5.5173,89.3235-7.3878,167.7032,0,0-83.0438-32.4-188.1081-3.3541.3434-4.5057,5.4883-120.85,30.221-183.6121C403.7866,737.8014,421.9636,758.9766,430.0227,747.039Z"/><path class="v" d="M359.0615,761.2379l56.7491,25.3886s133.3971,14.8,146.8421-7.6206c14.1026-23.5165,4.161-56.0009,4.161-56.0009s-45.8545-2.6289-80.5623-3.8263c-7.9129-.2731-22.7017.3571-30.488.4792C384.3775,720.778,359.0615,761.2379,359.0615,761.2379Z"/><path class="w" d="M436.7466,1147.206l-1.8392-.4295L462.53,1028.74a71.501,71.501,0,0,1,32.32-39.9131l.9389,1.6387a69.583,69.583,0,0,0-31.4426,38.7838Z"/><path class="e" d="M357.5181,764.3085c-1.1588,6.3464,8.989,19.5856,32.3316,23.0082s31.8692-4.3183,32.6053-13.15c.5542-6.6493-9.4652-17.7127-31.5664-20.6552C368.1245,750.4807,358.3444,759.7831,357.5181,764.3085Z"/><path class="u" d="M401.7607,942.1114s71.7078-11.8772,141.8229,3.5894a6.526,6.526,0,0,1,5.1015,6.9828l-2.4842,26.1706-73.3756-18.2608Z"/><path class="c" d="M455.7309,719.6825c9.635,9.2438,25.0959,16.24,37.3366,12.6813,10.6049-3.0828,6.783-12.9921,6.783-12.9921-4.7308.3406-10.93-11.925-11.7745-16.59l-1.024-5.7349-.5057-2.843-1.6375-9.0823-1.464-8.1567L477.44,643.5109l-5.567,35.1841-.9478,5.9769-3.262,20.6233a18.4285,18.4285,0,0,1-11.8368,14.3525C455.7968,719.6552,455.76,719.6749,455.7309,719.6825Z"/><path class="e" d="M470.9251,684.6719s6.6239,9.417,15.6212,9.5322l-.8775-10.61C480.0073,683.0244,470.9251,684.6719,470.9251,684.6719Z"/><path class="m" d="M438.9236,647.5668s2.6469,5.0685,2.364,16.91c-.414,17.3258,19.7856,19.3638,23.3377,13.5441.44-.72-7.3469-28.0242-7.3469-28.0242l-6.8012-2.0034Z"/><ellipse class="c" cx="480.2694" cy="648.3824" rx="31.8574" ry="39.3034" transform="translate(-145.2818 138.7314) rotate(-14.3014)"/><path class="m" d="M485.0441,616.0317c-.5593,1.3883,9.2939,19.7421-25.8106,33.6739s-24.5256-35.6648,2.0024-43.4876c38.3039-11.2953,50.5616,13.2707,49.2317,23.5754S485.0441,616.0317,485.0441,616.0317Z"/><path class="m" d="M461.6445,642.4472s-10.846,19.42-1.6264,34.0942c0,0-11-7.207-12.0848-10.6675s-2.0289-16.7152-2.0289-16.7152Z"/><path class="c" d="M454.9918,660.9436c4.348,2.4476,9.3246,1.5434,11.1158-2.0195s-.2815-8.4352-4.6294-10.8827-9.3246-1.5434-11.1157,2.0195S450.644,658.4961,454.9918,660.9436Z"/><path class="i" d="M483.3487,647.9886a.7248.7248,0,0,0-.26-1.3494,7.8459,7.8459,0,0,0-8.5736,4.344.73.73,0,0,0,.2781.9868.7956.7956,0,0,0,.9868-.2781,12.41,12.41,0,0,1,7.1181-3.6152A.7218.7218,0,0,0,483.3487,647.9886Z"/><path class="i" d="M479.76,657.1215c.3737,1.6884,1.67,2.8373,2.8949,2.5661s1.9155-1.86,1.5418-3.5481-1.67-2.8372-2.8951-2.566S479.3864,655.4332,479.76,657.1215Z"/><path class="i" d="M509.3454,645.26a.7248.7248,0,0,0,.2739-1.3466,7.8458,7.8458,0,0,0-9.5819.75.73.73,0,0,0-.1187,1.0185.7957.7957,0,0,0,1.0184.1187,12.4084,12.4084,0,0,1,7.9585-.6312A.7219.7219,0,0,0,509.3454,645.26Z"/><path class="i" d="M502.5484,652.337c-.2976,1.7035.4631,3.26,1.6992,3.4754s2.4794-.99,2.777-2.6933-.4631-3.26-1.6992-3.4754S502.846,650.6336,502.5484,652.337Z"/><g class="x"><path class="j" d="M465.5831,650.7878c-.5164,9.7551,4.6411,19.2423,11.52,21.19s12.8731-4.381,13.3895-14.1361-4.6412-19.2423-11.52-21.19S466.1,641.0328,465.5831,650.7878Z"/></g><g class="x"><ellipse class="j" cx="508.9971" cy="651.2883" rx="10.6764" ry="17.888" transform="translate(-142.5854 142.6679) rotate(-14.0162)"/></g><path class="e" d="M465.543,657.7194c.1244.4883.2622.9736.423,1.4386a21.5036,21.5036,0,0,0,7.2676,10.9146,12.4468,12.4468,0,0,0,4.137,2.0527,9.8455,9.8455,0,0,0,5.2181.0617,10.5481,10.5481,0,0,0,3.4093-1.6284,15.5468,15.5468,0,0,0,5.627-8.76,24.5715,24.5715,0,0,0,.8162-5.0167,26.0456,26.0456,0,0,0-.25-5.4481,21.3025,21.3025,0,0,0-.4168-2.2419c-1.5108-6.5327-5.33-12.0832-10.132-14.3182a11.71,11.71,0,0,0-1.834-.6854,9.8447,9.8447,0,0,0-8.6275,1.5666c-3.28,2.3549-5.4886,6.4893-6.2219,11.5552-.1089.7309-.1749,1.4647-.2211,2.2218-.0276.4428-.0388.8955-.0367,1.345a26.2845,26.2845,0,0,0,.2393,3.862A27.0119,27.0119,0,0,0,465.543,657.7194Zm22.5355,8.9767a11.58,11.58,0,0,1-2.779,2.8877,8.68,8.68,0,0,1-7.6072,1.3767,11.5344,11.5344,0,0,1-4.24-2.2373,21.0462,21.0462,0,0,1-6.7979-11.4983l-.0034-.0132c-.1719-.7294-.3208-1.4787-.4432-2.235-.1123-.7166-.1984-1.44-.2448-2.1734a24.4265,24.4265,0,0,1-.025-3.2977,21.799,21.799,0,0,1,.37-2.9626,13.0307,13.0307,0,0,1,.356-1.5813.2857.2857,0,0,1,.0326-.0926c.013-.06.0293-.1058.0423-.1654A17.7563,17.7563,0,0,1,467.76,641.87a13.0325,13.0325,0,0,1,4.12-5.24,8.7163,8.7163,0,0,1,7.6074-1.3769,9.0109,9.0109,0,0,1,1.3769.4926c4.6554,1.991,8.3485,7.3769,9.7758,13.7481a22.0483,22.0483,0,0,1,.41,2.2716,26.1955,26.1955,0,0,1,.1914,4.9429,22.0866,22.0866,0,0,1-.7808,4.7687,17.0634,17.0634,0,0,1-2.339,5.166A.188.188,0,0,0,488.0785,666.6961Z"/><path class="w" d="M495.0605,674.59a11.2821,11.2821,0,0,1-6.5217-2.0893.3727.3727,0,1,1,.4231-.6137c7.1054,4.9032,14.243-.9443,14.3139-1.0031a.3728.3728,0,1,1,.4789.5714A15.12,15.12,0,0,1,495.0605,674.59Z"/><path class="w" d="M488.254,674.0452a.3725.3725,0,0,1-.3693-.3261,4.9858,4.9858,0,0,1,1.1213-3.3472.4068.4068,0,0,1,.5314-.1608.3452.3452,0,0,1,.1514.48l-.07.1046a4.2086,4.2086,0,0,0-.9951,2.83.3725.3725,0,0,1-.3229.4165A.3412.3412,0,0,1,488.254,674.0452Z"/><path class="m" d="M411.2666,705.8719c-2.343-.5145-7.4326-8.7162-7.5741-16.6356-.1032-5.7519,2.274-13.2523,14.1843-16.3187,22.3055-5.7437,21.3614-24.1544,21.31-24.9352l2.0163-.1363c.014.2076,1.146,20.8567-22.8229,27.028-8.0813,2.081-12.338,6.5332-12.6521,13.2335-.354,7.5471,4.6517,15.3129,5.9918,15.7956Z"/><path class="e" d="M498.6673,654.0135c.1312.5149.2723,1.0133.4267,1.5083s.335.9832.5122,1.4582c.1106.3233.2377.6566.3712.96.01.04.0368.0891.047.1288.11.2671.2173.521.3407.7847a.05.05,0,0,1,.0234.0363,28.8129,28.8129,0,0,1-1.87-7.7207,3.7558,3.7558,0,0,0-.4433-.14c.0751.5151.16,1.0138.2615,1.5223C498.4348,653.0464,498.5461,653.5382,498.6673,654.0135Zm0,0c.1312.5149.2723,1.0133.4267,1.5083s.335.9832.5122,1.4582c.1106.3233.2377.6566.3712.96.01.04.0368.0891.047.1288.11.2671.2173.521.3407.7847a.05.05,0,0,1,.0234.0363,28.8129,28.8129,0,0,1-1.87-7.7207,3.7558,3.7558,0,0,0-.4433-.14c.0751.5151.16,1.0138.2615,1.5223C498.4348,653.0464,498.5461,653.5382,498.6673,654.0135Zm0,0c.1312.5149.2723,1.0133.4267,1.5083s.335.9832.5122,1.4582c.1106.3233.2377.6566.3712.96.01.04.0368.0891.047.1288.11.2671.2173.521.3407.7847a.05.05,0,0,1,.0234.0363,28.8129,28.8129,0,0,1-1.87-7.7207,3.7558,3.7558,0,0,0-.4433-.14c.0751.5151.16,1.0138.2615,1.5223C498.4348,653.0464,498.5461,653.5382,498.6673,654.0135Zm0,0c.1312.5149.2723,1.0133.4267,1.5083s.335.9832.5122,1.4582c.1106.3233.2377.6566.3712.96.01.04.0368.0891.047.1288.11.2671.2173.521.3407.7847a.05.05,0,0,1,.0234.0363,28.8129,28.8129,0,0,1-1.87-7.7207,3.7558,3.7558,0,0,0-.4433-.14c.0751.5151.16,1.0138.2615,1.5223C498.4348,653.0464,498.5461,653.5382,498.6673,654.0135Zm0,0c.1312.5149.2723,1.0133.4267,1.5083s.335.9832.5122,1.4582c.1106.3233.2377.6566.3712.96.01.04.0368.0891.047.1288.11.2671.2173.521.3407.7847a.05.05,0,0,1,.0234.0363,28.8129,28.8129,0,0,1-1.87-7.7207,3.7558,3.7558,0,0,0-.4433-.14c.0751.5151.16,1.0138.2615,1.5223C498.4348,653.0464,498.5461,653.5382,498.6673,654.0135Zm0,0c.1312.5149.2723,1.0133.4267,1.5083s.335.9832.5122,1.4582c.1106.3233.2377.6566.3712.96.01.04.0368.0891.047.1288.11.2671.2173.521.3407.7847a.05.05,0,0,1,.0234.0363,28.8129,28.8129,0,0,1-1.87-7.7207,3.7558,3.7558,0,0,0-.4433-.14c.0751.5151.16,1.0138.2615,1.5223C498.4348,653.0464,498.5461,653.5382,498.6673,654.0135Zm0,0c.1312.5149.2723,1.0133.4267,1.5083s.335.9832.5122,1.4582c.1106.3233.2377.6566.3712.96.01.04.0368.0891.047.1288.11.2671.2173.521.3407.7847a.05.05,0,0,1,.0234.0363,28.8129,28.8129,0,0,1-1.87-7.7207,3.7558,3.7558,0,0,0-.4433-.14c.0751.5151.16,1.0138.2615,1.5223C498.4348,653.0464,498.5461,653.5382,498.6673,654.0135Zm0,0c.1312.5149.2723,1.0133.4267,1.5083s.335.9832.5122,1.4582c.1106.3233.2377.6566.3712.96.01.04.0368.0891.047.1288.11.2671.2173.521.3407.7847a.05.05,0,0,1,.0234.0363,28.8129,28.8129,0,0,1-1.87-7.7207,3.7558,3.7558,0,0,0-.4433-.14c.0751.5151.16,1.0138.2615,1.5223C498.4348,653.0464,498.5461,653.5382,498.6673,654.0135Zm-.5607,1.6616a25.3871,25.3871,0,0,0,4.0727,8.8605l.013-.0033.0035.0133a12.5119,12.5119,0,0,0,6.39,4.8245c.1521.0457.301.0782.45.1105.0165.01.03.0063.0461.0162a7.6372,7.6372,0,0,0,3.6051-.0332,8.0242,8.0242,0,0,0,2.829-1.3678c3.4945-2.564,5.6873-7.8616,5.8794-14.1676.3062-10.272-4.8252-20.1421-11.4066-22.0217-.1358-.0357-.2881-.0815-.42-.1038l-.0131.0033a7.899,7.899,0,0,0-1.66-.2238,7.5036,7.5036,0,0,0-2.2555.3081,8.5485,8.5485,0,0,0-2.5947,1.294c-3.4812,2.5608-5.6873,7.8616-5.8662,14.1642-.0079.41-.016.82-.011,1.2261.01.7567.05,1.52.13,2.2728A28.4157,28.4157,0,0,0,498.1066,655.6751Zm2.2819,3.2146a28.8129,28.8129,0,0,1-1.87-7.7207c-.0763-.7959-.1263-1.5988-.1465-2.3953-.0053-.4625.0023-.9283.01-1.3945a23.02,23.02,0,0,1,1.5561-7.9611,12.2529,12.2529,0,0,1,3.6576-5.1225,1.3655,1.3655,0,0,1,.1743-.143,6.9727,6.9727,0,0,1,2.4168-1.1645,6.22,6.22,0,0,1,2.2961-.1495,6.9868,6.9868,0,0,1,1.1675.2228c6.0951,1.7363,10.8243,11.0763,10.5423,20.836l-.0094.1289.0068.0265c.0033.0131-.0032.0428,0,.056s-.0064.03-.0031.0431c-.2273,5.837-2.2342,10.6511-5.3827,12.9722a6.5007,6.5007,0,0,1-5.2385,1.2371,4.7265,4.7265,0,0,1-.6419-.1459,3.5582,3.5582,0,0,1-.5394-.1859.4145.4145,0,0,1-.1556-.0587.0133.0133,0,0,1-.0166-.01c-.0132.0034-.0165-.01-.0331-.0195a10.4922,10.4922,0,0,1-3.9853-2.8368,20.0089,20.0089,0,0,1-3.6689-5.8982A2.9775,2.9775,0,0,0,500.3885,658.89Zm-1.7212-4.8762c.1312.5149.2723,1.0133.4267,1.5083s.335.9832.5122,1.4582c.1106.3233.2377.6566.3712.96.01.04.0368.0891.047.1288.11.2671.2173.521.3407.7847a.05.05,0,0,1,.0234.0363,28.8129,28.8129,0,0,1-1.87-7.7207,3.7558,3.7558,0,0,0-.4433-.14c.0751.5151.16,1.0138.2615,1.5223C498.4348,653.0464,498.5461,653.5382,498.6673,654.0135Zm0,0c.1312.5149.2723,1.0133.4267,1.5083s.335.9832.5122,1.4582c.1106.3233.2377.6566.3712.96.01.04.0368.0891.047.1288.11.2671.2173.521.3407.7847a.05.05,0,0,1,.0234.0363,28.8129,28.8129,0,0,1-1.87-7.7207,3.7558,3.7558,0,0,0-.4433-.14c.0751.5151.16,1.0138.2615,1.5223C498.4348,653.0464,498.5461,653.5382,498.6673,654.0135Zm0,0c.1312.5149.2723,1.0133.4267,1.5083s.335.9832.5122,1.4582c.1106.3233.2377.6566.3712.96.01.04.0368.0891.047.1288.11.2671.2173.521.3407.7847a.05.05,0,0,1,.0234.0363,28.8129,28.8129,0,0,1-1.87-7.7207,3.7558,3.7558,0,0,0-.4433-.14c.0751.5151.16,1.0138.2615,1.5223C498.4348,653.0464,498.5461,653.5382,498.6673,654.0135Zm0,0c.1312.5149.2723,1.0133.4267,1.5083s.335.9832.5122,1.4582c.1106.3233.2377.6566.3712.96.01.04.0368.0891.047.1288.11.2671.2173.521.3407.7847a.05.05,0,0,1,.0234.0363,28.8129,28.8129,0,0,1-1.87-7.7207,3.7558,3.7558,0,0,0-.4433-.14c.0751.5151.16,1.0138.2615,1.5223C498.4348,653.0464,498.5461,653.5382,498.6673,654.0135Zm0,0c.1312.5149.2723,1.0133.4267,1.5083s.335.9832.5122,1.4582c.1106.3233.2377.6566.3712.96.01.04.0368.0891.047.1288.11.2671.2173.521.3407.7847a.05.05,0,0,1,.0234.0363,28.8129,28.8129,0,0,1-1.87-7.7207,3.7558,3.7558,0,0,0-.4433-.14c.0751.5151.16,1.0138.2615,1.5223C498.4348,653.0464,498.5461,653.5382,498.6673,654.0135Zm0,0c.1312.5149.2723,1.0133.4267,1.5083s.335.9832.5122,1.4582c.1106.3233.2377.6566.3712.96.01.04.0368.0891.047.1288.11.2671.2173.521.3407.7847a.05.05,0,0,1,.0234.0363,28.8129,28.8129,0,0,1-1.87-7.7207,3.7558,3.7558,0,0,0-.4433-.14c.0751.5151.16,1.0138.2615,1.5223C498.4348,653.0464,498.5461,653.5382,498.6673,654.0135Zm0,0c.1312.5149.2723,1.0133.4267,1.5083s.335.9832.5122,1.4582c.1106.3233.2377.6566.3712.96.01.04.0368.0891.047.1288.11.2671.2173.521.3407.7847a.05.05,0,0,1,.0234.0363,28.8129,28.8129,0,0,1-1.87-7.7207,3.7558,3.7558,0,0,0-.4433-.14c.0751.5151.16,1.0138.2615,1.5223C498.4348,653.0464,498.5461,653.5382,498.6673,654.0135Z"/><path class="e" d="M499.3279,651.2565a1.1235,1.1235,0,0,0,.1755-2.1176c-.182-.08-4.52-1.9254-10.0627.9192a1.1238,1.1238,0,0,0,1.0261,2c4.6016-2.3633,8.0979-.8772,8.1323-.8618A1.1171,1.1171,0,0,0,499.3279,651.2565Z"/><path class="c" d="M513.6218,828.6363c-19.1037,8.9031-50.5192,14.9062-61.9219,8.9423-21.2325-11.1051-24.2253-37.306-28.6694-57.9653-2.2743-10.5725-8.09-17.1413-22.5765-18.0615-6.016-.382-15.8539-2.5824-28.3561,2.7439-6.04,2.573-5.954,9.0619-5.2015,14.53,1.1776,8.5583,1.8293,20.6908,6.4347,35.4585,10.9391,35.074,15.9918,50.3687,40.1176,66.7532,29.6106,20.1094,85.3727,13.589,124.6148-18.4434C542.1956,859.2213,518.1034,826.5476,513.6218,828.6363Z"/><g class="k"><path class="l" d="M432.421,874.5832a17.2085,17.2085,0,0,1-8.5608-2.5246c-6.4264-3.7986-9.5063-10.2611-7.0118-14.7137a7.1509,7.1509,0,0,1,4.5465-3.3494c3.3472-.9012,7.6229-.0934,11.4385,2.1625,6.4265,3.7986,9.5063,10.2611,7.0118,14.7138a7.1512,7.1512,0,0,1-4.5474,3.35A11.0716,11.0716,0,0,1,432.421,874.5832Zm-8.1223-18.5025a8.7338,8.7338,0,0,0-2.2654.283,4.8291,4.8291,0,0,0-3.0448,2.18c-1.7766,3.1706,1.026,8.3932,6.12,11.4039h0c3.259,1.9262,6.8295,2.6395,9.5517,1.9065a4.8311,4.8311,0,0,0,3.0452-2.1806c1.7767-3.17-1.026-8.3932-6.12-11.4039A14.72,14.72,0,0,0,424.2987,856.0807Z"/></g><path class="c" d="M532.3283,863.79s41.6-.3938,51.7115-9.9922,15.1061-30.4432,8.2392-24.8848c-6.7092,5.4306-11.4446,14.63-11.4446,14.63s10.1432-20.7906,6.0295-22.4008c-5.9445-2.3268-15.493,16.4369-15.493,16.4369S584.3,811.7677,577.9618,811.88s-16.0188,19.2573-16.0188,19.2573,11.8953-23.8423,4.5366-23.54-12.5749,19.2685-18.682,17.41-26.1413-1.6043-31.4826,4.7733Z"/><path class="d" d="M572.6967,850.3541l-.0413-1.0278c4.0425-.1644,7.705-5.9961,7.7415-6.0555l.875.5427C581.1106,844.0732,577.2788,850.1682,572.6967,850.3541Z"/><path class="d" d="M562.0647,845.5978l-.2436-.999c5.8718-1.4313,9.3861-7.2253,9.4211-7.2837l.8845.5265C571.9757,838.0949,568.3636,844.0632,562.0647,845.5978Z"/><path class="d" d="M553.4329,838.3914c-.0714,0-.1424-.0009-.2142-.0045l.0449-1.0278c4.2644.21,8.6456-6.75,8.6887-6.82l.8751.5408C562.6406,831.3827,558.25,838.3914,553.4329,838.3914Z"/><path class="c" d="M511.0639,830.5334c.8073-.2758,24.8341-22.9316,30.7942-22.9388s-8.714,26.7487-8.714,26.7487Z"/><path class="c" d="M671.38,697.7936s41.6-.3937,51.7115-9.9921,15.1061-30.4432,8.2391-24.8848c-6.7091,5.4306-11.4445,14.63-11.4445,14.63s10.1432-20.7908,6.0295-22.4009c-5.9445-2.3268-15.493,16.437-15.493,16.437s12.9288-25.8111,6.5909-25.699-16.0188,19.2574-16.0188,19.2574,11.8952-23.8424,4.5365-23.54-12.5748,19.2685-18.682,17.41-26.1412-1.6043-31.4825,4.7734Z"/><path class="c" d="M651.0212,667.0449c3.5857-7.0656,23.9285-25.4392,29.8886-25.4462s-14.2322,37.4941-14.2322,37.4941Z"/><path class="d" d="M675.5746,667.9448c-1.8733-5.2428,1.4339-10.3639,1.5758-10.58l.86.5657c-.0319.0484-3.1652,4.9148-1.4666,9.668Z"/><path class="d" d="M712.53,680.5979a24.8451,24.8451,0,0,1-3.7015-.2973l.1536-1.0179c8.2894,1.2537,10.4489-1.98,10.47-2.0125l.868.5524C720.2355,677.9552,718.4723,680.5979,712.53,680.5979Z"/><path class="d" d="M703.0263,672.7924a21.7856,21.7856,0,0,1-4.882-.5971l.2309-1.0026c11.743,2.6993,14.6-5.082,14.6274-5.1607l.9721.3378C713.9487,666.4449,711.6231,672.7924,703.0263,672.7924Z"/><path class="d" d="M695.4242,666.2315a21.8861,21.8861,0,0,1-4.1692-.4448l.1977-1.01c3.9841.7775,7.1026.4644,9.0176-.9075a4.4254,4.4254,0,0,0,1.8692-2.7654l1.0211.1294a5.445,5.445,0,0,1-2.2623,3.4518A9.4759,9.4759,0,0,1,695.4242,666.2315Z"/><path class="e" d="M1710.7548,1154.9244a.626.626,0,0,1-.5148-.2686l-19.13-27.5029a.6261.6261,0,1,1,1.0278-.7153l19.13,27.5031a.6262.6262,0,0,1-.513.9837Z"/><path class="e" d="M1728.7828,1160.5145a.6263.6263,0,0,1-.51-.2623l-23.6756-33.0931a.626.626,0,1,1,1.0188-.7277l23.6756,33.093a.6263.6263,0,0,1-.5085.99Z"/><path class="e" d="M1694.9135,1149.992a.6262.6262,0,0,1-.3729-1.1294c16.0381-11.8646,24.5714-17.8806,25.3629-17.8806a.6259.6259,0,0,1,.1079,1.2425c-1.3819.5472-15.5107,10.8271-24.7269,17.6444A.6227.6227,0,0,1,1694.9135,1149.992Z"/><path class="e" d="M1694.9126,1161.83a.6262.6262,0,0,1-.3944-1.1123c26.6638-21.6641,27.5577-21.0729,28.0339-20.7513a.6263.6263,0,0,1-.407,1.1447c-1.8939.645-17.3955,12.906-26.8381,20.5787A.622.622,0,0,1,1694.9126,1161.83Z"/><path class="b" d="M587.3252,1319.009s-38.0382-39.1572-24.95-61.4589,35.1752,47.9074,35.1752,47.9074-11.4524-83.0195,12.27-84.4612,0,84.4612,0,84.4612,8.7937-20.03,17.383-21.2693,6.1352,16.9848-9.2028,34.8208Z"/><path class="y" d="M590.0393,1319.9836a174.8514,174.8514,0,0,1-19.8986-25.601c-12.15-19.4089-15.0448-34.8144-8.6035-45.7907,2.4034-4.0959,5.2986-5.9926,8.5842-5.608,6.6606.7556,14.1576,10.9232,22.9205,31.0832,2.6234,6.0367,4.9481,12.0706,6.7724,17.07-2.0979-21.7809-4.5232-65.1242,7.382-79.6519a12.75,12.75,0,0,1,9.2768-5.042,9.72,9.72,0,0,1,8.5653,3.733c10.722,13.23,1.0835,60.348-4.2159,82.3992,3.9459-6.4481,9.5378-13.6211,15.2523-14.4459a5.5652,5.5652,0,0,1,6.0609,2.8318c3.4975,6.3735-1.2466,22.6892-15.2394,38.96l-2.12-1.8239c13.761-16.002,17.5-31.067,14.9078-35.79a2.7884,2.7884,0,0,0-3.21-1.4088c-7.3555,1.0611-15.9464,17.1808-18.6359,23.3028l-2.6283-.9344c.052-.1895,5.263-19.1546,8.7521-39.8995,4.5636-27.13,4.184-44.9147-1.0966-51.4311a6.9746,6.9746,0,0,0-6.2226-2.7007,9.9352,9.9352,0,0,0-7.2831,4.0232c-15.04,18.3533-5.4329,89.4727-5.3341,90.1887l-2.72.611c-4.9662-15.7838-20.3061-57.0256-31.5-58.2952-2.123-.24-4.0389,1.1483-5.8564,4.2452-14.1365,24.088,27.6723,67.59,28.0959,68.0261Z"/><path class="b" d="M664.2245,1416.18s-28.0527-28.8781-18.4-45.3254,25.9413,35.3312,25.9413,35.3312-8.446-61.2259,9.0493-62.2892,0,62.2892,0,62.2892,6.4852-14.7721,12.82-15.6858,4.5246,12.5261-6.787,25.68Z"/><path class="y" d="M666.2259,1416.8989a128.8631,128.8631,0,0,1-14.675-18.8807c-8.9606-14.3139-11.0953-25.6763-6.3448-33.77,1.7726-3.02,3.8969-4.4051,6.3308-4.1364,4.9118.558,10.4412,8.0562,16.9037,22.9245,1.9348,4.4517,3.6495,8.9018,4.9944,12.589-1.5472-16.0632-3.3359-48.0287,5.4445-58.7426a9.4027,9.4027,0,0,1,6.8416-3.7186,7.1711,7.1711,0,0,1,6.3169,2.7528c7.9067,9.7579.7987,44.5059-3.109,60.7685,2.91-4.7563,7.0334-10.0454,11.248-10.6528a4.0956,4.0956,0,0,1,4.47,2.0879c2.5794,4.7-.9191,16.7325-11.2386,28.733l-1.5642-1.3458c10.1488-11.8011,12.9062-22.9111,10.9947-26.3944a2.0606,2.0606,0,0,0-2.3669-1.0394c-5.4248.7825-11.7606,12.6706-13.7439,17.1862l-1.9383-.69c.0386-.1392,3.8812-14.1262,6.4548-29.4256,3.3651-20.0073,3.0852-33.1237-.8091-37.9294a5.1276,5.1276,0,0,0-4.5892-1.9918,7.3306,7.3306,0,0,0-5.3713,2.9666c-11.0921,13.5359-4.0066,65.9857-3.9339,66.514l-2.0052.4511c-3.6625-11.6411-14.9761-42.0568-23.2314-42.993-1.5678-.1859-2.9788.8463-4.3192,3.13-10.43,17.7719,20.408,49.848,20.7206,50.17Z"/><path class="b" d="M1487.1541,1323.1672s-28.0527-28.878-18.4-45.3253,25.9413,35.3312,25.9413,35.3312-8.446-61.2259,9.0493-62.2892,0,62.2892,0,62.2892,6.4852-14.7721,12.82-15.6858,4.5246,12.526-6.787,25.68Z"/><path class="y" d="M1489.156,1323.8864a128.8054,128.8054,0,0,1-14.6751-18.8807c-8.9609-14.3138-11.0956-25.6764-6.3447-33.77,1.7717-3.02,3.9118-4.4041,6.33-4.1364,4.9118.558,10.4416,8.0564,16.9031,22.9246,1.9354,4.4509,3.6495,8.9008,4.9945,12.588-1.5471-16.0632-3.335-48.0278,5.4445-58.7416a9.4046,9.4046,0,0,1,6.8416-3.7187,7.1654,7.1654,0,0,1,6.317,2.7528c7.9071,9.7571.8,44.505-3.1086,60.7677,2.91-4.7555,7.0329-10.0446,11.2475-10.6519a4.0973,4.0973,0,0,1,4.47,2.088c2.5794,4.7-.9191,16.7316-11.2386,28.732l-1.5632-1.3441c10.1479-11.8027,12.9051-22.9129,10.9932-26.3951a2.06,2.06,0,0,0-2.3665-1.04c-5.4292.7826-11.7613,12.6707-13.7433,17.1845l-1.9388-.6891c.0385-.1393,3.8821-14.1253,6.4553-29.4248,3.3655-20.0082,3.0852-33.1235-.81-37.9293a5.1373,5.1373,0,0,0-4.5884-1.9918,7.3294,7.3294,0,0,0-5.3717,2.9666c-11.0921,13.5349-4.0071,65.9849-3.9343,66.5131l-2.0054.451c-3.6619-11.641-14.9751-42.0559-23.23-42.992-1.583-.1851-2.98.8472-4.32,3.13-10.4255,17.7648,20.408,49.848,20.7207,50.17Z"/><path class="b" d="M1271.1868,1421.5473s-36.9159-38.0019-24.2137-59.6457,34.1374,46.494,34.1374,46.494-11.1146-80.57,11.9083-81.9694,0,81.9694,0,81.9694,8.5343-19.4394,16.87-20.6417,5.9541,16.4836-8.9313,33.7934Z"/><path class="y" d="M1273.82,1422.4935a169.626,169.626,0,0,1-19.311-24.8463c-11.792-18.8357-14.6014-33.7875-8.35-44.4394,2.3324-3.9738,5.1328-5.803,8.3312-5.4427,10.8334,1.229,22.6991,29.7032,28.83,46.6361-.6433-6.7869-1.3207-15.7092-1.57-25.0934-.7053-26.6576,2.2289-44.1905,8.7211-52.1121a12.3747,12.3747,0,0,1,9.0023-4.8938,9.4222,9.4222,0,0,1,8.3132,3.6225c10.4058,12.84,1.0512,58.5674-4.0914,79.9682,3.8291-6.2577,9.2557-13.2188,14.8017-14.0183a5.3926,5.3926,0,0,1,5.8821,2.7483c3.3943,6.1848-1.2093,22.018-14.7892,37.81l-2.0574-1.77c13.3544-15.53,16.9823-30.1506,14.4676-34.7345a2.7175,2.7175,0,0,0-3.115-1.3674c-7.1389,1.0295-15.4764,16.6741-18.0864,22.6146l-2.5506-.9066c.05-.1832,5.1075-18.5887,8.4938-38.7226,4.4293-26.3287,4.0609-43.5886-1.0647-49.9128a6.758,6.758,0,0,0-6.0384-2.6216,9.6411,9.6411,0,0,0-7.068,3.9047c-14.5969,17.8124-5.2729,86.8331-5.1768,87.5284l-2.64.5921c-4.82-15.3174-19.7072-55.3429-30.5711-56.5746-2.0538-.2336-3.919,1.1141-5.6835,4.12-13.7255,23.3864,26.8561,65.5958,27.2675,66.019Z"/><path class="b" d="M1822.772,1346.6888s-24.7566-25.4849-16.2382-40,22.8932,31.18,22.8932,31.18-7.4536-54.0319,7.9859-54.97,0,54.97,0,54.97,5.7234-13.0363,11.3135-13.8427,3.993,11.0543-5.9895,22.6626Z"/><path class="y" d="M1824.5383,1347.323a113.6892,113.6892,0,0,1-12.95-16.6624c-7.9081-12.632-9.7921-22.6586-5.6-29.8021,1.5642-2.6648,3.4366-3.8991,5.5874-3.6494,4.3341.4914,9.2135,7.1084,14.9167,20.23,1.7071,3.928,3.22,7.8551,4.4078,11.1092-1.3656-14.1755-2.9433-42.3856,4.8049-51.84a8.2978,8.2978,0,0,1,6.0375-3.2811,6.32,6.32,0,0,1,5.5739,2.4285c6.9781,8.6115.7052,39.2771-2.7438,53.6287,2.5686-4.1967,6.2081-8.8659,9.9268-9.4022a3.6183,3.6183,0,0,1,3.945,1.8436c2.2766,4.1472-.8113,14.7659-9.9179,25.3566l-1.38-1.1877c8.9557-10.4148,11.3886-20.2194,9.7023-23.2929a1.8173,1.8173,0,0,0-2.0889-.9173c-4.7914.6909-10.38,11.1819-12.1289,15.1656l-1.7115-.6082c.0341-.1231,3.4257-12.4658,5.6969-25.9676,2.9694-17.657,2.7232-29.2316-.7142-33.4721a4.5554,4.5554,0,0,0-4.05-1.7583,6.4679,6.4679,0,0,0-4.7392,2.618c-9.7867,11.9421-3.5363,58.2322-3.4716,58.6986l-1.77.397c-3.2326-10.2727-13.216-37.1135-20.5015-37.94-1.3764-.1546-2.6288.7466-3.8111,2.7627-9.2045,15.6839,18.01,43.99,18.2859,44.274Z"/><path class="b" d="M243.7716,1337.4392s-21.8-22.4415-14.299-35.2229,20.1592,27.4563,20.1592,27.4563-6.5634-47.5794,7.0323-48.4057,0,48.4057,0,48.4057,5.04-11.48,9.9624-12.19,3.5162,9.7343-5.2741,19.9563Z"/><path class="y" d="M245.3268,1337.9982a100.1715,100.1715,0,0,1-11.4039-14.6733c-6.9633-11.1227-8.6223-19.9525-4.9306-26.2434,1.3773-2.3467,3.03-3.4311,4.92-3.2137,3.817.433,8.1137,6.26,13.1355,17.8142,1.5036,3.46,2.8359,6.918,3.8813,9.7831-1.2021-12.4829-2.592-37.3229,4.2312-45.6487a7.3054,7.3054,0,0,1,5.3165-2.8894,5.5637,5.5637,0,0,1,4.9086,2.1383c6.1448,7.5819.6212,34.5863-2.4159,47.2246,2.2614-3.6962,5.4661-7.8066,8.7409-8.2792a3.1827,3.1827,0,0,1,3.4733,1.6226c2.0049,3.6522-.7137,13.0031-8.7332,22.3289l-1.2155-1.0458c7.8868-9.1713,10.0291-17.8052,8.5436-20.5113a1.6027,1.6027,0,0,0-1.8391-.8077c-4.2155.6074-9.1389,9.8469-10.68,13.3552l-1.5067-.5354c.03-.1087,3.0165-10.978,5.0159-22.8679,2.6154-15.5484,2.398-25.74-.6284-29.475a4.0085,4.0085,0,0,0-3.5663-1.548,5.6953,5.6953,0,0,0-4.1738,2.3062c-8.62,10.518-3.1139,51.2774-3.0573,51.688l-1.5583.35c-2.8463-9.0463-11.6379-32.6824-18.0533-33.41-1.2084-.141-2.3139.6577-3.3561,2.433-8.1021,13.8045,15.8588,38.737,16.1018,38.9868Z"/></svg>