<svg width="147" height="89" viewBox="0 0 147 89" fill="none" xmlns="http://www.w3.org/2000/svg">
<path d="M41.504 73.992V85H39.984V80.152H34.848V85H33.312V73.992H34.848V78.792H39.984V73.992H41.504ZM45.7245 85.176C44.9672 85.176 44.3912 84.9627 43.9965 84.536C43.6018 84.1093 43.4045 83.496 43.4045 82.696C43.4045 81.9067 43.6072 81.3307 44.0125 80.968C44.4178 80.5947 45.0632 80.3653 45.9485 80.28L48.2205 80.072V79.448C48.2205 78.9787 48.1192 78.6427 47.9165 78.44C47.7138 78.2267 47.4152 78.12 47.0205 78.12C46.1245 78.12 45.0898 78.184 43.9165 78.312L43.8685 77.224C44.9992 76.9573 46.0498 76.824 47.0205 76.824C47.9592 76.824 48.6418 77.0373 49.0685 77.464C49.4952 77.88 49.7085 78.5413 49.7085 79.448V83.304C49.7298 83.5173 49.7992 83.6827 49.9165 83.8C50.0445 83.9067 50.2418 83.9813 50.5085 84.024L50.4605 85.176C50.0018 85.176 49.6125 85.1227 49.2925 85.016C48.9725 84.92 48.6898 84.7653 48.4445 84.552C47.5378 84.968 46.6312 85.176 45.7245 85.176ZM45.9965 83.928C46.6472 83.928 47.2765 83.8267 47.8845 83.624L48.2205 83.512V81.16L46.1405 81.352C45.7245 81.3947 45.4152 81.5227 45.2125 81.736C45.0205 81.9387 44.9245 82.2427 44.9245 82.648C44.9245 83.5013 45.2818 83.928 45.9965 83.928ZM51.979 77H53.451V77.528C53.9097 77.272 54.3257 77.0907 54.699 76.984C55.0723 76.8773 55.467 76.824 55.883 76.824C56.555 76.824 57.083 76.9573 57.467 77.224C57.851 77.4907 58.123 77.9067 58.283 78.472C58.443 79.0267 58.523 79.784 58.523 80.744V85H57.035V80.776C57.035 80.104 56.9923 79.5867 56.907 79.224C56.8323 78.8507 56.683 78.584 56.459 78.424C56.2457 78.2533 55.931 78.168 55.515 78.168C54.9497 78.168 54.3577 78.2907 53.739 78.536L53.467 78.664V85H51.979V77ZM63.1789 85.176C62.1442 85.176 61.4029 84.8453 60.9549 84.184C60.5069 83.512 60.2829 82.4933 60.2829 81.128C60.2829 79.6133 60.5495 78.52 61.0829 77.848C61.6162 77.1653 62.4695 76.824 63.6429 76.824C64.2082 76.824 64.8322 76.8987 65.5149 77.048V73.608H67.0029V85H65.5149V84.52C64.6829 84.9573 63.9042 85.176 63.1789 85.176ZM63.4829 83.832C63.7389 83.832 64.0322 83.7947 64.3629 83.72C64.6935 83.6453 64.9815 83.56 65.2269 83.464L65.5149 83.352V78.312C64.8535 78.184 64.2882 78.12 63.8189 78.12C63.0829 78.12 62.5655 78.344 62.2669 78.792C61.9682 79.24 61.8189 79.992 61.8189 81.048C61.8189 82.008 61.9415 82.712 62.1869 83.16C62.4429 83.608 62.8749 83.832 63.4829 83.832ZM71.6678 85H70.3718L68.1958 77H69.6838L71.5078 83.72H71.9878L73.8278 77H75.3158L72.1478 88.488H70.6758L71.6678 85Z" fill="#272567"/>
<path d="M85.504 73.992V85H83.984V80.152H78.848V85H77.312V73.992H78.848V78.792H83.984V73.992H85.504ZM90.8784 85.176C89.6517 85.176 88.777 84.8613 88.2544 84.232C87.7317 83.592 87.4704 82.584 87.4704 81.208C87.4704 79.7253 87.7477 78.6267 88.3024 77.912C88.8677 77.1867 89.737 76.824 90.9104 76.824C93.0864 76.824 94.1744 78.0613 94.1744 80.536L94.0784 81.624H88.9744C88.985 82.2 89.0597 82.648 89.1984 82.968C89.337 83.2773 89.561 83.5013 89.8704 83.64C90.1797 83.7787 90.617 83.848 91.1824 83.848C91.513 83.848 91.8864 83.8427 92.3024 83.832C92.7184 83.8107 93.0917 83.784 93.4224 83.752L93.8704 83.704L93.9024 84.856C92.6544 85.0693 91.6464 85.176 90.8784 85.176ZM92.6864 80.456C92.6864 79.592 92.5477 78.9787 92.2704 78.616C92.0037 78.2533 91.5504 78.072 90.9104 78.072C90.2384 78.072 89.7477 78.264 89.4384 78.648C89.129 79.0213 88.969 79.624 88.9584 80.456H92.6864ZM97.7558 85.176C96.9984 85.176 96.4224 84.9627 96.0278 84.536C95.6331 84.1093 95.4358 83.496 95.4358 82.696C95.4358 81.9067 95.6384 81.3307 96.0438 80.968C96.4491 80.5947 97.0944 80.3653 97.9798 80.28L100.252 80.072V79.448C100.252 78.9787 100.15 78.6427 99.9478 78.44C99.7451 78.2267 99.4464 78.12 99.0518 78.12C98.1558 78.12 97.1211 78.184 95.9478 78.312L95.8997 77.224C97.0304 76.9573 98.0811 76.824 99.0518 76.824C99.9904 76.824 100.673 77.0373 101.1 77.464C101.526 77.88 101.74 78.5413 101.74 79.448V83.304C101.761 83.5173 101.83 83.6827 101.948 83.8C102.076 83.9067 102.273 83.9813 102.54 84.024L102.492 85.176C102.033 85.176 101.644 85.1227 101.324 85.016C101.004 84.92 100.721 84.7653 100.476 84.552C99.5691 84.968 98.6624 85.176 97.7558 85.176ZM98.0278 83.928C98.6784 83.928 99.3078 83.8267 99.9158 83.624L100.252 83.512V81.16L98.1718 81.352C97.7558 81.3947 97.4464 81.5227 97.2438 81.736C97.0518 81.9387 96.9557 82.2427 96.9557 82.648C96.9557 83.5013 97.3131 83.928 98.0278 83.928ZM104.01 77H105.482V78.008C106.432 77.4 107.37 77.0053 108.298 76.824V78.328C107.882 78.4133 107.45 78.5307 107.002 78.68C106.554 78.8293 106.181 78.9733 105.882 79.112L105.498 79.288V85H104.01V77ZM112.259 85.176C111.693 85.176 111.251 85.0853 110.931 84.904C110.621 84.7227 110.397 84.4187 110.259 83.992C110.12 83.5653 110.051 82.9733 110.051 82.216V78.28H108.979V77H110.051V74.616H111.539V77H113.891V78.28H111.539V81.944C111.539 82.4453 111.555 82.824 111.587 83.08C111.629 83.3253 111.72 83.5173 111.859 83.656C111.997 83.784 112.221 83.848 112.531 83.848L113.891 83.768L113.987 84.984C113.24 85.112 112.664 85.176 112.259 85.176Z" fill="#A6202C"/>
<path d="M36.7658 25.4832C36.7307 25.5647 36.7038 25.6496 36.6857 25.7365C36.4656 26.2815 36.2366 26.8236 35.9988 27.3628L35.3889 28.7023C35.3914 28.7295 35.276 28.8826 35.2824 28.9073C34.9352 29.6216 34.5669 30.3251 34.1775 31.0176L33.7524 31.7447C33.3738 32.3737 32.9752 32.991 32.5519 33.59C30.6368 36.2831 28.3038 38.6528 25.6409 40.6096C25.1802 40.9504 25.6551 41.7078 26.1168 41.3649C29.0884 39.1961 31.6571 36.5235 33.7065 33.4683C35.2411 31.1014 36.5308 28.5844 37.5557 25.9563C37.5781 25.908 37.5981 25.8587 37.6156 25.8085C37.7691 25.4218 37.9188 25.034 38.0647 24.645C39.0387 22.0464 39.8282 19.3798 40.876 16.8084C41.9305 14.2187 43.2177 11.576 45.2631 9.62161C46.8559 8.09902 49.138 5.83348 51.1912 7.6591C53.1774 9.42335 52.349 12.2046 51.8686 14.5785C51.2269 17.7461 49.7826 20.6628 48.2406 23.4752C46.7078 26.2671 45.7641 29.3733 44.3798 32.2435C43.0766 34.9472 42.7302 38.2047 42.871 41.246C42.8666 41.2829 42.8669 41.3203 42.8717 41.3571C42.8738 41.3744 42.8762 41.3917 42.8784 41.4097C42.8781 41.4144 42.8786 41.4192 42.8798 41.4238C42.8804 41.4357 42.8819 41.4475 42.8844 41.4591C43.5469 46.6911 44.8359 52.6312 42.467 57.6153C41.2193 60.2399 39.2402 62.3749 37.441 64.6197C36.518 65.7063 35.6943 66.8735 34.9797 68.1072C34.3101 69.3462 33.6874 70.6088 33.0503 71.8647C31.5658 74.7938 29.9191 77.6118 27.4472 79.8191C25.0935 81.9335 22.4897 83.7515 19.6938 85.2325C16.8906 86.7053 13.9315 87.6673 10.952 88.7006C10.7618 88.7666 10.5713 88.8326 10.3812 88.8999L0 69.9911C0.790828 69.5976 1.55505 69.1527 2.28776 68.6594C4.89856 66.8905 6.99898 64.467 8.37882 61.6313C9.82486 58.7188 10.8024 55.5533 11.6089 52.4101C12.5106 48.8929 13.245 45.3369 14.03 41.7932C14.8121 38.2697 15.6316 34.7387 16.7284 31.2995C17.7916 27.9696 19.1738 24.535 21.4348 21.8278C21.4561 21.8023 21.4749 21.7747 21.4909 21.7456C24.7135 19.7393 28.3337 18.5632 31.9211 17.3976C33.71 16.8162 35.5025 16.2377 37.254 15.5498C38.6376 15.0513 39.9789 14.4427 41.2651 13.7298C39.6991 16.788 38.7293 20.1923 37.5698 23.4245L36.7658 25.4832Z" fill="#362F90"/>
<path d="M69.8912 3.05176e-05C68.5274 0.37468 67.2055 0.977225 65.8854 1.47185C64.293 2.06731 62.7182 2.7101 61.1529 3.37223C58.2432 4.60237 55.3667 5.90518 52.4637 7.15083C53.3023 8.2069 53.8091 9.48778 53.9203 10.8317C54.1341 12.7882 53.7245 14.8043 53.0715 16.7079C55.0432 16.3499 56.5696 14.8181 58.0792 13.5989C59.8367 12.1765 61.8698 11.3665 63.8997 10.4211C65.8999 9.48975 67.8546 8.36439 69.0361 6.42588C70.1399 4.61436 70.7912 2.02145 69.8912 3.05176e-05" fill="#362F90"/>
<path d="M72.4909 4.31361C71.9346 4.26542 71.3743 4.29929 70.8279 4.41416C70.6602 4.99379 70.452 5.56092 70.2049 6.11137C69.1882 8.40266 67.105 9.84164 64.9358 10.9123C62.7606 11.9865 60.4989 12.7827 58.5904 14.3258C56.8187 15.7591 55.1109 17.3953 52.7456 17.6528C52.739 17.6538 52.7324 17.6543 52.7258 17.6543C52.4866 18.2674 52.2287 18.8643 51.9649 19.44C51.8749 19.6369 51.7828 19.8324 51.6886 20.0267C53.7855 19.451 55.6923 18.3535 57.5546 17.2359C59.5857 15.9952 61.6909 14.8803 63.8584 13.8972C66.0544 12.9217 68.3359 11.9431 70.1308 10.2981C71.7183 8.84187 73.1883 6.52024 72.4909 4.31361" fill="#272567"/>
<path d="M70.1115 11.5085C68.6207 12.709 66.8148 13.5448 65.1 14.3159C63.9651 14.8272 62.8214 15.3154 61.7091 15.8766C60.5424 16.4647 59.4252 17.153 58.3062 17.8271C56.0643 19.1786 53.7522 20.5365 51.1638 21.0706C50.4036 22.5241 49.5569 23.9309 48.7004 25.3307C50.653 24.7063 52.4769 23.7302 54.3036 22.8027C56.3945 21.7797 58.5488 20.8919 60.7534 20.1446C62.9043 19.3745 65.0573 18.4875 66.7877 16.9508C68.3961 15.4942 69.5502 13.6046 70.1115 11.5085" fill="#272567"/>
<path d="M109.284 25.4832C109.319 25.5647 109.346 25.6496 109.364 25.7365C109.585 26.2815 109.813 26.8236 110.051 27.3628L110.661 28.7023C110.659 28.7295 110.774 28.8826 110.768 28.9073C111.115 29.6216 111.483 30.3251 111.873 31.0176L112.298 31.7447C112.676 32.3737 113.075 32.991 113.498 33.59C115.413 36.2831 117.746 38.6528 120.409 40.6096C120.87 40.9504 120.395 41.7078 119.933 41.3649C116.962 39.1962 114.393 36.5236 112.344 33.4683C110.809 31.1015 109.519 28.5845 108.494 25.9563C108.472 25.9081 108.452 25.8588 108.435 25.8085C108.281 25.4218 108.131 25.034 107.985 24.645C107.012 22.0464 106.222 19.3798 105.174 16.8084C104.119 14.2187 102.833 11.576 100.787 9.62161C99.1942 8.09902 96.9121 5.83348 94.8589 7.6591C92.8727 9.42335 93.7011 12.2046 94.1816 14.5785C94.8233 17.7461 96.2675 20.6628 97.8095 23.4752C99.3423 26.2671 100.286 29.3733 101.67 32.2435C102.973 34.9472 103.32 38.2047 103.179 41.246C103.183 41.283 103.183 41.3203 103.178 41.3571C103.176 41.3744 103.174 41.3917 103.172 41.4097C103.172 41.4144 103.172 41.4192 103.17 41.4238C103.17 41.4357 103.168 41.4475 103.166 41.4591C102.503 46.6911 101.214 52.6312 103.583 57.6153C104.831 60.2399 106.81 62.3749 108.609 64.6197C109.532 65.7064 110.356 66.8736 111.07 68.1072C111.74 69.3462 112.363 70.6088 113 71.8647C114.484 74.7938 116.131 77.6118 118.603 79.8191C120.957 81.9334 123.56 83.7514 126.356 85.2325C129.159 86.7053 132.119 87.6673 135.098 88.7006C135.288 88.7666 135.479 88.8326 135.669 88.8999L146.05 69.9911C145.259 69.5977 144.495 69.1528 143.762 68.6594C141.151 66.8905 139.051 64.467 137.671 61.6313C136.225 58.7188 135.248 55.5533 134.441 52.4101C133.539 48.8929 132.805 45.3369 132.02 41.7932C131.238 38.2697 130.418 34.7387 129.322 31.2995C128.258 27.9696 126.876 24.535 124.615 21.8278C124.594 21.8023 124.575 21.7747 124.559 21.7456C121.336 19.7393 117.716 18.5632 114.129 17.3976C112.34 16.8162 110.547 16.2377 108.796 15.5498C107.412 15.0514 106.071 14.4428 104.785 13.7298C106.351 16.788 107.321 20.1923 108.48 23.4245L109.284 25.4832Z" fill="#362F90"/>
<path d="M76.1589 3.05176e-05C77.5227 0.37468 78.8446 0.977225 80.1647 1.47185C81.7575 2.06731 83.3319 2.7101 84.8972 3.37223C87.8066 4.60237 90.6834 5.90518 93.5865 7.15083C92.7479 8.2069 92.241 9.48778 92.1298 10.8317C91.9161 12.7882 92.3256 14.8043 92.9786 16.7079C91.0069 16.3499 89.4801 14.8181 87.9713 13.5989C86.2131 12.1765 84.1807 11.3665 82.1508 10.4211C80.1502 9.48975 78.1955 8.36439 77.014 6.42588C75.9102 4.61436 75.259 2.02145 76.1589 3.05176e-05" fill="#362F90"/>
<path d="M73.5592 4.31361C74.1155 4.26542 74.6758 4.29929 75.2222 4.41416C75.3899 4.99379 75.5981 5.56092 75.8452 6.11137C76.8619 8.40266 78.9447 9.84164 81.1143 10.9123C83.2895 11.9865 85.5516 12.7827 87.4601 14.3258C89.2314 15.7591 90.9392 17.3953 93.3046 17.6528C93.3111 17.6538 93.3177 17.6543 93.3243 17.6543C93.5635 18.2674 93.8214 18.8643 94.0852 19.44C94.1752 19.6369 94.2673 19.8324 94.3615 20.0267C92.2646 19.451 90.3578 18.3535 88.4951 17.2359C86.4642 15.9952 84.3591 14.8802 82.1917 13.8972C79.9957 12.9217 77.7143 11.9431 75.9193 10.2981C74.3318 8.84187 72.8618 6.52024 73.5592 4.31361" fill="#272567"/>
<path d="M75.9386 11.5085C77.4294 12.709 79.2356 13.5448 80.9501 14.3159C82.085 14.8272 83.2287 15.3154 84.3407 15.8766C85.5077 16.4647 86.6246 17.153 87.7443 17.8271C89.9858 19.1786 92.2979 20.5365 94.8863 21.0706C95.6465 22.5241 96.4932 23.9309 97.3497 25.3307C95.3971 24.7063 93.5732 23.7302 91.7469 22.8027C89.6558 21.7798 87.5013 20.8919 85.2967 20.1446C83.1458 19.3745 80.9928 18.4875 79.2628 16.9508C77.6542 15.4944 76.4999 13.6047 75.9386 11.5085" fill="#272567"/>
<path d="M73.025 65.8053C73.025 65.8053 78.9823 55.2146 87.0613 53.5269C95.1403 51.8392 100.602 49.2872 101.098 39.4235C101.594 29.5599 92.3371 25.3308 87.5337 25.3308C82.7302 25.3308 73.025 28.2966 73.025 39.4235" fill="#A6202C"/>
<path d="M88 49C93.5228 49 98 44.5228 98 39C98 33.4772 93.5228 29 88 29C82.4771 29 78 33.4772 78 39C78 44.5228 82.4771 49 88 49Z" fill="url(#paint0_radial)"/>
<path d="M73.025 65.8053C73.025 65.8053 67.068 55.2146 58.9883 53.5269C50.9093 51.8392 45.4487 49.2872 44.952 39.4235C44.4553 29.5599 53.7129 25.3308 58.5163 25.3308C63.3197 25.3308 73.025 28.2966 73.025 39.4235" fill="#D82927"/>
<path d="M46.5001 38.2566C46.5001 38.2566 45.5356 32.1419 51.6746 29.5151C51.6746 29.5151 52.0958 29.3867 51.917 29.7716C51.7381 30.1565 47.0514 31.5672 46.9086 38.2566C46.9086 38.2566 46.6838 38.9131 46.5001 38.2566" fill="white"/>
<defs>
<radialGradient id="paint0_radial" cx="0" cy="0" r="1" gradientUnits="userSpaceOnUse" gradientTransform="translate(88 39) scale(10)">
<stop stop-color="#F3797B"/>
<stop offset="0.03" stop-color="#F3797B"/>
<stop offset="0.16" stop-color="#E5696D"/>
<stop offset="0.53" stop-color="#C3414A"/>
<stop offset="0.82" stop-color="#AE2934"/>
<stop offset="1" stop-color="#A6202C"/>
</radialGradient>
</defs>
</svg>
