<svg width="174" height="30" viewBox="0 0 174 30" fill="none" xmlns="http://www.w3.org/2000/svg">
<path d="M130.256 7.488V24H127.976V16.728H120.272V24H117.968V7.488H120.272V14.688H127.976V7.488H130.256ZM138.318 24.264C136.478 24.264 135.166 23.792 134.382 22.848C133.598 21.888 133.206 20.376 133.206 18.312C133.206 16.088 133.622 14.44 134.454 13.368C135.302 12.28 136.606 11.736 138.366 11.736C141.63 11.736 143.262 13.592 143.262 17.304L143.118 18.936H135.462C135.478 19.8 135.59 20.472 135.798 20.952C136.006 21.416 136.342 21.752 136.806 21.96C137.27 22.168 137.926 22.272 138.774 22.272C139.27 22.272 139.83 22.264 140.454 22.248C141.078 22.216 141.638 22.176 142.134 22.128L142.806 22.056L142.854 23.784C140.982 24.104 139.47 24.264 138.318 24.264ZM141.03 17.184C141.03 15.888 140.822 14.968 140.406 14.424C140.006 13.88 139.326 13.608 138.366 13.608C137.358 13.608 136.622 13.896 136.158 14.472C135.694 15.032 135.454 15.936 135.438 17.184H141.03ZM148.634 24.264C147.498 24.264 146.634 23.944 146.042 23.304C145.45 22.664 145.154 21.744 145.154 20.544C145.154 19.36 145.458 18.496 146.066 17.952C146.674 17.392 147.642 17.048 148.97 16.92L152.378 16.608V15.672C152.378 14.968 152.226 14.464 151.922 14.16C151.618 13.84 151.17 13.68 150.578 13.68C149.234 13.68 147.682 13.776 145.922 13.968L145.85 12.336C147.546 11.936 149.122 11.736 150.578 11.736C151.986 11.736 153.01 12.056 153.65 12.696C154.29 13.32 154.61 14.312 154.61 15.672V21.456C154.642 21.776 154.746 22.024 154.922 22.2C155.114 22.36 155.41 22.472 155.81 22.536L155.738 24.264C155.05 24.264 154.466 24.184 153.986 24.024C153.506 23.88 153.082 23.648 152.714 23.328C151.354 23.952 149.994 24.264 148.634 24.264ZM149.042 22.392C150.018 22.392 150.962 22.24 151.874 21.936L152.378 21.768V18.24L149.258 18.528C148.634 18.592 148.17 18.784 147.866 19.104C147.578 19.408 147.434 19.864 147.434 20.472C147.434 21.752 147.97 22.392 149.042 22.392ZM158.015 12H160.223V13.512C161.647 12.6 163.055 12.008 164.447 11.736V13.992C163.823 14.12 163.175 14.296 162.503 14.52C161.831 14.744 161.271 14.96 160.823 15.168L160.247 15.432V24H158.015V12ZM170.388 24.264C169.54 24.264 168.876 24.128 168.396 23.856C167.932 23.584 167.596 23.128 167.388 22.488C167.18 21.848 167.076 20.96 167.076 19.824V13.92H165.468V12H167.076V8.424H169.308V12H172.836V13.92H169.308V19.416C169.308 20.168 169.332 20.736 169.38 21.12C169.444 21.488 169.58 21.776 169.788 21.984C169.996 22.176 170.332 22.272 170.796 22.272L172.836 22.152L172.98 23.976C171.86 24.168 170.996 24.264 170.388 24.264Z" fill="#A6202C"/>
<path d="M64.256 7.488V24H61.976V16.728H54.272V24H51.968V7.488H54.272V14.688H61.976V7.488H64.256ZM70.5868 24.264C69.4508 24.264 68.5868 23.944 67.9948 23.304C67.4028 22.664 67.1068 21.744 67.1068 20.544C67.1068 19.36 67.4108 18.496 68.0188 17.952C68.6268 17.392 69.5948 17.048 70.9228 16.92L74.3308 16.608V15.672C74.3308 14.968 74.1788 14.464 73.8748 14.16C73.5708 13.84 73.1228 13.68 72.5308 13.68C71.1868 13.68 69.6348 13.776 67.8748 13.968L67.8027 12.336C69.4988 11.936 71.0748 11.736 72.5308 11.736C73.9388 11.736 74.9628 12.056 75.6028 12.696C76.2428 13.32 76.5628 14.312 76.5628 15.672V21.456C76.5948 21.776 76.6988 22.024 76.8748 22.2C77.0668 22.36 77.3628 22.472 77.7628 22.536L77.6908 24.264C77.0028 24.264 76.4188 24.184 75.9388 24.024C75.4588 23.88 75.0348 23.648 74.6668 23.328C73.3068 23.952 71.9468 24.264 70.5868 24.264ZM70.9948 22.392C71.9708 22.392 72.9148 22.24 73.8268 21.936L74.3308 21.768V18.24L71.2108 18.528C70.5868 18.592 70.1228 18.784 69.8188 19.104C69.5308 19.408 69.3867 19.864 69.3867 20.472C69.3867 21.752 69.9228 22.392 70.9948 22.392ZM79.9685 12H82.1765V12.792C82.8645 12.408 83.4885 12.136 84.0485 11.976C84.6085 11.816 85.2005 11.736 85.8245 11.736C86.8325 11.736 87.6245 11.936 88.2005 12.336C88.7765 12.736 89.1845 13.36 89.4245 14.208C89.6645 15.04 89.7845 16.176 89.7845 17.616V24H87.5525V17.664C87.5525 16.656 87.4885 15.88 87.3605 15.336C87.2485 14.776 87.0245 14.376 86.6885 14.136C86.3685 13.88 85.8965 13.752 85.2725 13.752C84.4245 13.752 83.5365 13.936 82.6085 14.304L82.2005 14.496V24H79.9685V12ZM96.7683 24.264C95.2163 24.264 94.1043 23.768 93.4323 22.776C92.7603 21.768 92.4243 20.24 92.4243 18.192C92.4243 15.92 92.8243 14.28 93.6243 13.272C94.4243 12.248 95.7043 11.736 97.4643 11.736C98.3123 11.736 99.2483 11.848 100.272 12.072V6.912H102.504V24H100.272V23.28C99.0243 23.936 97.8563 24.264 96.7683 24.264ZM97.2243 22.248C97.6083 22.248 98.0483 22.192 98.5443 22.08C99.0403 21.968 99.4723 21.84 99.8403 21.696L100.272 21.528V13.968C99.2803 13.776 98.4323 13.68 97.7283 13.68C96.6243 13.68 95.8483 14.016 95.4003 14.688C94.9523 15.36 94.7283 16.488 94.7283 18.072C94.7283 19.512 94.9123 20.568 95.2803 21.24C95.6643 21.912 96.3123 22.248 97.2243 22.248ZM109.502 24H107.558L104.294 12H106.526L109.262 22.08H109.982L112.742 12H114.974L110.222 29.232H108.014L109.502 24Z" fill="#272567"/>
<path d="M24.827 1.45555C24.6384 1.42788 24.4466 1.42788 24.258 1.45555C24.199 1.65221 24.1282 1.84515 24.046 2.03333C23.6545 2.76697 23.0138 3.33805 22.2383 3.64444C21.4748 3.93537 20.7453 4.30792 20.0625 4.75555C19.5214 5.31401 18.8264 5.7006 18.0652 5.86666C17.9871 6.07777 17.8978 6.27777 17.8085 6.46666C17.7742 6.53119 17.7443 6.59802 17.7193 6.66666C18.4262 6.44263 19.1012 6.12894 19.7277 5.73333C20.4222 5.31957 21.1413 4.94851 21.8813 4.62222C22.6586 4.33377 23.3854 3.92505 24.0348 3.41111C24.3413 3.17916 24.5782 2.86809 24.7199 2.51162C24.8615 2.15515 24.9024 1.76687 24.8382 1.38889" fill="#272567"/>
<path d="M24.0125 3.88888C23.4862 4.26864 22.9169 4.58562 22.3164 4.83333C21.9259 4.99999 21.5354 5.16666 21.2006 5.35555C20.8659 5.54444 20.4195 5.78888 20.0848 6.01111C19.3382 6.52178 18.5073 6.89787 17.63 7.12222C17.3734 7.61111 17.0832 8.08888 16.7931 8.55555C17.4541 8.32449 18.0958 8.04214 18.7123 7.71111C19.4343 7.35988 20.18 7.05915 20.944 6.81111C21.6968 6.57487 22.3974 6.19775 23.0083 5.69999C23.5482 5.20739 23.9354 4.57125 24.1241 3.86666" fill="#272567"/>
<path d="M23.9344 0C23.4657 0.122222 23.0194 0.333333 22.5619 0.5C22.1044 0.666667 21.4461 0.911111 20.944 1.13333L17.9647 2.41111C18.2568 2.76453 18.4322 3.19915 18.4669 3.65556C18.5222 4.3282 18.423 5.00456 18.1767 5.63333C18.8275 5.43214 19.4179 5.07326 19.8951 4.58889C20.5071 4.13608 21.1745 3.76271 21.8813 3.47778C22.5782 3.23717 23.1904 2.80116 23.6443 2.22222C23.8679 1.90207 24.011 1.53308 24.0615 1.14635C24.112 0.759607 24.0684 0.36645 23.9344 0" fill="#362F90"/>
<path d="M12.5865 8.59999C12.5826 8.6295 12.5826 8.65938 12.5865 8.68888L12.3522 9.23333L12.1401 9.68888V9.75555C12.0174 9.99999 11.8947 10.2333 11.7608 10.4667L11.6157 10.7111C11.4818 10.9222 11.3479 11.1333 11.2029 11.3333C10.5481 12.2444 9.7492 13.0437 8.83731 13.7C8.6811 13.8222 8.83731 14.0778 9.00468 13.9556C10.0204 13.224 10.9002 12.3216 11.6046 11.2889C12.1245 10.4887 12.5655 9.64033 12.9212 8.75555L13.0663 8.35555C13.401 7.48888 13.6688 6.58888 14.037 5.71111C14.3597 4.80838 14.8691 3.98317 15.5322 3.28888C16.079 2.77777 16.8601 2.01111 17.563 2.63333C18.266 3.25555 17.9647 4.16666 17.7974 4.96666C17.5372 6.02263 17.1198 7.03385 16.5588 7.96666C16.0344 8.91111 15.7108 9.95555 15.231 10.9222C14.8138 11.8804 14.6377 12.9254 14.7177 13.9667V14.0222C14.952 15.7889 15.3872 17.7889 14.5726 19.4778C14.0931 20.3298 13.5165 21.124 12.8543 21.8444C12.5395 22.2066 12.2593 22.5971 12.0174 23.0111C11.7831 23.4333 11.5711 23.8556 11.3479 24.2889C10.8867 25.2959 10.2351 26.205 9.4287 26.9667C8.62372 27.6805 7.73592 28.296 6.7842 28.8C5.81322 29.2604 4.81008 29.6503 3.78264 29.9667L3.55947 30L0 23.6222C0.270221 23.4878 0.531157 23.3356 0.781076 23.1667C1.67511 22.576 2.39526 21.7592 2.86766 20.8C3.34837 19.8049 3.72237 18.7621 3.98349 17.6889C4.29592 16.5 4.5414 15.3 4.82035 14.1C5.09931 12.9 5.3671 11.7222 5.73533 10.5667C6.05655 9.40598 6.60237 8.31896 7.34211 7.36666V7.36666C8.47557 6.72611 9.68175 6.22255 10.9351 5.86666C11.5488 5.67777 12.1625 5.47777 12.7538 5.24444C13.2315 5.07976 13.6943 4.87534 14.1375 4.63333C13.6415 5.69304 13.2165 6.78432 12.8654 7.89999L12.5865 8.59999Z" fill="#362F90"/>
<path d="M25.1953 1.45555C25.3839 1.42788 25.5757 1.42788 25.7643 1.45555C25.8233 1.65221 25.8941 1.84515 25.9763 2.03333C26.3615 2.77949 27.003 3.36307 27.784 3.67777C28.5668 3.965 29.3152 4.33764 30.0156 4.78888C30.5567 5.34734 31.2517 5.73393 32.0129 5.89999V5.89999C32.0911 6.1111 32.1803 6.3111 32.2696 6.49999L32.3588 6.69999C31.6511 6.47808 30.9758 6.16427 30.3504 5.76666C29.656 5.3529 28.9368 4.98184 28.1968 4.65555C27.4048 4.38427 26.6624 3.98648 25.9987 3.47777C25.6902 3.2475 25.4519 2.93664 25.3101 2.57968C25.1682 2.22272 25.1285 1.83362 25.1953 1.45555" fill="#272567"/>
<path d="M26.0098 3.88888C26.5431 4.27016 27.12 4.58719 27.7282 4.83333C28.1187 4.99999 28.5093 5.16666 28.844 5.35555C29.1788 5.54444 29.6251 5.78888 29.9598 6.01111C30.7064 6.52178 31.5373 6.89787 32.4146 7.12222C32.6713 7.61111 32.9614 8.08888 33.2515 8.55555C32.5906 8.32449 31.9489 8.04214 31.3323 7.71111C30.6103 7.35988 29.8646 7.05915 29.1006 6.81111C28.3478 6.57487 27.6472 6.19775 27.0364 5.69999C26.4964 5.20739 26.1093 4.57125 25.9206 3.86666" fill="#272567"/>
<path d="M26.0879 0C26.5454 0.122222 27.0029 0.333333 27.4604 0.5C27.9179 0.666667 28.5762 0.911111 29.0783 1.13333L32.0576 2.41111C31.7655 2.76453 31.5901 3.19915 31.5555 3.65556C31.5001 4.3282 31.5993 5.00456 31.8456 5.63333C31.1936 5.43474 30.6026 5.07549 30.1272 4.58889C29.5152 4.13608 28.8478 3.76271 28.141 3.47778C27.4441 3.23717 26.8319 2.80116 26.378 2.22222C26.1544 1.90207 26.0113 1.53308 25.9608 1.14635C25.9103 0.759607 25.9539 0.36645 26.0879 0" fill="#362F90"/>
<path d="M37.4247 8.59999C37.4322 8.62915 37.4322 8.65973 37.4247 8.68888L37.659 9.23333L37.871 9.68888V9.75555C37.9938 9.99999 38.1165 10.2333 38.2504 10.4667L38.3954 10.7111C38.5293 10.9222 38.6632 11.1333 38.8083 11.3333C39.4966 12.2534 40.3338 13.0532 41.2854 13.7C41.4416 13.8222 41.2854 14.0778 41.1181 13.9556C40.1023 13.224 39.2225 12.3216 38.5182 11.2889C37.9785 10.4931 37.5223 9.64418 37.1569 8.75555V8.75555L37.0118 8.35555C36.6771 7.48888 36.3981 6.58888 36.0411 5.71111C35.7143 4.81035 35.2054 3.98594 34.5459 3.28888C33.9991 2.77777 33.218 2.01111 32.5151 2.63333C31.8121 3.25555 32.1134 4.16666 32.2807 4.96666C32.5311 6.0048 32.9333 7.00064 33.4747 7.92222C33.9991 8.86666 34.3227 9.91111 34.8025 10.8778C35.2196 11.8359 35.3958 12.8809 35.3158 13.9222V13.9778C35.0815 15.7444 34.6463 17.7444 35.4497 19.4333C35.9372 20.283 36.5172 21.0767 37.1792 21.8C37.494 22.1621 37.7742 22.5527 38.0161 22.9667C38.2504 23.3889 38.4624 23.8111 38.6856 24.2444C39.1465 25.2487 39.7939 26.1572 40.5936 26.9222C41.4045 27.6338 42.2957 28.249 43.2493 28.7555C44.2203 29.2159 45.2234 29.6059 46.2508 29.9222L46.4405 29.9889L50 23.6111C49.7298 23.4767 49.4688 23.3245 49.2189 23.1556C48.3249 22.5649 47.6047 21.7481 47.1323 20.7889C46.6468 19.7958 46.2726 18.7525 46.0165 17.6778C45.7041 16.4889 45.4474 15.2889 45.1796 14.0889C44.9119 12.8889 44.6329 11.7111 44.2535 10.5556C43.9328 9.39467 43.387 8.30755 42.6467 7.35555V7.35555C41.5128 6.71885 40.3066 6.21902 39.0538 5.86666C38.4401 5.67777 37.8264 5.47777 37.2238 5.24444C36.7507 5.07761 36.2917 4.87326 35.8514 4.63333C36.354 5.69429 36.79 6.78527 37.1569 7.89999L37.4247 8.59999Z" fill="#362F90"/>
<path d="M25.0056 22.2222C25.0056 22.2222 22.9748 18.6444 20.2075 18.0778C17.4403 17.5111 15.6215 16.6667 15.3983 13.3333C15.1752 10 18.3999 8.54445 20.0848 8.54445C20.7277 8.52184 21.3685 8.62942 21.9684 8.86065C22.5683 9.09189 23.1149 9.44197 23.5749 9.8897C24.035 10.3374 24.399 10.8735 24.6449 11.4654C24.8908 12.0573 25.0135 12.6928 25.0056 13.3333" fill="#D82927"/>
<path d="M25.0056 22.2222C25.0056 22.2222 27.0475 18.6444 29.8148 18.0778C32.582 17.5111 34.4566 16.6667 34.5905 13.3333C34.7244 10 31.5889 8.57778 29.9487 8.57778C29.3072 8.55383 28.6674 8.6592 28.0679 8.88758C27.4683 9.11596 26.9212 9.46264 26.4596 9.90679C25.9979 10.3509 25.6311 10.8834 25.3813 11.4723C25.1314 12.0611 25.0036 12.6941 25.0056 13.3333" fill="#A6202C"/>
<path d="M15.9228 12.9111C15.8598 12.2997 15.9991 11.6845 16.3193 11.1591C16.6395 10.6336 17.1232 10.2267 17.6969 10C17.6969 10 17.842 10 17.7862 10.0889C17.2541 10.3526 16.8092 10.7629 16.5046 11.2711C16.2 11.7793 16.0484 12.364 16.0678 12.9556C16.0678 12.9556 15.9897 13.1778 15.9228 12.9556" fill="white"/>
<path d="M30.1049 16.0222C31.7749 16.0222 33.1288 14.6741 33.1288 13.0111C33.1288 11.3481 31.7749 10 30.1049 10C28.4348 10 27.081 11.3481 27.081 13.0111C27.081 14.6741 28.4348 16.0222 30.1049 16.0222Z" fill="url(#paint0_radial)"/>
<defs>
<radialGradient id="paint0_radial" cx="0" cy="0" r="1" gradientUnits="userSpaceOnUse" gradientTransform="translate(30.1049 13.0111) scale(3.02388 3.01111)">
<stop stop-color="#F3797B"/>
<stop offset="0.03" stop-color="#F3797B"/>
<stop offset="0.16" stop-color="#E5696D"/>
<stop offset="0.53" stop-color="#C3414A"/>
<stop offset="0.82" stop-color="#AE2934"/>
<stop offset="1" stop-color="#A6202C"/>
</radialGradient>
</defs>
</svg>
