<svg xmlns="http://www.w3.org/2000/svg" xmlns:xlink="http://www.w3.org/1999/xlink" width="146.0501mm" height="96.5819mm" viewBox="0 0 414.0004 273.7754"><defs><style>.a{fill:none;}.b,.i{fill:#272567;}.c{fill:#362f90;}.d{fill:#d82927;}.e,.k{fill:#a6202c;}.f{clip-path:url(#a);}.g{fill:url(#b);}.h{fill:#fff;}.i,.k{font-size:45px;font-family:Cairo-SemiBold, Cairo;font-weight:700;}.j{letter-spacing:-0.016em;}.l{letter-spacing:-0.005em;}</style><clipPath id="a"><path class="a" d="M213.5,111.808a33.3164,33.3164,0,1,0,33.315-33.475A33.3954,33.3954,0,0,0,213.5,111.808"/></clipPath><radialGradient id="b" cx="-80.9998" cy="666" r="1" gradientTransform="matrix(33.3162, 0, 0, -33.4751, 2945.423, 22406.2078)" gradientUnits="userSpaceOnUse"><stop offset="0" stop-color="#f3797b"/><stop offset="0.0257" stop-color="#f3797b"/><stop offset="0.1577" stop-color="#e5696d"/><stop offset="0.5268" stop-color="#c3414a"/><stop offset="0.8204" stop-color="#ae2934"/><stop offset="1" stop-color="#a6202c"/></radialGradient></defs><title>Asset 4</title><path class="b" d="M205.486,12.2275a16.1415,16.1415,0,0,0-4.714.285,36.51,36.51,0,0,1-1.766,4.811c-2.882,6.495-8.787,10.574-14.936,13.609-6.166,3.045-12.577,5.302-17.987,9.676-5.022,4.063-9.863,8.701-16.568,9.431a.3689.3689,0,0,1-.056.004c-.678,1.738-1.409,3.43-2.157,5.062q-.3825.837-.783,1.663c5.944-1.632,11.349-4.743,16.628-7.911a165.1381,165.1381,0,0,1,17.869-9.464c6.225-2.765,12.692-5.539,17.78-10.202,4.5-4.128,8.667-10.709,6.69-16.964"/><path class="b" d="M198.7414,32.6226c-4.226,3.403-9.345,5.7721-14.206,7.958-3.217,1.4491-6.459,2.833-9.612,4.424-3.307,1.667-6.474,3.618-9.646,5.529-6.355,3.831-12.909,7.68-20.246,9.1941-2.155,4.12-4.555,8.1079-6.983,12.0759,5.535-1.77,10.705-4.5369,15.883-7.166a154.3579,154.3579,0,0,1,18.283-7.5349c6.097-2.183,12.2-4.6971,17.105-9.0531a31.972,31.972,0,0,0,9.422-15.427"/><path class="c" d="M198.1169,0c-3.866,1.062-7.613,2.77-11.355,4.1721-4.514,1.6879-8.978,3.51-13.415,5.3869-8.248,3.487-16.402,7.18-24.631,10.711a19.3421,19.3421,0,0,1,4.129,10.434c.606,5.546-.555,11.261-2.406,16.657,5.589-1.015,9.916-5.357,14.195-8.813,4.982-4.0319,10.745-6.328,16.499-9.008,5.67-2.64,11.211-5.83,14.56-11.325,3.129-5.135,4.975-12.485,2.424-18.215"/><path class="c" d="M104.218,72.2358a3.7564,3.7564,0,0,0-.227.718q-.936,2.3175-1.947,4.61l-1.729,3.797c.007.077-.32.511-.302.581q-1.476,3.0375-3.132,5.982l-1.205,2.061c-1.073,1.783-2.203,3.533-3.403,5.231a87.9254,87.9254,0,0,1-19.59,19.898c-1.306.966.04,3.113,1.349,2.141a89.2947,89.2947,0,0,0,21.514-22.384,117.842,117.842,0,0,0,10.911-21.294,4.47,4.47,0,0,0,.17-.419q.6525-1.644,1.273-3.298c2.761-7.366,4.999-14.925,7.969-22.214,2.989-7.341,6.638-14.832,12.436-20.372,4.515-4.316,10.984-10.738,16.804-5.563,5.63,5.001,3.282,12.885,1.92,19.614-1.819,8.979-5.913,17.247-10.284,25.219-4.345,7.914-7.02,16.719-10.944,24.855-3.694,7.664-4.676,16.898-4.277,25.519a1.28,1.28,0,0,0,.002.315c.006.049.013.098.019.149a.1328.1328,0,0,0,.004.04.6508.6508,0,0,0,.013.1c1.878,14.831,5.532,31.669-1.183,45.797-3.537,7.44-9.147,13.492-14.247,19.855a67.6268,67.6268,0,0,0-6.977,9.886c-1.898,3.512-3.663,7.091-5.469,10.651-4.208,8.303-8.876,16.291-15.883,22.548a109.7886,109.7886,0,0,1-21.978,15.345c-7.946,4.175-16.334,6.902-24.78,9.831-.539.187-1.079.374-1.618.565L0,198.4a57.38,57.38,0,0,0,6.485-3.775,51.0382,51.0382,0,0,0,17.266-19.922c4.099-8.256,6.87-17.229,9.156-26.139,2.556-9.97,4.638-20.05,6.863-30.095,2.217-9.988,4.54-19.997,7.649-29.746,3.014-9.439,6.932-19.175,13.341-26.849a1.4565,1.4565,0,0,0,.159-.233c9.135-5.687,19.397-9.021,29.566-12.325,5.071-1.648,10.152-3.288,15.117-5.238a77.946,77.946,0,0,0,11.37-5.159c-4.439,8.669-7.188,18.319-10.475,27.481Z"/><path class="b" d="M208.5144,12.2275a16.1415,16.1415,0,0,1,4.714.285,36.51,36.51,0,0,0,1.766,4.811c2.882,6.495,8.786,10.574,14.936,13.609,6.166,3.045,12.578,5.302,17.988,9.676,5.021,4.063,9.862,8.701,16.567,9.431a.3689.3689,0,0,0,.056.004c.678,1.738,1.409,3.43,2.157,5.062q.3825.837.783,1.663c-5.944-1.632-11.349-4.743-16.629-7.911a165.03,165.03,0,0,0-17.868-9.464c-6.225-2.765-12.692-5.539-17.78-10.202-4.5-4.128-8.667-10.709-6.69-16.964"/><path class="b" d="M215.259,32.6226c4.226,3.403,9.346,5.7721,14.206,7.958,3.217,1.4491,6.459,2.833,9.611,4.424,3.308,1.667,6.474,3.618,9.648,5.529,6.354,3.831,12.908,7.68,20.245,9.1941,2.155,4.12,4.555,8.1079,6.983,12.0759-5.535-1.77-10.705-4.5369-15.882-7.166a154.4418,154.4418,0,0,0-18.284-7.5349c-6.097-2.183-12.2-4.6971-17.104-9.0531a31.9663,31.9663,0,0,1-9.423-15.427"/><path class="c" d="M215.8835,0c3.866,1.062,7.613,2.77,11.355,4.1721,4.515,1.6879,8.978,3.51,13.415,5.3869,8.247,3.487,16.402,7.18,24.631,10.711a19.3421,19.3421,0,0,0-4.129,10.434c-.606,5.546.555,11.261,2.406,16.657-5.589-1.015-9.917-5.357-14.194-8.813-4.984-4.0319-10.745-6.328-16.499-9.008-5.671-2.64-11.212-5.83-14.561-11.325-3.129-5.135-4.975-12.485-2.424-18.215"/><path class="c" d="M309.7824,72.2358a3.7564,3.7564,0,0,1,.227.718q.936,2.3175,1.947,4.61l1.728,3.797c-.006.077.321.511.303.581q1.476,3.0375,3.132,5.982l1.205,2.061c1.072,1.783,2.203,3.533,3.403,5.231a87.9254,87.9254,0,0,0,19.59,19.898c1.306.966-.04,3.113-1.349,2.141a89.2732,89.2732,0,0,1-21.513-22.384,117.7823,117.7823,0,0,1-10.912-21.294,4.21,4.21,0,0,1-.169-.419q-.654-1.644-1.274-3.298c-2.76-7.366-4.999-14.925-7.969-22.214-2.99-7.341-6.637-14.832-12.436-20.372-4.515-4.316-10.984-10.738-16.804-5.563-5.63,5.001-3.282,12.885-1.92,19.614,1.819,8.979,5.913,17.247,10.284,25.219,4.345,7.914,7.02,16.719,10.943,24.855,3.695,7.664,4.677,16.898,4.278,25.519a1.3311,1.3311,0,0,1-.002.315c-.006.049-.013.098-.019.149a.1328.1328,0,0,1-.004.04.6508.6508,0,0,1-.013.1c-1.878,14.831-5.533,31.669,1.183,45.797,3.538,7.44,9.147,13.492,14.247,19.855a67.703,67.703,0,0,1,6.977,9.886c1.898,3.512,3.664,7.091,5.469,10.651,4.207,8.303,8.875,16.291,15.883,22.548a109.817,109.817,0,0,0,21.978,15.345c7.946,4.175,16.335,6.902,24.78,9.831.539.187,1.079.374,1.618.565L414,198.4a57.2917,57.2917,0,0,1-6.485-3.775,51.0382,51.0382,0,0,1-17.266-19.922c-4.099-8.256-6.869-17.229-9.156-26.139-2.556-9.97-4.638-20.05-6.864-30.095-2.216-9.988-4.539-19.997-7.648-29.746-3.014-9.439-6.933-19.175-13.341-26.849a1.4565,1.4565,0,0,1-.159-.233c-9.136-5.687-19.397-9.021-29.566-12.325-5.071-1.648-10.153-3.288-15.117-5.238a77.898,77.898,0,0,1-11.37-5.159c4.439,8.669,7.189,18.319,10.475,27.481Z"/><path class="d" d="M207,186.5347s-16.886-30.021-39.789-34.805c-22.901-4.784-38.38-12.018-39.788-39.978s24.834-39.948,38.45-39.948S207,80.2108,207,111.7517"/><path class="e" d="M207,186.5347s16.887-30.021,39.788-34.805,38.382-12.018,39.789-39.978-24.834-39.948-38.45-39.948S207,80.2108,207,111.7517"/><g class="f"><rect class="g" x="213.5002" y="78.333" width="66.632" height="66.9501"/></g><path class="h" d="M131.8112,108.4438s-2.734-17.333,14.668-24.779c0,0,1.194-.364.687.727s-13.792,5.09-14.197,24.052c0,0-.637,1.861-1.158,0"/><text class="i" transform="translate(91.8239 251.9502)">Han<tspan class="j" x="77.4893" y="0">d</tspan><tspan x="100.8438" y="0">y</tspan></text><text class="k" transform="translate(214.5842 251.9502)"><tspan class="l">H</tspan><tspan x="30.1943" y="0">eart</tspan></text></svg>