<svg xmlns="http://www.w3.org/2000/svg" xmlns:xlink="http://www.w3.org/1999/xlink" viewBox="0 0 176.88 33.68">
  <defs>
    <style>
      .a, .c {
        font-size: 24px;
        font-family: Cairo-SemiBold, Cairo;
        font-weight: 700;
      }

      .a, .e {
        fill: #272567;
      }

      .b {
        letter-spacing: -0.02em;
      }

      .c, .h {
        fill: #a6202c;
      }

      .c {
        letter-spacing: 0em;
      }

      .d {
        letter-spacing: 0em;
      }

      .f {
        fill: #362f90;
      }

      .g {
        fill: #d82927;
      }

      .i {
        fill: #fff;
      }

      .j {
        fill: url(#a);
      }
    </style>
    <radialGradient id="a" cx="26.98" cy="11.71" r="2.71" gradientUnits="userSpaceOnUse">
      <stop offset="0" stop-color="#f3797b"/>
      <stop offset="0.03" stop-color="#f3797b"/>
      <stop offset="0.16" stop-color="#e5696d"/>
      <stop offset="0.53" stop-color="#c3414a"/>
      <stop offset="0.82" stop-color="#ae2934"/>
      <stop offset="1" stop-color="#a6202c"/>
    </radialGradient>
  </defs>
  <title>Asset 4</title>
  <g>
    <text class="a" transform="translate(54 22.04)">Han<tspan class="b" x="41.33" y="0">d</tspan><tspan x="53.76" y="0">y</tspan></text>
    <text class="c" transform="translate(119.47 22.04)">H<tspan class="d" x="16.13" y="0">eart</tspan></text>
    <g>
      <path class="e" d="M22.25,1.31a1.75,1.75,0,0,0-.51,0,4.6,4.6,0,0,1-.19.52,3.15,3.15,0,0,1-1.62,1.45,10.13,10.13,0,0,0-1.95,1,3.54,3.54,0,0,1-1.79,1h0c-.07.19-.15.37-.23.54a1.42,1.42,0,0,0-.08.18,7.75,7.75,0,0,0,1.8-.84,17.78,17.78,0,0,1,1.93-1,7.07,7.07,0,0,0,1.93-1.09,1.89,1.89,0,0,0,.72-1.82"/>
      <path class="e" d="M21.52,3.5A7.45,7.45,0,0,1,20,4.35c-.35.15-.7.3-1,.47s-.7.39-1,.59a6.93,6.93,0,0,1-2.2,1c-.23.44-.49.87-.75,1.29a12,12,0,0,0,1.72-.76,15.51,15.51,0,0,1,2-.81,5.56,5.56,0,0,0,1.85-1,3.44,3.44,0,0,0,1-1.65"/>
      <path class="f" d="M21.45,0c-.42.11-.82.3-1.23.45s-1,.37-1.45.57L16.1,2.17a2,2,0,0,1,.45,1.12,4,4,0,0,1-.26,1.78,3.69,3.69,0,0,0,1.54-.94,8.05,8.05,0,0,1,1.78-1A3.43,3.43,0,0,0,21.19,2,2.19,2.19,0,0,0,21.45,0"/>
      <path class="f" d="M11.28,7.74a.31.31,0,0,0,0,.08l-.21.49-.19.41,0,.06c-.11.22-.22.43-.34.64l-.13.22c-.12.19-.24.38-.37.56a9.32,9.32,0,0,1-2.12,2.13c-.14.11,0,.34.15.23a9.66,9.66,0,0,0,2.33-2.4,13.29,13.29,0,0,0,1.18-2.28.08.08,0,0,1,0,0l.13-.36c.3-.78.54-1.59.87-2.38a6.16,6.16,0,0,1,1.34-2.18c.49-.46,1.19-1.15,1.82-.59s.36,1.38.21,2.1a9.8,9.8,0,0,1-1.11,2.7c-.47.85-.76,1.79-1.19,2.66a5.78,5.78,0,0,0-.46,2.74v.05h0c.21,1.59.6,3.39-.13,4.91a11.43,11.43,0,0,1-1.54,2.13,6.93,6.93,0,0,0-.75,1.05c-.21.38-.4.76-.6,1.15a7.76,7.76,0,0,1-1.72,2.41,12.12,12.12,0,0,1-2.37,1.65,20,20,0,0,1-2.69,1.05L3.19,27,0,21.26a6.1,6.1,0,0,0,.7-.41,5.42,5.42,0,0,0,1.87-2.13,14.14,14.14,0,0,0,1-2.8c.28-1.07.5-2.15.75-3.23s.49-2.14.82-3.18A8.32,8.32,0,0,1,6.58,6.63l0,0A14.68,14.68,0,0,1,9.8,5.28c.55-.17,1.1-.35,1.63-.56a8.07,8.07,0,0,0,1.24-.55,23.82,23.82,0,0,0-1.14,2.94Z"/>
      <path class="e" d="M22.58,1.31a1.75,1.75,0,0,1,.51,0,4.6,4.6,0,0,0,.19.52A3.15,3.15,0,0,0,24.9,3.31a10.13,10.13,0,0,1,2,1,3.54,3.54,0,0,0,1.79,1h0c.07.19.15.37.23.54l.08.18a7.57,7.57,0,0,1-1.8-.84,17.78,17.78,0,0,0-1.93-1A6.92,6.92,0,0,1,23.3,3.13a1.87,1.87,0,0,1-.72-1.82"/>
      <path class="e" d="M23.31,3.5a7.45,7.45,0,0,0,1.54.85c.35.15.7.3,1,.47s.7.39,1,.59a6.93,6.93,0,0,0,2.2,1c.23.44.49.87.75,1.29a12,12,0,0,1-1.72-.76,15.51,15.51,0,0,0-2-.81,5.56,5.56,0,0,1-1.85-1,3.44,3.44,0,0,1-1-1.65"/>
      <path class="f" d="M23.38,0c.41.11.82.3,1.23.45s1,.37,1.45.57l2.67,1.15a2,2,0,0,0-.45,1.12,4,4,0,0,0,.26,1.78A3.63,3.63,0,0,1,27,4.13a8.05,8.05,0,0,0-1.78-1A3.43,3.43,0,0,1,23.64,2,2.19,2.19,0,0,1,23.38,0"/>
      <path class="f" d="M33.54,7.74a.16.16,0,0,1,0,.08l.21.49.19.41,0,.06c.11.22.22.43.34.64l.13.22c.12.19.24.38.37.56A9.32,9.32,0,0,0,37,12.33c.14.11,0,.34-.15.23a9.66,9.66,0,0,1-2.33-2.4A12.62,12.62,0,0,1,33.3,7.88l0,0-.13-.36c-.3-.78-.55-1.59-.87-2.38a6.3,6.3,0,0,0-1.34-2.18c-.49-.46-1.19-1.15-1.82-.59s-.36,1.38-.21,2.1A9.8,9.8,0,0,0,30,7.13c.47.85.76,1.79,1.19,2.66a5.78,5.78,0,0,1,.46,2.74v.05h0c-.21,1.59-.6,3.39.12,4.91a12,12,0,0,0,1.55,2.13,6.93,6.93,0,0,1,.75,1.05c.21.38.4.76.6,1.15a7.89,7.89,0,0,0,1.71,2.41,12.49,12.49,0,0,0,2.38,1.65,20,20,0,0,0,2.69,1.05l.17.06,3.19-5.74a6.1,6.1,0,0,1-.7-.41,5.42,5.42,0,0,1-1.87-2.13,13.53,13.53,0,0,1-1-2.8c-.28-1.07-.51-2.15-.75-3.23s-.49-2.14-.83-3.18a8.3,8.3,0,0,0-1.44-2.88l0,0A14.68,14.68,0,0,0,35,5.28c-.55-.17-1.1-.35-1.64-.56a8.41,8.41,0,0,1-1.23-.55A25.53,25.53,0,0,1,33.3,7.11Z"/>
      <path class="g" d="M22.41,20s-1.82-3.22-4.3-3.73S14,15,13.8,12,16.49,7.69,18,7.69A4.26,4.26,0,0,1,22.41,12"/>
      <path class="h" d="M22.41,20s1.83-3.22,4.31-3.73S30.88,15,31,12s-2.69-4.28-4.16-4.28A4.27,4.27,0,0,0,22.41,12"/>
    </g>
    <path class="i" d="M14.27,11.62A2.54,2.54,0,0,1,15.86,9s.13,0,.08.08a2.78,2.78,0,0,0-1.54,2.58s-.07.2-.13,0"/>
    <circle class="j" cx="26.98" cy="11.71" r="2.71"/>
  </g>
</svg>
