<svg xmlns="http://www.w3.org/2000/svg" xmlns:xlink="http://www.w3.org/1999/xlink" width="63.383mm" height="9.7596mm" viewBox="0 0 179.6683 27.6651"><defs><style>.a{fill:none;}.b{fill:#272567;}.c{fill:#362f90;}.d{fill:#d82927;}.e{fill:#a6202c;}.f{clip-path:url(#a);}.g{fill:url(#b);}.h{fill:url(#c);}.i{fill:#fff;}</style><clipPath id="a"><path class="a" d="M23.1188,11.98a3.6081,3.6081,0,1,0,3.607-3.587,3.5954,3.5954,0,0,0-3.607,3.587"/></clipPath><radialGradient id="b" cx="-18.0001" cy="819.0001" r="1" gradientTransform="matrix(3.6077, 0, 0, -3.5866, 91.6651, 2949.4172)" gradientUnits="userSpaceOnUse"><stop offset="0" stop-color="#f3797b"/><stop offset="0.0257" stop-color="#f3797b"/><stop offset="0.1577" stop-color="#e5696d"/><stop offset="0.5268" stop-color="#c3414a"/><stop offset="0.8204" stop-color="#ae2934"/><stop offset="1" stop-color="#a6202c"/></radialGradient><radialGradient id="c" cx="-18.0001" cy="819" r="0.9999" gradientTransform="matrix(4.1373, 0, 0, -4.1132, 101.1994, 3380.6818)" gradientUnits="userSpaceOnUse"><stop offset="0" stop-color="#fff"/><stop offset="0.1019" stop-color="#eccfd1"/><stop offset="0.2151" stop-color="#d9a1a6"/><stop offset="0.3327" stop-color="#ca7980"/><stop offset="0.4529" stop-color="#bd5962"/><stop offset="0.5766" stop-color="#b3404a"/><stop offset="0.7051" stop-color="#ac2e39"/><stop offset="0.8417" stop-color="#a7232f"/><stop offset="1" stop-color="#a6202c"/></radialGradient></defs><title>Asset 2</title><path class="b" d="M22.2508,1.31a1.7522,1.7522,0,0,0-.51.031,3.9111,3.9111,0,0,1-.192.515,3.1787,3.1787,0,0,1-1.617,1.458,9.97,9.97,0,0,0-1.948,1.037,3.6,3.6,0,0,1-1.794,1.01l-.006.001c-.073.1861-.152.367-.233.5421-.028.06-.056.1189-.085.178a7.4252,7.4252,0,0,0,1.801-.847,17.8157,17.8157,0,0,1,1.935-1.0141,6.9462,6.9462,0,0,0,1.925-1.094,1.8709,1.8709,0,0,0,.724-1.817"/><path class="b" d="M21.5208,3.4951a6.9956,6.9956,0,0,1-1.539.853c-.348.1551-.699.303-1.04.474-.359.178-.701.3871-1.045.592a7.1574,7.1574,0,0,1-2.192.9851c-.234.4419-.494.8689-.756,1.294a11.8457,11.8457,0,0,0,1.719-.768,17.0067,17.0067,0,0,1,1.98-.807,5.5108,5.5108,0,0,0,1.852-.97,3.4132,3.4132,0,0,0,1.021-1.653"/><path class="c" d="M21.4529,0c-.418.114-.824.2971-1.229.447-.489.1811-.973.3761-1.453.577-.893.374-1.776.769-2.668,1.1481a2.0522,2.0522,0,0,1,.448,1.1179,4.1156,4.1156,0,0,1-.261,1.784,3.71,3.71,0,0,0,1.538-.944,8.2367,8.2367,0,0,1,1.786-.965,3.41,3.41,0,0,0,1.577-1.213A2.2114,2.2114,0,0,0,21.4529,0"/><path class="c" d="M11.285,7.74a.3751.3751,0,0,0-.024.077q-.102.2475-.211.494l-.187.407c0,.008-.035.054-.033.062q-.16.3255-.339.641l-.131.22c-.116.191-.239.379-.368.561a9.4759,9.4759,0,0,1-2.122,2.132c-.141.103.005.333.146.229a9.6009,9.6009,0,0,0,2.33-2.398,12.6788,12.6788,0,0,0,1.182-2.281c.007-.015.012-.03.018-.045.047-.118.093-.235.138-.354.299-.789.541-1.599.863-2.38a6.1383,6.1383,0,0,1,1.346-2.182c.489-.463,1.19-1.151,1.82-.597.61.536.355,1.381.208,2.102A9.6343,9.6343,0,0,1,14.807,7.13c-.47.848-.76,1.791-1.185,2.663a5.7305,5.7305,0,0,0-.463,2.734.1315.1315,0,0,0,.001.034l.001.016.001.004c-.001.004.001.007.001.011.204,1.589.6,3.393-.128,4.907a11.2979,11.2979,0,0,1-1.542,2.127,7.2067,7.2067,0,0,0-.756,1.059c-.206.377-.397.76-.592,1.141a7.9172,7.9172,0,0,1-1.72,2.416,11.8449,11.8449,0,0,1-2.38,1.644A19.2484,19.2484,0,0,1,3.362,26.94c-.059.02-.118.04-.176.06L0,21.2577a6.3562,6.3562,0,0,0,.702-.405,5.494,5.494,0,0,0,1.87-2.134,14.2,14.2,0,0,0,.991-2.801c.277-1.069.502-2.148.743-3.224.24-1.071.492-2.143.829-3.188A8.4226,8.4226,0,0,1,6.579,6.63a.1437.1437,0,0,0,.018-.025,14.36,14.36,0,0,1,3.201-1.321c.549-.176,1.099-.352,1.637-.561a8.4717,8.4717,0,0,0,1.231-.553,24.4894,24.4894,0,0,0-1.134,2.945Z"/><path class="b" d="M22.5789,1.31a1.7522,1.7522,0,0,1,.51.031,3.9111,3.9111,0,0,0,.192.515,3.1787,3.1787,0,0,0,1.617,1.458,9.9419,9.9419,0,0,1,1.948,1.037,3.6038,3.6038,0,0,0,1.794,1.01l.006.001c.073.1861.152.367.233.5421.028.06.056.1189.085.178a7.4252,7.4252,0,0,1-1.801-.847,17.8012,17.8012,0,0,0-1.934-1.0141,6.9177,6.9177,0,0,1-1.925-1.094,1.87,1.87,0,0,1-.725-1.817"/><path class="b" d="M23.3094,3.4951a7.0115,7.0115,0,0,0,1.538.853c.349.1551.7.303,1.041.474.358.178.701.3871,1.045.592a7.1574,7.1574,0,0,0,2.192.9851c.233.4419.493.8689.756,1.294a11.9056,11.9056,0,0,1-1.72-.768,17.0636,17.0636,0,0,0-1.979-.807,5.5155,5.5155,0,0,1-1.853-.97,3.4189,3.4189,0,0,1-1.02-1.653"/><path class="c" d="M23.3768,0c.418.114.825.2971,1.229.447.49.1811.973.3761,1.453.577.893.374,1.776.769,2.668,1.1481a2.0522,2.0522,0,0,0-.448,1.1179,4.1305,4.1305,0,0,0,.261,1.784,3.7,3.7,0,0,1-1.537-.944,8.2672,8.2672,0,0,0-1.787-.965A3.4018,3.4018,0,0,1,23.64,1.952,2.2086,2.2086,0,0,1,23.3768,0"/><path class="c" d="M33.5447,7.74a.3212.3212,0,0,1,.024.077c.068.165.139.33.211.494l.188.407c-.001.008.034.054.033.062q.159.3255.338.641l.131.22c.116.191.239.379.368.561a9.4759,9.4759,0,0,0,2.122,2.132c.141.103-.004.333-.146.229a9.6183,9.6183,0,0,1-2.33-2.398,12.6788,12.6788,0,0,1-1.182-2.281l-.018-.045c-.047-.118-.093-.235-.137-.354-.3-.789-.542-1.599-.864-2.38a6.1383,6.1383,0,0,0-1.346-2.182c-.489-.463-1.19-1.151-1.82-.597-.61.536-.355,1.381-.208,2.102a9.6343,9.6343,0,0,0,1.114,2.702c.47.848.76,1.791,1.185,2.663a5.7305,5.7305,0,0,1,.463,2.734.1927.1927,0,0,1,0,.034l-.002.016v.004l-.002.011c-.204,1.589-.599,3.393.128,4.907a11.303,11.303,0,0,0,1.543,2.127,7.2754,7.2754,0,0,1,.755,1.059c.206.377.397.76.593,1.141a7.8973,7.8973,0,0,0,1.719,2.416,11.8732,11.8732,0,0,0,2.38,1.644,19.2484,19.2484,0,0,0,2.683,1.054c.059.02.118.04.176.06l3.186-5.742a6.3562,6.3562,0,0,1-.702-.405,5.494,5.494,0,0,1-1.87-2.134,14.2645,14.2645,0,0,1-.991-2.801c-.277-1.069-.502-2.148-.743-3.224-.24-1.071-.492-2.143-.829-3.188a8.4226,8.4226,0,0,0-1.444-2.876.1437.1437,0,0,1-.018-.025,14.36,14.36,0,0,0-3.201-1.321c-.549-.176-1.099-.352-1.637-.561a8.4717,8.4717,0,0,1-1.231-.553,24.4894,24.4894,0,0,1,1.134,2.945Z"/><path class="d" d="M22.4148,19.9858s-1.829-3.216-4.309-3.729-4.155-1.288-4.308-4.284,2.689-4.279,4.163-4.279a4.2637,4.2637,0,0,1,4.454,4.279"/><path class="e" d="M22.4148,19.9858s1.829-3.216,4.309-3.729,4.156-1.288,4.308-4.284-2.689-4.279-4.163-4.279a4.2637,4.2637,0,0,0-4.454,4.279"/><g class="f"><rect class="g" x="23.1188" y="8.393" width="7.216" height="7.1721"/></g><path class="h" d="M30.3343,11.98h0a3.6076,3.6076,0,1,1-3.608-3.587,3.5965,3.5965,0,0,1,3.608,3.587h0a3.6076,3.6076,0,1,0-3.608,3.5861,3.5973,3.5973,0,0,0,3.608-3.5861Z"/><path class="i" d="M14.2732,11.6191a2.5224,2.5224,0,0,1,1.588-2.655s.129-.039.075.078a2.7763,2.7763,0,0,0-1.538,2.577s-.069.199-.125,0"/><path class="c" d="M62.339,4.09V21.992H59.8667V14.107h-8.352v7.885H49.0159V4.09h2.4988v7.8066h8.352V4.09Z"/><path class="c" d="M66.3985,21.2371a4.2455,4.2455,0,0,1-.9635-2.9922,3.6345,3.6345,0,0,1,.9889-2.8228,5.3985,5.3985,0,0,1,3.1489-1.1065l3.6953-.3378V12.9624a2.3075,2.3075,0,0,0-.4945-1.6517,1.947,1.947,0,0,0-1.458-.5082,47.3677,47.3677,0,0,0-5.0474.3123L66.19,9.3455a22.4476,22.4476,0,0,1,5.1257-.65,4.6,4.6,0,0,1,3.331,1.0271,4.3963,4.3963,0,0,1,1.0409,3.24v6.2714a1.1911,1.1911,0,0,0,.3515.7941,1.8189,1.8189,0,0,0,.95.3769L76.91,22.2779a6.3781,6.3781,0,0,1-1.8995-.2467,3.8417,3.8417,0,0,1-1.3786-.7677,10.5323,10.5323,0,0,1-4.4237,1.0144A3.6355,3.6355,0,0,1,66.3985,21.2371Zm6.3232-1.4834.5464-.1821V15.7471l-3.3829.3124a2.3178,2.3178,0,0,0-1.4961.6109,2.0938,2.0938,0,0,0-.4818,1.4961q0,2.0822,1.7439,2.0816A9.6292,9.6292,0,0,0,72.7217,19.7537Z"/><path class="c" d="M79.3827,8.9813h2.394V9.84a9.7545,9.7545,0,0,1,2.03-.8852,7.0034,7.0034,0,0,1,1.925-.2594,4.4631,4.4631,0,0,1,2.5761.65,3.5271,3.5271,0,0,1,1.3277,2.0171,14.0527,14.0527,0,0,1,.39,3.7079V21.992H87.6055v-6.87a12.6267,12.6267,0,0,0-.1959-2.5369,2.12,2.12,0,0,0-.7285-1.3013,2.5338,2.5338,0,0,0-1.548-.4034,7.8438,7.8438,0,0,0-2.8884.5982l-.4426.2086V21.992H79.3827Z"/><path class="c" d="M93.9806,20.6515a8.9861,8.9861,0,0,1-1.0938-4.9563q0-3.6957,1.3013-5.348a4.9778,4.9778,0,0,1,4.1633-1.6518,14.3068,14.3068,0,0,1,3.0451.3642V3.4649h2.4194V21.992h-2.4194v-.78a8.2156,8.2156,0,0,1-3.799,1.0662A4.0345,4.0345,0,0,1,93.9806,20.6515Zm5.5418-.7411a9.9445,9.9445,0,0,0,1.4051-.4161l.469-.1822V11.1148a14.9263,14.9263,0,0,0-2.7582-.3123,2.8038,2.8038,0,0,0-2.5242,1.0937,6.8866,6.8866,0,0,0-.7285,3.6688A7.3312,7.3312,0,0,0,95.9966,19a2.201,2.201,0,0,0,2.0954,1.0927A6.566,6.566,0,0,0,99.5224,19.91Z"/><path class="c" d="M111.39,21.992h-2.1081L105.7429,8.9813h2.4194L111.1291,19.91h.78l2.9922-10.9291h2.42L112.17,27.6651H109.776Z"/><path class="d" d="M133.325,4.09V21.992h-2.4723V14.107h-8.3519v7.885H120.002V4.09h2.4988v7.8066h8.3519V4.09Z"/><path class="d" d="M137.8007,20.73q-1.2755-1.5484-1.2759-4.9055a8.699,8.699,0,0,1,1.3669-5.3724A5.0211,5.0211,0,0,1,142.12,8.6954q5.3094,0,5.3089,6.0363l-.1568,1.7693h-8.3a5.8221,5.8221,0,0,0,.3642,2.1737,2.0932,2.0932,0,0,0,1.0927,1.1054,5.3641,5.3641,0,0,0,2.1335.3389q.8068,0,1.8212-.0392t1.8222-.1175l.7285-.0784.0519,1.8741a30.6682,30.6682,0,0,1-4.9182.52Q139.0755,22.2779,137.8007,20.73Zm7.2073-6.1284a5.1237,5.1237,0,0,0-.6628-2.9922,2.6053,2.6053,0,0,0-2.2256-.8841,2.9158,2.9158,0,0,0-2.394.9232,4.7553,4.7553,0,0,0-.78,2.9531Z"/><path class="d" d="M150.4471,21.2371a4.2455,4.2455,0,0,1-.9635-2.9922,3.6345,3.6345,0,0,1,.9889-2.8228,5.3991,5.3991,0,0,1,3.149-1.1065l3.6952-.3378V12.9624a2.3075,2.3075,0,0,0-.4945-1.6517,1.9468,1.9468,0,0,0-1.4579-.5082,47.3661,47.3661,0,0,0-5.0474.3123l-.0784-1.7693a22.4484,22.4484,0,0,1,5.1258-.65,4.6,4.6,0,0,1,3.331,1.0271,4.3967,4.3967,0,0,1,1.0408,3.24v6.2714a1.1911,1.1911,0,0,0,.3515.7941,1.82,1.82,0,0,0,.95.3769l-.0784,1.8731a6.3786,6.3786,0,0,1-1.8995-.2467,3.8425,3.8425,0,0,1-1.3786-.7677,10.532,10.532,0,0,1-4.4237,1.0144A3.6358,3.6358,0,0,1,150.4471,21.2371Zm6.3233-1.4834.5463-.1821V15.7471l-3.3829.3124a2.3178,2.3178,0,0,0-1.4961.6109,2.0938,2.0938,0,0,0-.4818,1.4961q0,2.0822,1.7439,2.0816A9.63,9.63,0,0,0,156.77,19.7537Z"/><path class="d" d="M163.4314,8.9813h2.3939V10.62a13.2162,13.2162,0,0,1,4.5794-1.9249v2.4459a18.4436,18.4436,0,0,0-2.1081.5717,17.9073,17.9073,0,0,0-1.8211.7031l-.6247.2859v9.29h-2.4194Z"/><path class="d" d="M174.712,21.8364a2.5189,2.5189,0,0,1-1.1065-1.4834,9.7287,9.7287,0,0,1-.3378-2.8885V11.0629h-1.7438V8.9813h1.7438V5.1039h2.4194V8.9813h3.8255v2.0816h-3.8255v5.959a13.6068,13.6068,0,0,0,.0911,1.835,1.5707,1.5707,0,0,0,.43.9359,1.5334,1.5334,0,0,0,1.0927.3262l2.2118-.13.1557,1.9768a17.855,17.855,0,0,1-2.81.3124A4.3307,4.3307,0,0,1,174.712,21.8364Z"/></svg>