<svg xmlns="http://www.w3.org/2000/svg" width="35.1563" height="50" viewBox="0 0 35.1563 50"><defs><style>.a{fill:#fd003a;}.b{fill:#e50027;}</style></defs><title>Capa 1</title><path class="a" d="M17.5781,0A17.592,17.592,0,0,0,0,17.5781a17.3338,17.3338,0,0,0,2.6368,9.2286l13.75,22.5014a1.3882,1.3882,0,0,0,.9964.674,1.4584,1.4584,0,0,0,1.4942-.7032l13.789-22.7066a17.336,17.336,0,0,0,2.49-8.9942A17.592,17.592,0,0,0,17.5781,0Zm0,26.3672a8.7891,8.7891,0,1,1,8.7891-8.7891A8.7773,8.7773,0,0,1,17.5781,26.3672Z"/><path class="b" d="M17.5781,0V8.7891a8.7891,8.7891,0,1,1,0,17.5781V49.9991a1.45,1.45,0,0,0,1.2989-.72L32.666,26.5723a17.3351,17.3351,0,0,0,2.49-8.9942A17.592,17.592,0,0,0,17.5781,0Z"/></svg>