<svg xmlns="http://www.w3.org/2000/svg" width="50" height="50" viewBox="0 0 50 50"><defs><style>.a{fill:#86b4cc;}.b{fill:#a1c8d3;}.c{fill:#567580;}.d{fill:#464f5e;}.e{fill:#edc100;}.f{fill:#f8e8ab;}.g{fill:#393f4b;}.h{fill:#4397d5;}.i{fill:#2b5781;}.j{fill:#3180bc;}</style></defs><title>Layer 1</title><path class="a" d="M49.1379,25V47.4138H33.6207V23.2759Z"/><path class="a" d="M16.3793,23.2759V47.4138H.8621V25Z"/><path class="b" d="M14.6552,23.2759h20.69V47.4138h-20.69Z"/><path class="c" d="M22.4138,34.4828h5.1724a.862.862,0,0,1,.8621.862V45.69H21.5517V35.3448A.862.862,0,0,1,22.4138,34.4828Z"/><path class="d" d="M22.4138,31.0345a.8621.8621,0,0,1-.8621-.8621V28.4483a.8621.8621,0,1,1,1.7242,0v1.7241A.8621.8621,0,0,1,22.4138,31.0345Z"/><path class="d" d="M10.3448,31.8965a.862.862,0,0,1-.862-.862V29.31a.8621.8621,0,0,1,1.7241,0v1.7242A.862.862,0,0,1,10.3448,31.8965Z"/><path class="d" d="M5.1724,31.8965a.862.862,0,0,1-.8621-.862V29.31a.8621.8621,0,0,1,1.7242,0v1.7242A.862.862,0,0,1,5.1724,31.8965Z"/><path class="d" d="M10.3448,37.069a.862.862,0,0,1-.862-.8621V34.4828a.8621.8621,0,1,1,1.7241,0v1.7241A.8621.8621,0,0,1,10.3448,37.069Z"/><path class="d" d="M5.1724,37.069a.8621.8621,0,0,1-.8621-.8621V34.4828a.8621.8621,0,0,1,1.7242,0v1.7241A.8621.8621,0,0,1,5.1724,37.069Z"/><path class="d" d="M10.3448,42.2414a.862.862,0,0,1-.862-.8621V39.6552a.8621.8621,0,1,1,1.7241,0v1.7241A.8621.8621,0,0,1,10.3448,42.2414Z"/><path class="d" d="M5.1724,42.2414a.8621.8621,0,0,1-.8621-.8621V39.6552a.8621.8621,0,0,1,1.7242,0v1.7241A.8621.8621,0,0,1,5.1724,42.2414Z"/><path class="d" d="M44.8276,31.8965a.862.862,0,0,1-.8621-.862V29.31a.8621.8621,0,0,1,1.7242,0v1.7242A.862.862,0,0,1,44.8276,31.8965Z"/><path class="d" d="M39.6552,31.8965a.862.862,0,0,1-.8621-.862V29.31a.8621.8621,0,0,1,1.7241,0v1.7242A.862.862,0,0,1,39.6552,31.8965Z"/><path class="d" d="M44.8276,37.069a.8621.8621,0,0,1-.8621-.8621V34.4828a.8621.8621,0,1,1,1.7242,0v1.7241A.8621.8621,0,0,1,44.8276,37.069Z"/><path class="d" d="M39.6552,37.069a.8621.8621,0,0,1-.8621-.8621V34.4828a.8621.8621,0,1,1,1.7241,0v1.7241A.862.862,0,0,1,39.6552,37.069Z"/><path class="d" d="M44.8276,42.2414a.8621.8621,0,0,1-.8621-.8621V39.6552a.8621.8621,0,1,1,1.7242,0v1.7241A.8621.8621,0,0,1,44.8276,42.2414Z"/><path class="d" d="M39.6552,42.2414a.8621.8621,0,0,1-.8621-.8621V39.6552a.8621.8621,0,1,1,1.7241,0v1.7241A.862.862,0,0,1,39.6552,42.2414Z"/><path class="d" d="M27.5862,31.0345a.8621.8621,0,0,1-.8621-.8621V28.4483a.8621.8621,0,1,1,1.7242,0v1.7241A.8621.8621,0,0,1,27.5862,31.0345Z"/><path class="e" d="M49.1379,45.69H.8621A.8621.8621,0,0,0,0,46.5517v1.7242a.862.862,0,0,0,.8621.862H12.931A.8621.8621,0,0,0,13.7931,50H36.2069a.8621.8621,0,0,0,.8621-.8621H49.1379A.862.862,0,0,0,50,48.2759V46.5517A.8621.8621,0,0,0,49.1379,45.69Z"/><path class="f" d="M37.069,45.69v3.4483A.8621.8621,0,0,1,36.2069,50H13.7931a.8621.8621,0,0,1-.8621-.8621V45.69Z"/><path class="g" d="M32.7586,3.9828V14.6552H17.2414V3.9828l7.5431,2.9931a.6285.6285,0,0,0,.431,0Z"/><path class="h" d="M47.0259,20.7845a1.7242,1.7242,0,0,0-1.5431-.9569h-6.69V18.1034L34.1293,13.44a1.7293,1.7293,0,0,0-1.2241-.5086H16.3276A1.7115,1.7115,0,0,0,15,13.5517l-3.7931,4.5517v1.7242h-6.69a1.7242,1.7242,0,0,0-1.5431.9569L.8621,25H49.1379Z"/><path class="i" d="M38.7931,18.1034V20.69a.8621.8621,0,0,1-.8621.8621H12.069a.8621.8621,0,0,1-.8621-.8621V18.1034Z"/><path class="j" d="M12.931,21.5517H37.069V25H12.931Z"/><path class="d" d="M37.069,3.8793a.8372.8372,0,0,1-.638.8362l-1.0862.2931-2.5862.6983L25.2155,7.7328a.9129.9129,0,0,1-.431,0L17.2414,5.7069,13.569,4.7155a.8621.8621,0,0,1,0-1.6724L24.7845.0259a.91.91,0,0,1,.431,0L35.3448,2.75l1.0862.2931A.8372.8372,0,0,1,37.069,3.8793Z"/><path class="e" d="M37.7155,9.9569A.8621.8621,0,0,1,37,10.3448a.8092.8092,0,0,1-.4741-.1465A2.6269,2.6269,0,0,1,35.3448,8V5.0086l1.0862-.2931a.8372.8372,0,0,0,.638-.8362V8a.9188.9188,0,0,0,.4138.7672.851.851,0,0,1,.2327,1.19Z"/></svg>