<svg xmlns="http://www.w3.org/2000/svg" width="50" height="49.1471" viewBox="0 0 50 49.1471"><defs><style>.a{fill:#e48e66;}.b{fill:#f8ec7d;}.c{fill:#6fe3ff;}.d{fill:#cc7350;}.e{fill:#63316d;}</style></defs><title>Layer 1</title><polygon class="a" points="47.334 41.95 49.39 48.537 24.98 48.537 24.98 41.95 47.334 41.95"/><polygon class="b" points="33.49 28.889 43.257 28.889 47.334 41.95 24.98 41.95 24.98 48.537 0.61 48.537 7.311 28.889 18.601 28.889 25.142 37.635 31.741 28.813 31.843 28.889 33.49 28.889"/><path class="a" d="M18.6007,28.8891,14.3528,23.21a14.42,14.42,0,0,1-2.8964-9.4267A13.8674,13.8674,0,0,1,25.1424.61,13.8681,13.8681,0,0,1,38.8283,13.7835,14.2136,14.2136,0,0,1,35.9319,23.21l-4.191,5.6027L25.1424,37.635Zm16.377-14.2937A9.9776,9.9776,0,1,0,25,24.573h0A9.978,9.978,0,0,0,34.9777,14.5954Z"/><path class="c" d="M32.6037,13.4176l-3.0914,1.2876-3.2988,1.373a3.6861,3.6861,0,0,1-2.4634,0l-3.3953-1.4136L17.36,13.4176l7.6219-3.1738Z"/><path class="b" d="M25,4.6178a9.9776,9.9776,0,1,1-9.9776,9.9776h0A9.9781,9.9781,0,0,1,25,4.6178Zm4.5122,10.0874,3.0914-1.2876-7.6219-3.1738L17.36,13.4176l2.9949,1.247-.0122.0294v3.36h.3293c1.939,0,3.7886,2.5558,4.256,2.5558.4543,0,2.3161-2.5558,4.2012-2.5558h.3923V14.7276Z"/><path class="d" d="M29.5214,14.7276v3.3262h-.3923c-1.8851,0-3.7469,2.5558-4.2012,2.5558-.4674,0-2.317-2.5558-4.2561-2.5558h-.3292v-3.36l.0122-.0294L23.75,16.0782a3.6861,3.6861,0,0,0,2.4634,0l3.2988-1.373Z"/><path class="e" d="M32.8381,12.8547l-7.622-3.1738a.61.61,0,0,0-.4688,0l-7.6219,3.1738a.61.61,0,0,0,0,1.1258l2.6073,1.0856v2.9878a.61.61,0,0,0,.61.61h.3292c1.0642,0,2.217,1.0517,2.98,1.748.5714.5211.8861.8082,1.2763.8082.3868,0,.6817-.27,1.2692-.8091.7586-.6956,1.9048-1.7468,2.932-1.7468h.3923a.61.61,0,0,0,.61-.61V15.1075l.504-.21v1.6988a.61.61,0,0,0,1.22,0V14.39l.9835-.4095a.61.61,0,0,0,0-1.1258Zm-7.8563-1.95,6.0358,2.5134-5.0388,2.0976a3.0754,3.0754,0,0,1-1.9944,0l-3.3953-1.4136-1.643-.6841Zm3.93,6.5484c-1.4147.1111-2.6845,1.2755-3.5388,2.0588-.1477.1356-.3189.2925-.4471.4-.13-.1075-.3025-.2653-.4517-.4013a6.7576,6.7576,0,0,0-3.5213-2.0529V15.5738l2.5629,1.0671a4.3087,4.3087,0,0,0,2.9326,0l2.4639-1.0258Z"/><path class="e" d="M43.8391,28.7074a.61.61,0,0,0-.582-.4281H32.9015l3.5179-4.7032a14.7914,14.7914,0,0,0,3.017-9.8323A14.9837,14.9837,0,0,0,35.122,4.1474,14.08,14.08,0,0,0,15.21,4.1007l-.0468.0467a14.98,14.98,0,0,0-4.3143,9.5955,15.1055,15.1055,0,0,0,3.0165,9.8326l3.5184,4.7038H7.3111a.61.61,0,0,0-.5771.413L.0328,48.3405a.61.61,0,0,0,.5771.8066H49.39a.61.61,0,0,0,.5821-.7913Zm.7514,6.5h-9.472l-.9135-5.7083h8.6036ZM12.0649,13.8231a13.7611,13.7611,0,0,1,3.9623-8.8159,12.8609,12.8609,0,0,1,18.188-.0416l.0415.0416A13.7644,13.7644,0,0,1,38.22,13.8247a13.5725,13.5725,0,0,1-2.7762,9.02l-4.191,5.6026-6.1105,8.1693L14.8455,22.851A13.8815,13.8815,0,0,1,12.0649,13.8231ZM7.7474,29.4988H18.2951L24.6546,38a.61.61,0,0,0,.9766,0L31.99,29.4988h.98l1.0264,6.4144a.61.61,0,0,0,.6021.5135H44.9711L46.5049,41.34H24.98a.61.61,0,0,0-.61.61v5.9776h-7.07l.5573-9.8608a.61.61,0,0,0-.5743-.6432l-.0344-.001H5.045ZM4.629,38.6421H16.6039l-.5248,9.2855H1.4622ZM25.59,47.9276V42.56H46.8856l1.6756,5.3678Z"/><path class="e" d="M35.5874,14.5954A10.5874,10.5874,0,1,0,25,25.1828h0A10.6,10.6,0,0,0,35.5874,14.5954ZM25,23.9633a9.3679,9.3679,0,1,1,9.3678-9.3679h0A9.3785,9.3785,0,0,1,25,23.9633Z"/></svg>